<svg width="500" height="380" viewBox="0 0 500 380" fill="none" xmlns="http://www.w3.org/2000/svg">
  <path d="M398.811 325.999C390.112 334.824 382.34 340.012 376.378 343.918C318.29 382.101 251.893 371.09 231.365 367.331C198.24 361.264 170.284 356.98 146.262 335.618C91.6804 287.072 94.3319 185.793 136.047 123.063C140.995 115.629 182.649 54.8638 249.18 46.2947C250.805 46.0872 252.027 45.9652 253.09 45.8553C263.379 44.7811 327.173 39.1172 379.188 82.0237C386.629 88.1637 398.616 99.2352 409.723 116.129C450.35 177.907 450.485 273.571 398.811 325.999Z" fill="url(#paint0_linear)"/>
  <path d="M140.958 45.599C140.775 44.2318 142.473 43.4506 143.414 44.4637C152.945 54.7174 175.464 84.99 165.958 134.586C154.032 196.803 165.542 220.582 180.877 235.657C180.877 235.657 158.956 227.564 146.481 203.383C115.824 143.985 144.196 69.8781 140.958 45.599Z" fill="#91B3FA"/>
  <path d="M147.373 65.7161C148.167 72.7837 148.827 79.8758 149.23 86.9679C149.67 94.06 149.89 101.164 149.878 108.269C149.854 115.373 149.683 122.465 149.218 129.545C148.791 136.625 148.045 143.68 147.288 150.76C146.567 157.84 145.797 164.969 145.748 172.207C145.699 179.421 146.518 186.758 148.644 193.728C149.182 195.461 149.744 197.194 150.403 198.879C151.039 200.576 151.748 202.248 152.481 203.896C153.971 207.204 155.682 210.414 157.625 213.478C161.535 219.606 166.373 225.148 171.786 229.92C172.361 230.421 173.228 230.372 173.729 229.798C174.218 229.237 174.181 228.395 173.631 227.882C172.348 226.686 171.078 225.477 169.868 224.208C169.257 223.585 168.671 222.938 168.072 222.303C167.498 221.644 166.899 221.01 166.349 220.326C164.089 217.665 162.024 214.845 160.179 211.879C156.452 205.983 153.593 199.501 151.552 192.849C150.562 189.504 149.829 186.098 149.353 182.644C148.876 179.189 148.681 175.698 148.668 172.183C148.656 165.164 149.365 158.096 150.037 151.016C150.697 143.924 151.32 136.796 151.65 129.655C151.821 126.09 151.931 122.514 151.967 118.937C152.004 117.155 151.992 115.361 151.992 113.579C151.98 111.796 151.943 110.002 151.906 108.22C151.735 101.079 151.332 93.9501 150.709 86.8336C150.049 79.7294 149.206 72.6373 148.094 65.594C148.057 65.3987 147.874 65.2522 147.666 65.2888C147.495 65.3499 147.349 65.5208 147.373 65.7161Z" fill="white"/>
  <path d="M156.099 210.011C155.353 212.44 152.372 213.319 150.405 211.72C139.555 202.845 111.146 175.002 111.305 126.639C111.439 85.8076 107.639 63.6525 105.208 53.704C104.694 51.6045 107.163 50.0664 108.824 51.458C127.165 66.753 182.968 122.025 156.099 210.011Z" fill="#BDD0FB"/>
  <path d="M152.665 210.206C152.616 210.242 152.555 210.279 152.506 210.303C152.017 210.535 151.418 210.328 151.186 209.84C150.917 209.278 124.464 153.164 122.081 96.3784C122.057 95.8291 122.484 95.3653 123.034 95.3408C123.584 95.3164 124.048 95.7437 124.073 96.293C126.431 152.663 152.726 208.424 152.982 208.985C153.178 209.412 153.031 209.925 152.665 210.206Z" fill="white"/>
  <path d="M155.462 73.5H373.176C379.115 73.5 383.892 81.1536 383.782 90.4795L380.715 355.865C380.569 368.353 374.032 378.313 360.652 378.155H159.128C151.406 378.008 144.991 370.953 144.747 362.042C144.734 361.785 144.734 361.541 144.734 361.285L144.832 90.1499C144.857 80.9583 149.61 73.5 155.462 73.5Z" fill="#8C9DF4"/>
  <path d="M159.055 81.6172H368.106C373.812 81.6172 378.394 88.8924 378.296 97.7422L375.352 349.896C375.217 361.761 368.937 371.233 361.3 371.074H158.823C153.239 370.965 148.755 363.897 148.755 355.218L148.865 97.4493C148.865 88.7093 153.422 81.6172 159.055 81.6172Z" fill="#91B3FA"/>
  <path d="M377.062 120.63H146.078V84.1686C146.078 82.4231 147.496 81.0071 149.243 81.0071H374.068C375.718 81.0071 377.049 82.3376 377.049 83.9855V120.63H377.062Z" fill="#3949AB"/>
  <path opacity="0.37" d="M374.58 144.323H167.68C166.311 144.323 165.199 143.03 165.199 141.443V133.74C165.199 132.141 166.323 130.847 167.704 130.859L374.592 132.971C375.961 132.983 377.06 134.265 377.06 135.852V141.43C377.06 143.03 375.949 144.323 374.58 144.323Z" fill="white"/>
  <path opacity="0.37" d="M365.21 360.895H157.564C156.183 360.895 155.071 359.601 155.071 358.014V350.324C155.071 348.724 156.208 347.431 157.588 347.443H365.246C366.615 347.455 367.714 348.737 367.714 350.324V358.014C367.714 359.613 366.59 360.895 365.21 360.895Z" fill="white"/>
  <path opacity="0.37" d="M365.284 343.701H157.626C156.246 343.701 155.134 342.407 155.134 340.82V333.118C155.134 331.519 156.27 330.225 157.651 330.237H365.309C366.677 330.249 367.777 331.531 367.777 333.118V340.808C367.777 342.419 366.665 343.701 365.284 343.701Z" fill="white"/>
  <path d="M219.549 102.564C215.664 102.564 212.499 99.4025 212.499 95.5208C212.499 91.6391 215.664 88.4775 219.549 88.4775C223.435 88.4775 226.599 91.6391 226.599 95.5208C226.599 99.4025 223.435 102.564 219.549 102.564ZM219.549 89.2832C216.104 89.2832 213.305 92.0785 213.305 95.5208C213.305 98.9631 216.104 101.758 219.549 101.758C222.995 101.758 225.793 98.9631 225.793 95.5208C225.781 92.0785 222.983 89.2832 219.549 89.2832Z" fill="white"/>
  <path d="M196.554 103.101C192.669 103.101 189.504 99.9396 189.504 96.0579C189.504 92.1762 192.669 89.0146 196.554 89.0146C200.44 89.0146 203.604 92.1762 203.604 96.0579C203.604 99.9396 200.44 103.101 196.554 103.101ZM196.554 89.8203C193.108 89.8203 190.31 92.6156 190.31 96.0579C190.31 99.5002 193.108 102.296 196.554 102.296C200 102.296 202.798 99.5002 202.798 96.0579C202.786 92.6156 199.988 89.8203 196.554 89.8203Z" fill="white"/>
  <path d="M174.45 103.101C170.564 103.101 167.399 99.9396 167.399 96.0579C167.399 92.1762 170.564 89.0146 174.45 89.0146C178.335 89.0146 181.5 92.1762 181.5 96.0579C181.5 99.9396 178.335 103.101 174.45 103.101ZM174.45 89.8203C171.004 89.8203 168.206 92.6156 168.206 96.0579C168.206 99.5002 171.004 102.296 174.45 102.296C177.895 102.296 180.693 99.5002 180.693 96.0579C180.693 92.6156 177.895 89.8203 174.45 89.8203Z" fill="white"/>
  <path opacity="0.65" d="M307.292 202.854H214.417C212.792 202.854 211.473 201.536 211.473 199.913V160.314C211.473 158.691 212.792 157.372 214.417 157.372H307.292C308.917 157.372 310.237 158.691 310.237 160.314V199.913C310.237 201.536 308.917 202.854 307.292 202.854Z" fill="white"/>
  <path fill-rule="evenodd" clip-rule="evenodd" d="M253.39 168.908C251.812 168.908 250.533 170.186 250.533 171.763C250.533 173.34 251.812 174.618 253.39 174.618H256.247V171.763C256.247 170.186 254.968 168.908 253.39 168.908ZM258.487 174.618V171.763C258.487 168.949 256.205 166.669 253.39 166.669C250.575 166.669 248.293 168.949 248.293 171.763C248.293 174.577 250.575 176.857 253.39 176.857H256.247V182.567H253.39C250.575 182.567 248.293 184.847 248.293 187.661C248.293 190.475 250.575 192.755 253.39 192.755C256.205 192.755 258.487 190.475 258.487 187.661V184.806H264.201V187.661C264.201 190.475 266.483 192.755 269.298 192.755C272.113 192.755 274.395 190.475 274.395 187.661C274.395 184.847 272.113 182.567 269.298 182.567H266.441V176.857H269.298C272.113 176.857 274.395 174.577 274.395 171.763C274.395 168.949 272.113 166.669 269.298 166.669C266.483 166.669 264.201 168.949 264.201 171.763V174.618H258.487ZM258.487 176.857V182.567H264.201V176.857H258.487ZM266.441 174.618H269.298C270.876 174.618 272.155 173.34 272.155 171.763C272.155 170.186 270.876 168.908 269.298 168.908C267.72 168.908 266.441 170.186 266.441 171.763V174.618ZM266.441 184.806V187.661C266.441 189.238 267.72 190.516 269.298 190.516C270.876 190.516 272.155 189.238 272.155 187.661C272.155 186.084 270.876 184.806 269.298 184.806H266.441ZM256.247 184.806H253.39C251.812 184.806 250.533 186.084 250.533 187.661C250.533 189.238 251.812 190.516 253.39 190.516C254.968 190.516 256.247 189.238 256.247 187.661V184.806Z" fill="#2A4E96"/>
  <path opacity="0.65" d="M218.572 262.874H160.863C159.983 262.874 159.274 262.167 159.274 261.288V236.423C159.274 235.544 159.983 234.836 160.863 234.836H218.56C219.44 234.836 220.148 235.544 220.148 236.423V261.288C220.148 262.167 219.44 262.874 218.572 262.874Z" fill="white"/>
  <path opacity="0.65" d="M290.039 262.228H232.342C231.463 262.228 230.754 261.52 230.754 260.641V235.776C230.754 234.897 231.463 234.189 232.342 234.189H290.039C290.919 234.189 291.628 234.897 291.628 235.776V260.641C291.628 261.52 290.907 262.228 290.039 262.228Z" fill="white"/>
  <path fill-rule="evenodd" clip-rule="evenodd" d="M255.662 240.138C254.535 240.138 253.622 241.051 253.622 242.178C253.622 243.304 254.535 244.217 255.662 244.217H257.703V242.178C257.703 241.051 256.789 240.138 255.662 240.138ZM259.303 244.217V242.178C259.303 240.168 257.673 238.539 255.662 238.539C253.651 238.539 252.021 240.168 252.021 242.178C252.021 244.187 253.651 245.816 255.662 245.816H257.703V249.895H255.662C253.651 249.895 252.021 251.524 252.021 253.533C252.021 255.543 253.651 257.172 255.662 257.172C257.673 257.172 259.303 255.543 259.303 253.533V251.494H263.384V253.533C263.384 255.543 265.014 257.172 267.025 257.172C269.036 257.172 270.666 255.543 270.666 253.533C270.666 251.524 269.036 249.895 267.025 249.895H264.984V245.816H267.025C269.036 245.816 270.666 244.187 270.666 242.178C270.666 240.168 269.036 238.539 267.025 238.539C265.014 238.539 263.384 240.168 263.384 242.178V244.217H259.303ZM259.303 245.816V249.895H263.384V245.816H259.303ZM264.984 244.217H267.025C268.152 244.217 269.065 243.304 269.065 242.178C269.065 241.051 268.152 240.138 267.025 240.138C265.898 240.138 264.984 241.051 264.984 242.178V244.217ZM264.984 251.494V253.533C264.984 254.66 265.898 255.573 267.025 255.573C268.152 255.573 269.065 254.66 269.065 253.533C269.065 252.407 268.152 251.494 267.025 251.494H264.984ZM257.703 251.494H255.662C254.535 251.494 253.622 252.407 253.622 253.533C253.622 254.66 254.535 255.573 255.662 255.573C256.789 255.573 257.703 254.66 257.703 253.533V251.494Z" fill="#2A4E96"/>
  <path opacity="0.65" d="M359.979 262.228H302.282C301.402 262.228 300.693 261.52 300.693 260.641V235.776C300.693 234.897 301.402 234.189 302.282 234.189H359.979C360.859 234.189 361.567 234.897 361.567 235.776V260.641C361.567 261.52 360.859 262.228 359.979 262.228Z" fill="white"/>
  <path opacity="0.65" d="M219.023 322.059H161.326C160.446 322.059 159.737 321.351 159.737 320.472V295.607C159.737 294.728 160.446 294.02 161.326 294.02H219.023C219.903 294.02 220.611 294.728 220.611 295.607V320.472C220.611 321.351 219.903 322.059 219.023 322.059Z" fill="white"/>
  <path opacity="0.65" d="M290.491 321.412H232.794C231.914 321.412 231.205 320.704 231.205 319.825V294.96C231.205 294.081 231.914 293.373 232.794 293.373H290.491C291.37 293.373 292.079 294.081 292.079 294.96V319.825C292.079 320.704 291.37 321.412 290.491 321.412Z" fill="white"/>
  <path opacity="0.65" d="M360.443 321.412H302.746C301.866 321.412 301.157 320.704 301.157 319.825V294.96C301.157 294.081 301.866 293.373 302.746 293.373H360.443C361.322 293.373 362.031 294.081 362.031 294.96V319.825C362.031 320.704 361.322 321.412 360.443 321.412Z" fill="white"/>
  <path d="M213.667 313.473H167.322V309.714H213.667V313.473ZM167.759 313.025H213.218V310.15H167.759V313.025Z" fill="#C0D4FF"/>
  <path d="M203.521 309.938H167.547V313.249H203.521V309.938Z" fill="#2A4E96"/>
  <path d="M285.05 313.473H238.705V309.715H285.05V313.473ZM239.141 313.025H284.601V310.15H239.141V313.025Z" fill="#C0D4FF"/>
  <path d="M274.904 309.938H238.931V313.248H274.904V309.938Z" fill="#2A4E96"/>
  <path d="M356.429 313.473H310.085V309.714H356.429V313.473ZM310.521 313.025H355.981V310.15H310.521V313.025Z" fill="#C0D4FF"/>
  <path d="M346.282 309.938H310.309V313.249H346.282V309.938Z" fill="#2A4E96"/>
  <path d="M213.667 306.005H167.322V302.259H213.667V306.005ZM167.759 305.57H213.218V302.695H167.759V305.57Z" fill="#C0D4FF"/>
  <path d="M191.417 302.259H167.322V306.005H191.417V302.259Z" fill="#F99746"/>
  <path d="M285.05 306.006H238.705V302.26H285.05V306.006ZM239.141 305.57H284.601V302.695H239.141V305.57Z" fill="#C0D4FF"/>
  <path d="M262.8 302.26H238.705V306.006H262.8V302.26Z" fill="#F99746"/>
  <path d="M356.429 305.637H310.085V301.891H356.429V305.637ZM310.521 305.202H355.981V302.327H310.521V305.202Z" fill="#C0D4FF"/>
  <path d="M334.18 301.891H310.085V305.637H334.18V301.891Z" fill="#F99746"/>
  <path d="M181.174 248.425C181.174 253.215 185.057 257.092 189.854 257.092C194.651 257.092 198.534 253.215 198.534 248.425C198.534 243.636 194.651 239.759 189.854 239.759C189.31 239.759 188.776 239.81 188.262 239.902C189.34 243.841 190.779 249.061 190.881 249.389C190.707 249.113 185.427 246.743 181.821 245.154C181.4 246.159 181.174 247.266 181.174 248.425Z" fill="#2A4E96"/>
  <path d="M181.328 244.21C184.513 245.615 189.782 247.954 189.957 248.22C189.865 247.913 188.406 242.62 187.43 239.072C184.718 239.81 182.499 241.718 181.328 244.21Z" fill="#F78248"/>
  <path d="M322.87 248.425C322.87 253.215 326.753 257.092 331.55 257.092C336.348 257.092 340.23 253.215 340.23 248.425C340.23 243.636 336.348 239.759 331.55 239.759C331.006 239.759 330.472 239.81 329.958 239.902C331.037 243.841 332.475 249.061 332.578 249.389C332.403 249.113 327.123 246.743 323.517 245.154C323.096 246.159 322.87 247.266 322.87 248.425Z" fill="#2A4E96"/>
  <path d="M323.025 244.21C326.209 245.615 331.479 247.954 331.653 248.22C331.561 247.913 330.102 242.62 329.126 239.072C326.414 239.81 324.196 241.718 323.025 244.21Z" fill="#F78248"/>
  <path opacity="0.51" d="M190.776 227.671H188.503V221.775C188.503 218.601 191.191 216.026 194.49 216.038L243.842 216.172C245.846 216.172 247.483 214.597 247.483 212.644V204.673L249.707 204.686V212.656C249.707 215.794 247.08 218.345 243.842 218.333L194.49 218.223C192.45 218.223 190.776 219.822 190.776 221.787V227.671Z" fill="white"/>
  <path opacity="0.51" d="M331.694 227.732H329.544V221.995C329.544 220.078 327.967 218.516 326.012 218.504L278.188 218.394C274.999 218.381 272.396 215.842 272.396 212.718V204.783L274.596 204.795V212.73C274.596 214.671 276.209 216.245 278.188 216.257L326.012 216.38C329.14 216.392 331.694 218.906 331.694 221.995V227.732V227.732Z" fill="white"/>
  <path opacity="0.51" d="M262.841 287.671L260.629 287.696V264.723L262.841 264.71V287.671Z" fill="white"/>
  <path opacity="0.51" d="M191.447 288.488L189.174 288.513V282.617C189.174 279.443 191.862 276.843 195.161 276.806L244.513 276.355C246.517 276.33 248.154 274.731 248.154 272.79V264.819L250.378 264.807V272.778C250.378 275.915 247.751 278.491 244.513 278.527L195.161 279.004C193.12 279.028 191.447 280.639 191.447 282.604V288.488Z" fill="white"/>
  <path opacity="0.51" d="M332.378 286.865L330.227 286.89V281.153C330.227 279.236 328.651 277.686 326.696 277.71L278.872 278.174C275.683 278.211 273.08 275.684 273.08 272.571V264.637L275.279 264.625V272.559C275.279 274.5 276.892 276.062 278.872 276.038L326.696 275.599C329.824 275.574 332.378 278.064 332.378 281.153V286.865Z" fill="white"/>
  <path d="M427.11 205.01L303.456 208.038C298.446 208.16 294.158 204.449 293.571 199.481L283.759 117.074C283.087 111.458 287.34 106.466 292.985 106.222L424.373 100.509C429.81 100.277 434.38 104.537 434.515 109.969L436.604 195.074C436.714 200.433 432.474 204.888 427.11 205.01Z" fill="url(#paint1_linear)"/>
  <path opacity="0.19" d="M422.087 200.677L307.89 203.472C303.259 203.582 299.313 200.238 298.763 195.745L289.745 121.358C289.134 116.292 293.057 111.788 298.274 111.556L419.607 106.331C424.628 106.112 428.844 109.969 428.966 114.864L430.848 191.681C430.97 196.539 427.048 200.555 422.087 200.677Z" fill="white"/>
  <path d="M284.736 123.555L434.929 116.829L434.758 110.188C434.624 104.756 430.054 100.386 424.617 100.618L293.228 106.282C287.583 106.526 283.343 111.702 284.003 117.317L284.736 123.555Z" fill="url(#paint2_linear)"/>
  <path opacity="0.82" d="M416.003 177.021L312.876 181.647C309.37 181.806 306.327 178.925 305.924 175.056L302.71 144.27C302.271 140.035 305.154 136.287 309.003 136.116L413.95 131.417C417.628 131.258 420.756 134.419 420.939 138.496L422.32 169.367C422.515 173.42 419.681 176.862 416.003 177.021Z" fill="white"/>
  <path opacity="0.82" d="M420.939 187.225L306.217 192.364C305.802 192.388 305.459 192.059 305.435 191.656L305.264 187.713C305.24 187.298 305.569 186.956 305.973 186.932L420.695 181.793C421.11 181.769 421.452 182.098 421.477 182.501L421.648 186.444C421.672 186.859 421.354 187.213 420.939 187.225Z" fill="white"/>
  <path opacity="0.82" d="M388.485 129.243L303.552 133.052C303.137 133.076 302.794 132.746 302.77 132.344L302.599 128.401C302.574 127.986 302.904 127.644 303.308 127.62L388.24 123.811C388.656 123.787 388.998 124.116 389.022 124.519L389.193 128.462C389.218 128.877 388.9 129.231 388.485 129.243Z" fill="white"/>
  <path opacity="0.82" d="M421.366 196.698L306.644 201.837C306.228 201.861 305.886 201.532 305.862 201.129L305.691 197.186C305.666 196.771 305.996 196.429 306.399 196.405L421.121 191.266C421.537 191.241 421.879 191.571 421.903 191.974L422.074 195.916C422.099 196.331 421.781 196.685 421.366 196.698Z" fill="white"/>
  <path opacity="0.37" d="M298.083 117.188C299.108 116.068 299.03 114.331 297.909 113.308C296.788 112.284 295.049 112.362 294.025 113.482C293 114.601 293.078 116.339 294.199 117.362C295.32 118.386 297.059 118.308 298.083 117.188Z" fill="white"/>
  <path opacity="0.37" d="M306.783 116.799C307.808 115.679 307.73 113.942 306.609 112.919C305.488 111.895 303.749 111.973 302.725 113.093C301.701 114.212 301.779 115.95 302.899 116.973C304.02 117.996 305.759 117.918 306.783 116.799Z" fill="white"/>
  <path opacity="0.37" d="M316.747 116.342C317.772 115.223 317.694 113.485 316.573 112.462C315.452 111.439 313.713 111.517 312.689 112.636C311.664 113.756 311.742 115.493 312.863 116.516C313.984 117.54 315.723 117.462 316.747 116.342Z" fill="white"/>
  <path d="M356.31 174.306L320.443 175.912L319.923 164.516L355.79 162.91L356.31 174.306ZM320.858 175.458L355.855 173.891L355.375 163.365L320.378 164.932L320.858 175.458Z" fill="#C0D4FF"/>
  <path d="M336.55 166.848L322.671 167.472L322.713 168.388L336.591 167.764L336.55 166.848Z" fill="#C0D4FF"/>
  <path d="M347.862 166.338L338.008 166.78L338.049 167.695L347.904 167.253L347.862 166.338Z" fill="#C0D4FF"/>
  <path d="M330.443 169.692L322.786 170.036L322.828 170.95L330.485 170.607L330.443 169.692Z" fill="#C0D4FF"/>
  <path d="M341.583 169.19L331.729 169.632L331.77 170.547L341.624 170.105L341.583 169.19Z" fill="#C0D4FF"/>
  <path d="M352.459 168.698L342.604 169.14L342.646 170.055L352.5 169.613L352.459 168.698Z" fill="#C0D4FF"/>
  <path d="M401.273 172.276L363.211 173.98L362.691 162.584L400.753 160.879L401.273 172.276ZM363.676 173.524L400.815 171.861L400.334 161.334L363.196 162.997L363.676 173.524Z" fill="#C0D4FF"/>
  <path d="M379.317 164.917L365.438 165.54L365.48 166.456L379.359 165.832L379.317 164.917Z" fill="#C0D4FF"/>
  <path d="M390.627 164.406L380.772 164.848L380.814 165.763L390.668 165.321L390.627 164.406Z" fill="#C0D4FF"/>
  <path d="M373.209 167.761L365.552 168.104L365.593 169.019L373.251 168.675L373.209 167.761Z" fill="#C0D4FF"/>
  <path d="M384.348 167.258L374.494 167.7L374.536 168.615L384.39 168.173L384.348 167.258Z" fill="#C0D4FF"/>
  <path d="M395.224 166.766L385.37 167.209L385.412 168.124L395.266 167.681L395.224 166.766Z" fill="#C0D4FF"/>
  <path d="M400.598 156.385L319.719 160.013L319.419 153.427L400.298 149.799L400.598 156.385ZM320.445 159.193L399.779 155.635L399.55 150.598L320.215 154.156L320.445 159.193Z" fill="#C0D4FF"/>
  <path d="M382.607 150.989L319.827 153.808L320.091 159.603L382.871 156.784L382.607 150.989Z" fill="#C0D4FF"/>
  <path d="M400.009 143.353L319.13 146.98L318.831 140.416L399.71 136.788L400.009 143.353ZM319.857 146.183L399.191 142.624L398.962 137.587L319.627 141.145L319.857 146.183Z" fill="#C0D4FF"/>
  <path d="M360.879 138.543L318.831 140.429L319.129 146.98L361.178 145.094L360.879 138.543Z" fill="#F99746"/>
  <path d="M364.499 213.499C364.499 213.499 364.002 209.143 362.939 207.472C361.877 205.802 357.875 204.741 357.626 204.989C356.835 205.757 359.932 208.42 360.068 209.413C360.181 210.407 358.485 209.707 359.299 211.648C359.978 213.274 362.238 215.373 362.238 215.373L364.499 213.499Z" fill="#FFB27D"/>
  <path d="M362.578 213.025C364.047 211.874 364.341 211.896 364.341 211.896C364.341 211.896 377.838 223.567 379.15 224.605C380.461 225.644 400.718 231.513 400.718 231.513L403.929 247.946C403.929 247.946 376.527 234.718 373.249 232.032C367.845 227.585 361.018 215.102 361.018 215.102C361.018 215.102 361.425 213.905 362.578 213.025Z" fill="#DD6C3A"/>
  <path d="M401.149 371.04C401.149 371.04 400.923 376.661 399.837 378.015L384.803 378.105C384.916 377.519 384.961 376.187 387.041 375.826C389.664 375.374 392.761 373.546 394.344 370.069C396.017 366.412 401.149 371.04 401.149 371.04Z" fill="#163560"/>
  <path d="M430.651 370.227C430.651 370.227 431.691 377.699 430.266 377.812C430.085 377.834 424.207 377.924 421.675 377.97C418.691 378.015 413.785 377.924 413.785 377.924C413.174 377.947 412.767 377.292 413.084 376.751C413.423 376.164 414.078 375.554 415.345 375.306C417.967 374.809 422.331 372.891 423.845 369.392C425.451 365.712 430.651 370.227 430.651 370.227Z" fill="#163560"/>
  <path d="M393.325 293.725C393.325 293.725 397.508 308.33 409.49 333.703C421.473 359.076 421.993 371.288 421.993 371.288C421.993 371.288 423.802 371.92 426.221 371.672C428.821 371.401 430.652 370.227 430.652 370.227C430.652 370.227 429.883 340.046 424.208 327.247C418.556 314.448 417.403 279.414 417.403 279.414L393.325 293.725Z" fill="#233862"/>
  <path d="M386.61 281.152C386.61 281.152 386.271 303.77 390.205 331.536C394.116 359.301 392.285 372.213 392.285 372.213C392.285 372.213 393.325 372.958 396.512 372.958C400.243 372.935 402.165 371.4 402.165 371.4C402.165 371.4 407.772 343.612 406.166 329.73C404.561 315.825 413.853 282.032 413.853 282.032L386.61 281.152Z" fill="#2A4E96"/>
  <path d="M405.15 228.239L400.718 231.513L394.32 230.158C394.411 229.571 394.84 227.156 395.225 224.966C395.247 224.831 395.27 224.718 395.292 224.583C395.632 222.732 395.903 221.129 395.903 221.129L401.872 218.149L404.11 217.043C404.11 217.088 403.929 219.097 403.906 219.413C403.477 224.65 405.15 228.239 405.15 228.239Z" fill="#FFB27D"/>
  <path d="M417.832 283.951C416.385 290.565 385.411 287.653 385.818 283.635C385.841 283.499 385.909 281.626 386.022 279.12C386.248 273.68 386.61 265.17 386.655 264.493C386.655 264.47 386.655 264.47 386.655 264.447C387.22 258.827 387.74 253.341 387.785 249.752C387.808 246.637 388.238 243.454 388.825 240.565C389.345 237.901 390.001 235.486 390.566 233.589C390.973 232.258 391.697 231.084 392.669 230.181C393.37 229.526 394.184 229.007 395.088 228.646C395.337 228.533 395.585 228.465 395.834 228.375C399.474 227.314 404.516 226.005 405.895 226.411C409.603 227.495 412.338 234.018 414.305 242.303C417.922 257.833 418.759 279.639 417.832 283.951Z" fill="#F78248"/>
  <path d="M403.454 219.504C402.143 222.009 397.26 224.176 395.202 224.966C395.225 224.831 395.247 224.718 395.27 224.583C395.609 222.732 395.88 221.129 395.88 221.129L401.849 218.149C403.183 218.127 403.997 218.465 403.454 219.504Z" fill="#FCA56B"/>
  <path d="M392.987 220.79C392.987 220.79 403.771 224.154 405.761 217.404C407.75 210.677 410.486 206.569 403.681 204.131C396.876 201.693 394.773 203.883 393.575 205.96C392.354 208.059 390.229 219.729 392.987 220.79Z" fill="#FFB27D"/>
  <path d="M394.004 205.327C394.004 205.327 394.682 213.16 396.31 212.822C397.938 212.483 399.408 212.235 399.159 214.583C398.91 216.953 396.672 219.684 401.668 220.09C406.665 220.519 413.854 207.63 412.498 205.192C408.541 198.149 388.261 196.727 394.004 205.327Z" fill="#163560"/>
  <path d="M386 279.098C386.226 273.657 386.588 265.147 386.633 264.47C386.633 264.447 386.633 264.447 386.633 264.425L404.946 253.499C404.946 253.522 405.669 279.03 386 279.098Z" fill="#DD6C3A"/>
  <path d="M371.463 256.231C371.463 256.231 367.733 253.725 367.032 253.5C366.331 253.274 364.003 253.048 363.912 253.229C363.799 253.409 363.483 253.974 363.89 254.154C364.297 254.335 364.794 254.267 364.636 254.403C364.477 254.538 362.963 253.816 362.624 254.583C362.262 255.351 361.968 258.014 363.754 258.804C365.54 259.617 369.949 258.872 370.265 258.985C372.956 259.775 371.463 256.231 371.463 256.231Z" fill="#FFB27D"/>
  <path d="M371.417 255.553C371.417 255.553 389.572 258.646 391.177 257.856C393.755 256.614 390.182 238.217 390.182 238.217C390.182 238.217 390.024 234.041 394.908 233.07C399.135 232.212 403.228 235.395 403.228 235.395C403.228 235.395 406.935 238.713 406.461 242.393C405.398 250.565 403.77 267.179 398.299 269.707C391.245 272.98 370.83 260.61 370.83 260.61C370.83 260.61 370.151 259.775 370.242 258.24C370.355 256.863 371.417 255.553 371.417 255.553Z" fill="#F78248"/>
  <path d="M359.23 211.422C359.23 211.422 358.077 209.12 357.874 208.691C357.693 208.262 358.145 208.352 358.597 208.6C359.049 208.849 359.66 210.181 360.338 210.023C360.881 209.865 359.23 211.422 359.23 211.422Z" fill="#FFB27D"/>
  <path d="M409.425 81.2312H471.058C475.934 81.2312 479.903 77.2659 479.903 72.3943V8.83687C479.903 3.96526 475.934 0 471.058 0H409.425C404.549 0 400.58 3.96526 400.58 8.83687V72.3943C400.58 77.2659 404.549 81.2312 409.425 81.2312Z" fill="#D5DFFC"/>
  <path d="M416.286 37.9818C416.286 51.2087 427.002 61.9149 440.242 61.9149C453.481 61.9149 464.197 51.2087 464.197 37.9818C464.197 24.7548 453.481 14.0486 440.242 14.0486C438.739 14.0486 437.265 14.1902 435.847 14.4451C438.824 25.3213 442.793 39.7378 443.077 40.6442C442.595 39.8794 428.023 33.3368 418.072 28.9466C416.91 31.7223 416.286 34.7812 416.286 37.9818Z" fill="#2A4E96"/>
  <path d="M416.71 26.3411C425.499 30.2214 440.042 36.6791 440.524 37.4155C440.269 36.5658 436.244 21.951 433.55 12.1511C426.066 14.1904 419.942 19.4585 416.71 26.3411Z" fill="#F78248"/>
  <path d="M122.915 290.015L122.915 290.027C122.937 294.643 119.158 298.431 114.517 298.431H32.0597C27.4503 298.431 23.6619 294.642 23.6619 290.043V215.72C23.6619 211.121 27.4504 207.333 32.0597 207.333H114.517C119.127 207.333 122.915 211.121 122.915 215.72L122.915 290.015Z" fill="#D5DFFC" stroke="white" stroke-width="5.32371"/>
  <path d="M113.596 285.152H32.665V259.428H113.596V285.152ZM33.6731 284.174H112.617V260.435H33.6731V284.174Z" fill="#8C9DF4"/>
  <path d="M69.8459 266.333H38.5391V268.376H69.8459V266.333Z" fill="#8C9DF4"/>
  <path d="M95.3346 266.333H73.1289V268.376H95.3346V266.333Z" fill="#8C9DF4"/>
  <path d="M55.8188 272.146H38.5381V274.188H55.8188V272.146Z" fill="#8C9DF4"/>
  <path d="M80.9332 272.146H58.7275V274.188H80.9332V272.146Z" fill="#8C9DF4"/>
  <path d="M105.443 272.146H83.2373V274.188H105.443V272.146Z" fill="#8C9DF4"/>
  <path d="M41.5941 239.833H33.1553V251.544H41.5941V239.833Z" fill="#2A4E96"/>
  <path d="M56.0814 232.063H47.6426V251.572H56.0814V232.063Z" fill="#2A4E96"/>
  <path d="M70.5384 225.705H62.0996V251.572H70.5384V225.705Z" fill="#F78248"/>
  <path d="M84.9983 230.855H76.5596V251.544H84.9983V230.855Z" fill="#2A4E96"/>
  <path d="M99.4554 219.863H91.0166V251.572H99.4554V219.863Z" fill="#2A4E96"/>
  <path d="M113.914 214.195H105.476V251.573H113.914V214.195Z" fill="#F78248"/>
  <defs>
    <linearGradient id="paint0_linear" x1="468.007" y1="426.553" x2="234.579" y2="177.819" gradientUnits="userSpaceOnUse">
      <stop stop-color="#DAE3FE"/>
      <stop offset="1" stop-color="#E9EFFD"/>
    </linearGradient>
    <linearGradient id="paint1_linear" x1="428.299" y1="89.1626" x2="105.014" y2="404.951" gradientUnits="userSpaceOnUse">
      <stop stop-color="#FF928E"/>
      <stop offset="1" stop-color="#FE7062"/>
    </linearGradient>
    <linearGradient id="paint2_linear" x1="392.746" y1="57.9963" x2="334.798" y2="157.601" gradientUnits="userSpaceOnUse">
      <stop stop-color="#FF928E"/>
      <stop offset="1" stop-color="#FE7062"/>
    </linearGradient>
  </defs>
</svg>
