<svg width="1200" height="1000" viewBox="0 0 1200 1000" fill="none" xmlns="http://www.w3.org/2000/svg">
<g clip-path="url(#clip0)">
<path d="M863.558 714.704C847.227 731.282 832.638 741.026 821.445 748.364C712.399 820.086 587.756 799.404 549.221 792.341C487.037 780.946 434.556 772.898 389.461 732.772C286.998 641.584 291.976 451.342 370.285 333.51C379.574 319.547 457.769 205.407 582.664 189.31C585.715 188.921 588.009 188.691 590.004 188.485C609.318 186.467 729.075 175.828 826.721 256.423C840.69 267.957 863.191 288.753 884.042 320.487C960.309 436.53 960.562 616.224 863.558 714.704Z" fill="url(#paint0_linear)"/>
<path d="M379.506 188.003C379.161 185.435 382.35 183.968 384.116 185.871C402.007 205.131 444.281 261.995 426.436 355.155C404.049 472.024 425.656 516.69 454.443 545.007C454.443 545.007 413.293 529.805 389.873 484.383C332.323 372.811 385.584 233.609 379.506 188.003Z" fill="#91B3FA"/>
<path d="M391.548 225.791C393.039 239.066 394.277 252.388 395.034 265.71C395.86 279.032 396.273 292.376 396.25 305.721C396.204 319.066 395.883 332.387 395.011 345.686C394.208 358.985 392.809 372.238 391.387 385.537C390.034 398.835 388.589 412.226 388.497 425.823C388.405 439.374 389.942 453.154 393.933 466.246C394.942 469.502 395.998 472.758 397.236 475.922C398.429 479.109 399.759 482.251 401.136 485.346C403.934 491.56 407.145 497.59 410.792 503.345C418.132 514.856 427.216 525.265 437.377 534.231C438.455 535.171 440.084 535.079 441.024 534.001C441.942 532.947 441.873 531.365 440.841 530.402C438.432 528.154 436.047 525.885 433.776 523.5C432.629 522.331 431.528 521.115 430.404 519.923C429.326 518.685 428.202 517.493 427.17 516.208C422.926 511.21 419.05 505.913 415.586 500.342C408.59 489.267 403.223 477.092 399.392 464.595C397.534 458.313 396.158 451.916 395.264 445.427C394.369 438.938 394.002 432.38 393.979 425.777C393.956 412.593 395.287 399.317 396.548 386.018C397.787 372.696 398.957 359.306 399.576 345.892C399.897 339.197 400.103 332.479 400.172 325.761C400.241 322.413 400.218 319.043 400.218 315.695C400.195 312.347 400.126 308.977 400.058 305.629C399.736 292.216 398.98 278.825 397.81 265.458C396.571 252.113 394.988 238.791 392.901 225.561C392.832 225.194 392.488 224.919 392.098 224.988C391.777 225.103 391.502 225.424 391.548 225.791Z" fill="white"/>
<path d="M407.925 496.833C406.526 501.396 400.929 503.047 397.236 500.043C376.868 483.374 323.538 431.073 323.836 340.229C324.088 263.531 316.955 221.915 312.39 203.228C311.427 199.284 316.06 196.395 319.18 199.009C353.609 227.739 458.365 331.561 407.925 496.833Z" fill="#BDD0FB"/>
<path d="M401.48 497.2C401.388 497.268 401.274 497.337 401.182 497.383C400.264 497.819 399.141 497.429 398.705 496.512C398.2 495.457 348.54 390.053 344.067 283.387C344.021 282.356 344.824 281.484 345.856 281.438C346.889 281.393 347.76 282.195 347.806 283.227C352.233 389.113 401.595 493.852 402.077 494.907C402.444 495.709 402.168 496.672 401.48 497.2Z" fill="white"/>
<path d="M406.733 240.992H815.436C826.583 240.992 835.552 255.369 835.345 272.886L829.588 771.384C829.313 794.841 817.041 813.551 791.925 813.253L413.614 805.778C399.118 805.503 387.075 792.25 386.617 775.511C386.594 775.03 386.594 774.571 386.594 774.09L386.777 272.267C386.823 255.002 395.746 240.992 406.733 240.992Z" fill="#8C9DF4"/>
<path d="M413.476 256.24H805.916C816.628 256.24 825.229 269.905 825.046 286.529L819.518 760.172C819.266 782.459 807.476 800.252 793.14 799.954L413.04 792.525C402.558 792.318 394.14 779.042 394.14 762.74L394.346 285.979C394.346 269.561 402.902 256.24 413.476 256.24Z" fill="#91B3FA"/>
<path d="M822.729 329.521H389.116V261.032C389.116 257.753 391.777 255.093 395.057 255.093H817.109C820.206 255.093 822.706 257.593 822.706 260.688V329.521H822.729Z" fill="#3949AB"/>
<path opacity="0.37" d="M818.073 374.026H429.67C427.101 374.026 425.014 371.596 425.014 368.615V354.147C425.014 351.143 427.124 348.713 429.716 348.736L818.096 352.702C820.665 352.725 822.729 355.133 822.729 358.113V368.592C822.729 371.596 820.642 374.026 818.073 374.026Z" fill="white"/>
<path opacity="0.37" d="M803.185 780.831H413.383C410.791 780.831 408.704 778.4 408.704 775.42V760.974C408.704 757.971 410.837 755.54 413.429 755.563L803.254 759.53C805.823 759.553 807.888 761.96 807.888 764.941V775.42C807.888 778.423 805.777 780.831 803.185 780.831Z" fill="white"/>
<path opacity="0.37" d="M803.324 744.534H413.5C410.908 744.534 408.82 742.104 408.82 739.123V724.655C408.82 721.651 410.954 719.221 413.545 719.244L803.37 723.211C805.939 723.233 808.004 725.641 808.004 728.622V739.1C808.004 742.127 805.916 744.534 803.324 744.534Z" fill="white"/>
<path d="M527.041 295.586C519.747 295.586 513.806 289.647 513.806 282.356C513.806 275.065 519.747 269.126 527.041 269.126C534.335 269.126 540.276 275.065 540.276 282.356C540.276 289.647 534.335 295.586 527.041 295.586ZM527.041 270.639C520.572 270.639 515.32 275.89 515.32 282.356C515.32 288.822 520.572 294.073 527.041 294.073C533.509 294.073 538.762 288.822 538.762 282.356C538.739 275.89 533.486 270.639 527.041 270.639Z" fill="white"/>
<path d="M483.872 296.595C476.578 296.595 470.637 290.657 470.637 283.365C470.637 276.074 476.578 270.135 483.872 270.135C491.166 270.135 497.107 276.074 497.107 283.365C497.107 290.657 491.166 296.595 483.872 296.595ZM483.872 271.649C477.403 271.649 472.151 276.899 472.151 283.365C472.151 289.831 477.403 295.082 483.872 295.082C490.34 295.082 495.593 289.831 495.593 283.365C495.57 276.899 490.317 271.649 483.872 271.649Z" fill="white"/>
<path d="M442.378 296.595C435.083 296.595 429.143 290.657 429.143 283.365C429.143 276.074 435.083 270.135 442.378 270.135C449.672 270.135 455.613 276.074 455.613 283.365C455.613 290.657 449.672 296.595 442.378 296.595ZM442.378 271.649C435.909 271.649 430.656 276.899 430.656 283.365C430.656 289.831 435.909 295.082 442.378 295.082C448.846 295.082 454.099 289.831 454.099 283.365C454.099 276.899 448.846 271.649 442.378 271.649Z" fill="white"/>
<path opacity="0.65" d="M691.756 483.97H517.407C514.356 483.97 511.879 481.493 511.879 478.444V404.063C511.879 401.013 514.356 398.537 517.407 398.537H691.756C694.807 398.537 697.284 401.013 697.284 404.063V478.444C697.284 481.493 694.807 483.97 691.756 483.97Z" fill="white"/>
<path fill-rule="evenodd" clip-rule="evenodd" d="M590.569 420.206C587.607 420.206 585.206 422.607 585.206 425.569C585.206 428.531 587.607 430.931 590.569 430.931H595.931V425.569C595.931 422.607 593.531 420.206 590.569 420.206ZM600.137 430.931V425.569C600.137 420.284 595.854 416 590.569 416C585.284 416 581 420.284 581 425.569C581 430.854 585.284 435.137 590.569 435.137H595.931V445.863H590.569C585.284 445.863 581 450.146 581 455.431C581 460.716 585.284 465 590.569 465C595.854 465 600.137 460.716 600.137 455.431V450.069H610.863V455.431C610.863 460.716 615.146 465 620.431 465C625.716 465 630 460.716 630 455.431C630 450.146 625.716 445.863 620.431 445.863H615.069V435.137H620.431C625.716 435.137 630 430.854 630 425.569C630 420.284 625.716 416 620.431 416C615.146 416 610.863 420.284 610.863 425.569V430.931H600.137ZM600.137 435.137V445.863H610.863V435.137H600.137ZM615.069 430.931H620.431C623.393 430.931 625.794 428.531 625.794 425.569C625.794 422.607 623.393 420.206 620.431 420.206C617.469 420.206 615.069 422.607 615.069 425.569V430.931ZM615.069 450.069V455.431C615.069 458.393 617.469 460.794 620.431 460.794C623.393 460.794 625.794 458.393 625.794 455.431C625.794 452.469 623.393 450.069 620.431 450.069H615.069ZM595.931 450.069H590.569C587.607 450.069 585.206 452.469 585.206 455.431C585.206 458.393 587.607 460.794 590.569 460.794C593.531 460.794 595.931 458.393 595.931 455.431V450.069Z" fill="#2A4E96"/>
<path opacity="0.65" d="M525.206 596.711H416.872C415.22 596.711 413.89 595.381 413.89 593.731V547.024C413.89 545.373 415.22 544.043 416.872 544.043H525.183C526.834 544.043 528.165 545.373 528.165 547.024V593.731C528.165 595.381 526.834 596.711 525.206 596.711Z" fill="white"/>
<path opacity="0.65" d="M659.368 595.496H551.056C549.405 595.496 548.074 594.167 548.074 592.516V545.809C548.074 544.158 549.405 542.829 551.056 542.829H659.368C661.019 542.829 662.349 544.158 662.349 545.809V592.516C662.349 594.167 660.996 595.496 659.368 595.496Z" fill="white"/>
<path fill-rule="evenodd" clip-rule="evenodd" d="M594.835 554.004C592.719 554.004 591.004 555.719 591.004 557.835C591.004 559.951 592.719 561.665 594.835 561.665H598.665V557.835C598.665 555.719 596.951 554.004 594.835 554.004ZM601.67 561.665V557.835C601.67 554.06 598.61 551 594.835 551C591.06 551 588 554.06 588 557.835C588 561.61 591.06 564.67 594.835 564.67H598.665V572.33H594.835C591.06 572.33 588 575.39 588 579.165C588 582.94 591.06 586 594.835 586C598.61 586 601.67 582.94 601.67 579.165V575.335H609.33V579.165C609.33 582.94 612.39 586 616.165 586C619.94 586 623 582.94 623 579.165C623 575.39 619.94 572.33 616.165 572.33H612.335V564.67H616.165C619.94 564.67 623 561.61 623 557.835C623 554.06 619.94 551 616.165 551C612.39 551 609.33 554.06 609.33 557.835V561.665H601.67ZM601.67 564.67V572.33H609.33V564.67H601.67ZM612.335 561.665H616.165C618.281 561.665 619.996 559.951 619.996 557.835C619.996 555.719 618.281 554.004 616.165 554.004C614.049 554.004 612.335 555.719 612.335 557.835V561.665ZM612.335 575.335V579.165C612.335 581.281 614.049 582.996 616.165 582.996C618.281 582.996 619.996 581.281 619.996 579.165C619.996 577.049 618.281 575.335 616.165 575.335H612.335ZM598.665 575.335H594.835C592.719 575.335 591.004 577.049 591.004 579.165C591.004 581.281 592.719 582.996 594.835 582.996C596.951 582.996 598.665 581.281 598.665 579.165V575.335Z" fill="#2A4E96"/>
<path opacity="0.65" d="M790.662 595.496H682.351C680.7 595.496 679.369 594.167 679.369 592.516V545.809C679.369 544.158 680.7 542.829 682.351 542.829H790.662C792.314 542.829 793.644 544.158 793.644 545.809V592.516C793.644 594.167 792.314 595.496 790.662 595.496Z" fill="white"/>
<path opacity="0.65" d="M526.054 707.883H417.743C416.091 707.883 414.761 706.553 414.761 704.902V658.196C414.761 656.545 416.091 655.215 417.743 655.215H526.054C527.706 655.215 529.036 656.545 529.036 658.196V704.902C529.036 706.553 527.706 707.883 526.054 707.883Z" fill="white"/>
<path opacity="0.65" d="M660.215 706.668H551.904C550.252 706.668 548.922 705.338 548.922 703.687V656.981C548.922 655.33 550.252 654 551.904 654H660.215C661.867 654 663.197 655.33 663.197 656.981V703.687C663.197 705.338 661.867 706.668 660.215 706.668Z" fill="white"/>
<path opacity="0.65" d="M791.534 706.668H683.222C681.571 706.668 680.24 705.338 680.24 703.687V656.981C680.24 655.33 681.571 654 683.222 654H791.534C793.185 654 794.515 655.33 794.515 656.981V703.687C794.515 705.338 793.185 706.668 791.534 706.668Z" fill="white"/>
<path d="M516 691.755H429V684.695H516V691.755ZM429.819 690.913H515.158V685.513H429.819V690.913Z" fill="#C0D4FF"/>
<path d="M496.953 685.116H429.422V691.334H496.953V685.116Z" fill="#2A4E96"/>
<path d="M650 691.755H563V684.695H650V691.755ZM563.819 690.913H649.158V685.513H563.819V690.913Z" fill="#C0D4FF"/>
<path d="M630.953 685.116H563.422V691.334H630.953V685.116Z" fill="#2A4E96"/>
<path d="M784 691.755H697V684.695H784V691.755ZM697.819 690.913H783.158V685.513H697.819V690.913Z" fill="#C0D4FF"/>
<path d="M764.953 685.116H697.422V691.334H764.953V685.116Z" fill="#2A4E96"/>
<path d="M516 677.728H429V670.691H516V677.728ZM429.819 676.91H515.158V671.51H429.819V676.91Z" fill="#C0D4FF"/>
<path d="M474.232 670.691H429V677.728H474.232V670.691Z" fill="#F99746"/>
<path d="M650 677.728H563V670.691H650V677.728ZM563.819 676.91H649.158V671.51H563.819V676.91Z" fill="#C0D4FF"/>
<path d="M608.232 670.691H563V677.728H608.232V670.691Z" fill="#F99746"/>
<path d="M784 677.037H697V670H784V677.037ZM697.819 676.218H783.158V670.818H697.819V676.218Z" fill="#C0D4FF"/>
<path d="M742.232 670H697V677.037H742.232V670Z" fill="#F99746"/>
<path d="M455 569.57C455 578.567 462.289 585.849 471.294 585.849C480.3 585.849 487.589 578.567 487.589 569.57C487.589 560.573 480.3 553.291 471.294 553.291C470.272 553.291 469.269 553.387 468.305 553.56C470.33 560.958 473.03 570.764 473.223 571.381C472.895 570.861 462.983 566.41 456.214 563.424C455.424 565.312 455 567.393 455 569.57Z" fill="#2A4E96"/>
<path d="M455.289 561.652C461.267 564.291 471.159 568.684 471.487 569.185C471.314 568.607 468.575 558.666 466.744 552C461.653 553.387 457.487 556.97 455.289 561.652Z" fill="#F78248"/>
<path d="M721 569.57C721 578.567 728.289 585.849 737.294 585.849C746.3 585.849 753.589 578.567 753.589 569.57C753.589 560.573 746.3 553.291 737.294 553.291C736.272 553.291 735.269 553.387 734.305 553.56C736.33 560.958 739.03 570.764 739.223 571.381C738.895 570.861 728.983 566.41 722.214 563.424C721.424 565.312 721 567.393 721 569.57Z" fill="#2A4E96"/>
<path d="M721.289 561.652C727.267 564.291 737.159 568.684 737.487 569.185C737.314 568.607 734.575 558.666 732.744 552C727.653 553.387 723.487 556.97 721.289 561.652Z" fill="#F78248"/>
<path opacity="0.51" d="M473.023 530.585H468.757V519.51C468.757 513.549 473.803 508.711 479.996 508.734L572.641 508.986C576.403 508.986 579.477 506.028 579.477 502.359V487.387L583.651 487.41V502.382C583.651 508.275 578.72 513.067 572.641 513.044L479.996 512.838C476.166 512.838 473.023 515.841 473.023 519.533V530.585Z" fill="white"/>
<path opacity="0.51" d="M737.563 530.7H733.526V519.923C733.526 516.323 730.567 513.388 726.897 513.365L637.12 513.159C631.133 513.136 626.247 508.367 626.247 502.497V487.593L630.376 487.616V502.52C630.376 506.166 633.404 509.124 637.12 509.146L726.897 509.376C732.769 509.399 737.563 514.122 737.563 519.923V530.7Z" fill="white"/>
<path opacity="0.51" d="M608.308 643.29L604.156 643.336V600.184L608.308 600.161V643.29Z" fill="white"/>
<path opacity="0.51" d="M474.284 644.826L470.018 644.872V633.798C470.018 627.836 475.064 622.952 481.257 622.883L573.902 622.035C577.664 621.989 580.737 618.985 580.737 615.34V600.367L584.912 600.344V615.317C584.912 621.21 579.981 626.048 573.902 626.116L481.257 627.011C477.426 627.056 474.284 630.083 474.284 633.775V644.826Z" fill="white"/>
<path opacity="0.51" d="M738.846 641.777L734.809 641.822V631.046C734.809 627.446 731.85 624.534 728.18 624.58L638.403 625.451C632.416 625.52 627.53 620.774 627.53 614.927V600.023L631.659 600V614.904C631.659 618.55 634.687 621.484 638.403 621.439L728.18 620.613C734.053 620.567 738.846 625.245 738.846 631.046V641.777Z" fill="white"/>
<path d="M916.681 491.146L684.552 496.833C675.148 497.062 667.097 490.092 665.996 480.76L647.577 325.966C646.315 315.419 654.297 306.041 664.895 305.583L911.543 294.852C921.75 294.416 930.329 302.418 930.581 312.622L934.503 472.482C934.71 482.548 926.75 490.917 916.681 491.146Z" fill="url(#paint1_linear)"/>
<path opacity="0.19" d="M907.254 483.006L692.878 488.257C684.185 488.464 676.776 482.181 675.744 473.743L658.816 334.014C657.669 324.499 665.032 316.038 674.827 315.602L902.597 305.789C912.025 305.376 919.938 312.622 920.168 321.816L923.7 466.108C923.929 475.234 916.566 482.777 907.254 483.006Z" fill="white"/>
<path d="M649.412 338.142L931.361 325.508L931.04 313.034C930.788 302.831 922.209 294.622 912.002 295.058L665.353 305.697C654.756 306.156 646.797 315.878 648.035 326.425L649.412 338.142Z" fill="url(#paint2_linear)"/>
<path opacity="0.82" d="M895.831 438.571L702.238 447.261C695.655 447.559 689.943 442.148 689.186 434.879L683.154 377.052C682.328 369.096 687.741 362.057 694.966 361.736L891.978 352.908C898.882 352.61 904.754 358.549 905.098 366.207L907.69 424.194C908.057 431.807 902.736 438.273 895.831 438.571Z" fill="white"/>
<path opacity="0.82" d="M905.098 457.739L689.737 467.392C688.957 467.438 688.315 466.819 688.269 466.062L687.948 458.656C687.902 457.877 688.521 457.235 689.278 457.189L904.639 447.536C905.419 447.49 906.062 448.109 906.108 448.865L906.429 456.272C906.474 457.051 905.878 457.716 905.098 457.739Z" fill="white"/>
<path opacity="0.82" d="M844.175 348.827L684.736 355.981C683.956 356.027 683.314 355.407 683.268 354.651L682.947 347.245C682.901 346.465 683.52 345.823 684.277 345.777L843.717 338.623C844.496 338.578 845.139 339.197 845.185 339.953L845.506 347.359C845.552 348.139 844.955 348.804 844.175 348.827Z" fill="white"/>
<path opacity="0.82" d="M905.9 475.532L690.539 485.185C689.759 485.231 689.116 484.612 689.071 483.855L688.749 476.449C688.704 475.67 689.323 475.027 690.08 474.982L905.441 465.329C906.221 465.283 906.863 465.902 906.909 466.658L907.23 474.064C907.276 474.844 906.68 475.509 905.9 475.532Z" fill="white"/>
<path opacity="0.37" d="M674.47 326.183C676.393 324.079 676.247 320.816 674.143 318.894C672.039 316.971 668.774 317.118 666.851 319.221C664.928 321.324 665.075 324.587 667.178 326.51C669.282 328.432 672.547 328.286 674.47 326.183Z" fill="white"/>
<path opacity="0.37" d="M690.801 325.451C692.724 323.348 692.578 320.085 690.474 318.162C688.37 316.24 685.105 316.386 683.182 318.489C681.259 320.593 681.406 323.856 683.51 325.778C685.613 327.701 688.878 327.554 690.801 325.451Z" fill="white"/>
<path opacity="0.37" d="M709.505 324.593C711.428 322.49 711.282 319.227 709.178 317.305C707.074 315.382 703.809 315.529 701.886 317.632C699.963 319.735 700.11 322.998 702.214 324.92C704.317 326.843 707.582 326.696 709.505 324.593Z" fill="white"/>
<path d="M783.768 433.445L716.426 436.489L715.46 415.11L782.802 412.067L783.768 433.445ZM717.206 435.636L782.915 432.666L782.022 412.919L716.314 415.889L717.206 435.636Z" fill="#C0D4FF"/>
<path d="M746.676 419.464L720.621 420.642L720.699 422.356L746.753 421.178L746.676 419.464Z" fill="#C0D4FF"/>
<path d="M767.912 418.504L749.412 419.34L749.49 421.054L767.989 420.218L767.912 418.504Z" fill="#C0D4FF"/>
<path d="M735.214 424.807L720.839 425.457L720.916 427.17L735.291 426.52L735.214 424.807Z" fill="#C0D4FF"/>
<path d="M756.123 423.862L737.623 424.698L737.7 426.411L756.2 425.575L756.123 423.862Z" fill="#C0D4FF"/>
<path d="M776.542 422.939L758.042 423.775L758.119 425.488L776.619 424.652L776.542 422.939Z" fill="#C0D4FF"/>
<path d="M868.175 429.63L796.713 432.86L795.747 411.481L867.208 408.251L868.175 429.63ZM797.587 432.003L867.314 428.852L866.422 409.105L796.694 412.256L797.587 432.003Z" fill="#C0D4FF"/>
<path d="M826.961 415.836L800.906 417.014L800.984 418.727L827.038 417.55L826.961 415.836Z" fill="#C0D4FF"/>
<path d="M848.196 414.875L829.696 415.711L829.774 417.425L848.273 416.589L848.196 414.875Z" fill="#C0D4FF"/>
<path d="M815.499 421.178L801.124 421.828L801.201 423.541L815.576 422.891L815.499 421.178Z" fill="#C0D4FF"/>
<path d="M836.41 420.233L817.91 421.069L817.988 422.782L836.487 421.946L836.41 420.233Z" fill="#C0D4FF"/>
<path d="M856.827 419.31L838.327 420.146L838.405 421.86L856.904 421.023L856.827 419.31Z" fill="#C0D4FF"/>
<path d="M866.912 399.761L715.076 406.624L714.52 394.302L866.355 387.439L866.912 399.761ZM716.439 405.09L865.376 398.358L864.95 388.934L716.013 395.666L716.439 405.09Z" fill="#C0D4FF"/>
<path d="M833.148 389.676L715.289 395.003L715.78 405.856L833.638 400.529L833.148 389.676Z" fill="#C0D4FF"/>
<path d="M865.805 375.281L713.969 382.143L713.414 369.863L865.25 363L865.805 375.281ZM715.334 380.651L864.27 373.919L863.844 364.494L714.908 371.226L715.334 380.651Z" fill="#C0D4FF"/>
<path d="M792.354 366.295L713.414 369.863L713.969 382.143L792.909 378.575L792.354 366.295Z" fill="#F99746"/>
<path d="M799.145 507.091C799.145 507.091 798.211 498.908 796.216 495.77C794.221 492.632 786.709 490.639 786.242 491.106C784.757 492.547 790.572 497.551 790.826 499.416C791.038 501.282 787.855 499.968 789.383 503.614C790.656 506.667 794.901 510.61 794.901 510.61L799.145 507.091Z" fill="#FFB27D"/>
<path d="M795.538 506.201C798.297 504.039 798.848 504.081 798.848 504.081C798.848 504.081 824.186 526.003 826.648 527.953C829.109 529.904 867.137 540.928 867.137 540.928L873.164 571.797C873.164 571.797 821.725 546.949 815.57 541.904C805.427 533.55 792.609 510.102 792.609 510.102C792.609 510.102 793.373 507.855 795.538 506.201Z" fill="#DD6C3A"/>
<path d="M867.943 803.015C867.943 803.015 867.519 813.573 865.482 816.117L837.258 816.287C837.47 815.184 837.555 812.682 841.46 812.004C846.383 811.156 852.197 807.721 855.168 801.192C858.309 794.322 867.943 803.015 867.943 803.015Z" fill="#163560"/>
<path d="M923.328 801.488C923.328 801.488 925.281 815.523 922.607 815.735C922.267 815.778 911.233 815.947 906.479 816.032C900.877 816.117 891.667 815.947 891.667 815.947C890.521 815.99 889.757 814.76 890.351 813.742C890.988 812.64 892.219 811.495 894.595 811.029C899.519 810.096 907.71 806.492 910.553 799.919C913.567 793.008 923.328 801.488 923.328 801.488Z" fill="#163560"/>
<path d="M853.258 657.788C853.258 657.788 861.11 685.222 883.604 732.882C906.098 780.541 907.074 803.481 907.074 803.481C907.074 803.481 910.469 804.668 915.011 804.202C919.891 803.693 923.329 801.488 923.329 801.488C923.329 801.488 921.886 744.797 911.233 720.755C900.623 696.713 898.458 630.905 898.458 630.905L853.258 657.788Z" fill="#233862"/>
<path d="M840.651 634.169C840.651 634.169 840.015 676.656 847.4 728.81C854.742 780.965 851.304 805.218 851.304 805.218C851.304 805.218 853.257 806.618 859.241 806.618C866.244 806.575 869.851 803.692 869.851 803.692C869.851 803.692 880.377 751.495 877.364 725.418C874.35 699.299 891.794 635.823 891.794 635.823L840.651 634.169Z" fill="#2A4E96"/>
<path d="M875.455 534.779L867.137 540.928L855.126 538.384C855.296 537.281 856.102 532.744 856.824 528.631C856.866 528.377 856.909 528.165 856.951 527.91C857.588 524.433 858.097 521.423 858.097 521.423L869.301 515.826L873.503 513.748C873.503 513.833 873.164 517.607 873.121 518.2C872.315 528.038 875.455 534.779 875.455 534.779Z" fill="#FFB27D"/>
<path d="M899.265 639.428C896.549 651.852 838.404 646.382 839.168 638.834C839.21 638.58 839.337 635.06 839.55 630.354C839.974 620.135 840.653 604.15 840.738 602.877C840.738 602.835 840.738 602.835 840.738 602.793C841.799 592.235 842.775 581.931 842.86 575.189C842.902 569.338 843.709 563.359 844.812 557.932C845.788 552.928 847.019 548.391 848.08 544.829C848.844 542.328 850.202 540.123 852.027 538.427C853.343 537.197 854.871 536.222 856.569 535.543C857.036 535.331 857.502 535.204 857.969 535.035C864.802 533.042 874.267 530.582 876.856 531.346C883.816 533.381 888.952 545.635 892.644 561.196C899.435 590.369 901.005 631.329 899.265 639.428Z" fill="#F78248"/>
<path d="M872.272 518.371C869.81 523.077 860.642 527.148 856.78 528.632C856.823 528.378 856.865 528.166 856.908 527.911C857.544 524.434 858.054 521.424 858.054 521.424L869.258 515.827C871.762 515.784 873.29 516.42 872.272 518.371Z" fill="#FCA56B"/>
<path d="M852.622 520.787C852.622 520.787 872.866 527.105 876.601 514.427C880.336 501.791 885.472 494.074 872.697 489.495C859.922 484.916 855.975 489.028 853.725 492.929C851.433 496.873 847.444 518.795 852.622 520.787Z" fill="#FFB27D"/>
<path d="M854.532 491.742C854.532 491.742 855.805 506.456 858.861 505.82C861.917 505.183 864.675 504.717 864.208 509.127C863.742 513.579 859.54 518.71 868.919 519.473C878.299 520.279 891.796 496.067 889.249 491.488C881.822 478.258 843.752 475.587 854.532 491.742Z" fill="#163560"/>
<path d="M839.507 630.311C839.931 620.092 840.61 604.107 840.695 602.835C840.695 602.793 840.695 602.792 840.695 602.75L875.073 582.228C875.073 582.27 876.431 630.184 839.507 630.311Z" fill="#DD6C3A"/>
<path d="M812.217 587.359C812.217 587.359 805.214 582.652 803.899 582.228C802.583 581.804 798.212 581.38 798.042 581.719C797.83 582.059 797.235 583.119 797.999 583.458C798.763 583.797 799.697 583.67 799.4 583.924C799.103 584.179 796.259 582.822 795.623 584.264C794.944 585.705 794.392 590.709 797.745 592.193C801.098 593.719 809.374 592.32 809.968 592.532C815.018 594.016 812.217 587.359 812.217 587.359Z" fill="#FFB27D"/>
<path d="M812.131 586.086C812.131 586.086 846.212 591.895 849.225 590.411C854.063 588.079 847.357 553.521 847.357 553.521C847.357 553.521 847.06 545.677 856.228 543.854C864.164 542.242 871.846 548.221 871.846 548.221C871.846 548.221 878.807 554.454 877.916 561.366C875.921 576.715 872.865 607.923 862.594 612.672C849.352 618.82 811.027 595.584 811.027 595.584C811.027 595.584 809.754 594.015 809.924 591.132C810.136 588.545 812.131 586.086 812.131 586.086Z" fill="#F78248"/>
<path d="M789.256 503.19C789.256 503.19 787.091 498.866 786.709 498.06C786.37 497.254 787.219 497.424 788.068 497.89C788.916 498.357 790.062 500.858 791.336 500.562C792.354 500.265 789.256 503.19 789.256 503.19Z" fill="#FFB27D"/>
</g>
<path d="M883.615 255.133H999.385C1008.54 255.133 1016 247.684 1016 238.534V119.148C1016 109.997 1008.54 102.549 999.385 102.549H883.615C874.455 102.549 867 109.997 867 119.148V238.534C867 247.684 874.455 255.133 883.615 255.133Z" fill="#D5DFFC"/>
<path d="M896.502 173.893C896.502 198.739 916.631 218.849 941.5 218.849C966.369 218.849 986.498 198.739 986.498 173.893C986.498 149.048 966.369 128.938 941.5 128.938C938.677 128.938 935.908 129.204 933.246 129.682C938.837 150.112 946.293 177.192 946.825 178.894C945.92 177.458 918.548 165.168 899.857 156.922C897.673 162.136 896.502 167.882 896.502 173.893Z" fill="#2A4E96"/>
<path d="M897.301 152.027C913.809 159.316 941.128 171.446 942.033 172.829C941.554 171.233 933.992 143.781 928.933 125.373C914.874 129.204 903.372 139.099 897.301 152.027Z" fill="#F78248"/>
<path d="M345.437 647.309V647.321L345.437 647.333C345.478 656.002 338.379 663.118 329.662 663.118H174.774C166.116 663.118 159 656.002 159 647.363V507.755C159 499.116 166.116 492 174.774 492H329.662C338.32 492 345.437 499.116 345.437 507.755V647.309Z" fill="#D5DFFC" stroke="white" stroke-width="10"/>
<path d="M327.932 638.175H175.911V589.855H327.932V638.175ZM177.805 636.338H326.092V591.747H177.805V636.338Z" fill="#8C9DF4"/>
<path d="M245.751 602.828H186.944V606.665H245.751V602.828Z" fill="#8C9DF4"/>
<path d="M293.628 602.827H251.917V606.665H293.628V602.827Z" fill="#8C9DF4"/>
<path d="M219.403 613.745H186.943V617.582H219.403V613.745Z" fill="#8C9DF4"/>
<path d="M266.578 613.745H224.867V617.582H266.578V613.745Z" fill="#8C9DF4"/>
<path d="M312.617 613.745H270.906V617.582H312.617V613.745Z" fill="#8C9DF4"/>
<path d="M192.681 553.048H176.83V575.046H192.681V553.048Z" fill="#2A4E96"/>
<path d="M219.892 538.456H204.041V575.101H219.892V538.456Z" fill="#2A4E96"/>
<path d="M247.051 526.511H231.2V575.101H247.051V526.511Z" fill="#F78248"/>
<path d="M274.21 536.186H258.358V575.047H274.21V536.186Z" fill="#2A4E96"/>
<path d="M301.369 515.539H285.518V575.101H301.369V515.539Z" fill="#2A4E96"/>
<path d="M328.528 504.891H312.677V575.101H328.528V504.891Z" fill="#F78248"/>
<defs>
<linearGradient id="paint0_linear" x1="993.455" y1="903.584" x2="554.97" y2="436.632" gradientUnits="userSpaceOnUse">
<stop stop-color="#DAE3FE"/>
<stop offset="1" stop-color="#E9EFFD"/>
</linearGradient>
<linearGradient id="paint1_linear" x1="918.914" y1="273.539" x2="311.666" y2="866.343" gradientUnits="userSpaceOnUse">
<stop stop-color="#FF928E"/>
<stop offset="1" stop-color="#FE7062"/>
</linearGradient>
<linearGradient id="paint2_linear" x1="852.171" y1="214.998" x2="743.29" y2="402.037" gradientUnits="userSpaceOnUse">
<stop stop-color="#FF928E"/>
<stop offset="1" stop-color="#FE7062"/>
</linearGradient>
<clipPath id="clip0">
<rect width="627" height="630.477" fill="white" transform="translate(312 185)"/>
</clipPath>
</defs>
</svg>
