<svg width="1200" height="1000" viewBox="0 0 1200 1000" fill="none" xmlns="http://www.w3.org/2000/svg">
<path d="M1086.28 747L903.72 746.561L820.202 746.358L802.281 746.324L737.259 746.155L658.002 745.952L589.294 745.783H585.405L567.282 745.749L408.327 745.343L328.529 745.141L320.989 745.107L277.269 745.005L163.319 744.735C163.319 744.735 21.9812 477.25 213.058 378.195C459.216 250.605 634.738 434.416 729.009 427.452C867.709 417.208 1139.09 339.654 1086.28 747Z" fill="#F3F4FC"/>
<path d="M290.519 537.183L300.634 536.04C301.487 535.958 302.3 536.367 302.747 537.061C303.315 537.96 303.965 538.858 304.615 539.757C305.875 541.391 307.215 542.902 308.637 544.25C309.287 544.903 309.531 545.843 309.206 546.7L305.306 556.667C304.9 557.729 305.347 558.954 306.403 559.444L315.137 563.774C316.111 564.264 317.33 563.937 317.899 562.998L323.18 554.665C323.667 553.848 324.683 553.481 325.617 553.726C329.639 554.788 333.823 555.196 337.966 554.951C338.982 554.91 339.916 555.564 340.2 556.503L341.988 562.221C342.353 563.324 343.45 563.978 344.547 563.774L354.012 561.854C354.215 561.813 354.378 561.772 354.54 561.69C355.353 561.282 355.881 560.383 355.759 559.444L354.906 551.847L354.703 550.009C356.287 549.11 357.831 548.089 359.293 546.945C361.283 545.393 363.071 543.719 364.696 541.921C365.305 541.227 366.28 540.982 367.133 541.35L375.136 544.495C376.232 544.903 377.451 544.454 377.979 543.392L381.27 536.693L382.204 534.774C382.732 533.712 382.366 532.445 381.391 531.833L374.486 527.381C373.673 526.891 373.267 525.91 373.511 525.012C374.161 522.275 374.526 519.457 374.567 516.679C374.607 516.434 374.607 516.23 374.607 515.985C374.607 515.903 374.607 515.822 374.607 515.74C374.689 514.841 375.298 514.106 376.192 513.82L385.454 510.879C385.576 510.838 385.657 510.798 385.738 510.757C386.632 510.307 387.16 509.286 386.957 508.306L385.047 498.789C384.804 497.646 383.747 496.869 382.61 496.992L372.048 498.177C371.155 498.299 370.302 497.809 369.855 497.033C368.92 495.277 367.783 493.602 366.564 491.927C365.914 491.07 365.224 490.212 364.493 489.436C363.924 488.782 363.721 487.843 364.046 487.067L367.783 477.468C368.189 476.406 367.742 475.222 366.727 474.691L358.074 470.402C357.018 469.871 355.759 470.239 355.109 471.219L350.925 477.795C350.356 478.693 349.3 479.061 348.325 478.734C344.466 477.386 340.444 476.692 336.382 476.569C335.407 476.569 334.554 475.916 334.27 474.977L331.629 466.603C331.264 465.46 330.126 464.806 328.989 465.051L319.564 466.93C318.427 467.175 317.655 468.237 317.818 469.381L317.858 469.83L318.833 478.693C318.955 479.633 318.468 480.531 317.615 480.981C315.583 482.043 313.634 483.268 311.765 484.698C310.749 485.474 309.815 486.291 308.921 487.108C308.312 487.72 307.378 487.884 306.606 487.557L298.481 484.371C297.385 483.922 296.125 484.412 295.597 485.474L291.332 494.133C291.21 494.378 291.129 494.623 291.129 494.909C291.048 495.726 291.413 496.584 292.144 497.074L297.669 500.627C298.36 501.076 298.725 501.853 298.685 502.629C298.685 502.833 298.644 503.037 298.563 503.241C296.897 508.224 296.207 513.453 296.572 518.681C296.653 519.579 296.166 520.396 295.394 520.805C295.272 520.845 295.15 520.927 295.029 520.968L287.554 523.337C286.457 523.664 285.807 524.807 286.051 525.91L286.092 526.114L287.92 535.386C288.285 536.53 289.341 537.306 290.519 537.183ZM355.353 508.224C355.921 509.695 356.409 511.247 356.734 512.922C357.343 516.107 356.693 521.172 355.271 524.113C355.109 524.44 354.946 524.726 354.784 525.053C344.872 543.555 318.874 539.879 314.608 519.007C314.04 516.271 314.405 512.309 315.38 509.245C315.624 508.551 315.868 507.898 316.152 507.326C317.493 504.671 319.118 502.424 320.986 500.627C331.67 490.293 349.503 493.684 355.353 508.224Z" fill="#D5DFFC"/>
<path d="M912.519 359.183L922.634 358.04C923.487 357.958 924.3 358.367 924.747 359.061C925.315 359.96 925.965 360.858 926.615 361.757C927.875 363.391 929.215 364.902 930.637 366.25C931.287 366.903 931.531 367.843 931.206 368.7L927.306 378.667C926.9 379.729 927.347 380.954 928.403 381.444L937.137 385.774C938.111 386.264 939.33 385.937 939.899 384.998L945.18 376.665C945.667 375.848 946.683 375.481 947.617 375.726C951.639 376.788 955.823 377.196 959.966 376.951C960.982 376.91 961.916 377.564 962.2 378.503L963.988 384.221C964.353 385.324 965.45 385.978 966.547 385.774L976.012 383.854C976.215 383.813 976.378 383.772 976.54 383.69C977.353 383.282 977.881 382.383 977.759 381.444L976.906 373.847L976.703 372.009C978.287 371.11 979.831 370.089 981.293 368.945C983.283 367.393 985.071 365.719 986.696 363.921C987.305 363.227 988.28 362.982 989.133 363.35L997.136 366.495C998.232 366.903 999.451 366.454 999.979 365.392L1003.27 358.693L1004.2 356.774C1004.73 355.712 1004.37 354.445 1003.39 353.833L996.486 349.381C995.673 348.891 995.267 347.91 995.511 347.012C996.161 344.275 996.526 341.457 996.567 338.679C996.607 338.434 996.607 338.23 996.607 337.985C996.607 337.903 996.607 337.822 996.607 337.74C996.689 336.841 997.298 336.106 998.192 335.82L1007.45 332.879C1007.58 332.838 1007.66 332.798 1007.74 332.757C1008.63 332.307 1009.16 331.286 1008.96 330.306L1007.05 320.789C1006.8 319.646 1005.75 318.869 1004.61 318.992L994.048 320.177C993.155 320.299 992.302 319.809 991.855 319.033C990.92 317.277 989.783 315.602 988.564 313.927C987.914 313.07 987.224 312.212 986.493 311.436C985.924 310.782 985.721 309.843 986.046 309.067L989.783 299.468C990.189 298.406 989.742 297.222 988.727 296.691L980.074 292.402C979.018 291.871 977.759 292.239 977.109 293.219L972.925 299.795C972.356 300.693 971.3 301.061 970.325 300.734C966.466 299.386 962.444 298.692 958.382 298.569C957.407 298.569 956.554 297.916 956.27 296.977L953.629 288.603C953.264 287.46 952.126 286.806 950.989 287.051L941.564 288.93C940.427 289.175 939.655 290.237 939.818 291.381L939.858 291.83L940.833 300.693C940.955 301.633 940.468 302.531 939.615 302.981C937.583 304.043 935.634 305.268 933.765 306.698C932.749 307.474 931.815 308.291 930.921 309.108C930.312 309.72 929.378 309.884 928.606 309.557L920.481 306.371C919.385 305.922 918.125 306.412 917.597 307.474L913.332 316.133C913.21 316.378 913.129 316.623 913.129 316.909C913.048 317.726 913.413 318.584 914.144 319.074L919.669 322.627C920.36 323.076 920.725 323.853 920.685 324.629C920.685 324.833 920.644 325.037 920.563 325.241C918.897 330.224 918.207 335.453 918.572 340.681C918.653 341.579 918.166 342.396 917.394 342.805C917.272 342.845 917.15 342.927 917.029 342.968L909.554 345.337C908.457 345.664 907.807 346.807 908.051 347.91L908.092 348.114L909.92 357.386C910.285 358.53 911.341 359.306 912.519 359.183ZM977.353 330.224C977.921 331.695 978.409 333.247 978.734 334.922C979.343 338.107 978.693 343.172 977.271 346.113C977.109 346.44 976.946 346.726 976.784 347.053C966.872 365.555 940.874 361.879 936.608 341.007C936.04 338.271 936.405 334.309 937.38 331.245C937.624 330.551 937.868 329.898 938.152 329.326C939.493 326.671 941.118 324.424 942.986 322.627C953.67 312.293 971.503 315.684 977.353 330.224Z" fill="#D5DFFC"/>
<path d="M532.889 206.194L541.516 205.207C542.255 205.125 542.954 205.454 543.323 206.071C543.816 206.852 544.35 207.593 544.925 208.333C545.993 209.731 547.103 211.006 548.335 212.157C548.91 212.692 549.074 213.515 548.787 214.255L545.459 222.726C545.09 223.631 545.5 224.659 546.363 225.112L553.798 228.813C554.661 229.224 555.647 228.936 556.181 228.155L560.658 221.123C561.069 220.423 561.932 220.094 562.712 220.3C566.122 221.205 569.696 221.575 573.228 221.369C574.091 221.328 574.872 221.863 575.159 222.685L576.679 227.538C576.967 228.443 577.911 229.019 578.856 228.854L586.908 227.209C587.072 227.168 587.236 227.127 587.359 227.045C588.058 226.716 588.51 225.934 588.386 225.153L587.688 218.696L587.524 217.133C588.879 216.393 590.194 215.488 591.426 214.543C593.11 213.227 594.671 211.828 596.027 210.266C596.561 209.69 597.383 209.484 598.081 209.772L604.9 212.445C605.845 212.815 606.872 212.404 607.324 211.499L610.158 205.824L610.98 204.179C611.431 203.274 611.144 202.205 610.281 201.671L604.407 197.887C603.709 197.476 603.38 196.653 603.585 195.872C604.119 193.569 604.448 191.184 604.489 188.798C604.489 188.593 604.489 188.387 604.489 188.182C604.489 188.099 604.489 188.058 604.489 187.976C604.571 187.195 605.105 186.578 605.804 186.372L613.691 183.863C613.773 183.822 613.855 183.781 613.937 183.781C614.718 183.411 615.128 182.547 614.964 181.684L613.362 173.623C613.157 172.636 612.253 171.978 611.267 172.102L602.271 173.13C601.49 173.212 600.792 172.842 600.422 172.143C599.601 170.662 598.656 169.223 597.588 167.825C597.013 167.085 596.438 166.385 595.822 165.686C595.329 165.152 595.164 164.37 595.452 163.671L598.615 155.528C598.985 154.624 598.574 153.596 597.711 153.184L590.358 149.565C589.454 149.113 588.386 149.401 587.852 150.264L584.279 155.857C583.786 156.598 582.882 156.927 582.06 156.639C578.774 155.487 575.365 154.912 571.914 154.829C571.092 154.829 570.353 154.295 570.106 153.472L567.847 146.358C567.56 145.412 566.574 144.836 565.588 145.042L557.578 146.645C556.633 146.851 555.975 147.756 556.058 148.702L556.099 149.072L556.92 156.557C557.002 157.379 556.592 158.119 555.893 158.489C554.168 159.394 552.525 160.422 550.923 161.656C550.06 162.314 549.28 163.013 548.499 163.712C547.965 164.206 547.185 164.37 546.527 164.082L539.626 161.368C538.681 160.998 537.613 161.409 537.162 162.314L533.547 169.634C533.464 169.84 533.382 170.087 533.341 170.292C533.259 170.991 533.588 171.732 534.204 172.102L538.928 175.104C539.503 175.474 539.832 176.132 539.791 176.79C539.791 176.954 539.749 177.16 539.708 177.325C538.271 181.519 537.696 185.961 538.024 190.402C538.106 191.143 537.654 191.842 536.997 192.212C536.915 192.253 536.792 192.294 536.71 192.335L530.342 194.35C529.439 194.638 528.864 195.584 529.028 196.53L529.069 196.736L530.63 204.59C531 205.66 531.903 206.318 532.889 206.194ZM588.099 181.684C588.592 182.918 589.003 184.234 589.29 185.673C589.824 188.387 589.249 192.664 588.058 195.173C587.935 195.42 587.811 195.707 587.647 195.954C579.226 211.623 557.085 208.538 553.429 190.814C552.977 188.511 553.264 185.138 554.086 182.547C554.291 181.972 554.497 181.396 554.743 180.902C555.852 178.641 557.249 176.749 558.851 175.227C567.888 166.509 583.087 169.346 588.099 181.684Z" fill="#D5DFFC"/>
<path d="M856.22 288.415V564.338C856.22 574.426 848.494 582.594 838.928 582.594H350.292C340.767 582.594 333 574.426 333 564.338V288.415C333 278.327 340.726 270.159 350.292 270.159H838.887C848.453 270.159 856.22 278.327 856.22 288.415Z" fill="#8C9DF4"/>
<path fill-rule="evenodd" clip-rule="evenodd" d="M523.5 343C509.415 343 498 354.415 498 368.5C498 382.585 509.415 394 523.5 394H549V368.5C549 354.415 537.585 343 523.5 343ZM569 394V368.5C569 343.369 548.631 323 523.5 323C498.369 323 478 343.369 478 368.5C478 393.631 498.369 414 523.5 414H549V465H523.5C498.369 465 478 485.369 478 510.5C478 535.631 498.369 556 523.5 556C548.631 556 569 535.631 569 510.5V485H620V510.5C620 535.631 640.369 556 665.5 556C690.631 556 711 535.631 711 510.5C711 485.369 690.631 465 665.5 465H640V414H665.5C690.631 414 711 393.631 711 368.5C711 343.369 690.631 323 665.5 323C640.369 323 620 343.369 620 368.5V394H569ZM569 414V465H620V414H569ZM640 394H665.5C679.585 394 691 382.585 691 368.5C691 354.415 679.585 343 665.5 343C651.415 343 640 354.415 640 368.5V394ZM640 485V510.5C640 524.585 651.415 536 665.5 536C679.585 536 691 524.585 691 510.5C691 496.415 679.585 485 665.5 485H640ZM549 485H523.5C509.415 485 498 496.415 498 510.5C498 524.585 509.415 536 523.5 536C537.585 536 549 524.585 549 510.5V485Z" fill="#E6E9FA"/>
<path d="M856.357 287.435V300.095H333.178V287.435C333.178 277.919 340.904 270.159 350.47 270.159H839.065C848.59 270.159 856.357 277.878 856.357 287.435Z" fill="#6980E2"/>
<path d="M353.657 286.741C353.657 284.862 355.211 283.31 357.091 283.31C358.972 283.31 360.525 284.862 360.525 286.741C360.525 288.619 358.972 290.171 357.091 290.171C355.17 290.171 353.657 288.619 353.657 286.741Z" fill="#EBF3FA"/>
<path d="M375.529 290.17C377.425 290.17 378.963 288.634 378.963 286.74C378.963 284.845 377.425 283.309 375.529 283.309C373.632 283.309 372.095 284.845 372.095 286.74C372.095 288.634 373.632 290.17 375.529 290.17Z" fill="#EBF3FA"/>
<path d="M394.006 290.17C395.903 290.17 397.44 288.634 397.44 286.74C397.44 284.845 395.903 283.309 394.006 283.309C392.11 283.309 390.572 284.845 390.572 286.74C390.572 288.634 392.11 290.17 394.006 290.17Z" fill="#EBF3FA"/>
<path d="M393.637 444.795H304.764C297.733 444.795 292.01 439.078 292.01 432.053V340.405C292.01 333.38 297.733 327.663 304.764 327.663H393.637C400.668 327.663 406.391 333.38 406.391 340.405V432.053C406.391 439.078 400.668 444.795 393.637 444.795Z" fill="#D5DFFC"/>
<path d="M759.737 286.741H642.698C634.072 286.741 627 279.675 627 271.058V165.565C627 156.947 634.072 149.882 642.698 149.882H759.737C768.362 149.882 775.434 156.947 775.434 165.565V271.017C775.475 279.675 768.403 286.741 759.737 286.741Z" fill="#D5DFFC"/>
<path d="M758.429 264.115H643.557V227.603H758.429V264.115ZM644.987 262.727H757.039V229.032H644.987V262.727Z" fill="#8C9DF4"/>
<path d="M696.331 237.405H651.895V240.305H696.331V237.405Z" fill="#8C9DF4"/>
<path d="M732.509 237.405H700.99V240.305H732.509V237.405Z" fill="#8C9DF4"/>
<path d="M676.421 245.654H651.894V248.554H676.421V245.654Z" fill="#8C9DF4"/>
<path d="M712.068 245.654H680.55V248.554H712.068V245.654Z" fill="#8C9DF4"/>
<path d="M746.857 245.654H715.339V248.554H746.857V245.654Z" fill="#8C9DF4"/>
<path d="M656.229 199.79H644.251V216.412H656.229V199.79Z" fill="#2A4E96"/>
<path d="M676.79 188.763H664.812V216.454H676.79V188.763Z" fill="#2A4E96"/>
<path d="M697.313 179.737H685.335V216.454H697.313V179.737Z" fill="#F78248"/>
<path d="M717.834 187.048H705.856V216.413H717.834V187.048Z" fill="#2A4E96"/>
<path d="M738.357 171.446H726.379V216.453H738.357V171.446Z" fill="#2A4E96"/>
<path d="M758.879 163.401H746.901V216.454H758.879V163.401Z" fill="#F78248"/>
<path d="M307.7 372.978L311.506 372.55C311.827 372.52 312.133 372.672 312.301 372.932C312.515 373.268 312.759 373.604 313.004 373.939C313.478 374.55 313.982 375.115 314.517 375.619C314.761 375.863 314.853 376.214 314.731 376.534L313.264 380.259C313.111 380.656 313.279 381.114 313.676 381.297L316.962 382.915C317.329 383.099 317.788 382.976 318.002 382.625L319.988 379.511C320.172 379.206 320.554 379.069 320.905 379.16C322.419 379.557 323.993 379.71 325.552 379.618C325.934 379.603 326.285 379.847 326.392 380.198L327.065 382.335C327.202 382.747 327.615 382.992 328.028 382.915L331.589 382.198C331.665 382.183 331.726 382.167 331.787 382.137C332.093 381.984 332.292 381.648 332.246 381.297L331.925 378.458L331.849 377.771C332.445 377.435 333.025 377.054 333.576 376.626C334.324 376.046 334.997 375.42 335.608 374.748C335.838 374.489 336.204 374.397 336.525 374.535L339.536 375.71C339.949 375.863 340.407 375.695 340.606 375.298L341.844 372.794L342.196 372.077C342.394 371.68 342.257 371.207 341.89 370.978L339.292 369.314C338.986 369.131 338.833 368.764 338.925 368.429C339.169 367.406 339.307 366.353 339.322 365.314C339.337 365.223 339.337 365.147 339.337 365.055C339.337 365.024 339.337 364.994 339.337 364.963C339.368 364.628 339.597 364.353 339.934 364.246L343.418 363.147C343.464 363.132 343.495 363.116 343.525 363.101C343.861 362.933 344.06 362.551 343.984 362.185L343.265 358.628C343.174 358.201 342.776 357.911 342.348 357.957L338.375 358.399C338.038 358.445 337.717 358.262 337.549 357.972C337.198 357.315 336.77 356.69 336.311 356.064C336.067 355.743 335.807 355.423 335.532 355.133C335.318 354.888 335.241 354.537 335.364 354.247L336.77 350.66C336.923 350.263 336.755 349.82 336.372 349.622L333.117 348.019C332.72 347.82 332.246 347.958 332.001 348.324L330.427 350.782C330.213 351.118 329.816 351.255 329.449 351.133C327.997 350.629 326.484 350.37 324.956 350.324C324.589 350.324 324.268 350.08 324.161 349.729L323.167 346.599C323.03 346.172 322.602 345.928 322.174 346.019L318.628 346.721C318.2 346.813 317.91 347.21 317.971 347.637L317.986 347.805L318.353 351.118C318.399 351.469 318.216 351.805 317.895 351.973C317.13 352.37 316.397 352.827 315.694 353.362C315.312 353.652 314.96 353.957 314.624 354.262C314.395 354.491 314.043 354.552 313.753 354.43L310.696 353.24C310.283 353.072 309.81 353.255 309.611 353.652L308.006 356.888C307.96 356.98 307.93 357.071 307.93 357.178C307.899 357.483 308.037 357.804 308.312 357.987L310.39 359.315C310.65 359.483 310.788 359.773 310.772 360.063C310.772 360.14 310.757 360.216 310.727 360.292C310.1 362.155 309.84 364.109 309.978 366.062C310.008 366.398 309.825 366.704 309.534 366.856C309.489 366.872 309.443 366.902 309.397 366.917L306.585 367.803C306.172 367.925 305.928 368.352 306.019 368.764L306.034 368.841L306.722 372.306C306.86 372.733 307.257 373.023 307.7 372.978ZM332.093 362.155C332.307 362.704 332.49 363.284 332.613 363.91C332.842 365.101 332.597 366.994 332.062 368.093C332.001 368.215 331.94 368.322 331.879 368.444C328.15 375.359 318.368 373.985 316.764 366.185C316.55 365.162 316.687 363.681 317.054 362.536C317.146 362.277 317.237 362.032 317.344 361.819C317.849 360.826 318.46 359.987 319.163 359.315C323.183 355.453 329.892 356.72 332.093 362.155Z" fill="#8C9DF4"/>
<path d="M332.819 410.206L339.128 409.49C339.661 409.438 340.167 409.694 340.446 410.129C340.801 410.692 341.206 411.255 341.612 411.817C342.397 412.841 343.233 413.787 344.12 414.631C344.526 415.04 344.678 415.629 344.475 416.166L342.042 422.407C341.789 423.072 342.068 423.84 342.726 424.147L348.174 426.858C348.782 427.165 349.543 426.961 349.897 426.372L353.191 421.154C353.495 420.642 354.129 420.412 354.712 420.566C357.22 421.231 359.83 421.486 362.415 421.333C363.048 421.307 363.631 421.717 363.808 422.305L364.923 425.886C365.151 426.577 365.835 426.986 366.519 426.858L372.423 425.656C372.55 425.63 372.651 425.605 372.753 425.554C373.26 425.298 373.589 424.735 373.513 424.147L372.981 419.389L372.854 418.238C373.842 417.675 374.805 417.036 375.717 416.319C376.959 415.347 378.074 414.299 379.087 413.173C379.467 412.738 380.076 412.585 380.608 412.815L385.599 414.785C386.284 415.04 387.044 414.759 387.373 414.094L389.426 409.899L390.008 408.697C390.338 408.032 390.11 407.239 389.502 406.855L385.194 404.067C384.687 403.76 384.434 403.146 384.586 402.583C384.991 400.869 385.219 399.104 385.245 397.365C385.27 397.211 385.27 397.083 385.27 396.93C385.27 396.879 385.27 396.828 385.27 396.776C385.321 396.214 385.701 395.753 386.258 395.574L392.035 393.732C392.111 393.707 392.162 393.681 392.213 393.656C392.77 393.374 393.1 392.735 392.973 392.121L391.782 386.161C391.63 385.445 390.971 384.959 390.262 385.035L383.674 385.777C383.116 385.854 382.584 385.547 382.305 385.061C381.723 383.961 381.013 382.912 380.253 381.864C379.848 381.326 379.417 380.789 378.961 380.303C378.606 379.894 378.479 379.306 378.682 378.82L381.013 372.808C381.267 372.143 380.988 371.401 380.354 371.069L374.957 368.383C374.298 368.05 373.513 368.281 373.107 368.895L370.498 373.013C370.143 373.576 369.484 373.806 368.876 373.601C366.469 372.757 363.96 372.322 361.426 372.246C360.818 372.246 360.286 371.836 360.109 371.248L358.462 366.004C358.234 365.288 357.524 364.879 356.815 365.032L350.936 366.209C350.227 366.362 349.745 367.027 349.847 367.744L349.872 368.025L350.48 373.576C350.556 374.164 350.252 374.727 349.72 375.008C348.453 375.673 347.237 376.441 346.071 377.336C345.438 377.822 344.855 378.334 344.297 378.845C343.917 379.229 343.335 379.331 342.853 379.126L337.785 377.131C337.101 376.85 336.316 377.157 335.986 377.822L333.326 383.245C333.25 383.398 333.199 383.552 333.199 383.731C333.148 384.242 333.377 384.78 333.833 385.087L337.279 387.312C337.709 387.593 337.937 388.079 337.912 388.565C337.912 388.693 337.887 388.821 337.836 388.949C336.797 392.07 336.366 395.344 336.595 398.618C336.645 399.181 336.341 399.693 335.86 399.948C335.784 399.974 335.708 400.025 335.632 400.051L330.969 401.534C330.285 401.739 329.88 402.455 330.032 403.146L330.057 403.274L331.197 409.08C331.425 409.797 332.084 410.283 332.819 410.206ZM373.26 392.07C373.614 392.991 373.918 393.963 374.121 395.011C374.501 397.007 374.096 400.179 373.209 402.02C373.107 402.225 373.006 402.404 372.905 402.609C366.722 414.196 350.505 411.894 347.845 398.823C347.49 397.109 347.718 394.628 348.326 392.709C348.478 392.274 348.63 391.865 348.808 391.507C349.644 389.844 350.657 388.437 351.823 387.312C358.487 380.84 369.611 382.963 373.26 392.07Z" fill="#8C9DF4"/>
<path fill-rule="evenodd" clip-rule="evenodd" d="M834.814 466.226H922.199C930.254 466.226 936.837 459.619 936.876 451.535V378.545C936.876 370.461 930.293 363.854 922.238 363.854H778.762C770.707 363.854 764.124 370.461 764.124 378.545V451.535C764.124 459.619 770.707 466.226 778.762 466.226H818.038L810.333 503.635L834.814 466.226Z" fill="#2A4E96"/>
<path d="M842.197 447.743H778.331V427.467H842.197V447.743ZM779.106 446.969H841.423V428.241H779.106V446.969Z" fill="#C0D4FF"/>
<path d="M807.689 432.924H782.979V434.549H807.689V432.924Z" fill="#C0D4FF"/>
<path d="M827.829 432.923H810.284V434.548H827.829V432.923Z" fill="#C0D4FF"/>
<path d="M796.613 437.49H782.979V439.115H796.613V437.49Z" fill="#C0D4FF"/>
<path d="M816.443 437.49H798.898V439.115H816.443V437.49Z" fill="#C0D4FF"/>
<path d="M835.806 437.49H818.262V439.115H835.806V437.49Z" fill="#C0D4FF"/>
<path d="M918.339 447.743H854.473V427.467H918.339V447.743ZM855.286 446.969H917.603V428.241H855.286V446.969Z" fill="#C0D4FF"/>
<path d="M883.829 432.924H859.119V434.549H883.829V432.924Z" fill="#C0D4FF"/>
<path d="M903.968 432.923H886.423V434.548H903.968V432.923Z" fill="#C0D4FF"/>
<path d="M872.752 437.49H859.119V439.115H872.752V437.49Z" fill="#C0D4FF"/>
<path d="M892.584 437.49H875.039V439.115H892.584V437.49Z" fill="#C0D4FF"/>
<path d="M911.946 437.49H894.401V439.115H911.946V437.49Z" fill="#C0D4FF"/>
<path d="M922.33 419.418H778.331V407.733H922.33V419.418ZM779.687 418.025H920.936V409.087H779.687V418.025Z" fill="#C0D4FF"/>
<path d="M890.805 408.43H779.029V418.722H890.805V408.43Z" fill="#C0D4FF"/>
<path d="M922.33 396.202H778.331V384.555H922.33V396.202ZM779.687 394.848H920.936V385.909H779.687V394.848Z" fill="#C0D4FF"/>
<path d="M853.197 384.555H778.331V396.202H853.197V384.555Z" fill="#F99746"/>
<path d="M185.877 643.54V676.672H243.903V699.953H185.877V745.622H156.865V620.258H251.604V643.54H185.877ZM368.312 722.34V745.622H271.245V620.258H365.984V643.54H300.078V670.762H358.283V693.327H300.078V722.34H368.312ZM473.958 718.758H415.753L404.649 745.622H374.92L430.797 620.258H459.451L515.507 745.622H485.061L473.958 718.758ZM464.824 696.73L444.945 648.733L425.066 696.73H464.824ZM548.185 643.898H508.069V620.258H617.314V643.898H577.198V745.622H548.185V643.898ZM686.523 747.771C668.614 747.771 654.645 742.816 644.616 732.906C634.706 722.996 629.751 708.848 629.751 690.462V620.258H658.764V689.387C658.764 711.833 668.077 723.056 686.702 723.056C695.776 723.056 702.701 720.37 707.477 714.997C712.252 709.505 714.64 700.968 714.64 689.387V620.258H743.295V690.462C743.295 708.848 738.28 722.996 728.251 732.906C718.342 742.816 704.432 747.771 686.523 747.771ZM851.839 745.622L827.662 710.699H826.229H800.977V745.622H771.965V620.258H826.229C837.333 620.258 846.944 622.109 855.063 625.81C863.301 629.511 869.629 634.764 874.047 641.57C878.464 648.375 880.673 656.434 880.673 665.747C880.673 675.06 878.404 683.119 873.867 689.924C869.45 696.61 863.122 701.744 854.884 705.326L883.001 745.622H851.839ZM851.302 665.747C851.302 658.703 849.034 653.33 844.497 649.629C839.96 645.808 833.333 643.898 824.617 643.898H800.977V687.596H824.617C833.333 687.596 839.96 685.686 844.497 681.865C849.034 678.045 851.302 672.672 851.302 665.747ZM1000.73 722.34V745.622H903.66V620.258H998.399V643.54H932.493V670.762H990.698V693.327H932.493V722.34H1000.73ZM1065 747.771C1055.09 747.771 1045.48 746.457 1036.17 743.831C1026.98 741.085 1019.57 737.562 1013.96 733.264L1023.81 711.415C1029.18 715.355 1035.57 718.519 1042.97 720.907C1050.38 723.295 1057.78 724.489 1065.18 724.489C1073.42 724.489 1079.51 723.295 1083.45 720.907C1087.39 718.4 1089.36 715.116 1089.36 711.057C1089.36 708.072 1088.16 705.625 1085.78 703.714C1083.51 701.685 1080.52 700.073 1076.82 698.879C1073.24 697.685 1068.35 696.372 1062.14 694.939C1052.59 692.67 1044.76 690.402 1038.68 688.133C1032.59 685.865 1027.33 682.223 1022.92 677.209C1018.62 672.194 1016.47 665.508 1016.47 657.151C1016.47 649.868 1018.44 643.301 1022.38 637.451C1026.32 631.481 1032.23 626.765 1040.11 623.303C1048.11 619.84 1057.84 618.109 1069.3 618.109C1077.3 618.109 1085.12 619.064 1092.76 620.974C1100.4 622.885 1107.09 625.631 1112.82 629.213L1103.86 651.241C1092.28 644.674 1080.7 641.391 1069.12 641.391C1061 641.391 1054.97 642.704 1051.03 645.331C1047.21 647.957 1045.3 651.42 1045.3 655.718C1045.3 660.016 1047.51 663.24 1051.93 665.389C1056.47 667.419 1063.33 669.448 1072.52 671.478C1082.08 673.746 1089.9 676.015 1095.98 678.283C1102.07 680.552 1107.27 684.134 1111.57 689.029C1115.98 693.924 1118.19 700.55 1118.19 708.908C1118.19 716.072 1116.16 722.638 1112.1 728.608C1108.16 734.458 1102.19 739.115 1094.19 742.577C1086.19 746.039 1076.46 747.771 1065 747.771Z" fill="#6F74DD"/>
<path d="M703.471 587.851C702.472 590.478 700.77 593.55 698.995 594.327C696.96 595.178 696.11 596.399 696.11 596.399L694.482 595.437L692.521 594.29C692.521 594.29 692.558 594.068 692.669 593.735C692.78 593.365 692.928 592.884 693.113 592.366C693.113 592.366 693.705 591.589 693.335 590.626C692.965 589.664 693.039 588.147 693.668 587.259C694.297 586.334 694.889 584.114 695.259 584.188C696.184 584.336 694.815 587.444 695.185 587.999C695.555 588.517 695.999 588.332 696.073 588.295C698.625 587.185 701.732 581.079 703.138 581.893C703.693 582.189 703.914 586.704 703.471 587.851Z" fill="#FFB27D"/>
<path d="M694.631 591.515L697.849 593.773C698.071 593.921 698.404 593.884 698.552 593.662L706.764 581.968C706.912 581.746 706.875 581.413 706.653 581.265L703.435 579.008C703.213 578.86 702.88 578.897 702.732 579.119L694.52 590.812C694.335 591.034 694.372 591.367 694.631 591.515Z" fill="#2B478B"/>
<path d="M697.552 593.588L699.439 594.92C699.624 595.031 699.846 594.994 699.957 594.809L708.317 582.893C708.427 582.708 708.391 582.486 708.206 582.375L706.319 581.043C706.134 580.932 705.912 580.969 705.801 581.154L697.441 593.069C697.33 593.218 697.367 593.477 697.552 593.588Z" fill="#233862"/>
<path d="M648.541 574.715C648.541 574.715 664.891 603.209 670.809 608.464L692.559 592.256C692.559 592.256 695.704 593.218 697.109 596.4C697.109 596.4 683.904 623.303 670.92 624.45C657.936 625.597 639.7 592.219 639.7 592.219L648.541 574.715Z" fill="#233862"/>
<path d="M611.586 768.621H602.117C600.933 767.992 599.86 766.512 599.528 764.292C599.084 761.257 595.644 759.592 594.904 757.113C594.164 754.633 597.937 751.118 597.937 751.118L598.566 750.304L599.232 749.453L605.483 750.933C605.483 750.933 605.631 752.413 605.742 754.337C605.816 755.706 605.853 757.298 605.779 758.667C605.594 761.997 606.704 765.55 609.663 766.216C611.882 766.697 611.771 767.992 611.586 768.621Z" fill="#233862"/>
<path d="M666.368 768.621H644.766C643.73 767.363 644.1 762.663 644.285 761.146C644.322 760.85 644.322 760.665 644.322 760.665C644.322 760.665 651.683 754.781 652.719 759.296C652.755 759.444 652.792 759.592 652.829 759.703C654.087 763.922 659.821 765.846 663.15 766.401C665.258 766.734 666.072 767.844 666.368 768.621Z" fill="#233862"/>
<path d="M662.263 648.059C662.263 648.059 661.153 662.047 659.821 678.81C658.046 701.642 655.9 729.655 655.678 734.947C655.308 744.161 653.829 758.926 653.829 758.926C653.829 758.926 650.315 762.441 643.324 760.961C643.324 760.961 637.072 739.905 635.297 717.629C635.26 717.259 635.26 716.888 635.223 716.518C633.558 693.834 630.969 646.098 630.969 646.098L662.263 648.059Z" fill="#F99746"/>
<path d="M662.263 648.059C662.263 648.059 661.153 662.047 659.821 678.81L635.297 717.629C635.26 717.258 635.26 716.888 635.223 716.518C633.558 693.834 630.969 646.098 630.969 646.098L662.263 648.059Z" fill="#ED7D2B"/>
<path d="M657.121 649.725C657.121 649.725 636.961 700.31 623.682 724.105C610.402 747.899 606.259 754.523 606.259 754.523C606.259 754.523 598.676 751.488 597.974 749.416C597.974 749.416 603.041 703.493 611.919 692.317C616.95 685.99 622.831 667.006 623.127 660.382C623.386 653.758 624.94 640.622 624.94 640.622L657.121 649.725Z" fill="#F99746"/>
<path d="M652.129 575.973C644.25 578.453 630.601 571.755 630.601 571.755C630.601 571.755 637.888 566.278 637.481 554.955L643.584 559.876L647.727 563.207C647.727 563.207 647.727 565.168 647.246 568.609C647.135 569.535 646.987 570.534 646.802 571.644C650.168 573.494 652.129 575.973 652.129 575.973Z" fill="#FFB27D"/>
<path d="M647.727 563.169C647.727 563.169 647.727 565.131 647.246 568.572C642.659 567.795 637.443 560.357 637.443 560.357C639.774 559.691 641.808 559.543 643.584 559.802L647.727 563.169Z" fill="#ED975D"/>
<path d="M650.132 562.984C650.132 562.984 637.111 565.13 635.891 557.026C634.67 548.885 632.155 543.705 640.44 541.965C648.689 540.226 650.798 543.113 651.87 545.703C652.906 548.33 653.498 562.207 650.132 562.984Z" fill="#FFB27D"/>
<path d="M663.115 649.242C662.893 649.427 662.597 649.575 662.301 649.575C659.342 649.538 650.723 651.167 643.399 650.427C637.222 649.834 631.784 648.021 625.94 645.394C625.163 645.061 623.387 644.099 623.424 643.211C623.461 642.248 623.535 640.879 623.646 639.14C624.053 633.108 624.793 622.71 624.09 610.72C623.979 608.5 623.905 606.28 623.905 604.096C623.831 587.851 627.049 573.53 633.56 568.683C634.115 568.276 637.518 569.941 640.625 571.495C643.51 572.901 646.395 573.086 649.096 572.531L651.833 574.937C655.162 578.008 658.787 582.19 660.378 588.554C661.709 593.957 662.523 603.726 662.93 613.829C663.115 618.417 663.3 623.043 663.337 627.41V627.558C663.374 628.002 663.374 628.483 663.374 628.89C663.485 640.139 663.3 649.094 663.115 649.242Z" fill="#2B478B"/>
<path d="M623.646 639.103C624.053 633.071 624.793 622.673 624.09 610.683C623.979 608.463 623.905 606.243 623.905 604.059C626.606 597.51 628.825 592.773 628.825 592.773H635.631C635.557 592.773 640.551 626.817 623.646 639.103Z" fill="#233862"/>
<path d="M588.802 677.737L617.802 681.882C621.575 682.437 625.09 679.772 625.644 675.998L627.42 663.416C627.975 659.642 625.311 656.126 621.538 655.571L592.538 651.427C588.765 650.872 585.251 653.536 584.696 657.31L582.921 669.892C582.403 673.667 585.029 677.182 588.802 677.737Z" fill="#233862"/>
<path d="M623.203 659.308C622.389 657.273 620.613 655.645 618.394 655.127C618.172 655.09 617.95 655.016 617.728 654.979L611.958 654.165L612.327 651.463C612.401 650.871 612.253 650.242 611.884 649.761C611.514 649.28 610.959 648.947 610.367 648.873L608.85 648.651L602.784 647.8L601.674 647.652C600.417 647.467 599.27 648.355 599.085 649.613L598.715 652.314L588.765 650.908C584.992 650.353 581.441 653.018 580.886 656.829L579.073 669.559C578.518 673.333 581.182 676.886 584.992 677.441L613.918 681.585C614.436 681.659 614.917 681.659 615.435 681.622C616.211 681.548 616.988 681.363 617.691 681.067C619.836 680.142 621.427 678.144 621.797 675.665L623.609 662.935C623.794 661.603 623.609 660.382 623.203 659.308ZM600.527 649.761C600.564 649.391 600.897 649.095 601.23 649.021C601.304 649.021 601.415 649.021 601.489 649.021L602.784 649.206L607.556 649.872L610.145 650.242C610.626 650.316 610.922 650.76 610.885 651.204L610.515 653.906L600.158 652.425L600.527 649.761Z" fill="#2B478B"/>
<path d="M610.848 640.287C610.848 640.287 609.332 642.323 609.258 643.137C608.851 648.65 611.366 649.391 604.856 652.462C604.856 652.462 602.081 653.535 602.044 651.352C602.007 649.205 603.968 649.168 603.598 646.134C603.191 642.656 603.228 642.619 605.521 640.805L607.038 638.289L610.848 640.287Z" fill="#FFB27D"/>
<path d="M607.001 641.842C609.442 642.323 612.106 642.138 612.106 642.138C612.106 642.138 619.356 619.676 620.317 617.641C621.242 615.605 641.92 591.293 641.92 591.293L633.301 569.756C633.301 569.756 610.959 607.094 608.702 612.349C604.966 621.008 603.635 640.436 603.635 640.436C603.635 640.436 605.077 641.472 607.001 641.842Z" fill="#2B478B"/>
<path d="M635.853 556.25C635.853 556.25 637.185 556.028 636.963 554.177C636.741 552.327 636.741 549.922 638.258 550.366C639.737 550.81 639.811 552.031 640.44 551.328C641.069 550.625 641.069 547.664 645.508 547.479C649.947 547.257 651.759 548.812 653.831 547.923C655.902 546.998 656.013 543.89 656.013 543.89C656.013 543.89 655.421 545 654.533 545.37C654.533 545.37 657.973 540.634 653.979 537.414C649.984 534.158 645.915 536.304 643.584 536.452C638.48 536.748 635.188 537.081 633.523 540.411C631.895 543.705 632.598 553.03 635.853 556.25Z" fill="#2B478B"/>
<path d="M608.444 642.692C608.444 642.692 609.923 644.21 609.997 644.876C610.293 646.911 610.959 647.799 610.626 648.021C609.923 648.465 608.962 646.985 608.518 645.616C608.111 644.247 608.444 642.692 608.444 642.692Z" fill="#FFB27D"/>
<path d="M499.829 612.193C503.328 618.714 507.962 621.974 507.962 621.974H527.276C527.246 621.974 497.138 607.228 499.829 612.193Z" fill="#233862"/>
<path d="M513.253 662.174C513.731 662.772 513.791 663.4 513.522 664.088C513.014 665.344 511.459 666.72 509.665 668.096C509.426 668.276 509.217 668.425 509.037 668.575C508.978 668.605 508.948 668.664 508.888 668.694C508.858 668.724 508.828 668.754 508.768 668.784C507.094 670.25 507.692 670.609 504.642 673.63C501.174 677.039 498.872 677.039 498.214 676.71C497.676 676.411 498.842 674.587 500.157 672.553C500.217 672.463 500.277 672.343 500.337 672.254C500.516 671.984 500.696 671.715 500.845 671.416C502.4 668.934 502.041 667.737 501.802 663.998C501.593 660.948 497.526 646.89 497.526 646.89L504.014 645.962C504.014 645.962 505.659 657.119 507.752 658.884C508.858 659.841 510.144 659.871 511.25 660.589C511.34 660.648 511.399 660.678 511.489 660.738C512.147 661.157 512.775 661.576 513.253 662.174Z" fill="#FFB27D"/>
<path d="M513.254 662.174C513.732 662.772 513.792 663.4 513.523 664.088C512.925 665.344 511.4 666.72 509.666 668.066C509.427 668.245 509.247 668.395 509.068 668.574C509.008 668.604 508.978 668.664 508.919 668.694C508.889 668.724 508.859 668.754 508.799 668.784C507.125 670.249 507.723 670.608 504.673 673.629C501.205 677.039 498.902 677.039 498.245 676.71C497.707 676.411 498.873 674.586 500.188 672.553C500.846 672.343 503.925 671.177 506.317 668.305C508.41 665.763 509.845 662.473 511.281 660.588C511.37 660.648 511.43 660.678 511.52 660.738C512.148 661.157 512.775 661.575 513.254 662.174Z" fill="#233862"/>
<path d="M461.319 656.73C460.871 658.704 458.03 658.316 454.891 657.448C451.752 656.581 452.469 657.538 447.954 656.91C443.44 656.282 442.124 654.577 442.005 653.889C441.885 653.291 444.127 653.141 446.549 652.932C446.848 652.902 447.147 652.872 447.446 652.842C450.167 652.573 452.17 650.898 454.682 649.522C457.044 648.236 460.661 642.792 460.661 642.792L466.85 643.45C466.85 643.45 463.472 648.296 462.156 650.419C461.379 651.675 461.379 653.32 461.439 654.637C461.469 655.324 461.498 656.042 461.319 656.73Z" fill="#FFB27D"/>
<path d="M454.891 657.448C451.752 656.581 452.469 657.538 447.954 656.91C443.44 656.282 442.124 654.577 442.005 653.889C441.885 653.291 444.127 653.141 446.549 652.932L446.579 652.991C446.579 652.991 449.24 654.995 452.977 655.175C456.027 655.324 459.316 654.547 461.409 654.637C461.439 655.324 461.469 656.042 461.289 656.76C460.871 658.704 458.06 658.286 454.891 657.448Z" fill="#233862"/>
<path d="M486.134 617.757L491.486 633.49L498.512 654.068C498.512 654.068 500.545 654.308 502.548 653.799C504.372 653.32 506.495 652.004 506.495 652.004C506.495 652.004 505 630.11 501.412 617.458C500.455 614.228 499.409 611.595 498.213 610.1C492.353 602.742 486.134 617.757 486.134 617.757Z" fill="#233862"/>
<path d="M492.683 593.171C496.51 592.064 507.274 593.918 518.097 596.341L520.489 592.662L544.019 591.466C544.019 591.466 551.284 608.844 546.77 619.701C546.112 621.287 544.916 622.004 542.823 621.974C542.823 621.974 542.644 621.974 542.405 621.974C542.405 621.974 528.442 622.094 523.897 621.974C512.237 621.645 499.41 613.031 497.736 612.672C494.985 612.044 493.73 617.548 490.829 623.261C487.899 628.974 464.19 648.206 464.19 648.206C464.19 648.206 460.632 648.146 459.167 647.548C457.612 646.92 457.044 646.112 457.044 646.112C457.044 646.112 484.072 595.713 492.683 593.171Z" fill="#2B478B"/>
<path d="M521.505 560.329C529.727 565.174 546.44 575.164 546.53 575.104C546.53 575.104 552.689 577.617 556.307 575.374C562.316 571.605 565.755 561.166 555.23 551.804C549.968 547.138 546.201 545.942 545.812 538.704C545.603 534.785 540.61 521.714 531.67 522.672C530.923 522.761 530.175 522.791 529.428 522.761C528.381 522.701 526.677 522.791 524.883 523.808C519.741 526.65 509.007 558.205 521.505 560.329Z" fill="#233862"/>
<path d="M528.622 556.62C528.592 556.65 532.688 558.175 535.498 557.009C538.129 555.932 540.222 551.685 540.192 551.685C538.997 551.595 537.741 550.518 536.904 543.699L536.395 543.878L527.814 546.72C527.814 546.72 528.353 549.471 528.682 552.074C528.951 554.227 529.07 556.321 528.622 556.62Z" fill="#FFB27D"/>
<path d="M527.814 546.66C527.814 546.66 528.353 549.412 528.682 552.014C533.585 551.266 535.648 546.45 536.395 543.818L527.814 546.66Z" fill="#ED975D"/>
<path d="M526.468 549.351C526.468 549.351 538.128 548.095 537.261 540.857C536.364 533.589 537.291 528.564 529.787 529.042C522.312 529.521 521.206 532.482 520.907 534.964C520.608 537.447 523.418 549.471 526.468 549.351Z" fill="#FFB27D"/>
<path d="M521.445 530.987C521.445 530.987 528.711 537.597 533.764 538.255C538.816 538.913 540.76 537.328 540.76 537.328C540.76 537.328 537.83 534.756 536.155 530.718C535.647 529.521 534.571 528.684 533.285 528.534C529.667 528.145 522.821 527.816 521.445 530.987Z" fill="#233862"/>
<path d="M526.111 530.568C526.111 530.568 523.569 532.901 522.732 534.666C521.925 536.37 521.596 540.498 522.134 542.143C522.134 542.143 518.457 534.486 520.759 530.897C523.181 527.038 526.111 530.568 526.111 530.568Z" fill="#233862"/>
<path d="M518.336 573.489C518.037 597.058 517.917 592.123 520.429 594.426C521.027 594.995 522.761 595.354 525.063 595.563C532.269 596.251 544.976 595.383 545.514 594.067C547.308 589.491 546.171 588.026 547.756 580.997C547.936 580.249 548.115 579.441 548.354 578.574C549.64 573.758 550.806 572.143 546.919 564.217C543.391 557.038 539.683 551.206 539.325 551.415C529.339 556.978 528.681 552.043 528.681 552.043C528.681 552.043 518.485 561.974 518.336 573.489Z" fill="white"/>
<path d="M491.487 633.52L498.513 654.068C498.513 654.068 500.547 654.308 502.55 653.799C504.374 653.321 506.496 652.005 506.496 652.005C506.496 652.005 505.002 630.11 501.414 617.458L491.487 633.52Z" fill="#2B478B"/>
<path d="M528.681 552.014C528.681 552.014 518.515 553.449 517.2 557.786C515.884 562.123 508.2 587.547 508.2 587.547C508.2 587.547 513.313 588.624 515.765 586.291C518.216 583.988 524.644 564.456 524.644 564.456L528.681 552.014Z" fill="white"/>
<path d="M525.093 595.533C532.298 596.221 545.005 595.354 545.543 594.038C547.337 589.462 546.201 587.996 547.786 580.967L544.557 571.097C544.557 571.097 544.826 582.044 541.537 584.826C538.248 587.607 528.202 590 526.588 592.363C525.78 593.47 525.242 594.636 525.093 595.533Z" fill="#EBF3FF"/>
<path d="M533.465 591.167C533.465 591.167 526.379 589.372 525.213 590C524.047 590.628 521.177 592.842 520.788 593.619C520.429 594.397 523.359 593.081 524.316 592.842C524.944 592.692 526.529 593.29 527.336 593.589C530.655 594.816 532.748 594.277 532.748 594.277L533.465 591.167Z" fill="#FFB27D"/>
<path d="M539.324 551.386C539.324 551.386 548.862 552.223 552.061 556.949C556.546 563.589 565.037 591.526 559.625 595.085C553.556 599.093 532.448 595.444 532.448 595.444C532.448 595.444 531.82 592.124 532.866 590.568C533.883 589.013 549.908 586.86 550.656 586.142C551.403 585.424 541.866 571.545 541.925 569.332C541.985 567.089 539.324 551.386 539.324 551.386Z" fill="white"/>
<path d="M524.825 591.974C524.825 591.974 523.27 593.858 522.792 594.068C522.283 594.277 521.984 594.217 521.984 594.217L523.031 592.423L524.825 591.974Z" fill="#FFB27D"/>
<path d="M525.243 590L520.848 591.974C520.848 591.974 521.027 592.273 521.565 592.273C522.103 592.273 523.449 591.795 523.449 591.795L525.243 590Z" fill="#FFB27D"/>
<path d="M522.73 597.029L488.407 596.102L478.779 570.14L513.043 571.067L522.73 597.029Z" fill="#F99746"/>
<path d="M488.018 595.084L533.344 596.311L533.314 597.328L488.406 596.101L488.018 595.084Z" fill="#ED7D2B"/>
<path d="M497.406 583.479C497.167 582.582 497.705 581.864 498.602 581.864C499.499 581.894 500.426 582.642 500.665 583.569C500.905 584.466 500.366 585.184 499.469 585.184C498.572 585.154 497.646 584.407 497.406 583.479Z" fill="white"/>
<path d="M818.044 550.684C818.044 550.684 821.649 556.03 823.71 567.238C825.513 577.061 827.09 580.668 829.698 582.697C832.306 584.726 846.761 590.652 846.761 590.652L845.666 593.197C845.666 593.197 824.45 590.298 822.068 586.755C819.686 583.212 810.607 562.246 811.315 557.415C812.023 552.584 818.044 550.684 818.044 550.684Z" fill="#F4A269"/>
<path d="M876.959 662.731C877.184 664.792 880.114 664.728 883.398 664.245C886.714 663.762 885.844 664.631 890.48 664.535C895.116 664.47 896.694 662.86 896.887 662.183C897.08 661.604 894.826 661.153 892.412 660.638C892.122 660.573 891.8 660.509 891.51 660.444C888.806 659.832 886.939 657.868 884.589 656.193C882.335 654.583 879.341 648.624 879.341 648.624L872.999 648.528C872.999 648.528 875.832 653.874 876.927 656.161C877.57 657.513 877.345 659.22 877.152 660.509C876.991 661.282 876.894 662.022 876.959 662.731Z" fill="#FFB27D"/>
<path d="M883.397 664.245C886.713 663.762 885.843 664.631 890.479 664.535C895.115 664.47 896.693 662.86 896.886 662.184C897.079 661.604 894.825 661.153 892.411 660.638L892.379 660.67C892.379 660.67 889.449 662.377 885.618 662.087C882.495 661.861 879.276 660.67 877.119 660.509C876.99 661.217 876.893 661.958 876.958 662.667C877.183 664.792 880.081 664.728 883.397 664.245Z" fill="#C65447"/>
<path d="M808.127 594.066C808.127 594.066 849.754 594.26 857.545 599.187C865.304 604.083 883.011 654.647 883.011 654.647C883.011 654.647 881.626 656.451 879.92 656.709C877.184 657.095 875.606 656 875.606 656C875.606 656 851.879 632.393 850.624 625.951C849.368 619.51 849.658 613.745 846.792 613.616C843.927 613.455 808.095 617.964 802.687 608.431C797.278 598.898 801.753 589.429 801.753 589.429L808.127 594.066Z" fill="#EF7E29"/>
<path d="M854.841 661.797C854.873 663.89 857.803 664.051 861.151 663.858C864.499 663.633 863.566 664.438 868.202 664.76C872.837 665.082 874.512 663.633 874.769 662.956C874.995 662.377 872.805 661.765 870.423 661.056C870.133 660.959 869.843 660.863 869.522 660.798C866.849 659.961 865.175 657.868 862.986 655.967C860.894 654.196 858.382 647.98 858.382 647.98L852.072 647.368C852.072 647.368 854.455 652.94 855.324 655.323C855.839 656.74 855.485 658.415 855.163 659.671C855.002 660.348 854.809 661.056 854.841 661.797Z" fill="#FFB27D"/>
<path d="M861.119 663.826C864.467 663.6 863.533 664.405 868.169 664.727C872.805 665.049 874.479 663.6 874.737 662.924C874.962 662.344 872.773 661.732 870.391 661.024L870.359 661.056C870.359 661.056 867.3 662.505 863.501 661.925C860.411 661.442 857.288 659.993 855.163 659.639C855.002 660.347 854.809 661.056 854.841 661.797C854.873 663.858 857.803 664.051 861.119 663.826Z" fill="#C65447"/>
<path d="M800.046 596.611C800.046 596.611 836.716 598.35 844.313 603.567C851.879 608.785 862.535 652.618 862.535 652.618C862.535 652.618 860.925 654.744 859.316 655.324C857.255 656.065 854.454 655.227 854.454 655.227C854.454 655.227 839.742 637.481 838.712 630.975C837.714 624.502 836.104 621.152 833.239 620.895C830.373 620.637 802.236 626.112 789.358 614.003C781.374 606.434 800.046 596.611 800.046 596.611Z" fill="#F99746"/>
<path d="M812.603 547.753C813.311 546.497 814.18 544.242 814.792 540.184C814.727 540.571 813.665 545.692 811.476 548.494C802.977 553.293 789.552 571.328 789.648 574.742C789.648 574.742 781.407 563.824 781.31 563.76C781.31 563.76 772.038 550.201 784.529 543.598C790.872 540.249 791.161 535.418 791.194 531.231C791.226 527.012 794.349 509.137 806.26 514.677C806.26 514.677 808.289 513.936 809.158 514.129C809.158 514.129 808.417 514.226 808.031 514.58C809.448 514.58 811.476 514.838 813.118 515.9C817.432 518.735 819.911 541.859 812.603 547.753Z" fill="#B5453C"/>
<path d="M798.502 544.532C798.502 544.532 801.914 544.21 805.327 544.532C807.645 544.758 809.963 545.466 811.25 546.014C814.47 547.366 814.148 553.099 807.355 552.036C800.562 550.974 798.019 546.239 798.502 544.532Z" fill="#FFB27D"/>
<path d="M810.96 548.719C810.992 548.751 811.926 553.647 807.483 553.454C804.554 553.325 798.276 549.782 798.823 547.302C799.081 546.11 801.302 543.051 801.72 535.998L802.236 536.126L811.153 538.51C811.153 538.51 810.767 541.344 810.574 544.017C810.477 546.304 810.477 548.462 810.96 548.719Z" fill="#FFB27D"/>
<path d="M811.218 538.542C811.218 538.542 810.831 541.376 810.638 544.049C805.584 543.566 803.234 538.767 802.3 536.126L811.218 538.542Z" fill="#F4A269"/>
<path d="M801.431 535.096C801.431 535.096 799.049 530.715 798.662 527.108C798.373 524.532 800.304 515.127 809.737 517.124C809.737 517.124 812.474 517.575 814.985 519.507C816.949 521.053 819.75 524.274 815.854 532.326L814.792 535.063L801.431 535.096Z" fill="#B5453C"/>
<path d="M812.731 541.183C812.731 541.183 800.755 540.571 801.238 533.131C801.721 525.659 800.497 520.57 808.192 520.635C815.854 520.699 817.174 523.662 817.593 526.174C818.043 528.687 815.854 541.151 812.731 541.183Z" fill="#FFB27D"/>
<path d="M813.633 520.796C813.633 520.796 809.769 529.331 804.651 530.297C799.532 531.263 797.439 529.749 797.439 529.749C797.439 529.749 801.496 526.947 802.655 521.633C802.687 521.665 811.444 516.48 813.633 520.796Z" fill="#B5453C"/>
<path d="M812.796 521.472C812.796 521.472 815.114 523.598 815.597 525.53C816.08 527.463 816.08 531.392 817.239 531.328C817.239 531.328 820.104 525.53 817.561 521.988C814.824 518.219 812.796 521.472 812.796 521.472Z" fill="#B5453C"/>
<path d="M824.74 594.678C823.774 595.838 820.748 596.192 817.497 596.739C814.953 597.158 812.281 597.673 810.382 598.801C806.068 601.345 791.934 609.912 787.814 609.526C786.204 609.364 786.526 606.305 787.492 602.247C789.037 595.838 792.224 586.916 792.224 583.052C792.224 580.926 792.932 575.934 793.866 570.201C793.93 569.75 794.027 569.267 794.091 568.816C795.959 557.673 798.534 544.564 798.534 544.564C798.534 544.564 801.399 550.845 807.001 550.845C812.603 550.845 811.283 546.078 811.283 546.078C811.283 546.078 816.402 546.69 817.593 547.978C818.816 549.267 821.843 554.903 822.454 556.417C822.454 556.417 822.583 558.381 817.754 559.283C817.754 559.283 818.945 564.565 819.074 568.108C819.171 570.716 817.303 578.865 816.756 583.953C816.563 585.757 816.531 587.174 816.82 587.786C817.207 588.591 818.398 589.428 819.782 590.234C822.487 591.78 825.867 593.293 824.74 594.678Z" fill="#2B478B"/>
<path d="M819.75 590.202C822.84 595.483 811.347 597.062 809.448 598.189C805.134 600.733 791.902 609.912 787.781 609.526C786.171 609.365 786.493 606.305 787.459 602.247C789.004 595.838 792.192 586.916 792.192 583.052C792.192 580.926 792.9 575.934 793.834 570.201L798.824 565.402C798.824 565.402 804.168 579.187 809.254 581.474C811.927 582.665 814.695 583.438 816.756 583.921C816.563 585.725 816.53 587.142 816.82 587.754C817.174 588.559 818.398 589.396 819.75 590.202Z" fill="#233862"/>
<path d="M796.956 548.687C796.956 548.687 792.706 546.11 788.585 551.006C784.465 555.901 791.515 591.007 797.6 592.81C804.361 594.807 823.967 592.488 823.967 592.488L823.58 589.428C823.58 589.428 802.751 585.435 801.882 584.308C801.012 583.18 799.145 549.234 796.956 548.687Z" fill="#FFB27D"/>
<path d="M798.501 544.532C798.501 544.532 789.745 545.337 787.201 548.204C784.658 551.07 783.917 558.864 783.917 558.864C783.917 558.864 791.612 565.08 800.884 562.665L798.501 544.532Z" fill="#2B478B"/>
<path d="M821.906 589.236C821.906 589.236 828.699 587.915 829.472 588.237C830.245 588.559 834.494 592.392 834.076 593.165C833.625 593.938 831.886 594.485 829.923 593.809C827.959 593.165 823.677 592.811 822.904 591.844C822.099 590.878 821.906 589.236 821.906 589.236Z" fill="#FFB27D"/>
<path d="M827.368 598.073H815.811V596.721H827.368V598.073Z" fill="#9E332E"/>
<path d="M824.901 597.899C825.029 597.448 835.525 580.958 835.525 580.958H858.897L847.179 597.48L824.901 597.899Z" fill="#9E332E"/>
<path d="M825.899 598.092C826.027 597.641 836.555 580.958 836.555 580.958H858.897L847.758 598.092H825.899Z" fill="#B5453C"/>
<path d="M845.601 589.59C845.376 590.266 844.635 590.813 843.959 590.813C843.283 590.813 842.929 590.266 843.154 589.59C843.38 588.913 844.12 588.366 844.796 588.366C845.472 588.366 845.827 588.913 845.601 589.59Z" fill="#9E332E"/>
<path d="M973.96 609.437C973.96 609.295 975.876 605.356 975.273 605.072C974.67 604.752 973.57 604.823 973.464 605.498C973.286 606.172 973.96 609.437 973.96 609.437Z" fill="#FFB27D"/>
<path d="M1002.45 560.349C1002.45 560.349 1013.63 546.897 1019.55 555.487C1019.55 555.487 1023.99 557.332 1025.58 564.857C1027.22 572.524 1022.11 578.38 1019.48 576.925C1017.78 576.002 1016.5 578.948 1016.5 578.948L1002.45 560.349Z" fill="#233862"/>
<path d="M988.543 631.941C979.637 628.675 971.086 613.413 971.086 613.413L973.889 611.461C976.231 614.868 986.733 621.435 986.733 621.435C986.981 618.56 987.336 615.933 987.762 613.555C990.671 597.441 997.377 592.684 999.151 591.691C999.435 591.513 999.612 591.478 999.612 591.478C999.612 591.478 999.612 591.584 999.577 591.832C999.541 592.329 999.506 593.288 999.399 594.637C998.725 604.61 995.993 634.709 988.543 631.941Z" fill="#FFB27D"/>
<path d="M1018.35 554.138C1018.35 554.138 1019.84 548.104 1028.71 549.985C1028.71 549.985 1024.48 549.453 1023.31 551.085C1023.31 551.085 1026.68 549.559 1028.78 550.837C1030.87 552.115 1031.22 556.445 1030.91 557.758C1030.59 559.071 1028.28 563.011 1026.72 563.011C1025.19 563.011 1023.35 561.663 1023.35 561.663L1018.35 554.138Z" fill="#233862"/>
<path d="M1031.58 648.41C1027.18 638.543 1025.09 635.774 1025.02 632.651C1024.95 630.202 1026.15 627.54 1028.53 621.044C1029.1 619.518 1029.45 617.956 1029.7 616.359C1031.54 603.83 1024.31 590.306 1019.84 589.384C1018.59 589.064 1016.47 584.521 1016.5 577.245L1015.93 577.351L1006.46 579.232C1006.46 579.232 1006.67 582.214 1006.67 585.018C1006.67 587.36 1006.53 589.561 1006 589.845C1005.33 589.916 1004.9 589.951 1004.9 589.951C1004.9 589.951 996.987 600.919 996.349 611.106C995.71 621.293 1002.66 625.729 996.313 646.139C989.749 666.974 1033.99 653.841 1031.58 648.41Z" fill="#FFB27D"/>
<path d="M1006.42 579.232C1006.42 579.232 1006.64 582.213 1006.64 585.017C1011.92 584.875 1014.73 580.048 1015.9 577.351L1006.42 579.232Z" fill="#E8945B"/>
<path d="M1016.86 576.321C1016.86 576.321 1019.62 571.92 1020.3 568.193C1020.76 565.531 1019.41 555.593 1009.44 557.013C1009.44 557.013 1006.53 557.297 1003.83 559.142C1001.67 560.597 998.548 563.756 1002.03 572.417L1002.95 575.327L1016.86 576.321Z" fill="#233862"/>
<path d="M1004.65 581.894C1004.65 581.894 1017.18 582.107 1017.21 574.298C1017.21 566.49 1018.84 561.237 1010.82 560.775C1002.81 560.314 1001.25 563.295 1000.64 565.886C999.968 568.513 1001.39 581.646 1004.65 581.894Z" fill="#FFB27D"/>
<path d="M1005.11 560.598C1005.11 560.598 1008.55 569.755 1013.8 571.104C1019.06 572.453 1021.36 571.033 1021.36 571.033C1021.36 571.033 1017.32 567.839 1016.47 562.23C1016.47 562.23 1007.7 556.232 1005.11 560.598Z" fill="#233862"/>
<path d="M1005.96 561.343C1005.96 561.343 1003.41 563.402 1002.77 565.39C1002.13 567.377 1001.85 571.459 1000.68 571.353C1000.68 571.353 998.087 565.106 1001 561.592C1004.08 557.829 1005.96 561.343 1005.96 561.343Z" fill="#233862"/>
<path d="M1020.47 743.037C1017.32 755.602 1012.56 765.221 1012.56 765.221L1008.41 764.937C1008.41 764.937 1010.43 755.283 1010.33 742.256C1010.26 733.134 1009.12 722.38 1005.5 712.086C993.12 676.734 995.142 651.037 995.142 651.037L1018.42 653.77L1019.52 653.912C1019.62 664.595 1019.91 679.112 1020.12 690.471C1020.33 700.693 1020.51 708.324 1020.51 708.324C1024.98 717.872 1023.38 731.502 1020.47 743.037Z" fill="#163560"/>
<path d="M1047.87 658.881L1044.1 660.016C1044.1 660.016 1031.69 639.394 1030.55 634.035C1030.2 632.296 1029.27 628.782 1028.21 624.877C1026.05 616.785 1023.21 606.846 1023.21 606.846L1022.28 602.835L1019.13 589.135C1019.13 589.135 1025.19 589.738 1028.71 591.229C1029.88 591.726 1030.76 592.294 1031.08 593.004C1033.67 598.718 1036.26 613.164 1038.11 623.458C1039.14 629.208 1039.92 633.644 1040.31 634.603C1041.48 637.229 1044.92 651.711 1047.87 658.881Z" fill="#FFB27D"/>
<path d="M1033.82 741.049C1032.47 755.318 1026.58 764.547 1026.58 764.547L1024.59 765.966C1024.59 765.966 1022.71 755.922 1021.4 743.925C1020.12 732.531 1018.42 720.498 1016.47 716.843C1008.7 702.254 1006.39 647.239 1006.39 647.239L1029.98 646.067C1032.36 650.043 1033.39 656.609 1033.64 664.027C1034.24 682.804 1029.84 707.295 1029.2 710.809C1029.17 711.093 1029.24 711.341 1029.34 711.589C1034.03 720.96 1034.7 731.608 1033.82 741.049Z" fill="#1C468A"/>
<path d="M1005.47 561.627C1005.47 561.627 1007.91 571.211 1014.55 574.299C1014.55 574.299 1007.91 568.407 1007.35 562.053C1006.78 555.735 1005.47 561.627 1005.47 561.627Z" fill="#233862"/>
<path d="M1034.52 655.509C1034.56 656.29 1034.52 656.928 1034.38 657.39C1033.89 658.987 1032.15 659.697 1028 659.271C1025.44 659.023 1024.31 654.728 1023.81 651.107C1022.28 656.325 1020.16 659.236 1017.39 659.874C1013.34 660.762 992.978 663.246 991.629 653.556C990.175 642.908 994.539 624.025 994.787 613.839C994.184 610.218 993.971 607.095 994.042 604.397C994.219 597.156 996.348 593.075 997.98 591.442C998.441 591.087 998.903 590.874 1000.78 590.555C1001.74 590.377 1003.05 590.2 1004.9 589.951L1005.64 589.88C1005.29 590.484 1000.68 597.476 1001.03 599.286C1001.42 601.167 1017.78 599.464 1018.91 598.434C1020.05 597.405 1021.82 589.49 1021.82 589.49C1021.82 589.49 1027.61 590.129 1030.44 592.187C1030.44 592.187 1030.44 592.187 1030.41 592.223C1030.76 592.471 1031.01 592.72 1031.15 593.004C1034.17 598.754 1037.19 613.306 1039.31 623.671C1034.17 626.51 1029.66 625.658 1028.28 625.303C1030.13 637.265 1034.24 650.078 1034.52 655.509Z" fill="#F99746"/>
<path d="M973.89 611.461C973.89 611.07 974.209 605.462 973.215 604.291C972.222 603.12 970.2 601.451 969.526 601.487C968.887 601.522 966.368 604.859 967.148 607.414C967.893 609.97 971.087 613.413 971.087 613.413L973.89 611.461Z" fill="#FFB27D"/>
<path d="M978.466 604.611L972.647 606.35C972.469 606.421 972.257 606.314 972.186 606.101L968.886 595.027C968.815 594.85 968.921 594.637 969.134 594.566L974.953 592.827C975.13 592.756 975.343 592.862 975.414 593.075L978.714 604.149C978.749 604.362 978.643 604.575 978.466 604.611Z" fill="#F1A34F"/>
<path d="M976.94 605.072L971.689 606.634C971.334 606.74 970.979 606.527 970.873 606.208L967.715 595.666C967.609 595.311 967.822 594.956 968.141 594.85L973.392 593.288C973.747 593.181 974.102 593.394 974.208 593.714L977.366 604.256C977.508 604.611 977.295 604.965 976.94 605.072Z" fill="#D86713"/>
<path d="M1033.81 741.049C1032.47 755.318 1026.58 764.546 1026.58 764.546L1024.55 766.392C1024.55 766.392 1022.71 755.921 1021.4 743.96C1022.82 744.066 1028.95 744.279 1033.81 741.049Z" fill="#FFB27D"/>
<path d="M1020.47 743.037C1017.32 755.602 1012.56 765.221 1012.56 765.221L1008.41 764.937C1008.41 764.937 1010.43 755.283 1010.33 742.256C1011.75 742.931 1014.62 743.676 1020.47 743.037Z" fill="#D9935C"/>
<path d="M1014.94 768.664H1012.31C1011.43 768.522 1010.79 768.273 1009.87 768.167C1008.48 767.989 1007.84 768.557 1007.74 768.664L1007.7 768.699H996.49C996.206 768.309 996.49 767.35 996.738 766.676C996.916 766.215 997.306 765.86 997.803 765.718C999.009 765.363 1001.35 765.079 1003.48 763.127C1004.69 762.026 1009.3 759.116 1009.3 759.116H1009.33C1009.44 759.116 1009.9 759.258 1012.03 761.032C1013.13 761.955 1014.98 759.755 1014.98 759.755C1014.98 759.755 1015.33 760.039 1015.58 760.571C1015.79 760.997 1015.93 761.565 1015.83 762.31C1015.65 763.304 1016.18 765.185 1016.64 766.463C1016.89 767.244 1017.14 767.776 1017.14 767.776C1017.14 767.776 1017.21 768.38 1014.94 768.664Z" fill="#233862"/>
<path d="M1015.58 760.571C1014.94 761.033 1013.63 761.885 1012.74 761.991C1011.53 762.133 1009.33 759.116 1009.33 759.116H1009.37C1009.48 759.116 1009.94 759.258 1012.07 761.033C1013.17 761.956 1015.01 759.755 1015.01 759.755C1015.01 759.755 1015.29 760.039 1015.58 760.571Z" fill="#466AA5"/>
<path d="M1014.94 768.664H1012.31C1011.43 768.522 1010.79 768.273 1009.87 768.167C1008.48 767.99 1007.84 768.557 1007.74 768.664L1007.7 768.699H996.49C996.206 768.309 996.49 767.351 996.738 766.676C997.093 766.357 997.164 767.99 997.377 768.238C997.554 768.486 1006.53 768.344 1007.03 767.954C1007.56 767.564 1009.09 766.925 1011.25 767.422C1013.13 767.883 1015.9 766.712 1016.61 766.428C1016.86 767.209 1017.1 767.741 1017.1 767.741C1017.1 767.741 1017.21 768.38 1014.94 768.664Z" fill="#466AA5"/>
<path d="M1029.03 768.664H1026.4C1025.51 768.522 1024.87 768.273 1023.95 768.167C1022.57 767.989 1021.93 768.557 1021.82 768.664L1021.79 768.699H1010.58C1010.29 768.309 1010.58 767.35 1010.82 766.676C1011 766.215 1011.39 765.86 1011.89 765.718C1013.1 765.363 1015.44 765.079 1017.57 763.127C1018.77 762.026 1023.38 759.116 1023.38 759.116H1023.42C1023.53 759.116 1023.99 759.258 1026.12 761.032C1027.22 761.955 1029.06 759.755 1029.06 759.755C1029.06 759.755 1029.42 760.039 1029.66 760.571C1029.88 760.997 1030.02 761.565 1029.91 762.31C1029.74 763.304 1030.27 765.185 1030.73 766.463C1030.98 767.244 1031.23 767.776 1031.23 767.776C1031.23 767.776 1031.3 768.38 1029.03 768.664Z" fill="#233862"/>
<path d="M1029.63 760.571C1028.99 761.033 1027.68 761.885 1026.79 761.991C1025.58 762.133 1023.38 759.116 1023.38 759.116H1023.42C1023.53 759.116 1023.99 759.258 1026.12 761.033C1027.22 761.956 1029.06 759.755 1029.06 759.755C1029.06 759.755 1029.38 760.039 1029.63 760.571Z" fill="#466AA5"/>
<path d="M1029.03 768.664H1026.4C1025.51 768.522 1024.87 768.273 1023.95 768.167C1022.57 767.99 1021.93 768.557 1021.82 768.664L1021.79 768.699H1010.58C1010.29 768.309 1010.58 767.351 1010.82 766.676C1011.18 766.357 1011.25 767.99 1011.46 768.238C1011.64 768.486 1020.62 768.344 1021.11 767.954C1021.65 767.564 1023.17 766.925 1025.34 767.422C1027.22 767.883 1029.98 766.712 1030.69 766.428C1030.94 767.209 1031.19 767.741 1031.19 767.741C1031.19 767.741 1031.3 768.38 1029.03 768.664Z" fill="#466AA5"/>
<path d="M998.654 591.123C998.654 591.123 990.849 595.062 988.223 610.928C988.223 610.928 990.778 614.442 994.397 615.472C994.929 615.613 995.461 615.72 995.993 615.755C1000.43 616.004 998.654 591.123 998.654 591.123Z" fill="#F99746"/>
<path d="M968.958 601.948C968.958 601.948 971.371 598.222 971.974 598.435C972.826 598.719 969.774 603.439 969.774 603.439C969.774 603.439 972.009 599.925 972.364 600.174C973.18 600.777 971.903 602.978 970.626 604.682C970.626 604.682 972.896 602.623 972.967 602.978C973.216 604.291 970.484 607.45 970.484 607.45L968.958 603.936V601.948Z" fill="#FFB27D"/>
<path d="M967.149 605.391C967.255 604.93 967.858 596.056 968.106 596.908C968.355 597.76 968.958 602.41 968.958 602.41L967.149 605.391Z" fill="#FFB27D"/>
<path d="M1007.1 577.244C1007.1 577.244 1006.89 578.167 1004.58 578.025C1004.58 578.025 1002.66 577.919 1002.7 576.89C1002.73 576.89 1004.58 576.18 1007.1 577.244Z" fill="white"/>
<path d="M1047.87 658.881C1047.87 658.881 1052.41 661.898 1053.12 663.176C1053.83 664.453 1055.42 669.139 1055.42 669.139C1055.42 669.139 1054.25 669.316 1053.12 667.293C1051.95 665.27 1048.15 665.447 1046.87 664.347C1045.59 663.247 1044.1 660.017 1044.1 660.017L1047.87 658.881Z" fill="#FFB27D"/>
<path d="M1044.6 661.011C1044.6 661.011 1045.35 664.56 1046.27 665.625C1047.19 666.654 1048.47 668.394 1049 667.932C1049.53 667.471 1048.43 663.602 1048.43 663.602L1044.6 661.011Z" fill="#FFB27D"/>
<path d="M1052.48 663.566C1052.58 663.743 1056.59 667.967 1056.59 667.967C1056.59 667.967 1055.14 668.606 1054.75 667.967C1054.36 667.328 1052.48 663.566 1052.48 663.566Z" fill="#FFB27D"/>
<path d="M113.221 626.181C113.221 626.181 107.525 629.442 105.911 629.409C104.331 629.409 98.042 628.19 96.2969 629.079C94.5518 629.969 91.391 633.559 90.7983 634.745C89.7447 636.853 95.0786 635.931 97.6139 634.119C97.9761 633.855 98.4371 633.757 98.8651 633.855C100.182 634.152 102.915 634.646 104.232 634.152C106.01 633.493 115.328 632.768 115.328 632.768L113.221 626.181Z" fill="#EA9963"/>
<path d="M156.616 581.977C156.616 581.977 150.69 624.007 140.911 627.795C136.07 629.64 114.734 633.856 108.413 634.284C108.413 634.284 106.865 633.032 107.227 627.927C107.227 627.927 129.584 619.725 132.778 615.245C137.519 608.592 129.847 588.071 135.774 581.845C141.734 575.587 151.743 572.886 156.616 581.977Z" fill="#ED7D2B"/>
<path d="M154.642 670.55C152.93 673.481 150.921 676.215 148.88 678.818C142.525 686.855 135.61 693.475 134.392 699.701C134.162 700.953 133.767 702.303 133.273 703.719C132.779 705.169 132.153 706.651 131.429 708.232C128.729 714.095 124.712 720.65 120.662 726.612C113.715 736.922 107.162 745.552 107.162 745.552L95.1444 745.025C95.6383 743.806 100.874 729.576 107.854 712.152C110.686 705.07 113.715 697.56 116.645 690.313C117.04 689.358 117.435 688.37 117.798 687.415C118.687 685.208 119.576 683.001 120.432 680.893C127.017 664.555 132.252 651.511 132.252 651.511C132.252 651.511 158.527 641.564 161.26 648.02C163.532 653.356 161.688 658.593 154.642 670.55Z" fill="#233862"/>
<path d="M106.801 743.345C106.801 743.345 106.175 753.259 104.265 753.391C104.002 753.424 94.5522 753.424 94.5522 753.424L82.4684 753.358C82.4684 753.358 82.5343 750.46 86.0903 749.834C89.6133 749.208 95.54 746.737 97.6802 742.06C99.8863 737.152 106.801 743.345 106.801 743.345Z" fill="#163560"/>
<path d="M149.44 712.185C149.44 712.185 158.396 716.434 157.836 718.278C157.77 718.509 154.247 727.304 154.247 727.304L149.703 738.503C149.703 738.503 147.036 737.35 147.761 733.825C148.485 730.301 148.386 723.911 144.863 720.189C141.11 716.302 149.44 712.185 149.44 712.185Z" fill="#163560"/>
<path d="M146.245 722.099C146.245 722.099 151.283 716.994 152.205 713.634C152.205 713.634 134.886 696.769 128.696 692.685C121.584 687.974 116.974 687.974 118.094 686.822C121.847 683.067 153.226 672.065 158.362 664.094C160.14 661.36 161.128 658.758 161.655 656.485C162.807 651.643 161.885 648.283 161.885 648.283L122.802 647.163C122.802 647.163 93.7614 677.302 93.926 688.666C94.1236 700.887 146.245 722.099 146.245 722.099Z" fill="#2B478B"/>
<path d="M133.502 579.342C141.404 581.384 154.509 574.071 154.509 574.071C154.509 574.071 149.405 570.646 147.528 563.136C147.43 562.773 147.364 562.378 147.265 561.983C146.442 561.818 144.861 561.489 143.215 561.126L137.19 566.528C137.19 566.528 137.321 568.768 138.079 572.622C138.21 573.281 138.375 574.006 138.54 574.796C135.313 576.772 133.502 579.342 133.502 579.342Z" fill="#FFB27D"/>
<path d="M162.873 612.116C161.753 627.334 163.235 650.523 161.951 654.541C160.832 658 148.221 655.958 143.183 654.805C141.306 654.377 139.067 653.751 136.73 653.059C130.21 651.05 123.131 648.151 122.374 646.01C122.341 645.911 122.308 645.846 122.308 645.78C122.242 645.483 122.242 645.187 122.308 644.89C122.571 643.803 123.526 642.618 123.658 639.917C123.79 636.919 123.757 633.362 123.889 629.541C123.889 629.113 123.889 628.651 123.954 628.223V628.058C123.954 627.993 123.954 627.894 123.954 627.828C124.053 623.579 124.284 619.099 124.547 614.652C124.712 611.853 124.909 609.119 125.107 606.451C125.667 599.632 126.424 593.571 127.445 589.718C129.091 583.459 132.746 579.375 136.071 576.41L138.475 574.335C141.142 574.928 144.336 574.533 147.2 573.182C150.295 571.7 151.382 570.646 151.909 571.041C159.086 576.542 164.223 593.473 162.873 612.116Z" fill="#F99746"/>
<path d="M136.73 652.993C130.211 650.984 123.132 648.085 122.374 645.944C122.341 645.845 122.308 645.779 122.308 645.714C122.308 645.417 122.308 645.121 122.308 644.824C122.572 643.737 123.527 642.551 123.658 639.85C123.79 636.853 123.757 633.296 123.889 629.475C123.889 629.046 123.889 628.585 123.955 628.157V627.992C123.955 627.927 123.955 627.828 123.955 627.762L150.263 594.23C150.263 594.23 167.944 631.056 136.73 652.993Z" fill="#ED7D2B"/>
<path d="M137.191 566.496C137.191 566.496 137.322 568.736 138.08 572.589C143.973 570.679 146.64 565.343 147.529 563.103C147.431 562.741 147.365 562.345 147.266 561.95C146.443 561.785 144.862 561.456 143.216 561.094L137.191 566.496Z" fill="#EA9963"/>
<path d="M136.401 569.921C136.401 569.921 149.242 567.78 147.793 559.776C146.345 551.772 147.003 546.139 138.739 547.16C130.474 548.181 129.42 551.541 129.289 554.308C129.124 557.108 133.009 570.25 136.401 569.921Z" fill="#FFB27D"/>
<path d="M85.7756 638.265L84.6484 638.631L75.0002 608.935L76.1275 608.569L85.7756 638.265Z" fill="#4A75CB"/>
<path d="M117.43 637.91L84.6748 638.609L84.6326 636.633L117.387 635.934L117.43 637.91Z" fill="#4A75CB"/>
<path d="M116.743 639.488C116.743 639.488 106.207 642.255 102.289 641.959C98.3375 641.662 95.045 639.785 94.5511 638.797C94.0572 637.808 93.0036 636.063 95.7035 636.392C98.4034 636.721 102.058 637.281 102.157 636.754C102.256 636.227 99.951 636.293 99.951 636.293C99.951 636.293 99.2595 635.272 100.116 635.239C100.972 635.206 103.54 634.515 104.495 634.976C105.45 635.437 106.306 637.216 107.03 637.117C107.721 637.051 115.821 633.46 115.821 633.46L116.743 639.488Z" fill="#FFB27D"/>
<path d="M154.016 583.722C154.016 583.722 152.764 626.148 143.446 630.99C138.837 633.361 118.093 639.916 111.87 641.036C111.87 641.036 110.191 639.949 109.994 634.844C109.994 634.844 131.33 624.204 133.997 619.428C137.981 612.313 128.07 592.748 133.305 585.896C138.508 578.979 148.155 575.224 154.016 583.722Z" fill="#F99746"/>
<path d="M147.563 563.103C147.563 563.103 147.695 560.369 146.016 558.788C146.016 558.788 146.608 556.054 145.522 555.593C144.435 555.132 144.205 557.437 143.711 557.075C143.217 556.713 140.978 555 140.056 552.464C139.101 549.927 130.409 552.991 129.388 553.452C128.367 553.913 125.108 552.233 124.482 550.882C124.482 550.882 126.293 549.433 127.116 548.346C127.939 547.259 133.635 539.914 141.604 541.989C149.572 544.064 150.658 547.885 150.197 551.146C149.703 554.44 150.823 562.016 147.563 563.103Z" fill="#2B478B"/>
<path d="M938 501C938 479.999 954.775 463 975.5 463C996.225 463 1013 479.999 1013 501C1013 522.001 996.225 539 975.5 539C973.148 539 970.84 538.775 968.621 538.37C973.281 521.102 979.494 498.212 979.938 496.773C979.183 497.987 956.373 508.375 940.796 515.346C938.976 510.938 938 506.082 938 501Z" fill="#6F74DD"/>
<path d="M1005.77 548.548L990.159 502.881L976.726 514.356L1005.77 548.548Z" fill="#6F74DD"/>
<path d="M939 519.095C953.024 513.105 976.231 503.137 977 502C976.593 503.312 970.169 525.872 965.871 541C953.929 537.852 944.157 529.72 939 519.095Z" fill="#F99746"/>
<path d="M264.635 475.611C264.635 508.689 237.89 535.463 204.849 535.463C171.807 535.463 145.062 508.689 145.062 475.611C145.062 442.532 171.807 415.758 204.849 415.758C208.599 415.758 212.278 416.112 215.815 416.75C208.386 443.949 198.481 480.002 197.773 482.269C198.976 480.356 235.343 463.994 260.177 453.016C263.078 459.957 264.635 467.607 264.635 475.611Z" fill="#2A4E96"/>
<path d="M147 539.679L177.549 494.188L189.149 510.68L147 539.679Z" fill="#2A4E96"/>
<path d="M263.415 445.861C241.801 455.429 206.034 471.352 204.849 473.168C205.476 471.073 215.377 435.036 222 410.873C240.407 415.901 255.466 428.891 263.415 445.861Z" fill="#F78248"/>
<path d="M443.992 552.235H374.133C368.984 552.235 364.763 547.996 364.763 542.826V479.534C364.763 474.364 368.984 470.125 374.133 470.125H443.992C449.141 470.125 453.362 474.364 453.362 479.534V542.801C453.387 547.996 449.165 552.235 443.992 552.235Z" fill="#D5DFFC"/>
<path d="M482.75 559.1L450.93 529.065L445.005 543.947L482.75 559.1Z" fill="#D5DFFC"/>
<path d="M443.212 538.66H374.646V516.754H443.212V538.66ZM375.5 537.827H442.382V517.612H375.5V537.827Z" fill="#8C9DF4"/>
<path d="M406.145 522.635H379.621V524.375H406.145V522.635Z" fill="#8C9DF4"/>
<path d="M427.74 522.635H408.927V524.375H427.74V522.635Z" fill="#8C9DF4"/>
<path d="M394.262 527.584H379.621V529.324H394.262V527.584Z" fill="#8C9DF4"/>
<path d="M415.539 527.584H396.726V529.324H415.539V527.584Z" fill="#8C9DF4"/>
<path d="M436.304 527.584H417.491V529.324H436.304V527.584Z" fill="#8C9DF4"/>
<path d="M382.209 500.068H375.06V510.041H382.209V500.068Z" fill="#2A4E96"/>
<path d="M394.483 493.452H387.333V510.065H394.483V493.452Z" fill="#2A4E96"/>
<path d="M406.731 488.037H399.582V510.065H406.731V488.037Z" fill="#F78248"/>
<path d="M418.98 492.423H411.831V510.041H418.98V492.423Z" fill="#2A4E96"/>
<path d="M431.231 483.063H424.081V510.065H431.231V483.063Z" fill="#2A4E96"/>
<path d="M443.48 478.236H436.331V510.065H443.48V478.236Z" fill="#F78248"/>
</svg>
