<svg width="500" height="360" viewBox="0 0 500 360" fill="none" xmlns="http://www.w3.org/2000/svg">
  <path d="M496.57 346.213L403.429 345.953L360.818 345.833L351.675 345.813L318.5 345.714L278.062 345.594L243.007 345.494H241.023L231.777 345.474L150.677 345.234L109.964 345.114L106.117 345.094L83.8106 345.034L25.673 344.874C25.673 344.874 -46.4382 186.645 51.05 128.05C176.641 52.5752 266.193 161.307 314.291 157.187C385.056 151.128 523.517 105.251 496.57 346.213Z" fill="#F3F4FC"/>
  <path d="M150.857 99.0191L146.862 98.5705C146.526 98.5384 146.205 98.6987 146.028 98.971C145.804 99.3235 145.547 99.676 145.29 100.029C144.793 100.669 144.264 101.262 143.702 101.791C143.445 102.047 143.349 102.416 143.478 102.752L145.018 106.662C145.178 107.079 145.002 107.559 144.584 107.751L141.135 109.45C140.75 109.642 140.269 109.514 140.045 109.145L137.959 105.877C137.767 105.556 137.366 105.412 136.997 105.508C135.408 105.925 133.756 106.085 132.12 105.989C131.719 105.973 131.35 106.229 131.238 106.598L130.532 108.841C130.387 109.274 129.954 109.53 129.521 109.45L125.783 108.697C125.703 108.681 125.639 108.665 125.575 108.633C125.254 108.473 125.045 108.12 125.093 107.751L125.43 104.771L125.511 104.05C124.885 103.698 124.275 103.297 123.698 102.849C122.912 102.24 122.206 101.583 121.564 100.878C121.324 100.605 120.939 100.509 120.602 100.653L117.441 101.887C117.008 102.047 116.527 101.871 116.319 101.455L115.019 98.8268L114.65 98.0738C114.442 97.6572 114.586 97.1605 114.971 96.9201L117.698 95.1737C118.019 94.9814 118.179 94.5968 118.083 94.2443C117.826 93.1708 117.682 92.0653 117.666 90.9757C117.65 90.8796 117.65 90.7994 117.65 90.7033C117.65 90.6713 117.65 90.6392 117.65 90.6072C117.618 90.2547 117.377 89.9663 117.024 89.8541L113.367 88.7005C113.319 88.6844 113.287 88.6684 113.255 88.6524C112.902 88.4762 112.693 88.0756 112.773 87.691L113.527 83.9577C113.623 83.5091 114.041 83.2047 114.49 83.2527L118.661 83.7174C119.014 83.7655 119.35 83.5732 119.527 83.2688C119.896 82.5798 120.345 81.9229 120.826 81.2659C121.083 80.9295 121.356 80.593 121.644 80.2885C121.869 80.0322 121.949 79.6637 121.821 79.3592L120.345 75.5939C120.185 75.1773 120.361 74.7126 120.762 74.5043L124.179 72.8219C124.596 72.6136 125.093 72.7579 125.35 73.1424L127.002 75.7221C127.227 76.0746 127.644 76.2188 128.029 76.0906C129.553 75.5618 131.141 75.2894 132.745 75.2414C133.13 75.2414 133.467 74.985 133.58 74.6165L134.622 71.3318C134.767 70.8832 135.216 70.6268 135.665 70.723L139.387 71.46C139.836 71.5561 140.141 71.9727 140.077 72.4214L140.061 72.5976L139.676 76.0746C139.627 76.4431 139.82 76.7956 140.157 76.9718C140.959 77.3884 141.729 77.8691 142.467 78.4299C142.868 78.7343 143.237 79.0548 143.59 79.3752C143.83 79.6156 144.199 79.6797 144.504 79.5515L147.713 78.3017C148.146 78.1255 148.643 78.3177 148.852 78.7343L150.536 82.1311C150.584 82.2273 150.616 82.3234 150.616 82.4356C150.648 82.756 150.504 83.0925 150.215 83.2848L148.033 84.6788C147.761 84.855 147.616 85.1594 147.632 85.4639C147.632 85.544 147.648 85.6241 147.681 85.7042C148.338 87.659 148.611 89.7099 148.467 91.7608C148.434 92.1133 148.627 92.4338 148.932 92.594C148.98 92.61 149.028 92.6421 149.076 92.6581L152.028 93.5874C152.461 93.7156 152.718 94.1642 152.621 94.5968L152.605 94.6769L151.884 98.3141C151.739 98.7627 151.322 99.0672 150.857 99.0191ZM125.254 87.659C125.029 88.2358 124.837 88.8447 124.708 89.5016C124.468 90.7514 124.725 92.7382 125.286 93.8918C125.35 94.02 125.414 94.1322 125.478 94.2604C129.393 101.519 139.66 100.077 141.344 91.889C141.569 90.8155 141.424 89.2613 141.039 88.0596C140.943 87.7872 140.847 87.5308 140.734 87.3065C140.205 86.265 139.563 85.3838 138.825 84.6788C134.606 80.625 127.564 81.9549 125.254 87.659Z" fill="#D5DFFC"/>
  <path d="M175.922 155.441L169.3 154.689C168.741 154.636 168.209 154.904 167.917 155.361C167.544 155.951 167.119 156.542 166.693 157.133C165.869 158.207 164.991 159.2 164.06 160.086C163.635 160.516 163.475 161.133 163.688 161.697L166.241 168.248C166.507 168.946 166.214 169.752 165.523 170.074L159.805 172.92C159.167 173.242 158.369 173.027 157.996 172.41L154.539 166.933C154.22 166.396 153.555 166.154 152.943 166.315C150.31 167.013 147.571 167.282 144.858 167.121C144.193 167.094 143.581 167.523 143.395 168.141L142.225 171.9C141.986 172.625 141.268 173.054 140.549 172.92L134.353 171.658C134.22 171.631 134.113 171.604 134.007 171.551C133.475 171.282 133.129 170.691 133.209 170.074L133.767 165.08L133.9 163.872C132.863 163.281 131.853 162.61 130.895 161.858C129.592 160.838 128.422 159.737 127.358 158.556C126.959 158.099 126.321 157.938 125.762 158.18L120.523 160.247C119.805 160.516 119.007 160.22 118.661 159.522L116.507 155.119L115.895 153.857C115.549 153.159 115.789 152.327 116.427 151.924L120.948 148.998C121.48 148.675 121.746 148.031 121.587 147.44C121.161 145.641 120.922 143.789 120.895 141.963C120.869 141.802 120.869 141.668 120.869 141.507C120.869 141.453 120.869 141.399 120.869 141.346C120.815 140.755 120.416 140.272 119.831 140.084L113.767 138.151C113.688 138.124 113.634 138.097 113.581 138.07C112.996 137.775 112.65 137.103 112.783 136.459L114.033 130.203C114.193 129.452 114.884 128.941 115.629 129.022L122.544 129.801C123.129 129.881 123.688 129.559 123.98 129.049C124.592 127.894 125.337 126.793 126.134 125.693C126.56 125.129 127.012 124.565 127.491 124.055C127.863 123.625 127.996 123.008 127.783 122.498L125.337 116.188C125.071 115.49 125.363 114.711 126.028 114.362L131.693 111.543C132.385 111.194 133.209 111.436 133.635 112.08L136.374 116.403C136.746 116.994 137.438 117.235 138.076 117.02C140.603 116.134 143.236 115.678 145.895 115.597C146.533 115.597 147.092 115.168 147.278 114.55L149.007 109.046C149.246 108.295 149.991 107.865 150.736 108.026L156.906 109.261C157.651 109.422 158.156 110.12 158.049 110.872L158.023 111.167L157.385 116.994C157.305 117.611 157.624 118.202 158.182 118.497C159.512 119.195 160.789 120.001 162.012 120.94C162.677 121.451 163.289 121.988 163.874 122.524C164.273 122.927 164.885 123.035 165.39 122.82L170.709 120.726C171.427 120.43 172.252 120.752 172.597 121.451L175.39 127.142C175.47 127.304 175.523 127.465 175.523 127.653C175.576 128.19 175.337 128.753 174.858 129.076L171.241 131.411C170.789 131.707 170.55 132.217 170.576 132.727C170.576 132.861 170.603 132.996 170.656 133.13C171.746 136.405 172.198 139.842 171.959 143.279C171.906 143.869 172.225 144.406 172.73 144.675C172.81 144.702 172.89 144.755 172.97 144.782L177.863 146.339C178.581 146.554 179.007 147.306 178.847 148.031L178.821 148.165L177.624 154.26C177.385 155.012 176.693 155.522 175.922 155.441ZM133.475 136.405C133.103 137.372 132.783 138.392 132.571 139.493C132.172 141.587 132.597 144.916 133.528 146.85C133.635 147.064 133.741 147.252 133.847 147.467C140.337 159.63 157.358 157.213 160.151 143.493C160.523 141.695 160.284 139.09 159.645 137.077C159.486 136.62 159.326 136.191 159.14 135.815C158.262 134.07 157.198 132.593 155.975 131.411C148.98 124.619 137.305 126.847 133.475 136.405Z" fill="#D5DFFC"/>
  <path d="M90.5715 239.674L95.7322 239.091C96.1674 239.049 96.5819 239.258 96.8099 239.612C97.1001 240.07 97.4317 240.529 97.7633 240.987C98.4058 241.821 99.0897 242.592 99.8151 243.28C100.147 243.613 100.271 244.092 100.105 244.53L98.1156 249.615C97.9084 250.157 98.1364 250.782 98.6752 251.032L103.131 253.241C103.629 253.491 104.25 253.324 104.541 252.845L107.235 248.594C107.484 248.177 108.002 247.989 108.478 248.114C110.53 248.656 112.665 248.864 114.779 248.739C115.297 248.719 115.774 249.052 115.919 249.531L116.831 252.449C117.017 253.011 117.577 253.345 118.137 253.241L122.966 252.261C123.069 252.24 123.152 252.22 123.235 252.178C123.65 251.97 123.919 251.511 123.857 251.032L123.422 247.156L123.318 246.218C124.126 245.759 124.914 245.238 125.66 244.655C126.676 243.863 127.588 243.009 128.417 242.092C128.727 241.737 129.225 241.612 129.66 241.8L133.743 243.405C134.303 243.613 134.924 243.384 135.194 242.842L136.873 239.424L137.349 238.445C137.619 237.903 137.432 237.257 136.935 236.944L133.411 234.673C132.997 234.423 132.79 233.923 132.914 233.464C133.246 232.068 133.432 230.63 133.453 229.213C133.474 229.088 133.474 228.984 133.474 228.859C133.474 228.817 133.474 228.775 133.474 228.734C133.515 228.275 133.826 227.9 134.282 227.754L139.007 226.254C139.07 226.233 139.111 226.212 139.152 226.191C139.608 225.962 139.878 225.441 139.774 224.941L138.8 220.085C138.676 219.502 138.137 219.106 137.557 219.168L132.168 219.773C131.712 219.835 131.277 219.585 131.049 219.189C130.572 218.293 129.992 217.439 129.37 216.584C129.038 216.147 128.686 215.709 128.313 215.313C128.023 214.98 127.919 214.5 128.085 214.104L129.992 209.207C130.199 208.665 129.971 208.061 129.453 207.79L125.038 205.602C124.499 205.331 123.857 205.519 123.525 206.019L121.391 209.374C121.1 209.832 120.562 210.02 120.064 209.853C118.095 209.166 116.043 208.811 113.971 208.749C113.473 208.749 113.038 208.415 112.893 207.936L111.546 203.664C111.359 203.08 110.779 202.747 110.199 202.872L105.39 203.831C104.81 203.956 104.416 204.498 104.499 205.081L104.52 205.31L105.017 209.832C105.079 210.312 104.831 210.77 104.396 210.999C103.359 211.541 102.364 212.166 101.411 212.896C100.893 213.292 100.416 213.709 99.9602 214.125C99.6493 214.438 99.1726 214.521 98.7789 214.355L94.6337 212.729C94.0741 212.5 93.4316 212.75 93.1622 213.292L90.986 217.71C90.9238 217.835 90.8824 217.96 90.8824 218.106C90.8409 218.522 91.0275 218.96 91.4005 219.21L94.2192 221.023C94.5715 221.252 94.7581 221.648 94.7373 222.044C94.7373 222.148 94.7166 222.253 94.6752 222.357C93.8254 224.899 93.4731 227.567 93.6596 230.234C93.7011 230.693 93.4524 231.109 93.0586 231.318C92.9964 231.339 92.9342 231.38 92.872 231.401L89.0585 232.61C88.4989 232.776 88.1673 233.36 88.2917 233.923L88.3124 234.027L89.2451 238.757C89.4316 239.341 89.9704 239.737 90.5715 239.674ZM123.65 224.899C123.94 225.649 124.188 226.441 124.354 227.296C124.665 228.921 124.334 231.505 123.608 233.006C123.525 233.172 123.442 233.318 123.359 233.485C118.302 242.925 105.038 241.05 102.862 230.401C102.572 229.005 102.758 226.983 103.256 225.42C103.38 225.066 103.504 224.733 103.649 224.441C104.333 223.086 105.162 221.94 106.116 221.023C111.567 215.751 120.665 217.48 123.65 224.899Z" fill="#D5DFFC"/>
  <path d="M369.653 133.042L374.813 132.458C375.248 132.417 375.663 132.625 375.891 132.979C376.181 133.438 376.513 133.896 376.844 134.355C377.487 135.188 378.171 135.959 378.896 136.647C379.228 136.98 379.352 137.46 379.186 137.897L377.197 142.982C376.989 143.524 377.217 144.149 377.756 144.399L382.212 146.608C382.71 146.858 383.331 146.692 383.622 146.212L386.316 141.961C386.565 141.544 387.083 141.357 387.56 141.482C389.611 142.023 391.746 142.232 393.86 142.107C394.378 142.086 394.855 142.419 395 142.899L395.912 145.816C396.098 146.379 396.658 146.712 397.218 146.608L402.047 145.629C402.15 145.608 402.233 145.587 402.316 145.545C402.731 145.337 403 144.878 402.938 144.399L402.503 140.523L402.399 139.585C403.207 139.127 403.995 138.606 404.741 138.022C405.757 137.23 406.669 136.376 407.498 135.459C407.808 135.105 408.306 134.98 408.741 135.167L412.824 136.772C413.384 136.98 414.005 136.751 414.275 136.209L415.954 132.792L416.43 131.812C416.7 131.27 416.513 130.624 416.016 130.312L412.492 128.04C412.078 127.79 411.871 127.29 411.995 126.832C412.327 125.435 412.513 123.997 412.534 122.58C412.555 122.455 412.555 122.351 412.555 122.226C412.555 122.184 412.555 122.143 412.555 122.101C412.596 121.643 412.907 121.268 413.363 121.122L418.088 119.621C418.151 119.6 418.192 119.58 418.233 119.559C418.689 119.329 418.959 118.808 418.855 118.308L417.881 113.453C417.757 112.869 417.218 112.473 416.638 112.536L411.249 113.14C410.793 113.203 410.358 112.953 410.13 112.557C409.653 111.661 409.073 110.806 408.451 109.952C408.119 109.514 407.767 109.077 407.394 108.681C407.104 108.347 407 107.868 407.166 107.472L409.073 102.575C409.28 102.033 409.052 101.428 408.534 101.158L404.119 98.9695C403.58 98.6985 402.938 98.8861 402.606 99.3862L400.472 102.741C400.181 103.2 399.643 103.387 399.145 103.221C397.176 102.533 395.124 102.179 393.052 102.116C392.554 102.116 392.119 101.783 391.974 101.303L390.627 97.0314C390.44 96.4479 389.86 96.1145 389.28 96.2395L384.471 97.1981C383.891 97.3231 383.497 97.865 383.58 98.4485L383.601 98.6777L384.098 103.2C384.161 103.679 383.912 104.138 383.477 104.367C382.44 104.909 381.445 105.534 380.492 106.263C379.974 106.659 379.497 107.076 379.041 107.493C378.73 107.805 378.254 107.889 377.86 107.722L373.715 106.097C373.155 105.867 372.513 106.117 372.243 106.659L370.067 111.077C370.005 111.202 369.963 111.327 369.963 111.473C369.922 111.89 370.109 112.327 370.482 112.578L373.3 114.391C373.653 114.62 373.839 115.016 373.818 115.412C373.818 115.516 373.798 115.62 373.756 115.724C372.906 118.267 372.554 120.934 372.741 123.602C372.782 124.06 372.533 124.477 372.14 124.685C372.077 124.706 372.015 124.748 371.953 124.769L368.14 125.977C367.58 126.144 367.248 126.727 367.373 127.29L367.393 127.394L368.326 132.125C368.513 132.708 369.052 133.104 369.653 133.042ZM402.731 118.267C403.021 119.017 403.27 119.809 403.435 120.663C403.746 122.289 403.415 124.873 402.689 126.373C402.606 126.54 402.523 126.686 402.441 126.852C397.383 136.293 384.119 134.417 381.943 123.768C381.653 122.372 381.839 120.351 382.337 118.788C382.461 118.433 382.585 118.1 382.73 117.808C383.414 116.454 384.243 115.307 385.197 114.391C390.648 109.118 399.746 110.848 402.731 118.267Z" fill="#D5DFFC"/>
  <path d="M337.699 99.3735L342.1 98.8699C342.478 98.8279 342.834 98.9958 343.023 99.3105C343.274 99.7092 343.547 100.087 343.84 100.465C344.385 101.178 344.951 101.828 345.58 102.416C345.873 102.689 345.957 103.108 345.81 103.486L344.112 107.808C343.924 108.27 344.133 108.794 344.574 109.025L348.367 110.914C348.807 111.123 349.31 110.977 349.583 110.578L351.867 106.99C352.077 106.633 352.517 106.465 352.915 106.57C354.655 107.032 356.478 107.221 358.28 107.116C358.721 107.095 359.119 107.368 359.265 107.787L360.041 110.263C360.188 110.725 360.67 111.019 361.152 110.935L365.26 110.095C365.343 110.074 365.427 110.053 365.49 110.011C365.846 109.844 366.077 109.445 366.014 109.046L365.658 105.752L365.574 104.955C366.266 104.577 366.936 104.115 367.565 103.633C368.424 102.961 369.221 102.248 369.912 101.451C370.185 101.157 370.604 101.052 370.96 101.199L374.439 102.563C374.921 102.752 375.445 102.542 375.676 102.08L377.122 99.1846L377.541 98.3453C377.772 97.8837 377.625 97.3382 377.185 97.0654L374.188 95.1351C373.832 94.9253 373.664 94.5056 373.769 94.107C374.041 92.932 374.209 91.715 374.23 90.498C374.23 90.3931 374.23 90.2882 374.23 90.1833C374.23 90.1413 374.23 90.1204 374.23 90.0784C374.272 89.6797 374.544 89.365 374.9 89.2601L378.924 87.9802C378.966 87.9592 379.008 87.9382 379.05 87.9382C379.448 87.7494 379.658 87.3088 379.574 86.8681L378.757 82.7556C378.652 82.2521 378.191 81.9164 377.688 81.9793L373.098 82.5038C372.7 82.5458 372.344 82.357 372.155 82.0003C371.736 81.2449 371.254 80.5105 370.709 79.7972C370.415 79.4195 370.122 79.0628 369.808 78.7061C369.556 78.4333 369.472 78.0347 369.619 77.678L371.233 73.5235C371.421 73.0619 371.212 72.5373 370.772 72.3275L367.02 70.4811C366.559 70.2503 366.014 70.3972 365.742 70.8378L363.918 73.6914C363.667 74.069 363.206 74.2369 362.786 74.09C361.11 73.5025 359.37 73.2088 357.61 73.1668C357.191 73.1668 356.813 72.894 356.688 72.4744L355.535 68.8445C355.388 68.3619 354.885 68.0682 354.382 68.1731L350.295 68.9914C349.813 69.0963 349.478 69.5579 349.52 70.0405L349.541 70.2293L349.96 74.0481C350.002 74.4677 349.792 74.8454 349.436 75.0342C348.556 75.4958 347.717 76.0204 346.9 76.6498C346.46 76.9856 346.062 77.3422 345.663 77.6989C345.391 77.9507 344.993 78.0347 344.657 77.8878L341.136 76.503C340.654 76.3141 340.109 76.5239 339.879 76.9856L338.035 80.7204C337.993 80.8253 337.951 80.9512 337.93 81.0561C337.888 81.4128 338.056 81.7905 338.37 81.9793L340.78 83.511C341.074 83.6998 341.241 84.0355 341.22 84.3713C341.22 84.4552 341.199 84.5601 341.178 84.644C340.445 86.7842 340.151 89.0503 340.319 91.3163C340.361 91.694 340.13 92.0507 339.795 92.2395C339.753 92.2605 339.69 92.2815 339.648 92.3025L336.4 93.3306C335.939 93.4775 335.645 93.9601 335.729 94.4427L335.75 94.5476L336.547 98.5552C336.735 99.1007 337.196 99.4364 337.699 99.3735ZM365.867 86.8681C366.119 87.4976 366.328 88.169 366.475 88.9034C366.748 90.2882 366.454 92.4704 365.846 93.7503C365.784 93.8762 365.721 94.023 365.637 94.1489C361.34 102.143 350.044 100.569 348.178 91.5262C347.948 90.3512 348.095 88.6306 348.514 87.3088C348.619 87.015 348.723 86.7213 348.849 86.4695C349.415 85.3155 350.128 84.3503 350.945 83.5739C355.556 79.1257 363.31 80.5735 365.867 86.8681Z" fill="#D5DFFC"/>
  <path d="M409.28 161.199V333.718C409.28 340.025 404.45 345.132 398.469 345.132H92.9543C86.9989 345.132 82.1426 340.025 82.1426 333.718V161.199C82.1426 154.892 86.9733 149.785 92.9543 149.785H398.443C404.424 149.785 409.28 154.892 409.28 161.199Z" fill="#8C9DF4"/>
  <path d="M409.366 160.586V168.502H82.2539V160.586C82.2539 154.636 87.0847 149.785 93.0656 149.785H398.554C404.51 149.785 409.366 154.611 409.366 160.586Z" fill="#6980E2"/>
  <path d="M95.0586 160.153C95.0586 158.978 96.0299 158.008 97.2056 158.008C98.3814 158.008 99.3526 158.978 99.3526 160.153C99.3526 161.327 98.3814 162.298 97.2056 162.298C96.0043 162.298 95.0586 161.327 95.0586 160.153Z" fill="#EBF3FA"/>
  <path d="M108.734 162.297C109.92 162.297 110.881 161.336 110.881 160.152C110.881 158.967 109.92 158.007 108.734 158.007C107.548 158.007 106.587 158.967 106.587 160.152C106.587 161.336 107.548 162.297 108.734 162.297Z" fill="#EBF3FA"/>
  <path d="M120.286 162.297C121.472 162.297 122.433 161.336 122.433 160.152C122.433 158.967 121.472 158.007 120.286 158.007C119.1 158.007 118.139 158.967 118.139 160.152C118.139 161.336 119.1 162.297 120.286 162.297Z" fill="#EBF3FA"/>
  <path fill-rule="evenodd" clip-rule="evenodd" d="M198.655 193.2C189.279 193.2 181.681 200.799 181.681 210.175C181.681 219.551 189.279 227.15 198.655 227.15H215.63V210.175C215.63 200.799 208.031 193.2 198.655 193.2ZM228.944 227.15V210.175C228.944 193.446 215.384 179.887 198.655 179.887C181.927 179.887 168.367 193.446 168.367 210.175C168.367 226.904 181.927 240.463 198.655 240.463H215.63V274.413H198.655C181.927 274.413 168.367 287.972 168.367 304.701C168.367 321.43 181.927 334.989 198.655 334.989C215.384 334.989 228.944 321.43 228.944 304.701V287.726H262.893V304.701C262.893 321.43 276.452 334.989 293.181 334.989C309.91 334.989 323.469 321.43 323.469 304.701C323.469 287.972 309.91 274.413 293.181 274.413H276.207V240.463H293.181C309.91 240.463 323.469 226.904 323.469 210.175C323.469 193.446 309.91 179.887 293.181 179.887C276.452 179.887 262.893 193.446 262.893 210.175V227.15H228.944ZM228.944 240.463V274.413H262.893V240.463H228.944ZM276.207 227.15H293.181C302.557 227.15 310.156 219.551 310.156 210.175C310.156 200.799 302.557 193.2 293.181 193.2C283.805 193.2 276.207 200.799 276.207 210.175V227.15ZM276.207 287.726V304.701C276.207 314.077 283.805 321.676 293.181 321.676C302.557 321.676 310.156 314.077 310.156 304.701C310.156 295.325 302.557 287.726 293.181 287.726H276.207ZM215.63 287.726H198.655C189.279 287.726 181.681 295.325 181.681 304.701C181.681 314.077 189.279 321.676 198.655 321.676C208.031 321.676 215.63 314.077 215.63 304.701V287.726Z" fill="#E6E9FA"/>
  <path d="M279.97 70.6311H220.256C215.855 70.6311 212.247 67.0263 212.247 62.6296V8.8065C212.247 4.40981 215.855 0.804932 220.256 0.804932H279.97C284.371 0.804932 287.979 4.40981 287.979 8.8065V62.6087C288 67.0262 284.392 70.6311 279.97 70.6311Z" fill="#D5DFFC"/>
  <path d="M218.369 86.6656L227.886 64.5553L234.13 70.7646L218.369 86.6656Z" fill="#D5DFFC"/>
  <path d="M279.301 59.0871H220.692V40.4585H279.301V59.0871ZM221.422 58.3787H278.592V41.1878H221.422V58.3787Z" fill="#8C9DF4"/>
  <path d="M247.62 45.4597H224.948V46.9392H247.62V45.4597Z" fill="#8C9DF4"/>
  <path d="M266.077 45.4595H249.996V46.9389H266.077V45.4595Z" fill="#8C9DF4"/>
  <path d="M237.46 49.6685H224.946V51.1479H237.46V49.6685Z" fill="#8C9DF4"/>
  <path d="M255.647 49.6685H239.566V51.1479H255.647V49.6685Z" fill="#8C9DF4"/>
  <path d="M273.397 49.6685H257.316V51.1479H273.397V49.6685Z" fill="#8C9DF4"/>
  <path d="M227.158 26.2683H221.047V34.7491H227.158V26.2683Z" fill="#2A4E96"/>
  <path d="M237.649 20.6421H231.538V34.7699H237.649V20.6421Z" fill="#2A4E96"/>
  <path d="M248.119 16.0371H242.008V34.7699H248.119V16.0371Z" fill="#F78248"/>
  <path d="M258.589 19.7673H252.478V34.7494H258.589V19.7673Z" fill="#2A4E96"/>
  <path d="M269.06 11.8071H262.949V34.77H269.06V11.8071Z" fill="#2A4E96"/>
  <path d="M279.53 7.70239H273.419V34.7702H279.53V7.70239Z" fill="#F78248"/>
  <path fill-rule="evenodd" clip-rule="evenodd" d="M326.334 159.268H377.673C382.874 159.268 387.125 155.002 387.15 149.782V102.653C387.15 97.4337 382.899 93.1675 377.698 93.1675H285.056C279.855 93.1675 275.604 97.4337 275.604 102.653V149.782C275.604 155.002 279.855 159.268 285.056 159.268H318.596L329.887 175.988L326.334 159.268Z" fill="#2A4E96"/>
  <path d="M326.017 147.335H284.779V134.243H326.017V147.335ZM285.279 146.835H325.517V134.743H285.279V146.835Z" fill="#C0D4FF"/>
  <path d="M303.736 137.766H287.781V138.815H303.736V137.766Z" fill="#C0D4FF"/>
  <path d="M316.739 137.766H305.41V138.815H316.739V137.766Z" fill="#C0D4FF"/>
  <path d="M296.583 140.715H287.78V141.764H296.583V140.715Z" fill="#C0D4FF"/>
  <path d="M309.388 140.715H298.06V141.764H309.388V140.715Z" fill="#C0D4FF"/>
  <path d="M321.89 140.715H310.562V141.764H321.89V140.715Z" fill="#C0D4FF"/>
  <path d="M377.551 147.234H334.184V134.479H377.551V147.234ZM334.736 146.747H377.051V134.965H334.736V146.747Z" fill="#C0D4FF"/>
  <path d="M352.897 137.766H336.942V138.815H352.897V137.766Z" fill="#C0D4FF"/>
  <path d="M365.902 137.766H354.573V138.815H365.902V137.766Z" fill="#C0D4FF"/>
  <path d="M345.745 140.715H336.942V141.764H345.745V140.715Z" fill="#C0D4FF"/>
  <path d="M358.55 140.715H347.222V141.764H358.55V140.715Z" fill="#C0D4FF"/>
  <path d="M371.052 140.715H359.724V141.764H371.052V140.715Z" fill="#C0D4FF"/>
  <path d="M377.759 129.046H284.779V121.5H377.759V129.046ZM285.655 128.146H376.858V122.375H285.655V128.146Z" fill="#C0D4FF"/>
  <path d="M357.404 121.951H285.231V128.597H357.404V121.951Z" fill="#C0D4FF"/>
  <path d="M377.759 114.055H284.779V106.535H377.759V114.055ZM285.655 113.181H376.858V107.409H285.655V113.181Z" fill="#C0D4FF"/>
  <path d="M333.12 106.535H284.779V114.055H333.12V106.535Z" fill="#F99746"/>
  <path d="M385.668 217.882C384.898 219.906 383.588 222.272 382.22 222.87C380.653 223.526 379.998 224.466 379.998 224.466L378.744 223.725L377.234 222.842C377.234 222.842 377.263 222.671 377.348 222.414C377.434 222.129 377.548 221.759 377.69 221.36C377.69 221.36 378.146 220.761 377.861 220.02C377.576 219.279 377.633 218.11 378.118 217.426C378.602 216.714 379.058 215.004 379.343 215.061C380.055 215.175 379.001 217.569 379.286 217.996C379.571 218.395 379.913 218.253 379.97 218.224C381.935 217.369 384.329 212.666 385.411 213.293C385.839 213.521 386.01 216.999 385.668 217.882Z" fill="#FFB27D"/>
  <path d="M378.859 220.705L381.338 222.443C381.509 222.557 381.765 222.529 381.879 222.358L388.204 213.351C388.318 213.18 388.29 212.924 388.119 212.81L385.64 211.071C385.469 210.957 385.213 210.985 385.099 211.156L378.774 220.163C378.631 220.334 378.66 220.591 378.859 220.705Z" fill="#2B478B"/>
  <path d="M381.109 222.3L382.562 223.327C382.705 223.412 382.876 223.384 382.961 223.241L389.4 214.063C389.486 213.921 389.457 213.75 389.315 213.664L387.862 212.638C387.719 212.553 387.548 212.581 387.463 212.724L381.024 221.901C380.938 222.015 380.967 222.215 381.109 222.3Z" fill="#233862"/>
  <path d="M343.359 207.765C343.359 207.765 355.952 229.711 360.511 233.759L377.264 221.275C377.264 221.275 379.685 222.016 380.768 224.467C380.768 224.467 370.597 245.188 360.596 246.072C350.596 246.955 336.55 221.246 336.55 221.246L343.359 207.765Z" fill="#233862"/>
  <path d="M314.896 357.117H307.602C306.691 356.633 305.865 355.493 305.608 353.782C305.266 351.445 302.617 350.163 302.047 348.253C301.477 346.343 304.383 343.636 304.383 343.636L304.867 343.009L305.38 342.353L310.195 343.493C310.195 343.493 310.309 344.633 310.395 346.115C310.452 347.17 310.48 348.396 310.423 349.45C310.281 352.015 311.135 354.752 313.415 355.265C315.124 355.635 315.039 356.633 314.896 357.117Z" fill="#233862"/>
  <path d="M357.091 357.117H340.453C339.655 356.148 339.94 352.528 340.082 351.36C340.111 351.132 340.111 350.989 340.111 350.989C340.111 350.989 345.78 346.457 346.578 349.935C346.607 350.049 346.635 350.163 346.664 350.248C347.632 353.497 352.048 354.98 354.613 355.407C356.237 355.664 356.863 356.519 357.091 357.117Z" fill="#233862"/>
  <path d="M353.93 264.257C353.93 264.257 353.075 275.031 352.049 287.942C350.682 305.528 349.029 327.104 348.858 331.18C348.573 338.277 347.434 349.65 347.434 349.65C347.434 349.65 344.727 352.358 339.342 351.217C339.342 351.217 334.527 335 333.16 317.841C333.131 317.556 333.131 317.271 333.103 316.986C331.821 299.514 329.826 262.746 329.826 262.746L353.93 264.257Z" fill="#F99746"/>
  <path d="M353.93 264.257C353.93 264.257 353.075 275.031 352.049 287.942L333.16 317.841C333.131 317.556 333.131 317.271 333.103 316.986C331.821 299.514 329.826 262.746 329.826 262.746L353.93 264.257Z" fill="#ED7D2B"/>
  <path d="M349.968 265.539C349.968 265.539 334.441 304.502 324.212 322.829C313.984 341.156 310.793 346.258 310.793 346.258C310.793 346.258 304.952 343.921 304.411 342.325C304.411 342.325 308.314 306.953 315.152 298.345C319.027 293.472 323.557 278.85 323.785 273.748C323.985 268.646 325.181 258.528 325.181 258.528L349.968 265.539Z" fill="#F99746"/>
  <path d="M346.123 208.734C340.054 210.643 329.541 205.484 329.541 205.484C329.541 205.484 335.154 201.266 334.84 192.544L339.541 196.335L342.732 198.9C342.732 198.9 342.732 200.411 342.362 203.062C342.277 203.774 342.163 204.544 342.02 205.399C344.613 206.824 346.123 208.734 346.123 208.734Z" fill="#FFB27D"/>
  <path d="M342.732 198.872C342.732 198.872 342.732 200.382 342.362 203.033C338.829 202.434 334.812 196.705 334.812 196.705C336.606 196.192 338.173 196.078 339.541 196.278L342.732 198.872Z" fill="#ED975D"/>
  <path d="M344.585 198.729C344.585 198.729 334.556 200.382 333.616 194.14C332.675 187.869 330.738 183.879 337.12 182.539C343.473 181.2 345.097 183.423 345.924 185.418C346.721 187.442 347.177 198.13 344.585 198.729Z" fill="#FFB27D"/>
  <path d="M354.584 265.168C354.413 265.31 354.185 265.424 353.957 265.424C351.678 265.396 345.04 266.65 339.398 266.08C334.64 265.624 330.452 264.227 325.951 262.204C325.352 261.947 323.985 261.206 324.013 260.522C324.042 259.781 324.099 258.726 324.184 257.387C324.497 252.741 325.067 244.732 324.526 235.497C324.441 233.787 324.384 232.077 324.384 230.395C324.327 217.882 326.805 206.852 331.82 203.118C332.247 202.805 334.868 204.087 337.262 205.284C339.484 206.367 341.706 206.51 343.786 206.082L345.894 207.935C348.459 210.301 351.251 213.522 352.476 218.424C353.502 222.585 354.128 230.11 354.442 237.891C354.584 241.425 354.727 244.988 354.755 248.352V248.466C354.784 248.808 354.784 249.178 354.784 249.492C354.869 258.156 354.727 265.054 354.584 265.168Z" fill="#2B478B"/>
  <path d="M324.185 257.358C324.498 252.712 325.068 244.703 324.526 235.469C324.441 233.758 324.384 232.048 324.384 230.367C326.464 225.322 328.173 221.673 328.173 221.673H333.416C333.359 221.673 337.205 247.896 324.185 257.358Z" fill="#233862"/>
  <path d="M297.348 287.115L319.685 290.308C322.591 290.735 325.298 288.683 325.725 285.776L327.093 276.085C327.52 273.178 325.469 270.47 322.563 270.042L300.225 266.85C297.319 266.423 294.613 268.475 294.185 271.382L292.818 281.073C292.419 283.98 294.442 286.688 297.348 287.115Z" fill="#233862"/>
  <path d="M323.843 272.921C323.216 271.353 321.849 270.099 320.139 269.7C319.968 269.672 319.797 269.615 319.626 269.586L315.182 268.959L315.467 266.879C315.524 266.423 315.41 265.938 315.125 265.568C314.84 265.197 314.413 264.94 313.957 264.883L312.789 264.712L308.116 264.057L307.261 263.943C306.293 263.8 305.409 264.484 305.267 265.453L304.982 267.534L297.318 266.451C294.412 266.024 291.677 268.076 291.249 271.011L289.853 280.816C289.426 283.724 291.477 286.46 294.412 286.887L316.692 290.08C317.091 290.137 317.461 290.137 317.86 290.108C318.458 290.051 319.057 289.909 319.598 289.681C321.25 288.968 322.476 287.429 322.76 285.519L324.157 275.714C324.299 274.688 324.157 273.748 323.843 272.921ZM306.378 265.568C306.407 265.282 306.663 265.054 306.919 264.997C306.976 264.997 307.062 264.997 307.119 264.997L308.116 265.14L311.791 265.653L313.786 265.938C314.156 265.995 314.384 266.337 314.356 266.679L314.071 268.76L306.093 267.62L306.378 265.568Z" fill="#2B478B"/>
  <path d="M314.327 258.271C314.327 258.271 313.159 259.838 313.102 260.465C312.789 264.712 314.726 265.282 309.712 267.648C309.712 267.648 307.575 268.474 307.546 266.793C307.518 265.14 309.028 265.111 308.743 262.774C308.43 260.095 308.458 260.066 310.224 258.67L311.393 256.731L314.327 258.271Z" fill="#FFB27D"/>
  <path d="M311.364 259.468C313.245 259.838 315.296 259.696 315.296 259.696C315.296 259.696 320.88 242.395 321.621 240.827C322.333 239.26 338.26 220.533 338.26 220.533L331.621 203.945C331.621 203.945 314.413 232.704 312.675 236.751C309.797 243.421 308.771 258.385 308.771 258.385C308.771 258.385 309.883 259.183 311.364 259.468Z" fill="#2B478B"/>
  <path d="M333.587 193.542C333.587 193.542 334.613 193.371 334.442 191.946C334.271 190.52 334.271 188.668 335.439 189.01C336.579 189.352 336.636 190.292 337.12 189.751C337.604 189.209 337.604 186.929 341.023 186.787C344.442 186.616 345.838 187.813 347.434 187.129C349.029 186.416 349.115 184.022 349.115 184.022C349.115 184.022 348.659 184.877 347.975 185.162C347.975 185.162 350.625 181.514 347.548 179.034C344.471 176.526 341.337 178.179 339.542 178.293C335.61 178.521 333.074 178.777 331.792 181.343C330.539 183.879 331.08 191.062 333.587 193.542Z" fill="#2B478B"/>
  <path d="M312.476 260.123C312.476 260.123 313.615 261.291 313.672 261.804C313.9 263.372 314.413 264.056 314.157 264.227C313.615 264.569 312.875 263.429 312.533 262.374C312.219 261.32 312.476 260.123 312.476 260.123Z" fill="#FFB27D"/>
  <path d="M211.454 97.7188C211.454 97.7188 214.232 101.837 215.819 110.469C217.207 118.035 218.422 120.814 220.431 122.377C222.439 123.939 233.573 128.504 233.573 128.504L232.73 130.464C232.73 130.464 216.389 128.231 214.554 125.502C212.719 122.774 205.726 106.624 206.272 102.903C206.817 99.1824 211.454 97.7188 211.454 97.7188Z" fill="#F4A269"/>
  <path d="M256.833 184.021C257.007 185.609 259.263 185.559 261.793 185.187C264.347 184.815 263.677 185.485 267.248 185.41C270.819 185.361 272.034 184.12 272.182 183.599C272.331 183.153 270.596 182.806 268.736 182.409C268.513 182.359 268.265 182.309 268.041 182.26C265.958 181.788 264.52 180.275 262.71 178.985C260.974 177.745 258.668 173.156 258.668 173.156L253.783 173.081C253.783 173.081 255.965 177.199 256.808 178.96C257.304 180.002 257.131 181.317 256.982 182.309C256.858 182.905 256.784 183.475 256.833 184.021Z" fill="#FFB27D"/>
  <path d="M261.792 185.187C264.346 184.815 263.676 185.485 267.247 185.41C270.818 185.361 272.033 184.12 272.182 183.6C272.33 183.153 270.595 182.806 268.735 182.409L268.71 182.434C268.71 182.434 266.453 183.748 263.503 183.525C261.097 183.351 258.618 182.434 256.956 182.31C256.857 182.855 256.783 183.426 256.832 183.972C257.006 185.609 259.237 185.559 261.792 185.187Z" fill="#C65447"/>
  <path d="M203.816 131.134C203.816 131.134 235.879 131.283 241.88 135.078C247.856 138.849 261.494 177.795 261.494 177.795C261.494 177.795 260.428 179.184 259.114 179.383C257.006 179.68 255.791 178.837 255.791 178.837C255.791 178.837 237.516 160.654 236.548 155.692C235.581 150.731 235.805 146.291 233.598 146.191C231.391 146.067 203.792 149.54 199.626 142.198C195.46 134.855 198.907 127.562 198.907 127.562L203.816 131.134Z" fill="#EF7E29"/>
  <path d="M239.798 183.302C239.822 184.915 242.079 185.039 244.658 184.89C247.237 184.716 246.518 185.336 250.088 185.584C253.659 185.832 254.948 184.716 255.147 184.195C255.32 183.749 253.634 183.277 251.799 182.732C251.576 182.657 251.353 182.583 251.105 182.533C249.047 181.888 247.757 180.276 246.071 178.812C244.459 177.448 242.525 172.66 242.525 172.66L237.665 172.189C237.665 172.189 239.5 176.48 240.17 178.316C240.566 179.408 240.293 180.697 240.046 181.665C239.922 182.186 239.773 182.732 239.798 183.302Z" fill="#FFB27D"/>
  <path d="M244.633 184.865C247.212 184.691 246.493 185.311 250.064 185.559C253.635 185.807 254.924 184.691 255.122 184.17C255.296 183.724 253.61 183.252 251.775 182.707L251.75 182.731C251.75 182.731 249.394 183.848 246.468 183.401C244.088 183.029 241.683 181.913 240.046 181.64C239.922 182.186 239.773 182.731 239.798 183.302C239.823 184.89 242.079 185.038 244.633 184.865Z" fill="#C65447"/>
  <path d="M197.593 133.093C197.593 133.093 225.836 134.433 231.689 138.452C237.516 142.47 245.724 176.232 245.724 176.232C245.724 176.232 244.484 177.869 243.244 178.316C241.657 178.887 239.5 178.242 239.5 178.242C239.5 178.242 228.167 164.573 227.374 159.562C226.605 154.576 225.365 151.996 223.158 151.798C220.951 151.599 199.279 155.816 189.36 146.489C183.21 140.659 197.593 133.093 197.593 133.093Z" fill="#F99746"/>
  <path d="M207.265 95.4612C207.81 94.4938 208.48 92.7573 208.951 89.6317C208.902 89.9293 208.083 93.8736 206.397 96.0318C199.851 99.728 189.51 113.62 189.585 116.249C189.585 116.249 183.237 107.84 183.162 107.79C183.162 107.79 176.021 97.3465 185.642 92.2612C190.527 89.6813 190.75 85.9603 190.775 82.7354C190.8 79.4857 193.205 65.718 202.38 69.9847C202.38 69.9847 203.942 69.4142 204.612 69.563C204.612 69.563 204.041 69.6374 203.744 69.9103C204.835 69.9103 206.397 70.1088 207.662 70.9274C210.985 73.1104 212.894 90.9216 207.265 95.4612Z" fill="#B5453C"/>
  <path d="M196.403 92.9806C196.403 92.9806 199.031 92.7325 201.66 92.9806C203.445 93.1543 205.23 93.7 206.222 94.1217C208.702 95.1636 208.454 99.5792 203.222 98.7606C197.99 97.942 196.031 94.2954 196.403 92.9806Z" fill="#FFB27D"/>
  <path d="M206 96.2056C206.024 96.2305 206.744 100.001 203.322 99.8522C201.065 99.753 196.23 97.0243 196.651 95.1141C196.85 94.1963 198.561 91.8397 198.883 86.407L199.28 86.5062L206.148 88.3419C206.148 88.3419 205.851 90.5249 205.702 92.5839C205.628 94.3451 205.628 96.0072 206 96.2056Z" fill="#FFB27D"/>
  <path d="M206.197 88.3666C206.197 88.3666 205.9 90.5496 205.751 92.6086C201.858 92.2365 200.048 88.5403 199.328 86.5061L206.197 88.3666Z" fill="#F4A269"/>
  <path d="M198.66 85.7122C198.66 85.7122 196.825 82.3385 196.528 79.5602C196.304 77.5756 197.792 70.3321 205.058 71.8701C205.058 71.8701 207.166 72.2174 209.1 73.7058C210.612 74.8965 212.77 77.3772 209.769 83.5789L208.951 85.6874L198.66 85.7122Z" fill="#B5453C"/>
  <path d="M207.364 90.4006C207.364 90.4006 198.139 89.9293 198.511 84.199C198.883 78.4438 197.941 74.5243 203.867 74.574C209.769 74.6236 210.786 76.9058 211.108 78.8407C211.455 80.7756 209.769 90.3758 207.364 90.4006Z" fill="#FFB27D"/>
  <path d="M208.059 74.6983C208.059 74.6983 205.083 81.2721 201.14 82.0163C197.198 82.7605 195.586 81.5946 195.586 81.5946C195.586 81.5946 198.71 79.4364 199.603 75.3433C199.628 75.3681 206.372 71.3742 208.059 74.6983Z" fill="#B5453C"/>
  <path d="M207.414 75.2192C207.414 75.2192 209.199 76.8565 209.571 78.3449C209.943 79.8333 209.943 82.8597 210.836 82.8101C210.836 82.8101 213.043 78.3449 211.084 75.6162C208.976 72.7138 207.414 75.2192 207.414 75.2192Z" fill="#B5453C"/>
  <path d="M216.613 131.605C215.869 132.498 213.538 132.771 211.033 133.192C209.074 133.515 207.016 133.912 205.553 134.78C202.23 136.74 191.344 143.338 188.17 143.041C186.931 142.917 187.179 140.56 187.923 137.434C189.113 132.498 191.568 125.626 191.568 122.649C191.568 121.012 192.113 117.167 192.832 112.752C192.882 112.404 192.956 112.032 193.006 111.685C194.444 103.102 196.428 93.0054 196.428 93.0054C196.428 93.0054 198.635 97.8427 202.95 97.8427C207.264 97.8427 206.248 94.1713 206.248 94.1713C206.248 94.1713 210.19 94.6426 211.108 95.6349C212.05 96.6271 214.381 100.968 214.852 102.134C214.852 102.134 214.951 103.647 211.232 104.342C211.232 104.342 212.149 108.41 212.248 111.139C212.323 113.148 210.885 119.425 210.463 123.344C210.314 124.733 210.289 125.825 210.513 126.296C210.81 126.916 211.728 127.561 212.794 128.181C214.877 129.372 217.481 130.538 216.613 131.605Z" fill="#2B478B"/>
  <path d="M212.769 128.157C215.149 132.225 206.297 133.44 204.834 134.309C201.511 136.268 191.319 143.338 188.145 143.041C186.906 142.917 187.153 140.56 187.897 137.434C189.088 132.498 191.543 125.626 191.543 122.65C191.543 121.012 192.088 117.167 192.807 112.752L196.651 109.055C196.651 109.055 200.767 119.673 204.685 121.434C206.743 122.352 208.876 122.947 210.463 123.319C210.314 124.708 210.289 125.8 210.512 126.271C210.785 126.891 211.727 127.536 212.769 128.157Z" fill="#233862"/>
  <path d="M195.212 96.1806C195.212 96.1806 191.939 94.1961 188.765 97.9667C185.591 101.737 191.021 128.777 195.708 130.166C200.915 131.704 216.017 129.918 216.017 129.918L215.719 127.561C215.719 127.561 199.675 124.485 199.006 123.617C198.336 122.749 196.898 96.6023 195.212 96.1806Z" fill="#FFB27D"/>
  <path d="M196.403 92.9805C196.403 92.9805 189.659 93.6006 187.7 95.8084C185.741 98.0162 185.17 104.019 185.17 104.019C185.17 104.019 191.097 108.807 198.238 106.947L196.403 92.9805Z" fill="#2B478B"/>
  <path d="M214.431 127.412C214.431 127.412 219.663 126.395 220.258 126.643C220.853 126.892 224.126 129.844 223.804 130.439C223.457 131.034 222.118 131.456 220.605 130.935C219.092 130.439 215.794 130.166 215.199 129.422C214.579 128.678 214.431 127.412 214.431 127.412Z" fill="#FFB27D"/>
  <path d="M218.638 134.22H209.736V133.178H218.638V134.22Z" fill="#9E332E"/>
  <path d="M216.737 134.085C216.837 133.738 224.92 121.037 224.92 121.037H242.923L233.897 133.763L216.737 134.085Z" fill="#9E332E"/>
  <path d="M217.506 134.234C217.605 133.887 225.714 121.037 225.714 121.037H242.923L234.343 134.234H217.506Z" fill="#B5453C"/>
  <path d="M232.681 127.685C232.508 128.206 231.937 128.628 231.417 128.628C230.896 128.628 230.623 128.206 230.797 127.685C230.97 127.164 231.541 126.743 232.061 126.743C232.582 126.743 232.855 127.164 232.681 127.685Z" fill="#9E332E"/>
  <path d="M403.83 234.509C403.83 234.399 405.306 231.365 404.841 231.146C404.377 230.9 403.529 230.955 403.447 231.474C403.311 231.993 403.83 234.509 403.83 234.509Z" fill="#FFB27D"/>
  <path d="M425.773 196.699C425.773 196.699 434.382 186.338 438.945 192.954C438.945 192.954 442.361 194.376 443.591 200.171C444.848 206.077 440.913 210.587 438.891 209.467C437.579 208.756 436.595 211.025 436.595 211.025L425.773 196.699Z" fill="#233862"/>
  <path d="M415.061 251.841C408.201 249.326 401.615 237.571 401.615 237.571L403.774 236.067C405.578 238.691 413.667 243.749 413.667 243.749C413.858 241.535 414.131 239.512 414.459 237.68C416.7 225.268 421.865 221.605 423.232 220.839C423.45 220.703 423.587 220.675 423.587 220.675C423.587 220.675 423.587 220.757 423.56 220.949C423.532 221.331 423.505 222.07 423.423 223.108C422.904 230.791 420.799 253.974 415.061 251.841Z" fill="#FFB27D"/>
  <path d="M438.017 191.915C438.017 191.915 439.164 187.268 445.996 188.716C445.996 188.716 442.744 188.306 441.843 189.564C441.843 189.564 444.439 188.388 446.051 189.373C447.663 190.357 447.937 193.692 447.691 194.704C447.445 195.715 445.669 198.75 444.466 198.75C443.291 198.75 441.87 197.711 441.87 197.711L438.017 191.915Z" fill="#233862"/>
  <path d="M448.211 264.526C444.822 256.926 443.21 254.794 443.155 252.388C443.1 250.502 444.03 248.451 445.861 243.448C446.298 242.273 446.571 241.07 446.762 239.84C448.183 230.189 442.609 219.773 439.165 219.062C438.209 218.816 436.569 215.317 436.596 209.712L436.159 209.794L428.863 211.243C428.863 211.243 429.027 213.54 429.027 215.7C429.027 217.504 428.917 219.199 428.507 219.418C427.988 219.472 427.66 219.5 427.66 219.5C427.66 219.5 421.566 227.947 421.074 235.794C420.582 243.64 425.938 247.057 421.047 262.777C415.991 278.825 450.069 268.709 448.211 264.526Z" fill="#FFB27D"/>
  <path d="M428.834 211.243C428.834 211.243 428.998 213.54 428.998 215.699C433.07 215.59 435.229 211.872 436.131 209.794L428.834 211.243Z" fill="#E8945B"/>
  <path d="M436.87 209.002C436.87 209.002 439.001 205.612 439.52 202.741C439.876 200.691 438.837 193.036 431.158 194.129C431.158 194.129 428.917 194.348 426.84 195.77C425.173 196.89 422.768 199.324 425.446 205.994L426.157 208.236L436.87 209.002Z" fill="#233862"/>
  <path d="M427.469 213.294C427.469 213.294 437.116 213.458 437.143 207.443C437.143 201.429 438.4 197.383 432.224 197.027C426.048 196.672 424.845 198.968 424.381 200.964C423.861 202.987 424.955 213.102 427.469 213.294Z" fill="#FFB27D"/>
  <path d="M427.824 196.891C427.824 196.891 430.474 203.944 434.519 204.983C438.564 206.022 440.34 204.928 440.34 204.928C440.34 204.928 437.224 202.468 436.569 198.148C436.569 198.148 429.819 193.528 427.824 196.891Z" fill="#233862"/>
  <path d="M428.479 197.465C428.479 197.465 426.512 199.05 426.02 200.581C425.528 202.112 425.309 205.256 424.408 205.174C424.408 205.174 422.413 200.363 424.654 197.656C427.031 194.758 428.479 197.465 428.479 197.465Z" fill="#233862"/>
  <path d="M439.656 337.412C437.224 347.09 433.562 354.498 433.562 354.498L430.365 354.28C430.365 354.28 431.923 346.844 431.841 336.81C431.786 329.784 430.911 321.501 428.124 313.572C418.587 286.343 420.144 266.55 420.144 266.55L438.071 268.655L438.919 268.764C439.001 276.993 439.219 288.175 439.383 296.923C439.547 304.797 439.684 310.674 439.684 310.674C443.127 318.029 441.897 328.527 439.656 337.412Z" fill="#163560"/>
  <path d="M460.754 272.591L457.857 273.466C457.857 273.466 448.292 257.582 447.418 253.454C447.145 252.115 446.434 249.408 445.614 246.401C443.947 240.168 441.761 232.513 441.761 232.513L441.05 229.424L438.618 218.871C438.618 218.871 443.291 219.336 445.997 220.484C446.899 220.867 447.582 221.304 447.828 221.851C449.823 226.252 451.818 237.379 453.239 245.307C454.031 249.736 454.632 253.154 454.933 253.892C455.835 255.915 458.486 267.069 460.754 272.591Z" fill="#FFB27D"/>
  <path d="M449.931 335.881C448.893 346.871 444.357 353.979 444.357 353.979L442.826 355.072C442.826 355.072 441.378 347.335 440.367 338.095C439.383 329.319 438.071 320.051 436.568 317.236C430.583 305.999 428.807 263.624 428.807 263.624L446.98 262.722C448.811 265.784 449.603 270.842 449.795 276.556C450.259 291.018 446.871 309.881 446.379 312.588C446.351 312.807 446.406 312.998 446.488 313.189C450.095 320.407 450.615 328.608 449.931 335.881Z" fill="#1C468A"/>
  <path d="M428.097 197.684C428.097 197.684 429.982 205.065 435.093 207.444C435.093 207.444 429.982 202.905 429.545 198.012C429.108 193.145 428.097 197.684 428.097 197.684Z" fill="#233862"/>
  <path d="M450.479 269.994C450.506 270.596 450.479 271.088 450.369 271.443C449.987 272.673 448.648 273.22 445.45 272.892C443.483 272.701 442.608 269.393 442.226 266.604C441.051 270.623 439.411 272.865 437.279 273.357C434.164 274.04 418.478 275.954 417.439 268.491C416.319 260.289 419.68 245.745 419.871 237.899C419.407 235.11 419.243 232.704 419.298 230.627C419.434 225.049 421.074 221.905 422.331 220.648C422.686 220.375 423.041 220.21 424.49 219.964C425.228 219.828 426.239 219.691 427.66 219.5L428.234 219.445C427.96 219.91 424.408 225.295 424.681 226.69C424.982 228.139 437.58 226.826 438.454 226.034C439.329 225.241 440.695 219.144 440.695 219.144C440.695 219.144 445.15 219.636 447.336 221.222C447.336 221.222 447.336 221.222 447.309 221.249C447.582 221.441 447.773 221.632 447.883 221.851C450.205 226.28 452.528 237.489 454.168 245.471C450.205 247.659 446.735 247.002 445.669 246.729C447.09 255.942 450.26 265.811 450.479 269.994Z" fill="#F99746"/>
  <path d="M403.776 236.067C403.776 235.766 404.022 231.447 403.257 230.544C402.491 229.642 400.934 228.357 400.414 228.385C399.923 228.412 397.982 230.982 398.584 232.95C399.157 234.919 401.617 237.571 401.617 237.571L403.776 236.067Z" fill="#FFB27D"/>
  <path d="M407.302 230.791L402.82 232.131C402.683 232.185 402.519 232.103 402.464 231.939L399.923 223.41C399.868 223.273 399.95 223.109 400.114 223.054L404.596 221.715C404.733 221.66 404.897 221.742 404.951 221.906L407.493 230.436C407.52 230.6 407.438 230.764 407.302 230.791Z" fill="#F1A34F"/>
  <path d="M406.127 231.146L402.083 232.349C401.809 232.431 401.536 232.267 401.454 232.021L399.022 223.901C398.94 223.628 399.104 223.354 399.35 223.272L403.394 222.069C403.668 221.987 403.941 222.151 404.023 222.397L406.455 230.517C406.564 230.79 406.4 231.064 406.127 231.146Z" fill="#D86713"/>
  <path d="M449.932 335.881C448.893 346.871 444.357 353.979 444.357 353.979L442.799 355.4C442.799 355.4 441.378 347.336 440.367 338.122C441.46 338.204 446.188 338.368 449.932 335.881Z" fill="#FFB27D"/>
  <path d="M439.657 337.412C437.225 347.089 433.563 354.498 433.563 354.498L430.366 354.279C430.366 354.279 431.923 346.843 431.841 336.81C432.935 337.329 435.148 337.904 439.657 337.412Z" fill="#D9935C"/>
  <path d="M435.396 357.15H433.374C432.691 357.041 432.199 356.849 431.488 356.767C430.423 356.631 429.931 357.068 429.849 357.15L429.821 357.177H421.186C420.967 356.877 421.186 356.138 421.377 355.619C421.514 355.264 421.814 354.99 422.197 354.881C423.126 354.608 424.93 354.389 426.569 352.885C427.499 352.038 431.051 349.796 431.051 349.796H431.078C431.16 349.796 431.516 349.905 433.155 351.272C434.003 351.983 435.424 350.288 435.424 350.288C435.424 350.288 435.697 350.507 435.888 350.917C436.052 351.245 436.161 351.682 436.08 352.256C435.943 353.022 436.353 354.471 436.708 355.455C436.899 356.056 437.091 356.467 437.091 356.467C437.091 356.467 437.145 356.931 435.396 357.15Z" fill="#233862"/>
  <path d="M435.887 350.917C435.395 351.272 434.384 351.929 433.7 352.011C432.771 352.12 431.077 349.796 431.077 349.796H431.104C431.186 349.796 431.542 349.906 433.181 351.272C434.028 351.983 435.449 350.288 435.449 350.288C435.449 350.288 435.668 350.507 435.887 350.917Z" fill="#466AA5"/>
  <path d="M435.395 357.15H433.373C432.689 357.041 432.198 356.85 431.487 356.768C430.421 356.631 429.929 357.068 429.847 357.15L429.82 357.178H421.184C420.966 356.877 421.184 356.139 421.376 355.619C421.649 355.373 421.704 356.631 421.868 356.822C422.004 357.014 428.918 356.904 429.301 356.604C429.711 356.303 430.886 355.811 432.553 356.193C434.001 356.549 436.133 355.647 436.679 355.428C436.871 356.029 437.062 356.44 437.062 356.44C437.062 356.44 437.144 356.932 435.395 357.15Z" fill="#466AA5"/>
  <path d="M446.243 357.15H444.221C443.538 357.041 443.046 356.849 442.335 356.767C441.269 356.631 440.777 357.068 440.695 357.15L440.668 357.177H432.032C431.814 356.877 432.032 356.138 432.224 355.619C432.36 355.264 432.661 354.99 433.044 354.881C433.973 354.608 435.776 354.389 437.416 352.885C438.345 352.038 441.898 349.796 441.898 349.796H441.925C442.007 349.796 442.362 349.905 444.002 351.272C444.849 351.983 446.27 350.288 446.27 350.288C446.27 350.288 446.544 350.507 446.735 350.917C446.899 351.245 447.008 351.682 446.926 352.256C446.79 353.022 447.199 354.471 447.555 355.455C447.746 356.056 447.937 356.467 447.937 356.467C447.937 356.467 447.992 356.931 446.243 357.15Z" fill="#233862"/>
  <path d="M446.707 350.917C446.215 351.272 445.204 351.929 444.521 352.011C443.592 352.12 441.897 349.796 441.897 349.796H441.925C442.007 349.796 442.362 349.906 444.002 351.272C444.849 351.983 446.27 350.288 446.27 350.288C446.27 350.288 446.516 350.507 446.707 350.917Z" fill="#466AA5"/>
  <path d="M446.242 357.15H444.219C443.536 357.041 443.044 356.85 442.334 356.768C441.268 356.631 440.776 357.068 440.694 357.15L440.667 357.178H432.031C431.812 356.877 432.031 356.139 432.222 355.619C432.496 355.373 432.55 356.631 432.714 356.822C432.851 357.014 439.765 356.904 440.147 356.604C440.557 356.303 441.732 355.811 443.399 356.193C444.848 356.549 446.979 355.647 447.526 355.428C447.717 356.029 447.909 356.44 447.909 356.44C447.909 356.44 447.991 356.932 446.242 357.15Z" fill="#466AA5"/>
  <path d="M422.85 220.402C422.85 220.402 416.838 223.437 414.816 235.657C414.816 235.657 416.783 238.364 419.571 239.156C419.981 239.266 420.391 239.348 420.801 239.375C424.217 239.567 422.85 220.402 422.85 220.402Z" fill="#F99746"/>
  <path d="M399.978 228.74C399.978 228.74 401.836 225.87 402.301 226.034C402.957 226.253 400.606 229.889 400.606 229.889C400.606 229.889 402.328 227.182 402.601 227.373C403.23 227.838 402.246 229.533 401.262 230.845C401.262 230.845 403.011 229.26 403.066 229.533C403.257 230.545 401.153 232.978 401.153 232.978L399.978 230.271V228.74Z" fill="#FFB27D"/>
  <path d="M398.583 231.392C398.665 231.037 399.129 224.202 399.321 224.858C399.512 225.514 399.977 229.096 399.977 229.096L398.583 231.392Z" fill="#FFB27D"/>
  <path d="M429.354 209.713C429.354 209.713 429.19 210.423 427.413 210.314C427.413 210.314 425.938 210.232 425.965 209.439C425.992 209.439 427.413 208.893 429.354 209.713Z" fill="white"/>
  <path d="M460.753 272.592C460.753 272.592 464.251 274.916 464.798 275.9C465.344 276.884 466.574 280.493 466.574 280.493C466.574 280.493 465.672 280.629 464.798 279.071C463.896 277.513 460.972 277.649 459.988 276.802C459.004 275.954 457.857 273.467 457.857 273.467L460.753 272.592Z" fill="#FFB27D"/>
  <path d="M458.24 274.232C458.24 274.232 458.813 276.966 459.524 277.786C460.235 278.579 461.218 279.919 461.628 279.563C462.038 279.208 461.191 276.228 461.191 276.228L458.24 274.232Z" fill="#FFB27D"/>
  <path d="M464.307 276.2C464.389 276.337 467.477 279.59 467.477 279.59C467.477 279.59 466.356 280.082 466.056 279.59C465.755 279.098 464.307 276.2 464.307 276.2Z" fill="#FFB27D"/>
  <path d="M185.359 267.245C188.053 272.267 191.622 274.778 191.622 274.778H206.499C206.476 274.778 183.286 263.421 185.359 267.245Z" fill="#233862"/>
  <path d="M195.698 305.742C196.067 306.203 196.113 306.687 195.905 307.216C195.514 308.184 194.316 309.244 192.935 310.303C192.75 310.442 192.589 310.557 192.451 310.672C192.405 310.695 192.382 310.741 192.336 310.764C192.313 310.787 192.29 310.81 192.244 310.833C190.954 311.962 191.415 312.239 189.066 314.566C186.394 317.192 184.621 317.192 184.115 316.938C183.7 316.708 184.598 315.303 185.612 313.736C185.658 313.667 185.704 313.575 185.75 313.506C185.888 313.298 186.026 313.091 186.141 312.861C187.339 310.949 187.062 310.027 186.878 307.147C186.717 304.797 183.585 293.97 183.585 293.97L188.582 293.255C188.582 293.255 189.849 301.849 191.461 303.208C192.313 303.945 193.303 303.968 194.155 304.521C194.224 304.567 194.27 304.59 194.339 304.636C194.846 304.959 195.33 305.281 195.698 305.742Z" fill="#FFB27D"/>
  <path d="M195.699 305.742C196.068 306.203 196.114 306.686 195.906 307.216C195.446 308.184 194.271 309.244 192.936 310.28C192.751 310.418 192.613 310.534 192.475 310.672C192.429 310.695 192.406 310.741 192.36 310.764C192.337 310.787 192.314 310.81 192.268 310.833C190.978 311.962 191.439 312.238 189.09 314.565C186.419 317.192 184.645 317.192 184.139 316.938C183.724 316.708 184.622 315.303 185.636 313.736C186.142 313.575 188.514 312.676 190.356 310.465C191.968 308.506 193.074 305.972 194.179 304.521C194.248 304.567 194.294 304.59 194.364 304.636C194.847 304.958 195.331 305.281 195.699 305.742Z" fill="#233862"/>
  <path d="M155.697 301.549C155.351 303.07 153.163 302.77 150.745 302.102C148.327 301.434 148.88 302.171 145.403 301.687C141.925 301.204 140.912 299.89 140.82 299.361C140.728 298.9 142.455 298.785 144.32 298.623C144.551 298.6 144.781 298.577 145.011 298.554C147.107 298.347 148.65 297.057 150.584 295.997C152.403 295.006 155.19 290.813 155.19 290.813L159.957 291.32C159.957 291.32 157.355 295.052 156.341 296.688C155.743 297.656 155.743 298.923 155.789 299.937C155.812 300.466 155.835 301.019 155.697 301.549Z" fill="#FFB27D"/>
  <path d="M150.745 302.102C148.327 301.434 148.88 302.171 145.403 301.687C141.925 301.204 140.912 299.89 140.82 299.361C140.728 298.9 142.455 298.785 144.32 298.623L144.343 298.669C144.343 298.669 146.393 300.213 149.272 300.351C151.621 300.466 154.154 299.867 155.766 299.936C155.789 300.466 155.812 301.019 155.674 301.572C155.351 303.07 153.186 302.747 150.745 302.102Z" fill="#233862"/>
  <path d="M174.81 271.531L178.932 283.649L184.344 299.499C184.344 299.499 185.91 299.683 187.452 299.291C188.857 298.923 190.492 297.909 190.492 297.909C190.492 297.909 189.341 281.045 186.577 271.3C185.84 268.812 185.034 266.785 184.113 265.633C179.6 259.965 174.81 271.531 174.81 271.531Z" fill="#233862"/>
  <path d="M179.854 252.593C182.802 251.741 191.092 253.169 199.428 255.035L201.271 252.202L219.394 251.28C219.394 251.28 224.991 264.665 221.513 273.028C221.007 274.249 220.085 274.802 218.473 274.779C218.473 274.779 218.335 274.779 218.151 274.779C218.151 274.779 207.396 274.871 203.896 274.779C194.915 274.526 185.035 267.891 183.746 267.614C181.627 267.13 180.66 271.369 178.426 275.77C176.169 280.17 157.907 294.983 157.907 294.983C157.907 294.983 155.167 294.937 154.038 294.477C152.841 293.993 152.403 293.371 152.403 293.371C152.403 293.371 173.221 254.552 179.854 252.593Z" fill="#2B478B"/>
  <path d="M202.053 227.297C208.386 231.03 221.259 238.724 221.328 238.678C221.328 238.678 226.072 240.613 228.859 238.886C233.488 235.983 236.136 227.943 228.03 220.732C223.977 217.138 221.075 216.216 220.776 210.641C220.614 207.623 216.769 197.555 209.883 198.293C209.307 198.362 208.732 198.385 208.156 198.362C207.35 198.316 206.037 198.385 204.655 199.168C200.694 201.357 192.427 225.662 202.053 227.297Z" fill="#233862"/>
  <path d="M207.536 224.441C207.513 224.464 210.668 225.639 212.832 224.74C214.859 223.911 216.471 220.64 216.448 220.64C215.527 220.571 214.56 219.741 213.915 214.489L213.523 214.627L206.914 216.815C206.914 216.815 207.329 218.935 207.582 220.939C207.789 222.598 207.881 224.211 207.536 224.441Z" fill="#FFB27D"/>
  <path d="M206.914 216.769C206.914 216.769 207.329 218.889 207.582 220.893C211.359 220.317 212.948 216.608 213.523 214.581L206.914 216.769Z" fill="#ED975D"/>
  <path d="M205.876 218.842C205.876 218.842 214.858 217.875 214.19 212.3C213.499 206.701 214.213 202.831 208.433 203.2C202.675 203.568 201.823 205.849 201.593 207.761C201.363 209.673 203.527 218.935 205.876 218.842Z" fill="#FFB27D"/>
  <path d="M202.007 204.697C202.007 204.697 207.603 209.789 211.495 210.295C215.387 210.802 216.884 209.581 216.884 209.581C216.884 209.581 214.627 207.6 213.337 204.49C212.946 203.568 212.117 202.923 211.126 202.808C208.34 202.509 203.066 202.255 202.007 204.697Z" fill="#233862"/>
  <path d="M205.602 204.375C205.602 204.375 203.645 206.171 203 207.531C202.378 208.844 202.125 212.023 202.54 213.29C202.54 213.29 199.707 207.393 201.48 204.628C203.346 201.656 205.602 204.375 205.602 204.375Z" fill="#233862"/>
  <path d="M199.613 237.434C199.382 255.588 199.29 251.787 201.225 253.561C201.685 253.998 203.021 254.275 204.794 254.436C210.344 254.966 220.131 254.298 220.546 253.284C221.928 249.759 221.053 248.63 222.273 243.217C222.411 242.641 222.55 242.019 222.734 241.35C223.724 237.641 224.622 236.397 221.628 230.292C218.911 224.763 216.055 220.271 215.779 220.432C208.087 224.717 207.581 220.916 207.581 220.916C207.581 220.916 199.728 228.564 199.613 237.434Z" fill="white"/>
  <path d="M178.934 283.672L184.345 299.499C184.345 299.499 185.911 299.683 187.454 299.291C188.859 298.923 190.494 297.909 190.494 297.909C190.494 297.909 189.343 281.045 186.579 271.3L178.934 283.672Z" fill="#2B478B"/>
  <path d="M207.581 220.893C207.581 220.893 199.752 221.999 198.738 225.339C197.725 228.68 191.807 248.262 191.807 248.262C191.807 248.262 195.745 249.091 197.633 247.294C199.521 245.52 204.473 230.477 204.473 230.477L207.581 220.893Z" fill="white"/>
  <path d="M204.817 254.413C210.367 254.943 220.155 254.275 220.569 253.261C221.951 249.736 221.076 248.608 222.296 243.194L219.809 235.591C219.809 235.591 220.016 244.023 217.483 246.166C214.95 248.308 207.212 250.151 205.969 251.971C205.347 252.823 204.933 253.722 204.817 254.413Z" fill="#EBF3FF"/>
  <path d="M211.266 251.05C211.266 251.05 205.808 249.667 204.91 250.151C204.012 250.635 201.801 252.34 201.502 252.939C201.225 253.538 203.482 252.524 204.219 252.34C204.703 252.224 205.923 252.685 206.545 252.916C209.101 253.86 210.713 253.445 210.713 253.445L211.266 251.05Z" fill="#FFB27D"/>
  <path d="M215.779 220.409C215.779 220.409 223.126 221.054 225.59 224.694C229.044 229.809 235.584 251.326 231.416 254.068C226.741 257.155 210.483 254.344 210.483 254.344C210.483 254.344 209.999 251.787 210.805 250.589C211.588 249.391 223.932 247.732 224.507 247.179C225.083 246.626 217.737 235.937 217.783 234.232C217.829 232.504 215.779 220.409 215.779 220.409Z" fill="white"/>
  <path d="M204.611 251.672C204.611 251.672 203.413 253.123 203.045 253.285C202.653 253.446 202.423 253.4 202.423 253.4L203.229 252.017L204.611 251.672Z" fill="#FFB27D"/>
  <path d="M204.932 250.151L201.547 251.672C201.547 251.672 201.685 251.902 202.1 251.902C202.514 251.902 203.55 251.533 203.55 251.533L204.932 250.151Z" fill="#FFB27D"/>
  <path d="M202.997 255.565L176.56 254.851L169.145 234.854L195.536 235.568L202.997 255.565Z" fill="#F99746"/>
  <path d="M176.26 254.067L211.172 255.012L211.149 255.795L176.559 254.851L176.26 254.067Z" fill="#ED7D2B"/>
  <path d="M183.491 245.129C183.307 244.438 183.721 243.885 184.412 243.885C185.103 243.908 185.817 244.484 186.001 245.198C186.185 245.889 185.771 246.442 185.08 246.442C184.389 246.419 183.675 245.843 183.491 245.129Z" fill="white"/>
  <path d="M48.3164 247.405C48.3164 247.405 43.9289 249.917 42.6863 249.891C41.469 249.891 36.6251 248.953 35.281 249.638C33.9369 250.323 31.5022 253.088 31.0458 254.001C30.2342 255.625 34.3426 254.915 36.2954 253.519C36.5744 253.316 36.9294 253.24 37.2591 253.316C38.2735 253.545 40.3785 253.925 41.3929 253.545C42.7624 253.037 49.9395 252.479 49.9395 252.479L48.3164 247.405Z" fill="#EA9963"/>
  <path d="M81.7412 213.358C81.7412 213.358 77.1763 245.731 69.6442 248.649C65.9162 250.069 49.4825 253.317 44.6132 253.647C44.6132 253.647 43.4212 252.682 43.7002 248.75C43.7002 248.75 60.9201 242.433 63.3801 238.982C67.0321 233.857 61.123 218.051 65.688 213.256C70.2782 208.436 77.9878 206.356 81.7412 213.358Z" fill="#ED7D2B"/>
  <path d="M80.2201 281.58C78.9014 283.838 77.3544 285.944 75.782 287.948C70.8874 294.138 65.5616 299.238 64.6233 304.033C64.4458 304.997 64.1415 306.037 63.7611 307.128C63.3806 308.244 62.8988 309.386 62.3408 310.604C60.2613 315.12 57.1673 320.169 54.0479 324.761C48.6968 332.702 43.65 339.349 43.65 339.349L34.3934 338.943C34.7738 338.004 38.8062 327.044 44.1826 313.623C46.3636 308.168 48.6968 302.384 50.9539 296.802C51.2582 296.066 51.5626 295.305 51.8415 294.57C52.5263 292.87 53.211 291.17 53.8704 289.546C58.9425 276.962 62.9749 266.916 62.9749 266.916C62.9749 266.916 83.2127 259.254 85.3176 264.226C87.0675 268.336 85.6473 272.37 80.2201 281.58Z" fill="#233862"/>
  <path d="M43.3721 337.649C43.3721 337.649 42.8902 345.285 41.4192 345.387C41.2164 345.412 33.9378 345.412 33.9378 345.412L24.6305 345.361C24.6305 345.361 24.6812 343.129 27.4201 342.647C30.1337 342.165 34.6987 340.262 36.3471 336.659C38.0463 332.879 43.3721 337.649 43.3721 337.649Z" fill="#163560"/>
  <path d="M76.2128 313.648C76.2128 313.648 83.111 316.921 82.6798 318.342C82.6291 318.519 79.9155 325.293 79.9155 325.293L76.4157 333.919C76.4157 333.919 74.3615 333.031 74.9194 330.317C75.4773 327.602 75.4013 322.68 72.6877 319.813C69.7965 316.82 76.2128 313.648 76.2128 313.648Z" fill="#163560"/>
  <path d="M73.7531 321.285C73.7531 321.285 77.6333 317.352 78.3434 314.765C78.3434 314.765 65.0037 301.775 60.2359 298.629C54.758 295.001 51.2074 295.001 52.0697 294.113C54.9608 291.221 79.1296 282.747 83.0859 276.607C84.4553 274.501 85.2162 272.497 85.6219 270.747C86.5095 267.017 85.7994 264.429 85.7994 264.429L55.6963 263.567C55.6963 263.567 33.3282 286.781 33.455 295.534C33.6072 304.946 73.7531 321.285 73.7531 321.285Z" fill="#2B478B"/>
  <path d="M63.938 211.328C70.0246 212.901 80.1182 207.269 80.1182 207.269C80.1182 207.269 76.1873 204.63 74.7417 198.846C74.6656 198.567 74.6149 198.262 74.5388 197.958C73.9048 197.831 72.6875 197.577 71.4194 197.298L66.7784 201.459C66.7784 201.459 66.8799 203.184 67.4632 206.153C67.5646 206.66 67.6914 207.218 67.8182 207.827C65.3329 209.349 63.938 211.328 63.938 211.328Z" fill="#FFB27D"/>
  <path d="M86.5602 236.572C85.6979 248.294 86.8392 266.154 85.8501 269.25C84.9879 271.914 75.2747 270.341 71.3945 269.453C69.949 269.123 68.2244 268.641 66.4238 268.108C61.4024 266.56 55.9498 264.328 55.3665 262.679C55.3412 262.603 55.3158 262.552 55.3158 262.501C55.2651 262.273 55.2651 262.044 55.3158 261.816C55.5187 260.979 56.2542 260.066 56.3556 257.985C56.4571 255.676 56.4317 252.936 56.5332 249.993C56.5332 249.664 56.5331 249.308 56.5839 248.979V248.852C56.5839 248.801 56.5839 248.725 56.5839 248.674C56.6599 245.401 56.8375 241.951 57.0404 238.526C57.1672 236.369 57.3193 234.264 57.4715 232.209C57.9026 226.957 58.4859 222.289 59.2721 219.32C60.5402 214.5 63.3552 211.354 65.9166 209.07L67.7679 207.472C69.8222 207.929 72.2821 207.624 74.4885 206.584C76.8724 205.442 77.7093 204.631 78.1151 204.935C83.6437 209.172 87.6 222.212 86.5602 236.572Z" fill="#F99746"/>
  <path d="M66.425 268.057C61.4036 266.509 55.951 264.277 55.3677 262.628C55.3423 262.552 55.317 262.501 55.317 262.45C55.317 262.222 55.317 261.993 55.317 261.765C55.5199 260.928 56.2554 260.014 56.3568 257.934C56.4583 255.625 56.4329 252.885 56.5343 249.942C56.5343 249.612 56.5343 249.257 56.585 248.927V248.801C56.585 248.75 56.585 248.674 56.585 248.623L76.8482 222.796C76.8482 222.796 90.4669 251.16 66.425 268.057Z" fill="#ED7D2B"/>
  <path d="M66.7789 201.434C66.7789 201.434 66.8804 203.159 67.4637 206.127C72.0032 204.656 74.0574 200.546 74.7422 198.821C74.6661 198.541 74.6154 198.237 74.5393 197.933C73.9053 197.806 72.6879 197.552 71.4199 197.273L66.7789 201.434Z" fill="#EA9963"/>
  <path d="M66.1706 204.072C66.1706 204.072 76.0613 202.423 74.9454 196.258C73.8295 190.093 74.3368 185.754 67.9712 186.541C61.6057 187.327 60.7941 189.915 60.6927 192.046C60.5658 194.203 63.5584 204.326 66.1706 204.072Z" fill="#FFB27D"/>
  <path d="M27.1768 256.713L26.3086 256.995L18.8772 234.122L19.7455 233.84L27.1768 256.713Z" fill="#4A75CB"/>
  <path d="M51.5569 256.439L26.3281 256.978L26.2956 255.456L51.5244 254.917L51.5569 256.439Z" fill="#4A75CB"/>
  <path d="M51.0303 257.655C51.0303 257.655 42.9148 259.786 39.8969 259.558C36.8537 259.33 34.3176 257.883 33.9372 257.122C33.5568 256.361 32.7452 255.016 34.8248 255.27C36.9044 255.524 39.7194 255.955 39.7955 255.549C39.8716 255.143 38.0964 255.194 38.0964 255.194C38.0964 255.194 37.5638 254.408 38.2232 254.382C38.8825 254.357 40.8607 253.824 41.5961 254.179C42.3316 254.534 42.991 255.904 43.5489 255.828C44.0815 255.778 50.3202 253.012 50.3202 253.012L51.0303 257.655Z" fill="#FFB27D"/>
  <path d="M79.7373 214.702C79.7373 214.702 78.7736 247.38 71.5965 251.109C68.046 252.936 52.0688 257.985 47.2756 258.847C47.2756 258.847 45.9823 258.01 45.8301 254.078C45.8301 254.078 62.2638 245.883 64.318 242.204C67.3866 236.724 59.7531 221.654 63.7855 216.377C67.7925 211.049 75.2231 208.157 79.7373 214.702Z" fill="#F99746"/>
  <path d="M74.7691 198.82C74.7691 198.82 74.8705 196.715 73.5771 195.497C73.5771 195.497 74.0336 193.391 73.1967 193.036C72.3598 192.681 72.1823 194.457 71.8019 194.178C71.4215 193.899 69.697 192.579 68.9869 190.626C68.2514 188.672 61.5561 191.032 60.77 191.387C59.9838 191.742 57.4731 190.448 56.9912 189.408C56.9912 189.408 58.3861 188.292 59.0201 187.454C59.6541 186.617 64.0415 180.959 70.1788 182.558C76.3161 184.156 77.153 187.099 76.7979 189.611C76.4175 192.148 77.2798 197.983 74.7691 198.82Z" fill="#2B478B"/>
  <path d="M15.3061 137.406C15.3061 154.283 28.9513 167.943 45.8093 167.943C62.6673 167.943 76.3125 154.283 76.3125 137.406C76.3125 120.529 62.6673 106.869 45.8093 106.869C43.8961 106.869 42.019 107.05 40.2141 107.375C44.0044 121.252 49.0582 139.647 49.4192 140.803C48.8055 139.827 30.2509 131.479 17.5803 125.878C16.1003 129.42 15.3061 133.322 15.3061 137.406Z" fill="#6F74DD"/>
  <path d="M62.8894 176.662L47.3031 153.452L41.3846 161.866L62.8894 176.662Z" fill="#6F74DD"/>
  <path d="M15.9279 122.228C26.9553 127.109 45.2039 135.233 45.8086 136.16C45.4884 135.091 40.4372 116.705 37.0578 104.376C27.6667 106.942 19.9832 113.569 15.9279 122.228Z" fill="#F78248"/>
  <path d="M481.632 146.874C481.632 131.944 469.65 119.858 454.846 119.858C440.043 119.858 428.061 131.944 428.061 146.874C428.061 161.805 440.043 173.89 454.846 173.89C456.526 173.89 458.175 173.73 459.76 173.442C456.431 161.165 451.993 144.892 451.676 143.869C452.215 144.732 468.509 152.117 479.635 157.073C480.935 153.94 481.632 150.487 481.632 146.874Z" fill="#6F74DD"/>
  <path d="M438.318 183.27L448.28 162.663L453.983 168.827L438.318 183.27Z" fill="#6F74DD"/>
  <path d="M480.918 159.739C470.901 155.48 454.325 148.393 453.775 147.585C454.066 148.517 458.655 164.557 461.724 175.312C470.255 173.073 477.235 167.292 480.918 159.739Z" fill="#F99746"/>
  <path d="M156.503 237.903H104.883C101.078 237.903 97.959 234.776 97.959 230.963V184.276C97.959 180.462 101.078 177.335 104.883 177.335H156.503C160.308 177.335 163.427 180.462 163.427 184.276V230.945C163.445 234.776 160.326 237.903 156.503 237.903Z" fill="#2A4E96"/>
  <path d="M179.661 223.668L162.142 207.16L158.879 215.34L179.661 223.668Z" fill="#2A4E96"/>
  <path d="M155.926 227.89H105.261V211.732H155.926V227.89ZM105.892 227.276H155.313V212.364H105.892V227.276Z" fill="#8C9DF4"/>
  <path d="M128.537 216.07H108.938V217.353H128.537V216.07Z" fill="#8C9DF4"/>
  <path d="M144.492 216.069H130.591V217.353H144.492V216.069Z" fill="#8C9DF4"/>
  <path d="M119.755 219.72H108.937V221.004H119.755V219.72Z" fill="#8C9DF4"/>
  <path d="M135.477 219.72H121.576V221.004H135.477V219.72Z" fill="#8C9DF4"/>
  <path d="M150.821 219.72H136.92V221.004H150.821V219.72Z" fill="#8C9DF4"/>
  <path d="M110.851 199.423H105.568V206.779H110.851V199.423Z" fill="#C0D4FF"/>
  <path d="M119.921 194.542H114.638V206.797H119.921V194.542Z" fill="#C0D4FF"/>
  <path d="M128.971 190.548H123.688V206.797H128.971V190.548Z" fill="#F78248"/>
  <path d="M138.022 193.783H132.739V206.779H138.022V193.783Z" fill="#C0D4FF"/>
  <path d="M147.074 186.879H141.791V206.797H147.074V186.879Z" fill="#C0D4FF"/>
  <path d="M156.126 183.318H150.843V206.797H156.126V183.318Z" fill="#F78248"/>
</svg>
