<svg width="100" height="45" viewBox="0 0 100 45" fill="none" xmlns="http://www.w3.org/2000/svg">
  <path d="M42.2638 9.95649C42.2499 9.20855 41.9852 7.62128 41.6918 6.94952C41.3983 6.27777 41.0001 5.69951 40.4971 5.21474C39.9801 4.72997 39.3898 4.35254 38.7261 4.08246C38.0624 3.81237 37.3603 3.67733 36.6198 3.67733C31.9488 3.67733 28.4456 3.67733 26.1102 3.67733C23.7736 3.67733 20.2688 3.67733 15.5956 3.67733V0H36.7246C37.9681 0 39.1453 0.228532 40.2561 0.685603C41.3669 1.14267 42.3415 1.78672 43.1798 2.61776C44.0182 3.43495 44.6714 4.39409 45.1394 5.49521C45.6075 6.59634 46 8.87269 46 10.1054V11.9192H42.2638C42.2638 11.511 42.2673 10.0308 42.2638 9.95649Z" fill="#933183"/>
  <path d="M3.73619 35.0186C3.75016 35.7665 4.01486 37.3538 4.30828 38.0255C4.6017 38.6973 4.99991 39.2755 5.50291 39.7603C6.01989 40.2451 6.61022 40.6225 7.27391 40.8926C7.9376 41.1627 8.6397 41.2977 9.38024 41.2977H30.4044V44.9751H9.27545C8.0319 44.9751 6.85474 44.7465 5.74394 44.2895C4.63313 43.8324 3.65857 43.1883 2.82022 42.3573C1.98188 41.5401 1.32867 40.581 0.860599 39.4798C0.392523 38.3787 0 36.1024 0 34.8697V33.0559H3.73619C3.73619 33.4641 3.7327 34.9443 3.73619 35.0186Z" fill="#76B515"/>
  <path d="M12.1841 3.69125H10.1777C9.41319 3.70492 7.79064 3.96386 7.10396 4.2509C6.41727 4.53795 5.82617 4.9275 5.33062 5.41957C4.83508 5.92531 4.44927 6.5028 4.17318 7.15207C3.89709 7.80133 3.75904 8.48817 3.75904 9.21261C3.75904 11.9541 3.75904 14.0102 3.75904 15.381C3.75904 18.5807 3.75904 23.3803 3.75904 29.7797C3.36182 29.7797 0.14001 29.7797 0 29.7797L0 9.11009C0 7.89358 0.233611 6.74201 0.700839 5.65535C1.16807 4.56869 1.82642 3.61532 2.67593 2.7952C3.51128 1.97508 4.49173 1.33608 5.61733 0.878176C6.74292 0.420275 9.06986 0.0362854 10.33 0.0362854C10.4625 0.0362854 12.1841 0.0362854 12.1841 0.0362854C12.1841 1.04584 12.1841 2.91366 12.1841 3.69125Z" fill="#FD5C02"/>
  <path d="M20.86 22.14C20.86 23.3 20.46 24.2667 19.66 25.04C18.8733 25.8 17.6667 26.18 16.04 26.18H13.36V32H11.54V18.06H16.04C17.6133 18.06 18.8067 18.44 19.62 19.2C20.4467 19.96 20.86 20.94 20.86 22.14ZM16.04 24.68C17.0533 24.68 17.8 24.46 18.28 24.02C18.76 23.58 19 22.9533 19 22.14C19 20.42 18.0133 19.56 16.04 19.56H13.36V24.68H16.04Z" fill="#3949AB"/>
  <path d="M24.942 22.82C25.262 22.1933 25.7154 21.7067 26.302 21.36C26.902 21.0133 27.6287 20.84 28.482 20.84V22.72H28.002C25.962 22.72 24.942 23.8267 24.942 26.04V32H23.122V21.04H24.942V22.82Z" fill="#3949AB"/>
  <path d="M35.363 32.18C34.3363 32.18 33.403 31.9467 32.563 31.48C31.7363 31.0133 31.083 30.3533 30.603 29.5C30.1363 28.6333 29.903 27.6333 29.903 26.5C29.903 25.38 30.143 24.3933 30.623 23.54C31.1163 22.6733 31.783 22.0133 32.623 21.56C33.463 21.0933 34.403 20.86 35.443 20.86C36.483 20.86 37.423 21.0933 38.263 21.56C39.103 22.0133 39.763 22.6667 40.243 23.52C40.7363 24.3733 40.983 25.3667 40.983 26.5C40.983 27.6333 40.7296 28.6333 40.223 29.5C39.7296 30.3533 39.0563 31.0133 38.203 31.48C37.3496 31.9467 36.403 32.18 35.363 32.18ZM35.363 30.58C36.0163 30.58 36.6296 30.4267 37.203 30.12C37.7763 29.8133 38.2363 29.3533 38.583 28.74C38.943 28.1267 39.123 27.38 39.123 26.5C39.123 25.62 38.9496 24.8733 38.603 24.26C38.2563 23.6467 37.803 23.1933 37.243 22.9C36.683 22.5933 36.0763 22.44 35.423 22.44C34.7563 22.44 34.143 22.5933 33.583 22.9C33.0363 23.1933 32.5963 23.6467 32.263 24.26C31.9296 24.8733 31.763 25.62 31.763 26.5C31.763 27.3933 31.923 28.1467 32.243 28.76C32.5763 29.3733 33.0163 29.8333 33.563 30.14C34.1096 30.4333 34.7096 30.58 35.363 30.58Z" fill="#3949AB"/>
  <path d="M44.3559 19.26C44.0093 19.26 43.7159 19.14 43.4759 18.9C43.2493 18.66 43.1359 18.3667 43.1359 18.02C43.1359 17.6733 43.2493 17.38 43.4759 17.14C43.7159 16.9 44.0093 16.78 44.3559 16.78C44.7026 16.78 44.9893 16.9 45.2159 17.14C45.4559 17.38 45.5759 17.6733 45.5759 18.02C45.5759 18.3667 45.4559 18.66 45.2159 18.9C44.9893 19.14 44.7026 19.26 44.3559 19.26ZM45.2559 34.38C45.2559 35.3533 45.0093 36.0667 44.5159 36.52C44.0226 36.9733 43.3026 37.2 42.3559 37.2H41.2959V35.66H42.0559C42.5626 35.66 42.9159 35.56 43.1159 35.36C43.3293 35.16 43.4359 34.82 43.4359 34.34V21.04H45.2559V34.38Z" fill="#3949AB"/>
  <path d="M58.3369 26.1C58.3369 26.4467 58.3169 26.8133 58.2769 27.2H49.5169C49.5835 28.28 49.9502 29.1267 50.6169 29.74C51.2969 30.34 52.1169 30.64 53.0769 30.64C53.8635 30.64 54.5169 30.46 55.0369 30.1C55.5702 29.7267 55.9435 29.2333 56.1569 28.62H58.1169C57.8235 29.6733 57.2369 30.5333 56.3569 31.2C55.4769 31.8533 54.3835 32.18 53.0769 32.18C52.0369 32.18 51.1035 31.9467 50.2769 31.48C49.4635 31.0133 48.8235 30.3533 48.3569 29.5C47.8902 28.6333 47.6569 27.6333 47.6569 26.5C47.6569 25.3667 47.8835 24.3733 48.3369 23.52C48.7902 22.6667 49.4235 22.0133 50.2369 21.56C51.0635 21.0933 52.0102 20.86 53.0769 20.86C54.1169 20.86 55.0369 21.0867 55.8369 21.54C56.6369 21.9933 57.2502 22.62 57.6769 23.42C58.1169 24.2067 58.3369 25.1 58.3369 26.1ZM56.4569 25.72C56.4569 25.0267 56.3035 24.4333 55.9969 23.94C55.6902 23.4333 55.2702 23.0533 54.7369 22.8C54.2169 22.5333 53.6369 22.4 52.9969 22.4C52.0769 22.4 51.2902 22.6933 50.6369 23.28C49.9969 23.8667 49.6302 24.68 49.5369 25.72H56.4569Z" fill="#3949AB"/>
  <path d="M60.0592 26.5C60.0592 25.3667 60.2859 24.38 60.7392 23.54C61.1925 22.6867 61.8192 22.0267 62.6192 21.56C63.4325 21.0933 64.3592 20.86 65.3992 20.86C66.7459 20.86 67.8525 21.1867 68.7192 21.84C69.5992 22.4933 70.1792 23.4 70.4592 24.56H68.4992C68.3125 23.8933 67.9459 23.3667 67.3992 22.98C66.8659 22.5933 66.1992 22.4 65.3992 22.4C64.3592 22.4 63.5192 22.76 62.8792 23.48C62.2392 24.1867 61.9192 25.1933 61.9192 26.5C61.9192 27.82 62.2392 28.84 62.8792 29.56C63.5192 30.28 64.3592 30.64 65.3992 30.64C66.1992 30.64 66.8659 30.4533 67.3992 30.08C67.9325 29.7067 68.2992 29.1733 68.4992 28.48H70.4592C70.1659 29.6 69.5792 30.5 68.6992 31.18C67.8192 31.8467 66.7192 32.18 65.3992 32.18C64.3592 32.18 63.4325 31.9467 62.6192 31.48C61.8192 31.0133 61.1925 30.3533 60.7392 29.5C60.2859 28.6467 60.0592 27.6467 60.0592 26.5Z" fill="#3949AB"/>
  <path d="M75.1077 22.54V29C75.1077 29.5333 75.221 29.9133 75.4476 30.14C75.6743 30.3533 76.0676 30.46 76.6276 30.46H77.9677V32H76.3277C75.3143 32 74.5543 31.7667 74.0476 31.3C73.541 30.8333 73.2876 30.0667 73.2876 29V22.54H71.8676V21.04H73.2876V18.28H75.1077V21.04H77.9677V22.54H75.1077Z" fill="#3949AB"/>
  <path d="M84.9528 32.18C83.9261 32.18 82.9928 31.9467 82.1528 31.48C81.3261 31.0133 80.6728 30.3533 80.1928 29.5C79.7261 28.6333 79.4928 27.6333 79.4928 26.5C79.4928 25.38 79.7328 24.3933 80.2128 23.54C80.7061 22.6733 81.3728 22.0133 82.2128 21.56C83.0528 21.0933 83.9928 20.86 85.0328 20.86C86.0728 20.86 87.0128 21.0933 87.8528 21.56C88.6928 22.0133 89.3528 22.6667 89.8328 23.52C90.3261 24.3733 90.5728 25.3667 90.5728 26.5C90.5728 27.6333 90.3195 28.6333 89.8128 29.5C89.3195 30.3533 88.6461 31.0133 87.7928 31.48C86.9395 31.9467 85.9928 32.18 84.9528 32.18ZM84.9528 30.58C85.6061 30.58 86.2195 30.4267 86.7928 30.12C87.3661 29.8133 87.8261 29.3533 88.1728 28.74C88.5328 28.1267 88.7128 27.38 88.7128 26.5C88.7128 25.62 88.5395 24.8733 88.1928 24.26C87.8461 23.6467 87.3928 23.1933 86.8328 22.9C86.2728 22.5933 85.6661 22.44 85.0128 22.44C84.3461 22.44 83.7328 22.5933 83.1728 22.9C82.6261 23.1933 82.1861 23.6467 81.8528 24.26C81.5195 24.8733 81.3528 25.62 81.3528 26.5C81.3528 27.3933 81.5128 28.1467 81.8328 28.76C82.1661 29.3733 82.6061 29.8333 83.1528 30.14C83.6995 30.4333 84.2995 30.58 84.9528 30.58Z" fill="#3949AB"/>
  <path d="M94.7858 22.82C95.1058 22.1933 95.5591 21.7067 96.1458 21.36C96.7458 21.0133 97.4724 20.84 98.3258 20.84V22.72H97.8458C95.8058 22.72 94.7858 23.8267 94.7858 26.04V32H92.9658V21.04H94.7858V22.82Z" fill="#3949AB"/>
  <rect x="69.31" y="3" width="30.69" height="12" rx="5" fill="#6F74DD" fill-opacity="0.33"/>
  <path d="M78.2019 10.5078C78.2019 10.2865 78.1237 10.1172 77.9675 10C77.8112 9.88021 77.53 9.75521 77.1237 9.625C76.7175 9.49219 76.3959 9.36198 76.1589 9.23438C75.5131 8.88542 75.1902 8.41536 75.1902 7.82422C75.1902 7.51693 75.2761 7.24349 75.448 7.00391C75.6224 6.76172 75.8711 6.57292 76.1941 6.4375C76.5196 6.30208 76.8842 6.23438 77.2878 6.23438C77.6941 6.23438 78.056 6.30859 78.3737 6.45703C78.6915 6.60286 78.9376 6.8099 79.112 7.07812C79.2891 7.34635 79.3777 7.65104 79.3777 7.99219H78.2058C78.2058 7.73177 78.1237 7.52995 77.9597 7.38672C77.7956 7.24089 77.5652 7.16797 77.2683 7.16797C76.9818 7.16797 76.7592 7.22917 76.6003 7.35156C76.4415 7.47135 76.362 7.63021 76.362 7.82812C76.362 8.01302 76.4545 8.16797 76.6394 8.29297C76.8269 8.41797 77.1016 8.53516 77.4636 8.64453C78.1303 8.84505 78.6159 9.09375 78.9206 9.39062C79.2253 9.6875 79.3777 10.0573 79.3777 10.5C79.3777 10.9922 79.1915 11.3789 78.8191 11.6602C78.4467 11.9388 77.9454 12.0781 77.3152 12.0781C76.8777 12.0781 76.4792 11.9987 76.1198 11.8398C75.7605 11.6784 75.4857 11.4583 75.2956 11.1797C75.1081 10.901 75.0144 10.5781 75.0144 10.2109H76.1902C76.1902 10.8385 76.5652 11.1523 77.3152 11.1523C77.5938 11.1523 77.8112 11.0964 77.9675 10.9844C78.1237 10.8698 78.2019 10.7109 78.2019 10.5078ZM81.3464 9.99609V12H80.1745V6.3125H82.3933C82.8204 6.3125 83.1954 6.39062 83.5183 6.54688C83.8438 6.70312 84.0938 6.92578 84.2683 7.21484C84.4428 7.5013 84.53 7.82812 84.53 8.19531C84.53 8.7526 84.3386 9.19271 83.9558 9.51562C83.5756 9.83594 83.0482 9.99609 82.3737 9.99609H81.3464ZM81.3464 9.04688H82.3933C82.7032 9.04688 82.9389 8.97396 83.1003 8.82812C83.2644 8.68229 83.3464 8.47396 83.3464 8.20312C83.3464 7.92448 83.2644 7.69922 83.1003 7.52734C82.9362 7.35547 82.7097 7.26693 82.4206 7.26172H81.3464V9.04688ZM88.7605 9.53516H86.5105V11.0586H89.1511V12H85.3386V6.3125H89.1433V7.26172H86.5105V8.61719H88.7605V9.53516ZM94.3034 10.1055C94.2592 10.7174 94.0326 11.1992 93.6237 11.5508C93.2175 11.9023 92.681 12.0781 92.0144 12.0781C91.2852 12.0781 90.711 11.8333 90.2917 11.3438C89.8751 10.8516 89.6667 10.1771 89.6667 9.32031V8.97266C89.6667 8.42578 89.7631 7.94401 89.9558 7.52734C90.1485 7.11068 90.4232 6.79167 90.78 6.57031C91.1394 6.34635 91.556 6.23438 92.03 6.23438C92.6862 6.23438 93.2149 6.41016 93.6159 6.76172C94.017 7.11328 94.2487 7.60677 94.3112 8.24219H93.1394C93.1107 7.875 93.0079 7.60938 92.8308 7.44531C92.6563 7.27865 92.3894 7.19531 92.03 7.19531C91.6394 7.19531 91.3464 7.33594 91.1511 7.61719C90.9584 7.89583 90.8594 8.32943 90.8542 8.91797V9.34766C90.8542 9.96224 90.9467 10.4115 91.1316 10.6953C91.3191 10.9792 91.6133 11.1211 92.0144 11.1211C92.3764 11.1211 92.6459 11.0391 92.823 10.875C93.0027 10.7083 93.1055 10.4518 93.1316 10.1055H94.3034Z" fill="#3949AB"/>
</svg>
