<svg width="100" height="45" viewBox="0 0 100 45" fill="none" xmlns="http://www.w3.org/2000/svg">
<path d="M42.6908 9.95649C42.6766 9.20855 42.4093 7.62128 42.1129 6.94952C41.8165 6.27777 41.4143 5.69951 40.9062 5.21474C40.384 4.72997 39.7877 4.35254 39.1173 4.08246C38.4469 3.81237 37.7377 3.67733 36.9897 3.67733C32.2716 3.67733 28.733 3.67733 26.3739 3.67733C24.0137 3.67733 20.4735 3.67733 15.7532 3.67733V0H37.0955C38.3517 0 39.5407 0.228532 40.6627 0.685603C41.7848 1.14267 42.7692 1.78672 43.616 2.61776C44.4628 3.43495 45.1226 4.39409 45.5954 5.49521C46.0682 6.59634 46.4647 8.87269 46.4647 10.1054V11.9192H42.6908C42.6908 11.511 42.6943 10.0308 42.6908 9.95649Z" fill="#933183"/>
<path d="M3.77393 35.0186C3.78804 35.7665 4.05541 37.3538 4.35179 38.0255C4.64818 38.6973 5.05041 39.2755 5.5585 39.7603C6.0807 40.2451 6.67699 40.6225 7.34738 40.8926C8.01778 41.1627 8.72697 41.2977 9.47499 41.2977H30.7115V44.9751H9.36914C8.11303 44.9751 6.92398 44.7465 5.80196 44.2895C4.67993 43.8324 3.69552 43.1883 2.84871 42.3573C2.00189 41.5401 1.3421 40.581 0.869292 39.4798C0.396488 38.3787 0 36.1024 0 34.8697V33.0559H3.77393C3.77393 33.4641 3.7704 34.9443 3.77393 35.0186Z" fill="#76B515"/>
<path d="M12.3071 3.69125H10.2805C9.50827 3.70492 7.86933 3.96386 7.17571 4.2509C6.48209 4.53795 5.88502 4.9275 5.38447 5.41957C4.88392 5.92531 4.49421 6.5028 4.21533 7.15207C3.93645 7.80133 3.79702 8.48817 3.79702 9.21261C3.79702 11.9541 3.79702 14.0102 3.79702 15.381C3.79702 18.5807 3.79702 23.3803 3.79702 29.7797C3.39578 29.7797 0.141425 29.7797 0 29.7797L0 9.11009C0 7.89358 0.23597 6.74201 0.707918 5.65535C1.17987 4.56869 1.84487 3.61532 2.70296 2.7952C3.54675 1.97508 4.53711 1.33608 5.67407 0.878176C6.81104 0.420275 9.16148 0.0362854 10.4343 0.0362854C10.5682 0.0362854 12.3071 0.0362854 12.3071 0.0362854C12.3071 1.04584 12.3071 2.91366 12.3071 3.69125Z" fill="#FD5C02"/>
<path d="M20.961 22.14C20.961 23.3 20.561 24.2667 19.761 25.04C18.9743 25.8 17.7677 26.18 16.141 26.18H13.461V32H11.641V18.06H16.141C17.7143 18.06 18.9077 18.44 19.721 19.2C20.5477 19.96 20.961 20.94 20.961 22.14ZM16.141 24.68C17.1543 24.68 17.901 24.46 18.381 24.02C18.861 23.58 19.101 22.9533 19.101 22.14C19.101 20.42 18.1143 19.56 16.141 19.56H13.461V24.68H16.141ZM25.043 22.82C25.363 22.1933 25.8164 21.7067 26.403 21.36C27.003 21.0133 27.7297 20.84 28.583 20.84V22.72H28.103C26.063 22.72 25.043 23.8267 25.043 26.04V32H23.223V21.04H25.043V22.82ZM35.464 32.18C34.4373 32.18 33.504 31.9467 32.664 31.48C31.8373 31.0133 31.184 30.3533 30.704 29.5C30.2373 28.6333 30.004 27.6333 30.004 26.5C30.004 25.38 30.244 24.3933 30.724 23.54C31.2173 22.6733 31.884 22.0133 32.724 21.56C33.564 21.0933 34.504 20.86 35.544 20.86C36.584 20.86 37.524 21.0933 38.364 21.56C39.204 22.0133 39.864 22.6667 40.344 23.52C40.8373 24.3733 41.084 25.3667 41.084 26.5C41.084 27.6333 40.8306 28.6333 40.324 29.5C39.8306 30.3533 39.1573 31.0133 38.304 31.48C37.4506 31.9467 36.504 32.18 35.464 32.18ZM35.464 30.58C36.1173 30.58 36.7306 30.4267 37.304 30.12C37.8773 29.8133 38.3373 29.3533 38.684 28.74C39.044 28.1267 39.224 27.38 39.224 26.5C39.224 25.62 39.0506 24.8733 38.704 24.26C38.3573 23.6467 37.904 23.1933 37.344 22.9C36.784 22.5933 36.1773 22.44 35.524 22.44C34.8573 22.44 34.244 22.5933 33.684 22.9C33.1373 23.1933 32.6973 23.6467 32.364 24.26C32.0306 24.8733 31.864 25.62 31.864 26.5C31.864 27.3933 32.024 28.1467 32.344 28.76C32.6773 29.3733 33.1173 29.8333 33.664 30.14C34.2106 30.4333 34.8106 30.58 35.464 30.58ZM44.4569 19.26C44.1103 19.26 43.8169 19.14 43.5769 18.9C43.3503 18.66 43.2369 18.3667 43.2369 18.02C43.2369 17.6733 43.3503 17.38 43.5769 17.14C43.8169 16.9 44.1103 16.78 44.4569 16.78C44.8036 16.78 45.0903 16.9 45.3169 17.14C45.5569 17.38 45.6769 17.6733 45.6769 18.02C45.6769 18.3667 45.5569 18.66 45.3169 18.9C45.0903 19.14 44.8036 19.26 44.4569 19.26ZM45.3569 34.38C45.3569 35.3533 45.1103 36.0667 44.6169 36.52C44.1236 36.9733 43.4036 37.2 42.4569 37.2H41.3969V35.66H42.1569C42.6636 35.66 43.0169 35.56 43.2169 35.36C43.4303 35.16 43.5369 34.82 43.5369 34.34V21.04H45.3569V34.38ZM58.4379 26.1C58.4379 26.4467 58.4179 26.8133 58.3779 27.2H49.6179C49.6846 28.28 50.0512 29.1267 50.7179 29.74C51.3979 30.34 52.2179 30.64 53.1779 30.64C53.9646 30.64 54.6179 30.46 55.1379 30.1C55.6712 29.7267 56.0446 29.2333 56.2579 28.62H58.2179C57.9246 29.6733 57.3379 30.5333 56.4579 31.2C55.5779 31.8533 54.4846 32.18 53.1779 32.18C52.1379 32.18 51.2046 31.9467 50.3779 31.48C49.5646 31.0133 48.9246 30.3533 48.4579 29.5C47.9912 28.6333 47.7579 27.6333 47.7579 26.5C47.7579 25.3667 47.9846 24.3733 48.4379 23.52C48.8912 22.6667 49.5246 22.0133 50.3379 21.56C51.1646 21.0933 52.1112 20.86 53.1779 20.86C54.2179 20.86 55.1379 21.0867 55.9379 21.54C56.7379 21.9933 57.3512 22.62 57.7779 23.42C58.2179 24.2067 58.4379 25.1 58.4379 26.1ZM56.5579 25.72C56.5579 25.0267 56.4046 24.4333 56.0979 23.94C55.7912 23.4333 55.3712 23.0533 54.8379 22.8C54.3179 22.5333 53.7379 22.4 53.0979 22.4C52.1779 22.4 51.3912 22.6933 50.7379 23.28C50.0979 23.8667 49.7312 24.68 49.6379 25.72H56.5579ZM60.1602 26.5C60.1602 25.3667 60.3869 24.38 60.8402 23.54C61.2936 22.6867 61.9202 22.0267 62.7202 21.56C63.5336 21.0933 64.4602 20.86 65.5002 20.86C66.8469 20.86 67.9536 21.1867 68.8202 21.84C69.7002 22.4933 70.2802 23.4 70.5602 24.56H68.6002C68.4136 23.8933 68.0469 23.3667 67.5002 22.98C66.9669 22.5933 66.3002 22.4 65.5002 22.4C64.4602 22.4 63.6202 22.76 62.9802 23.48C62.3402 24.1867 62.0202 25.1933 62.0202 26.5C62.0202 27.82 62.3402 28.84 62.9802 29.56C63.6202 30.28 64.4602 30.64 65.5002 30.64C66.3002 30.64 66.9669 30.4533 67.5002 30.08C68.0336 29.7067 68.4002 29.1733 68.6002 28.48H70.5602C70.2669 29.6 69.6802 30.5 68.8002 31.18C67.9202 31.8467 66.8202 32.18 65.5002 32.18C64.4602 32.18 63.5336 31.9467 62.7202 31.48C61.9202 31.0133 61.2936 30.3533 60.8402 29.5C60.3869 28.6467 60.1602 27.6467 60.1602 26.5ZM75.2087 22.54V29C75.2087 29.5333 75.322 29.9133 75.5487 30.14C75.7753 30.3533 76.1687 30.46 76.7287 30.46H78.0687V32H76.4287C75.4153 32 74.6553 31.7667 74.1487 31.3C73.642 30.8333 73.3887 30.0667 73.3887 29V22.54H71.9687V21.04H73.3887V18.28H75.2087V21.04H78.0687V22.54H75.2087ZM85.0538 32.18C84.0272 32.18 83.0938 31.9467 82.2538 31.48C81.4272 31.0133 80.7738 30.3533 80.2938 29.5C79.8272 28.6333 79.5938 27.6333 79.5938 26.5C79.5938 25.38 79.8338 24.3933 80.3138 23.54C80.8072 22.6733 81.4738 22.0133 82.3138 21.56C83.1538 21.0933 84.0938 20.86 85.1338 20.86C86.1738 20.86 87.1138 21.0933 87.9538 21.56C88.7938 22.0133 89.4538 22.6667 89.9338 23.52C90.4272 24.3733 90.6738 25.3667 90.6738 26.5C90.6738 27.6333 90.4205 28.6333 89.9138 29.5C89.4205 30.3533 88.7472 31.0133 87.8938 31.48C87.0405 31.9467 86.0938 32.18 85.0538 32.18ZM85.0538 30.58C85.7072 30.58 86.3205 30.4267 86.8938 30.12C87.4672 29.8133 87.9272 29.3533 88.2738 28.74C88.6338 28.1267 88.8138 27.38 88.8138 26.5C88.8138 25.62 88.6405 24.8733 88.2938 24.26C87.9472 23.6467 87.4938 23.1933 86.9338 22.9C86.3738 22.5933 85.7672 22.44 85.1138 22.44C84.4472 22.44 83.8338 22.5933 83.2738 22.9C82.7272 23.1933 82.2872 23.6467 81.9538 24.26C81.6205 24.8733 81.4538 25.62 81.4538 26.5C81.4538 27.3933 81.6138 28.1467 81.9338 28.76C82.2672 29.3733 82.7072 29.8333 83.2538 30.14C83.8005 30.4333 84.4005 30.58 85.0538 30.58ZM94.8868 22.82C95.2068 22.1933 95.6601 21.7067 96.2468 21.36C96.8468 21.0133 97.5735 20.84 98.4268 20.84V22.72H97.9468C95.9068 22.72 94.8868 23.8267 94.8868 26.04V32H93.0668V21.04H94.8868V22.82Z" fill="white"/>
<rect x="69.25" y="3.25" width="30.5" height="11.5" rx="4.75" fill="#6F74DD" fill-opacity="0.33" stroke="white" stroke-width="0.5"/>
<path d="M78.0469 10.5078C78.0469 10.2865 77.9688 10.1172 77.8125 10C77.6562 9.88021 77.375 9.75521 76.9688 9.625C76.5625 9.49219 76.2409 9.36198 76.0039 9.23438C75.3581 8.88542 75.0352 8.41536 75.0352 7.82422C75.0352 7.51693 75.1211 7.24349 75.293 7.00391C75.4674 6.76172 75.7161 6.57292 76.0391 6.4375C76.3646 6.30208 76.7292 6.23438 77.1328 6.23438C77.5391 6.23438 77.901 6.30859 78.2188 6.45703C78.5365 6.60286 78.7826 6.8099 78.957 7.07812C79.1341 7.34635 79.2227 7.65104 79.2227 7.99219H78.0508C78.0508 7.73177 77.9688 7.52995 77.8047 7.38672C77.6406 7.24089 77.4102 7.16797 77.1133 7.16797C76.8268 7.16797 76.6042 7.22917 76.4453 7.35156C76.2865 7.47135 76.207 7.63021 76.207 7.82812C76.207 8.01302 76.2995 8.16797 76.4844 8.29297C76.6719 8.41797 76.9466 8.53516 77.3086 8.64453C77.9753 8.84505 78.4609 9.09375 78.7656 9.39062C79.0703 9.6875 79.2227 10.0573 79.2227 10.5C79.2227 10.9922 79.0365 11.3789 78.6641 11.6602C78.2917 11.9388 77.7904 12.0781 77.1602 12.0781C76.7227 12.0781 76.3242 11.9987 75.9648 11.8398C75.6055 11.6784 75.3307 11.4583 75.1406 11.1797C74.9531 10.901 74.8594 10.5781 74.8594 10.2109H76.0352C76.0352 10.8385 76.4102 11.1523 77.1602 11.1523C77.4388 11.1523 77.6562 11.0964 77.8125 10.9844C77.9688 10.8698 78.0469 10.7109 78.0469 10.5078ZM81.1914 9.99609V12H80.0195V6.3125H82.2383C82.6654 6.3125 83.0404 6.39062 83.3633 6.54688C83.6888 6.70312 83.9388 6.92578 84.1133 7.21484C84.2878 7.5013 84.375 7.82812 84.375 8.19531C84.375 8.7526 84.1836 9.19271 83.8008 9.51562C83.4206 9.83594 82.8932 9.99609 82.2188 9.99609H81.1914ZM81.1914 9.04688H82.2383C82.5482 9.04688 82.7839 8.97396 82.9453 8.82812C83.1094 8.68229 83.1914 8.47396 83.1914 8.20312C83.1914 7.92448 83.1094 7.69922 82.9453 7.52734C82.7812 7.35547 82.5547 7.26693 82.2656 7.26172H81.1914V9.04688ZM88.6055 9.53516H86.3555V11.0586H88.9961V12H85.1836V6.3125H88.9883V7.26172H86.3555V8.61719H88.6055V9.53516ZM94.1484 10.1055C94.1042 10.7174 93.8776 11.1992 93.4688 11.5508C93.0625 11.9023 92.526 12.0781 91.8594 12.0781C91.1302 12.0781 90.556 11.8333 90.1367 11.3438C89.7201 10.8516 89.5117 10.1771 89.5117 9.32031V8.97266C89.5117 8.42578 89.6081 7.94401 89.8008 7.52734C89.9935 7.11068 90.2682 6.79167 90.625 6.57031C90.9844 6.34635 91.401 6.23438 91.875 6.23438C92.5312 6.23438 93.0599 6.41016 93.4609 6.76172C93.862 7.11328 94.0938 7.60677 94.1562 8.24219H92.9844C92.9557 7.875 92.8529 7.60938 92.6758 7.44531C92.5013 7.27865 92.2344 7.19531 91.875 7.19531C91.4844 7.19531 91.1914 7.33594 90.9961 7.61719C90.8034 7.89583 90.7044 8.32943 90.6992 8.91797V9.34766C90.6992 9.96224 90.7917 10.4115 90.9766 10.6953C91.1641 10.9792 91.4583 11.1211 91.8594 11.1211C92.2214 11.1211 92.4909 11.0391 92.668 10.875C92.8477 10.7083 92.9505 10.4518 92.9766 10.1055H94.1484Z" fill="white"/>
</svg>
