<svg width="137" height="66" viewBox="0 0 137 66" fill="none" xmlns="http://www.w3.org/2000/svg">
<path d="M60.6393 14.6028C60.6193 13.5059 60.2395 11.1779 59.8185 10.1926C59.3975 9.20739 58.8262 8.35928 58.1045 7.64829C57.3627 6.93729 56.5157 6.38373 55.5635 5.9876C54.6112 5.59147 53.6038 5.39341 52.5413 5.39341C45.8395 5.39341 40.8132 5.39341 37.4623 5.39341C34.1098 5.39341 29.0811 5.39341 22.3762 5.39341V0H52.6917C54.4759 0 56.1649 0.335181 57.7586 1.00555C59.3524 1.67592 60.7507 2.62052 61.9535 3.83938C63.1564 5.03792 64.0936 6.44466 64.7652 8.05965C65.4368 9.67463 65.9999 13.0133 65.9999 14.8212V17.4815H60.6393C60.6393 16.8828 60.6443 14.7118 60.6393 14.6028Z" fill="#A4087D"/>
<path d="M5.36062 51.3606C5.38066 52.4575 5.76045 54.7855 6.18144 55.7708C6.60244 56.756 7.17378 57.6041 7.89548 58.3151C8.63724 59.0261 9.48423 59.5797 10.4365 59.9758C11.3887 60.3719 12.3961 60.57 13.4586 60.57H43.6237V65.9634H13.3083C11.524 65.9634 9.83507 65.6283 8.2413 64.9579C6.64753 64.2875 5.24925 63.3429 4.04641 62.124C2.84356 60.9255 1.90636 59.5188 1.23477 57.9038C0.563185 56.2888 0 52.9501 0 51.1422V48.4819H5.36062C5.36062 49.0807 5.35561 51.2516 5.36062 51.3606Z" fill="#76B515"/>
<path d="M17.4815 5.41199H14.6028C13.5059 5.43204 11.1779 5.81182 10.1926 6.23282C9.20739 6.65381 8.35928 7.22516 7.64829 7.94686C6.93729 8.68862 6.38373 9.5356 5.9876 10.4879C5.59147 11.4401 5.39341 12.4475 5.39341 13.51C5.39341 17.5308 5.39341 20.5465 5.39341 22.5569C5.39341 27.2498 5.39341 34.2892 5.39341 43.6751C4.82349 43.6751 0.200885 43.6751 0 43.6751L0 13.3596C0 11.5754 0.33518 9.88645 1.00555 8.29268C1.67592 6.69891 2.62052 5.30063 3.83938 4.09778C5.03792 2.89494 6.44466 1.95774 8.05965 1.28615C9.67463 0.614561 13.0133 0.0513763 14.8212 0.0513763C15.0114 0.0513763 17.4815 0.0513763 17.4815 0.0513763C17.4815 1.53206 17.4815 4.27153 17.4815 5.41199Z" fill="#FD5C02"/>
<path d="M31.1641 38.5723C31.1641 40.3496 30.5215 41.7441 29.2363 42.7559C27.9512 43.7676 26.1784 44.2734 23.918 44.2734C21.6576 44.2734 19.8073 43.9225 18.3672 43.2207V40.1309C19.2786 40.5592 20.2448 40.8965 21.2656 41.1426C22.2956 41.3887 23.2526 41.5117 24.1367 41.5117C25.431 41.5117 26.3835 41.2656 26.9941 40.7734C27.6139 40.2812 27.9238 39.6204 27.9238 38.791C27.9238 38.0436 27.6413 37.4102 27.0762 36.8906C26.5111 36.3711 25.3444 35.7559 23.5762 35.0449C21.7533 34.3066 20.4681 33.4635 19.7207 32.5156C18.9733 31.5677 18.5996 30.4284 18.5996 29.0977C18.5996 27.4297 19.1921 26.1172 20.377 25.1602C21.5618 24.2031 23.1523 23.7246 25.1484 23.7246C27.0625 23.7246 28.9674 24.1439 30.8633 24.9824L29.8242 27.6484C28.0469 26.901 26.4609 26.5273 25.0664 26.5273C24.0091 26.5273 23.207 26.7598 22.6602 27.2246C22.1133 27.6803 21.8398 28.2865 21.8398 29.043C21.8398 29.5625 21.9492 30.0091 22.168 30.3828C22.3867 30.7474 22.7467 31.0938 23.248 31.4219C23.7493 31.75 24.6517 32.1829 25.9551 32.7207C27.4225 33.3314 28.498 33.901 29.1816 34.4297C29.8652 34.9583 30.3665 35.5553 30.6855 36.2207C31.0046 36.8861 31.1641 37.6699 31.1641 38.5723ZM42.3613 44.2734C40.4473 44.2734 38.9616 43.5853 37.9043 42.209H37.7129C37.8405 43.485 37.9043 44.2598 37.9043 44.5332V50.7266H34.6914V28.8789H37.2891C37.362 29.1615 37.5124 29.8359 37.7402 30.9023H37.9043C38.9069 29.3711 40.4108 28.6055 42.416 28.6055C44.3027 28.6055 45.7702 29.2891 46.8184 30.6562C47.8757 32.0234 48.4043 33.9421 48.4043 36.4121C48.4043 38.8822 47.8665 40.8099 46.791 42.1953C45.7246 43.5807 44.248 44.2734 42.3613 44.2734ZM41.582 31.2305C40.306 31.2305 39.3717 31.6042 38.7793 32.3516C38.196 33.099 37.9043 34.293 37.9043 35.9336V36.4121C37.9043 38.2533 38.196 39.5885 38.7793 40.418C39.3626 41.2383 40.3151 41.6484 41.6367 41.6484C42.7487 41.6484 43.6055 41.1927 44.207 40.2812C44.8086 39.3698 45.1094 38.071 45.1094 36.3848C45.1094 34.6895 44.8086 33.4089 44.207 32.543C43.6146 31.668 42.7396 31.2305 41.582 31.2305ZM61.5977 44L60.9551 41.8945H60.8457C60.1165 42.8151 59.3828 43.444 58.6445 43.7812C57.9062 44.1094 56.9583 44.2734 55.8008 44.2734C54.3151 44.2734 53.153 43.8724 52.3145 43.0703C51.485 42.2682 51.0703 41.1335 51.0703 39.666C51.0703 38.1074 51.6491 36.9316 52.8066 36.1387C53.9642 35.3457 55.7279 34.9128 58.0977 34.8398L60.709 34.7578V33.9512C60.709 32.985 60.4811 32.265 60.0254 31.791C59.5788 31.3079 58.8815 31.0664 57.9336 31.0664C57.1589 31.0664 56.416 31.1803 55.7051 31.4082C54.9941 31.6361 54.3105 31.9049 53.6543 32.2148L52.6152 29.918C53.4355 29.4896 54.3333 29.166 55.3086 28.9473C56.2839 28.7194 57.2044 28.6055 58.0703 28.6055C59.9935 28.6055 61.4427 29.0247 62.418 29.8633C63.4023 30.7018 63.8945 32.0189 63.8945 33.8145V44H61.5977ZM56.8125 41.8125C57.9792 41.8125 58.9134 41.4889 59.6152 40.8418C60.3262 40.1855 60.6816 39.2695 60.6816 38.0938V36.7812L58.7402 36.8633C57.2272 36.918 56.1243 37.1732 55.4316 37.6289C54.748 38.0755 54.4062 38.7637 54.4062 39.6934C54.4062 40.3678 54.6068 40.8919 55.0078 41.2656C55.4089 41.6302 56.0104 41.8125 56.8125 41.8125ZM74.4766 44.2734C72.1888 44.2734 70.4479 43.6081 69.2539 42.2773C68.069 40.9375 67.4766 39.0189 67.4766 36.5215C67.4766 33.9785 68.0964 32.0234 69.3359 30.6562C70.5846 29.2891 72.3848 28.6055 74.7363 28.6055C76.3314 28.6055 77.7669 28.9017 79.043 29.4941L78.0723 32.0781C76.7142 31.5495 75.5931 31.2852 74.709 31.2852C72.0931 31.2852 70.7852 33.0215 70.7852 36.4941C70.7852 38.1895 71.1087 39.4655 71.7559 40.3223C72.4121 41.1699 73.3691 41.5938 74.627 41.5938C76.0579 41.5938 77.4115 41.2383 78.6875 40.5273V43.3301C78.1133 43.6673 77.498 43.9089 76.8418 44.0547C76.1947 44.2005 75.4062 44.2734 74.4766 44.2734ZM88.8457 44.2734C86.4941 44.2734 84.653 43.5898 83.3223 42.2227C82.0007 40.8464 81.3398 38.9551 81.3398 36.5488C81.3398 34.0788 81.9551 32.1374 83.1855 30.7246C84.416 29.3118 86.1068 28.6055 88.2578 28.6055C90.2539 28.6055 91.8307 29.2116 92.9883 30.4238C94.1458 31.6361 94.7246 33.304 94.7246 35.4277V37.1641H84.6484C84.694 38.6315 85.0905 39.7617 85.8379 40.5547C86.5853 41.3385 87.638 41.7305 88.9961 41.7305C89.8893 41.7305 90.7188 41.6484 91.4844 41.4844C92.2591 41.3112 93.0885 41.0286 93.9727 40.6367V43.248C93.1888 43.6217 92.3958 43.8861 91.5938 44.041C90.7917 44.196 89.8757 44.2734 88.8457 44.2734ZM88.2578 31.0391C87.237 31.0391 86.4167 31.3626 85.7969 32.0098C85.1862 32.6569 84.8216 33.6003 84.7031 34.8398H91.5664C91.5482 33.5911 91.2474 32.6478 90.6641 32.0098C90.0807 31.3626 89.2786 31.0391 88.2578 31.0391Z" fill="#00227B"/>
</svg>
