<svg width="130" height="32" viewBox="0 0 130 32" fill="none" xmlns="http://www.w3.org/2000/svg">
  <g clip-path="url(#clip0)">
    <path d="M28.9997 7.08017C28.9901 6.54831 28.8085 5.41958 28.6072 4.94188C28.4058 4.46419 28.1326 4.05299 27.7875 3.70826C27.4327 3.36353 27.0277 3.09514 26.5723 2.90308C26.1169 2.71102 25.6351 2.61499 25.127 2.61499C21.922 2.61499 19.5182 2.61499 17.9157 2.61499C16.3125 2.61499 13.9076 2.61499 10.701 2.61499V0H25.1989C26.0522 0 26.8599 0.162512 27.6221 0.48754C28.3843 0.812568 29.053 1.27056 29.6282 1.86152C30.2035 2.44263 30.6517 3.12469 30.9728 3.90771C31.294 4.69073 31.5634 6.30947 31.5634 7.18606V8.47587H28.9997C28.9997 8.18558 29.0021 7.133 28.9997 7.08017Z" fill="#933183"/>
    <path d="M24.5623 29.4009C25.0869 29.3911 26.2003 29.207 26.6714 29.0029C27.1426 28.7988 27.5482 28.5218 27.8882 28.1718C28.2282 27.8122 28.493 27.4015 28.6824 26.9398C28.8719 26.4781 28.9666 25.9897 28.9666 25.4746V10.8491H31.5459V25.5475C31.5459 26.4125 31.3856 27.2314 31.065 28.0042C30.7444 28.7769 30.2927 29.4549 29.7098 30.0381C29.1366 30.6213 28.4638 31.0757 27.6915 31.4013C26.9192 31.7269 25.3225 32 24.4579 32H23.1857V29.4009C23.472 29.4009 24.5102 29.4033 24.5623 29.4009Z" fill="white"/>
    <path d="M2.56362 24.902C2.57321 25.4339 2.75483 26.5626 2.95617 27.0403C3.1575 27.518 3.43074 27.9292 3.77588 28.274C4.13061 28.6187 4.53567 28.8871 4.99107 29.0791C5.44646 29.2712 5.92822 29.3672 6.43635 29.3672H20.8623V31.9822H6.36444C5.51117 31.9822 4.70345 31.8197 3.94126 31.4947C3.17907 31.1696 2.51036 30.7117 1.93512 30.1207C1.35988 29.5396 0.911684 28.8575 0.590509 28.0745C0.269334 27.2915 0 25.6727 0 24.7962V23.5063H2.56362C2.56362 23.7966 2.56123 24.8492 2.56362 24.902Z" fill="#76B515"/>
    <path d="M8.36022 2.62881H6.98356C6.45896 2.63853 5.34563 2.82267 4.87445 3.02679C4.40328 3.23091 3.99769 3.50792 3.65766 3.85784C3.31764 4.21748 3.05291 4.62814 2.86347 5.08983C2.67403 5.55153 2.57931 6.03995 2.57931 6.55511C2.57931 8.50461 2.57931 9.96674 2.57931 10.9415C2.57931 13.2169 2.57931 16.6299 2.57931 21.1806C2.30675 21.1806 0.0960696 21.1806 0 21.1806L0 6.48221C0 5.61713 0.160294 4.79824 0.480888 4.02551C0.801481 3.25277 1.25322 2.57481 1.83612 1.99162C2.4093 1.40842 3.08205 0.95402 3.85439 0.628402C4.62673 0.302784 6.22338 0.0297241 7.08801 0.0297241C7.17896 0.0297241 8.36022 0.0297241 8.36022 0.0297241C8.36022 0.747631 8.36022 2.07586 8.36022 2.62881Z" fill="#FD5C02"/>
    <path d="M10.717 13.1953C10.717 12.6159 10.8262 12.0723 11.0445 11.5645C11.2629 11.0566 11.5583 10.6139 11.9307 10.2363C12.3096 9.85221 12.7495 9.54948 13.2504 9.32812C13.7512 9.10677 14.2874 8.99609 14.859 8.99609H21.1971V11.7988H14.859C14.6663 11.7988 14.4865 11.8346 14.3195 11.9062C14.1526 11.9779 14.0049 12.0788 13.8765 12.209C13.7545 12.3327 13.6581 12.4792 13.5875 12.6484C13.5169 12.8177 13.4815 13 13.4815 13.1953C13.4815 13.3906 13.5169 13.5762 13.5875 13.752C13.6581 13.9212 13.7545 14.071 13.8765 14.2012C14.0049 14.3249 14.1526 14.4225 14.3195 14.4941C14.4865 14.5658 14.6663 14.6016 14.859 14.6016H17.6235C18.195 14.6016 18.7312 14.7122 19.2321 14.9336C19.7394 15.1484 20.1792 15.4479 20.5517 15.832C20.9306 16.2096 21.226 16.6556 21.4379 17.1699C21.6562 17.6777 21.7654 18.2214 21.7654 18.8008C21.7654 19.3802 21.6562 19.9238 21.4379 20.4316C21.226 20.9395 20.9306 21.3854 20.5517 21.7695C20.1792 22.1471 19.7394 22.4466 19.2321 22.668C18.7312 22.8893 18.195 23 17.6235 23H11.4876V20.1973H17.6235C17.8161 20.1973 17.9959 20.1615 18.1629 20.0898C18.3298 20.0182 18.4743 19.9206 18.5963 19.7969C18.7248 19.6667 18.8243 19.5169 18.8949 19.3477C18.9656 19.1784 19.0009 18.9961 19.0009 18.8008C19.0009 18.6055 18.9656 18.4232 18.8949 18.2539C18.8243 18.0846 18.7248 17.9382 18.5963 17.8145C18.4743 17.6842 18.3298 17.5833 18.1629 17.5117C17.9959 17.4401 17.8161 17.4043 17.6235 17.4043H14.859C14.2874 17.4043 13.7512 17.2936 13.2504 17.0723C12.7495 16.8509 12.3096 16.5514 11.9307 16.1738C11.5583 15.7897 11.2629 15.3438 11.0445 14.8359C10.8262 14.3216 10.717 13.7747 10.717 13.1953Z" fill="white"/>
  </g>
  <rect x="39.8695" y="2.97708" width="30.5069" height="11.9134" rx="5.95671" fill="#3949AB"/>
  <path d="M46.8285 12.061C46.3122 12.061 45.8256 11.9735 45.3685 11.7984C44.9168 11.6233 44.5377 11.3793 44.2312 11.0663C44.1613 11.0027 44.1263 10.9258 44.1263 10.8356C44.1263 10.7242 44.1747 10.626 44.2715 10.5412C44.3414 10.4722 44.4194 10.4377 44.5054 10.4377C44.6184 10.4377 44.734 10.4934 44.8523 10.6048C45.0943 10.8382 45.3846 11.0186 45.7234 11.1459C46.0676 11.2679 46.4359 11.3289 46.8285 11.3289C47.2264 11.3289 47.5329 11.26 47.748 11.122C47.9685 10.9841 48.0787 10.7905 48.0787 10.5412C48.0787 10.2971 47.9658 10.1009 47.7399 9.95232C47.5141 9.79848 47.1296 9.66321 46.5865 9.5465C45.7853 9.37675 45.2045 9.15395 44.8442 8.8781C44.4839 8.59694 44.3038 8.23621 44.3038 7.79592C44.3038 7.50946 44.3952 7.25482 44.578 7.03202C44.7662 6.80922 45.0271 6.63681 45.3604 6.5148C45.6992 6.39279 46.0891 6.33179 46.53 6.33179C47.0247 6.33179 47.4684 6.41401 47.8609 6.57846C48.2589 6.74291 48.5519 6.97102 48.7401 7.26278C48.7939 7.34766 48.8208 7.42988 48.8208 7.50946C48.8208 7.62616 48.7616 7.7243 48.6433 7.80387C48.5734 7.84631 48.5035 7.86753 48.4336 7.86753C48.3691 7.86753 48.3046 7.85162 48.24 7.81979C48.1755 7.78796 48.1217 7.74552 48.0787 7.69247C47.9228 7.49089 47.7077 7.33705 47.4334 7.23095C47.1646 7.11955 46.8634 7.06385 46.53 7.06385C46.1106 7.06385 45.788 7.12751 45.5621 7.25482C45.3416 7.37683 45.2314 7.5572 45.2314 7.79592C45.2314 8.01872 45.3389 8.20173 45.554 8.34496C45.7691 8.48289 46.1482 8.61286 46.6913 8.73487C47.5141 8.92584 48.1056 9.1619 48.4659 9.44306C48.8262 9.72421 49.0063 10.0902 49.0063 10.5412C49.0063 10.8435 48.9149 11.1114 48.7321 11.3448C48.5546 11.5729 48.3019 11.7507 47.9739 11.878C47.6458 12 47.264 12.061 46.8285 12.061Z" fill="white"/>
  <path d="M50.3705 12.061C50.2307 12.061 50.1204 12.0238 50.0398 11.9496C49.9591 11.8753 49.9188 11.7719 49.9188 11.6393V7.51741C49.9188 7.1726 50.0209 6.90205 50.2253 6.70578C50.4296 6.5095 50.7146 6.41136 51.0803 6.41136H52.4515C53.2474 6.41136 53.8496 6.57581 54.2583 6.90471C54.6724 7.23361 54.8794 7.719 54.8794 8.36088C54.8794 8.99215 54.6751 9.47224 54.2664 9.80113C53.8631 10.1247 53.2716 10.2865 52.4919 10.2865H50.8383V11.6393C50.8383 11.7666 50.7953 11.87 50.7093 11.9496C50.6232 12.0238 50.5103 12.061 50.3705 12.061ZM52.4838 9.57037C53.4625 9.57037 53.9518 9.16721 53.9518 8.36088C53.9518 7.93649 53.8281 7.62351 53.5808 7.42193C53.3388 7.22034 52.9758 7.11955 52.4919 7.11955H51.2093C51.091 7.11955 50.9996 7.15669 50.9351 7.23095C50.8706 7.30522 50.8383 7.40601 50.8383 7.53333V9.57037H52.4838Z" fill="white"/>
  <path d="M56.9971 11.9814C56.6153 11.9814 56.3168 11.8833 56.1017 11.687C55.892 11.4854 55.7872 11.2069 55.7872 10.8515V7.51741C55.7872 7.1726 55.8893 6.90205 56.0937 6.70578C56.298 6.5095 56.583 6.41136 56.9487 6.41136H59.4572C59.597 6.41136 59.7046 6.44319 59.7798 6.50685C59.8551 6.5652 59.8928 6.65273 59.8928 6.76943C59.8928 6.88084 59.8551 6.96836 59.7798 7.03202C59.7046 7.09038 59.597 7.11955 59.4572 7.11955H57.0777C56.9594 7.11955 56.868 7.15669 56.8035 7.23095C56.7389 7.30522 56.7067 7.40601 56.7067 7.53333V8.78261H58.8442C58.984 8.78261 59.0915 8.81444 59.1668 8.8781C59.2421 8.93645 59.2798 9.02398 59.2798 9.14068C59.2798 9.25209 59.2421 9.33962 59.1668 9.40327C59.0915 9.46163 58.984 9.4908 58.8442 9.4908H56.7067V10.8594C56.7067 10.9868 56.7389 11.0876 56.8035 11.1618C56.868 11.2361 56.9594 11.2732 57.0777 11.2732H59.6347C59.7745 11.2732 59.882 11.305 59.9573 11.3687C60.0326 11.4271 60.0702 11.5146 60.0702 11.6313C60.0702 11.7427 60.0326 11.8302 59.9573 11.8939C59.882 11.9522 59.7745 11.9814 59.6347 11.9814H56.9971Z" fill="white"/>
  <path d="M63.3985 12.061C62.807 12.061 62.2908 11.9469 61.8499 11.7188C61.4143 11.4854 61.0782 11.1539 60.8416 10.7242C60.6104 10.2945 60.4948 9.78787 60.4948 9.20434C60.4948 8.62081 60.6104 8.1142 60.8416 7.68451C61.0782 7.24952 61.4143 6.91532 61.8499 6.6819C62.2854 6.44849 62.799 6.33179 63.3905 6.33179C63.8744 6.33179 64.3235 6.41401 64.7375 6.57846C65.1516 6.74291 65.4635 6.96571 65.6732 7.24687C65.7323 7.33174 65.7619 7.40866 65.7619 7.47763C65.7619 7.59433 65.7001 7.69778 65.5764 7.78796C65.5065 7.8304 65.4339 7.85162 65.3586 7.85162C65.2887 7.85162 65.2188 7.8357 65.1489 7.80387C65.0844 7.77204 65.0279 7.72961 64.9795 7.67656C64.802 7.46436 64.5816 7.30787 64.3181 7.20708C64.06 7.10629 63.7508 7.05589 63.3905 7.05589C62.7721 7.05589 62.2881 7.24687 61.9386 7.62881C61.5944 8.00546 61.4224 8.53063 61.4224 9.20434C61.4224 9.86744 61.5971 10.39 61.9467 10.7719C62.2962 11.1486 62.7801 11.3369 63.3985 11.3369C64.1299 11.3369 64.6918 11.13 65.0844 10.7162C65.2134 10.5889 65.3452 10.5252 65.4796 10.5252C65.5656 10.5252 65.6436 10.5518 65.7135 10.6048C65.8211 10.695 65.8748 10.7931 65.8748 10.8992C65.8748 10.9894 65.8426 11.0743 65.778 11.1539C65.5468 11.435 65.2215 11.6578 64.802 11.8223C64.3826 11.9814 63.9148 12.061 63.3985 12.061Z" fill="white"/>
  <path d="M40.8431 29.023C40.5569 29.023 40.3279 28.9477 40.1562 28.7971C39.9844 28.6465 39.8986 28.4394 39.8986 28.1759V21.0888C39.8986 20.43 40.0894 19.9171 40.471 19.55C40.8622 19.183 41.4012 18.9994 42.0881 18.9994H44.5066C45.9568 18.9994 47.0587 19.2959 47.8124 19.8888C48.5661 20.4818 48.943 21.3524 48.943 22.5006C48.943 23.6488 48.5756 24.5194 47.841 25.1124C47.1064 25.7053 46.0236 26.0018 44.5925 26.0018H41.8019V28.1759C41.8019 28.43 41.7113 28.6371 41.53 28.7971C41.3583 28.9477 41.1293 29.023 40.8431 29.023ZM44.5782 24.5477C46.2096 24.5477 47.0253 23.8653 47.0253 22.5006C47.0253 21.1359 46.2096 20.4535 44.5782 20.4535H42.4173C42.2264 20.4535 42.0738 20.5147 41.9593 20.6371C41.8544 20.7594 41.8019 20.9288 41.8019 21.1453V24.5477H44.5782Z" fill="white"/>
  <path d="M50.408 21.0888C50.408 20.43 50.5988 19.9171 50.9804 19.55C51.3716 19.183 51.9106 18.9994 52.5976 18.9994H55.1449C56.5664 18.9994 57.6397 19.2724 58.3648 19.8182C59.0899 20.3641 59.4524 21.1782 59.4524 22.2606C59.4524 23.2677 59.1471 24.0535 58.5365 24.6182C57.9355 25.183 57.1245 25.4653 56.1037 25.4653L58.2789 27.5971C58.4507 27.7665 58.5365 27.9594 58.5365 28.1759C58.5365 28.4018 58.4363 28.5994 58.236 28.7688C58.0261 28.9288 57.821 29.0088 57.6206 29.0088C57.344 29.0088 57.0911 28.8865 56.8622 28.6418L53.771 25.5218H52.3113V28.1759C52.3113 28.4394 52.2207 28.6465 52.0394 28.7971C51.8582 28.9477 51.6292 29.023 51.3525 29.023C51.0663 29.023 50.8373 28.9477 50.6656 28.7971C50.4939 28.6465 50.408 28.4394 50.408 28.1759V21.0888ZM55.0876 24.0677C55.7173 24.0677 56.2086 24.0065 56.5616 23.8841C56.9146 23.7618 57.1627 23.5735 57.3058 23.3194C57.4584 23.0559 57.5348 22.703 57.5348 22.2606C57.5348 21.6206 57.3344 21.1594 56.9337 20.8771C56.5426 20.5947 55.9272 20.4535 55.0876 20.4535H52.9267C52.7359 20.4535 52.5833 20.5147 52.4688 20.6371C52.3638 20.7594 52.3113 20.9288 52.3113 21.1453V24.0677H55.0876Z" fill="white"/>
  <path d="M65.7632 29.023C64.647 29.023 63.6834 28.8112 62.8725 28.3877C62.0711 27.9547 61.4605 27.3571 61.0407 26.5947C60.6209 25.823 60.411 24.9382 60.411 23.9406C60.411 22.943 60.6209 22.063 61.0407 21.3006C61.4605 20.5288 62.0711 19.9312 62.8725 19.5077C63.6834 19.0747 64.647 18.8582 65.7632 18.8582C66.8795 18.8582 67.8383 19.0747 68.6397 19.5077C69.4506 19.9312 70.066 20.5288 70.4858 21.3006C70.9056 22.063 71.1154 22.943 71.1154 23.9406C71.1154 24.9382 70.9056 25.823 70.4858 26.5947C70.066 27.3571 69.4506 27.9547 68.6397 28.3877C67.8383 28.8112 66.8795 29.023 65.7632 29.023ZM65.7632 27.5406C66.8508 27.5406 67.6952 27.2206 68.2962 26.5806C68.8973 25.9312 69.1978 25.0512 69.1978 23.9406C69.1978 22.8206 68.883 21.9406 68.2533 21.3006C67.6332 20.6606 66.7554 20.3406 65.6201 20.3406C64.5802 20.3406 63.7693 20.67 63.1873 21.3288C62.6149 21.9782 62.3286 22.8488 62.3286 23.9406C62.3286 25.0512 62.6292 25.9312 63.2302 26.5806C63.8313 27.2206 64.6756 27.5406 65.7632 27.5406Z" fill="white"/>
  <path d="M75.5616 29.023C74.7984 29.023 74.0876 28.8818 73.4293 28.5994C72.771 28.3077 72.2368 27.903 71.8265 27.3853C71.7025 27.2253 71.6405 27.0606 71.6405 26.8912C71.6405 26.6653 71.7502 26.4582 71.9696 26.27C72.1223 26.1477 72.2988 26.0865 72.4991 26.0865C72.7853 26.0865 73.0382 26.2277 73.2576 26.51C73.4961 26.83 73.8157 27.0794 74.2164 27.2582C74.6266 27.4371 75.0751 27.5265 75.5616 27.5265C76.1436 27.5265 76.5729 27.3665 76.8496 27.0465C77.1263 26.7265 77.2646 26.2371 77.2646 25.5782V19.7053C77.2646 19.4418 77.3505 19.2347 77.5222 19.0841C77.6939 18.9335 77.9229 18.8582 78.2091 18.8582C78.4953 18.8582 78.7243 18.9382 78.896 19.0982C79.0773 19.2488 79.1679 19.4512 79.1679 19.7053V25.5218C79.1679 26.2277 79.0201 26.8441 78.7243 27.3712C78.4285 27.8982 78.0088 28.3077 77.465 28.5994C76.9211 28.8818 76.2867 29.023 75.5616 29.023Z" fill="white"/>
  <path d="M82.9823 28.8818C82.2572 28.8818 81.6943 28.6935 81.2936 28.3171C80.8929 27.9406 80.6926 27.4135 80.6926 26.7359V21.0888C80.6926 20.43 80.8834 19.9171 81.265 19.55C81.6562 19.183 82.1952 18.9994 82.8821 18.9994H87.3328C87.619 18.9994 87.8384 19.0653 87.9911 19.1971C88.1437 19.3194 88.22 19.4982 88.22 19.7335C88.22 19.9594 88.1389 20.1382 87.9768 20.27C87.8241 20.3924 87.6094 20.4535 87.3328 20.4535H83.2113C83.0205 20.4535 82.8678 20.5147 82.7533 20.6371C82.6484 20.7594 82.5959 20.9288 82.5959 21.1453V23.1077H86.2452C86.5314 23.1077 86.7508 23.1735 86.9035 23.3053C87.0561 23.4277 87.1324 23.6065 87.1324 23.8418C87.1324 24.0677 87.0513 24.2465 86.8891 24.3782C86.7365 24.5006 86.5218 24.5618 86.2452 24.5618H82.5959V26.7359C82.5959 26.9524 82.6484 27.1218 82.7533 27.2441C82.8678 27.3665 83.0205 27.4277 83.2113 27.4277H87.6476C87.9338 27.4277 88.1533 27.4935 88.3059 27.6253C88.4585 27.7477 88.5349 27.9265 88.5349 28.1618C88.5349 28.3877 88.4538 28.5665 88.2916 28.6982C88.1389 28.8206 87.9243 28.8818 87.6476 28.8818H82.9823Z" fill="white"/>
  <path d="M94.4662 29.023C93.3882 29.023 92.4532 28.8206 91.6613 28.4159C90.8695 28.0112 90.2636 27.4277 89.8439 26.6653C89.4241 25.903 89.2142 24.9994 89.2142 23.9547C89.2142 22.91 89.4241 22.0065 89.8439 21.2441C90.2636 20.4724 90.8647 19.8841 91.647 19.4794C92.4389 19.0653 93.3691 18.8582 94.4376 18.8582C95.3249 18.8582 96.1454 19.0088 96.8991 19.31C97.6528 19.6112 98.2109 20.0112 98.5734 20.51C98.6879 20.6606 98.7451 20.8159 98.7451 20.9759C98.7451 21.2112 98.6163 21.423 98.3588 21.6112C98.2443 21.6959 98.1012 21.7382 97.9294 21.7382C97.7863 21.7382 97.6432 21.71 97.5001 21.6535C97.357 21.5877 97.2378 21.4982 97.1423 21.3853C96.818 21.0182 96.4411 20.7547 96.0118 20.5947C95.5825 20.4253 95.0577 20.3406 94.4376 20.3406C93.3977 20.3406 92.5868 20.6606 92.0048 21.3006C91.4228 21.9312 91.1318 22.8159 91.1318 23.9547C91.1318 25.0841 91.4228 25.9641 92.0048 26.5947C92.5963 27.2253 93.4168 27.5406 94.4662 27.5406C95.6683 27.5406 96.6272 27.1924 97.3427 26.4959C97.6384 26.223 97.9104 26.0865 98.1584 26.0865C98.3301 26.0865 98.4876 26.143 98.6307 26.2559C98.8501 26.4441 98.9598 26.6512 98.9598 26.8771C98.9598 27.0465 98.8978 27.2112 98.7738 27.3712C98.3635 27.8888 97.7768 28.2935 97.0135 28.5853C96.2598 28.8771 95.4107 29.023 94.4662 29.023Z" fill="white"/>
  <path d="M104.087 29.023C103.801 29.023 103.572 28.9477 103.4 28.7971C103.228 28.6465 103.143 28.4394 103.143 28.1759V20.4535H100.381C100.104 20.4535 99.8845 20.3924 99.7223 20.27C99.5697 20.1382 99.4933 19.9594 99.4933 19.7335C99.4933 19.4982 99.5697 19.3194 99.7223 19.1971C99.875 19.0653 100.094 18.9994 100.381 18.9994H107.808C108.094 18.9994 108.314 19.0653 108.466 19.1971C108.619 19.3194 108.695 19.4982 108.695 19.7335C108.695 19.9594 108.614 20.1382 108.452 20.27C108.299 20.3924 108.085 20.4535 107.808 20.4535H105.046V28.1759C105.046 28.43 104.955 28.6371 104.774 28.7971C104.602 28.9477 104.373 29.023 104.087 29.023Z" fill="white"/>
  <path d="M114.146 29.023C113.03 29.023 112.066 28.8112 111.255 28.3877C110.454 27.9547 109.843 27.3571 109.423 26.5947C109.004 25.823 108.794 24.9382 108.794 23.9406C108.794 22.943 109.004 22.063 109.423 21.3006C109.843 20.5288 110.454 19.9312 111.255 19.5077C112.066 19.0747 113.03 18.8582 114.146 18.8582C115.262 18.8582 116.221 19.0747 117.022 19.5077C117.833 19.9312 118.449 20.5288 118.868 21.3006C119.288 22.063 119.498 22.943 119.498 23.9406C119.498 24.9382 119.288 25.823 118.868 26.5947C118.449 27.3571 117.833 27.9547 117.022 28.3877C116.221 28.8112 115.262 29.023 114.146 29.023ZM114.146 27.5406C115.233 27.5406 116.078 27.2206 116.679 26.5806C117.28 25.9312 117.58 25.0512 117.58 23.9406C117.58 22.8206 117.266 21.9406 116.636 21.3006C116.016 20.6606 115.138 20.3406 114.003 20.3406C112.963 20.3406 112.152 20.67 111.57 21.3288C110.997 21.9782 110.711 22.8488 110.711 23.9406C110.711 25.0512 111.012 25.9312 111.613 26.5806C112.214 27.2206 113.058 27.5406 114.146 27.5406Z" fill="white"/>
  <path d="M120.956 21.0888C120.956 20.43 121.146 19.9171 121.528 19.55C121.919 19.183 122.458 18.9994 123.145 18.9994H125.692C127.114 18.9994 128.187 19.2724 128.912 19.8182C129.637 20.3641 130 21.1782 130 22.2606C130 23.2677 129.695 24.0535 129.084 24.6182C128.483 25.183 127.672 25.4653 126.651 25.4653L128.826 27.5971C128.998 27.7665 129.084 27.9594 129.084 28.1759C129.084 28.4018 128.984 28.5994 128.784 28.7688C128.574 28.9288 128.369 29.0088 128.168 29.0088C127.891 29.0088 127.639 28.8865 127.41 28.6418L124.319 25.5218H122.859V28.1759C122.859 28.4394 122.768 28.6465 122.587 28.7971C122.406 28.9477 122.177 29.023 121.9 29.023C121.614 29.023 121.385 28.9477 121.213 28.7971C121.041 28.6465 120.956 28.4394 120.956 28.1759V21.0888ZM125.635 24.0677C126.265 24.0677 126.756 24.0065 127.109 23.8841C127.462 23.7618 127.71 23.5735 127.853 23.3194C128.006 23.0559 128.082 22.703 128.082 22.2606C128.082 21.6206 127.882 21.1594 127.481 20.8771C127.09 20.5947 126.475 20.4535 125.635 20.4535H123.474C123.283 20.4535 123.131 20.5147 123.016 20.6371C122.911 20.7594 122.859 20.9288 122.859 21.1453V24.0677H125.635Z" fill="white"/>
  <defs>
    <clipPath id="clip0">
      <rect width="31.5634" height="32" fill="white"/>
    </clipPath>
  </defs>
</svg>
