<svg width="121" height="109" viewBox="0 0 121 109" fill="none" xmlns="http://www.w3.org/2000/svg">
<g clip-path="url(#clip0)">
<path d="M52.6672 43.995L49.489 49.739L48.1232 52.2082C48.1232 52.2082 47.6679 52.2388 46.8811 52.2301C43.0487 52.1863 31.2908 51.1706 25.213 40.9391C20.1827 32.4676 23.2592 28.4705 28.1083 28.5712C29.2796 28.5975 30.3891 29.1184 31.6179 29.9897C34.6502 32.1305 38.4296 36.3904 45.7362 40.5801C47.7563 41.7403 50.046 42.8917 52.6672 43.995Z" fill="white"/>
<path d="M32.1174 48.627C31.8919 48.627 31.6797 48.4957 31.5869 48.2768C31.4632 47.9878 31.6002 47.6551 31.8919 47.5325C32.166 47.4187 38.5709 44.6386 39.203 36.2809C39.2251 35.9657 39.5036 35.7337 39.8174 35.7556C40.1357 35.7775 40.37 36.0533 40.3479 36.3641C39.6627 45.4354 32.6345 48.4563 32.3384 48.5788C32.2676 48.6139 32.1925 48.627 32.1174 48.627Z" fill="#3949AB"/>
<g opacity="0.25">
<g opacity="0.25">
<path opacity="0.25" d="M52.6673 43.995L49.4891 49.739L48.1233 52.2082C48.1233 52.2082 47.668 52.2389 46.8812 52.2301C43.0488 52.1863 31.2909 51.1706 25.2131 40.9391C22.8925 37.0383 22.3001 34.0831 22.8041 32.043C23.1135 33.6672 23.8782 35.6023 25.2131 37.8483C31.2909 48.0797 43.0488 49.0911 46.8812 49.1392C47.6724 49.148 48.1233 49.1173 48.1233 49.1173L49.4891 46.6481L51.2882 43.3996C51.739 43.5966 52.1987 43.7936 52.6673 43.995Z" fill="#3949AB"/>
</g>
</g>
<path d="M47.1507 52.9916C45.6567 52.9916 42.6774 52.8515 39.2164 51.9321C32.723 50.2116 27.6486 46.5428 24.55 41.3198C21.0889 35.497 21.6016 32.1784 22.6404 30.4272C23.6703 28.6891 25.6241 27.761 28.1215 27.8179C30.4908 27.8661 32.5329 29.626 35.3575 32.0646C39.013 35.2168 44.0256 39.5379 52.9678 43.2986C53.3567 43.4606 53.538 43.9072 53.3744 44.2925C53.2109 44.6777 52.76 44.8572 52.371 44.6952C43.2034 40.8426 38.0892 36.4295 34.3541 33.2073C31.6754 30.9 29.9073 29.3721 28.0906 29.3327C26.1589 29.2889 24.6958 29.9544 23.9621 31.1934C22.7863 33.1766 23.467 36.5039 25.8716 40.5536C28.7978 45.4789 33.4037 48.8106 39.5656 50.4567C44.2068 51.6957 48.0348 51.4549 48.0701 51.4505C48.49 51.4155 48.8569 51.7395 48.8879 52.1554C48.9188 52.5713 48.6005 52.9347 48.1762 52.9653C48.1276 52.9697 47.7651 52.9916 47.1507 52.9916Z" fill="#3949AB"/>
<path d="M79.5026 71.9093C76.5322 75.2804 70.5604 76.1342 69.0266 78.4107C67.6829 80.4115 68.1647 82.9595 68.2929 85.6301C68.4034 87.9155 68.01 90.9057 66.0695 93.4975C63.1344 97.4158 57.5605 97.8273 54.5415 95.3319C51.0937 92.4861 55.3769 85.3237 56.0001 84.4393C56.0001 84.4393 55.0586 83.2922 54.1834 82.2634C53.5469 81.5104 53.096 80.4421 52.8662 79.225C45.8778 78.8442 40.2994 84.4086 36.5996 85.4025C32.4932 86.5057 28.0332 83.5856 25.0451 77.8941C22.5875 73.2096 24.3777 69.0724 28.0155 68.6346C30.7959 68.3062 35.6007 72.0626 35.6007 72.0626C35.6007 72.0626 37.7843 62.6279 46.0767 63.7312C46.0767 63.7312 46.9828 59.0773 46.8812 52.2257C46.8679 51.1531 46.8281 50.0279 46.753 48.859C46.5938 46.2803 46.28 43.4827 45.7319 40.5757C45.67 40.2605 45.6081 39.9453 45.5462 39.6301L71.7053 37.8657C72.165 38.3823 72.607 38.9033 73.0314 39.4243C73.4336 39.9234 73.8226 40.4225 74.1983 40.926C76.046 43.4127 77.5312 45.9826 78.6937 48.5306C83.22 58.46 82.8311 68.1267 79.5026 71.9093Z" fill="white"/>
<path d="M57.3924 80.3327C48.2734 76.34 41.064 84.2117 36.5951 85.4069C32.4887 86.5102 28.0286 83.59 25.0406 77.8986C24.1211 76.1517 23.7985 74.4793 23.9399 73.0433C24.1742 70.6398 25.7301 68.9104 28.011 68.639C30.7913 68.3106 35.5961 72.067 35.5961 72.067C35.5961 72.067 37.7797 62.6323 46.0721 63.7356C46.0721 63.7356 48.216 52.7161 45.5417 39.6301L54.0286 68.7835L57.3924 80.3327Z" fill="white"/>
<g opacity="0.25">
<g opacity="0.25">
<path opacity="0.25" d="M57.3924 80.3328C48.2734 76.34 41.064 84.2117 36.5951 85.4069C32.4887 86.5102 28.0286 83.59 25.0406 77.8986C24.1211 76.1518 23.7985 74.4793 23.9399 73.0434C27.927 79.7636 41.1877 74.1247 44.0609 71.7693C46.7352 69.576 54.2231 67.3826 59.4345 67.527L57.3924 80.3328Z" fill="#3949AB"/>
</g>
</g>
<path d="M46.0148 81.1512C45.9883 81.1512 45.9574 81.1512 45.9308 81.1468C45.617 81.1031 45.4004 80.8141 45.4446 80.5033C46.9166 70.517 38.9336 66.441 38.8496 66.4016C38.5667 66.2615 38.4518 65.92 38.5932 65.6398C38.7347 65.3596 39.0794 65.2458 39.3623 65.3859C39.4552 65.4297 41.6123 66.5154 43.5881 68.9409C45.4137 71.1824 47.4116 75.0351 46.5806 80.6696C46.5408 80.9498 46.2977 81.1512 46.0148 81.1512Z" fill="#3949AB"/>
<path d="M34.8313 86.4007C30.9636 86.4007 27.0871 83.4367 24.3598 78.2488C22.9232 75.5125 22.742 72.7368 23.8647 70.6353C24.6957 69.0768 26.1367 68.1005 27.9181 67.8859C30.2652 67.6057 33.5848 69.6897 35.185 70.8192C36.069 68.3369 38.867 62.4791 45.4355 62.9125C45.8378 60.3251 47.0312 50.7328 44.7902 39.7833C44.7062 39.3718 44.9758 38.9734 45.3869 38.8902C45.798 38.807 46.2047 39.0741 46.2886 39.4812C48.9629 52.5584 46.8412 63.7662 46.8235 63.88L46.6865 64.5849L45.9704 64.4886C38.4781 63.4904 36.4271 71.8787 36.3431 72.2377L36.069 73.4023L35.1187 72.6624C33.85 71.6729 30.1105 69.1556 28.0949 69.392C26.8263 69.5452 25.8008 70.2369 25.2129 71.3402C24.3288 72.9951 24.5145 75.2586 25.7124 77.5439C28.5502 82.9464 32.6389 85.6783 36.3873 84.6713C37.541 84.3605 38.951 83.533 40.5865 82.5743C44.883 80.0525 50.7708 76.6026 57.6929 79.6322C58.0819 79.803 58.2543 80.2495 58.0819 80.6304C57.9095 81.0157 57.4586 81.1864 57.0741 81.0157C50.8724 78.3013 45.6035 81.3922 41.3689 83.8745C39.6362 84.8902 38.1421 85.7659 36.7895 86.1292C36.1442 86.3131 35.4855 86.4007 34.8313 86.4007Z" fill="#3949AB"/>
<path d="M19.9442 80.5078L11.1479 82.4079C4.03129 83.9446 -0.481793 90.9056 1.06972 97.9543C2.62122 105.003 9.64943 109.473 16.766 107.936L25.5623 106.036L19.9442 80.5078Z" fill="#FF6262"/>
<g opacity="0.6">
<g opacity="0.6">
<path opacity="0.6" d="M25.5668 105.524L25.3413 105.572L20.5188 83.6644L11.7225 85.5645C5.50323 86.9085 1.26863 92.3942 1.33935 98.4622C1.23769 98.1294 1.14928 97.788 1.06972 97.4421C-0.481793 90.3935 4.03129 83.4324 11.1479 81.8957L19.9442 79.9956L25.5668 105.524Z" fill="white"/>
</g>
</g>
<g opacity="0.3">
<g opacity="0.3">
<path opacity="0.3" d="M1.63551 95.7083C1.66645 95.8746 1.69739 96.0366 1.73275 96.203C2.51072 99.7273 4.65454 102.608 7.49234 104.416C10.3346 106.224 13.8708 106.955 17.4291 106.185L25.2264 104.499L24.0241 99.0399L15.2278 100.94C9.88812 102.096 4.59708 99.8674 1.63551 95.7083Z" fill="#3949AB"/>
</g>
</g>
<path d="M13.9281 109C11.2848 109 8.69457 108.252 6.41814 106.807C3.27976 104.81 1.11384 101.728 0.322613 98.1208C-1.3173 90.6738 3.46541 83.2924 10.9843 81.6682L19.7806 79.7681C19.9795 79.7243 20.1872 79.7637 20.3596 79.8688C20.532 79.9783 20.6514 80.149 20.6956 80.346L26.3181 105.874C26.4065 106.286 26.1457 106.689 25.7346 106.776L16.9383 108.676C15.9349 108.891 14.9271 109 13.9281 109ZM19.3606 81.4099L11.3114 83.1479C4.6191 84.5927 0.357975 91.1641 1.81666 97.7925C2.5239 101.006 4.45113 103.751 7.24473 105.528C10.0383 107.306 13.3624 107.897 16.6024 107.197L24.6517 105.458L19.3606 81.4099Z" fill="#3949AB"/>
<path d="M96.923 63.8557L22.2287 79.9922L27.8541 105.536L102.548 89.4L96.923 63.8557Z" fill="#6F74DD"/>
<g opacity="0.5">
<g opacity="0.5">
<path opacity="0.5" d="M97.4621 66.4237L102.55 89.4172L103.102 89.299L97.4621 63.8013L22.5697 79.9037L23.1222 82.4079L97.4621 66.4237Z" fill="white"/>
</g>
</g>
<g opacity="0.3">
<g opacity="0.3">
<path opacity="0.3" d="M100.839 81.6331L26.1369 97.7661L27.5912 104.364L27.4541 103.733L101.887 87.6572L100.574 81.69L100.839 81.6331L102.55 89.4085L27.8519 105.542L102.55 89.4085L100.839 81.6331Z" fill="#3949AB"/>
</g>
</g>
<path d="M27.852 106.299C27.7061 106.299 27.5647 106.259 27.4365 106.181C27.2641 106.071 27.1448 105.9 27.1006 105.703L21.478 80.1576C21.3896 79.746 21.6504 79.3433 22.0615 79.2557L96.7593 63.1226C96.8919 63.092 97.0289 63.1007 97.1616 63.1445L97.1925 63.1533C97.4665 63.2408 97.6655 63.4773 97.7097 63.7575C97.7539 64.0376 97.6345 64.3222 97.4002 64.4886C96.083 65.4299 95.4553 67.0541 95.8045 68.6214C95.9725 69.3876 96.3571 70.0837 96.9184 70.631C97.25 70.9549 97.4312 71.3971 97.4179 71.8524C97.4047 72.3078 97.2102 72.7237 96.8654 73.0301C95.5747 74.164 95 75.9109 95.3669 77.5789C95.7338 79.2513 96.9892 80.5998 98.6423 81.0989C99.0844 81.2346 99.438 81.5323 99.6413 81.9394C99.8446 82.3466 99.8623 82.8282 99.6988 83.2572C99.4203 83.9884 99.3628 84.7764 99.5308 85.5426C99.8756 87.1143 101.127 88.3314 102.722 88.6466C103.014 88.7035 103.244 88.9224 103.315 89.2114C103.385 89.4959 103.284 89.798 103.049 89.9819L103.045 89.9863C102.948 90.0651 102.828 90.1264 102.709 90.1526L28.0155 106.281C27.9581 106.294 27.905 106.299 27.852 106.299ZM23.14 80.5779L28.4355 104.64L100.172 89.1457C99.102 88.3576 98.3285 87.2062 98.0323 85.8665C97.8025 84.8114 97.882 83.7257 98.2666 82.7187C98.2843 82.6706 98.2755 82.6312 98.2666 82.6093C98.2534 82.5786 98.2268 82.5611 98.1959 82.5524C96.0167 81.8913 94.3591 80.1094 93.8729 77.9029C93.3867 75.6964 94.1469 73.3979 95.8487 71.8962C95.8753 71.8743 95.8885 71.8481 95.8885 71.813C95.8885 71.7868 95.8841 71.7474 95.8443 71.7123C95.0708 70.9593 94.5403 70.0005 94.3105 68.9498C94.0143 67.6101 94.2353 66.2398 94.8763 65.084L23.14 80.5779Z" fill="#3949AB"/>
<path d="M119.462 74.4178L115.819 77.6488L108.353 84.2684L102.576 89.3907C100.746 89.0273 99.2124 87.6264 98.7881 85.7044C98.5803 84.7631 98.6687 83.8262 98.9914 82.99C99.1196 82.6617 99.04 82.3114 98.819 82.0706C98.7173 81.9612 98.5847 81.8736 98.4256 81.8255C96.5691 81.2607 95.0706 79.7503 94.6286 77.7407C94.1866 75.7312 94.9159 73.7392 96.3658 72.4652C96.7548 72.1237 96.7636 71.5371 96.3923 71.1737C95.7469 70.5432 95.274 69.7289 95.0662 68.7876C94.6419 66.8657 95.4464 64.9612 96.9625 63.8755L104.366 66.1477L113.936 69.0897L118.608 70.5257C119.272 70.7271 119.749 71.1781 120.01 71.7209C120.421 72.5834 120.284 73.6867 119.462 74.4178Z" fill="#FFD39F"/>
<g opacity="0.7">
<g opacity="0.7">
<path opacity="0.7" d="M119.824 74.0107C119.82 74.0019 119.82 73.9932 119.815 73.9844C119.559 73.4415 119.077 72.9906 118.414 72.7892L113.742 71.3532L104.172 68.4155L96.7639 66.1389C95.9417 66.7256 95.3273 67.5574 95.009 68.5031C94.7173 66.6774 95.5174 64.9043 96.9584 63.8755L104.367 66.1477L113.937 69.0897L118.613 70.5257C119.272 70.7271 119.754 71.1781 120.014 71.7209C120.35 72.4346 120.315 73.3146 119.824 74.0107Z" fill="white"/>
</g>
</g>
<g opacity="0.3">
<g opacity="0.3">
<path opacity="0.3" d="M99.4867 87.3464C100.017 87.6966 100.609 87.9505 101.246 88.0775L107.023 82.9552L114.953 76.4976L118.136 73.1046C118.352 72.912 118.52 72.6931 118.644 72.4611L118.702 72.4304L105.171 79.7986C103.363 80.7837 101.423 81.5061 99.4028 81.9395L98.8149 82.0665C99.0359 82.3073 99.111 82.6575 98.9872 82.9859C98.6646 83.8264 98.5806 84.759 98.7839 85.7002C98.9519 86.4533 99.2878 87.1275 99.7475 87.6879C99.6547 87.5828 99.5663 87.469 99.4867 87.3464Z" fill="#3949AB"/>
</g>
</g>
<path d="M119.462 74.4179L115.819 77.6489C114.811 76.7295 114.002 75.3154 113.631 73.6343C113.26 71.9575 113.406 70.3376 113.932 69.0898L118.604 70.5258C120.319 71.0468 120.801 73.2271 119.462 74.4179Z" fill="#3949AB"/>
<path d="M102.572 90.1483C102.523 90.1483 102.47 90.1439 102.422 90.1351C100.234 89.7017 98.5097 88.0249 98.0367 85.8666C97.8068 84.8114 97.8864 83.7257 98.271 82.7187C98.2886 82.6706 98.2798 82.6312 98.271 82.6093C98.2577 82.5786 98.2312 82.5611 98.2002 82.5524C96.0211 81.8913 94.3635 80.1094 93.8772 77.9029C93.391 75.6964 94.1513 73.3979 95.8531 71.8962C95.8796 71.8743 95.8929 71.8481 95.8929 71.8131C95.8929 71.7868 95.8884 71.7474 95.8487 71.7124C95.0751 70.9593 94.5447 70.0006 94.3148 68.9498C93.8374 66.7871 94.6994 64.5543 96.5117 63.2628C96.7062 63.1227 96.9581 63.0833 97.188 63.1533L118.838 69.8035C119.913 70.1319 120.695 70.9769 120.934 72.0626C121.172 73.1484 120.819 74.2429 119.979 74.9871L103.089 89.96C102.939 90.0826 102.758 90.1483 102.572 90.1483ZM97.1129 64.7163C95.9945 65.675 95.4862 67.1723 95.8045 68.6215C95.9724 69.3876 96.357 70.0837 96.9184 70.631C97.2499 70.955 97.4311 71.3971 97.4179 71.8525C97.4046 72.3078 97.2101 72.7237 96.8653 73.0301C95.5746 74.1641 95 75.9109 95.3669 77.5789C95.7337 79.2513 96.9891 80.5998 98.6423 81.0989C99.0843 81.2346 99.4379 81.5323 99.6412 81.9395C99.8446 82.3466 99.8623 82.8282 99.6987 83.2572C99.4202 83.9884 99.3628 84.7764 99.5307 85.5426C99.849 86.9917 100.941 88.1431 102.36 88.559L118.949 73.8532C119.369 73.4811 119.55 72.9295 119.431 72.3822C119.311 71.8349 118.918 71.4103 118.379 71.2483L97.1129 64.7163Z" fill="#3949AB"/>
<path d="M26.0926 107.993C23.2725 108.602 20.5629 107.253 19.9838 104.955C19.25 102.043 18.2687 98.0332 17.4687 94.4038C16.6686 90.7744 15.8774 86.7247 15.316 83.7739C14.874 81.4448 16.7747 79.1025 19.5948 78.4896C22.5122 77.8592 25.2925 79.3258 25.7478 81.7337C26.3048 84.6626 27.0783 88.6116 27.8607 92.1578C28.6431 95.704 29.5979 99.6136 30.3228 102.503C30.9195 104.889 29.01 107.367 26.0926 107.993Z" fill="#FFE81D"/>
<g opacity="0.6">
<g opacity="0.6">
<path opacity="0.6" d="M25.982 82.9466C25.0759 81.7076 23.4448 80.9458 21.6193 80.9458C21.1551 80.9458 20.6733 80.994 20.1959 81.099C17.6897 81.6419 15.8774 83.4894 15.6563 85.5252C15.537 84.9079 15.4265 84.3213 15.3204 83.774C14.8784 81.4449 16.7747 79.1026 19.5948 78.4941C20.0545 78.3978 20.5098 78.3496 20.9518 78.3496C23.3299 78.3496 25.3632 79.7112 25.7478 81.7426C25.8229 82.1235 25.8981 82.5306 25.982 82.9466Z" fill="white"/>
</g>
</g>
<g opacity="0.3">
<g opacity="0.3">
<path opacity="0.3" d="M17.2921 93.3484C17.3052 93.4009 17.3139 93.4491 17.327 93.5016C17.3183 93.4491 17.3052 93.3965 17.2921 93.3484Z" fill="#3949AB"/>
</g>
</g>
<g opacity="0.3">
<g opacity="0.3">
<path opacity="0.3" d="M16.943 91.8818C16.9517 91.93 16.9648 91.9738 16.9735 92.0219C16.9648 91.9738 16.9561 91.9256 16.943 91.8818Z" fill="#3949AB"/>
</g>
</g>
<g opacity="0.3">
<g opacity="0.3">
<path opacity="0.3" d="M17.6412 94.7891C17.65 94.8328 17.663 94.8766 17.6718 94.9204C17.663 94.8766 17.65 94.8328 17.6412 94.7891Z" fill="#3949AB"/>
</g>
</g>
<g opacity="0.3">
<g opacity="0.3">
<path opacity="0.3" d="M29.8588 100.651C29.5892 99.5655 29.3063 98.3922 29.019 97.1926C29.3063 98.3922 29.5936 99.5655 29.8588 100.651Z" fill="#3949AB"/>
</g>
</g>
<g opacity="0.3">
<g opacity="0.3">
<path opacity="0.3" d="M19.9839 104.955C19.9662 104.894 19.953 104.828 19.9353 104.762C19.9485 104.828 19.9662 104.894 19.9839 104.955C20.1607 105.668 20.5453 106.286 21.0713 106.785C20.5453 106.286 20.1607 105.668 19.9839 104.955Z" fill="#3949AB"/>
</g>
</g>
<g opacity="0.3">
<g opacity="0.3">
<path opacity="0.3" d="M17.9861 96.1987C17.9905 96.2206 17.9949 96.2381 17.9992 96.26C17.9949 96.2381 17.9905 96.2206 17.9861 96.1987Z" fill="#3949AB"/>
</g>
</g>
<g opacity="0.3">
<g opacity="0.3">
<path opacity="0.3" d="M19.5596 103.269C20.1696 105.528 22.8571 106.846 25.6463 106.242C28.5637 105.612 30.4776 103.134 29.8765 100.756C29.6113 99.7012 29.3151 98.5103 29.0101 97.2495C29.0101 97.2451 29.0101 97.2407 29.0101 97.2363C28.8864 99.2283 27.1404 101.076 24.6783 101.61C21.8582 102.219 19.1441 100.87 18.5695 98.5716C18.4369 98.0463 18.2954 97.4815 18.1496 96.8905C18.1451 96.8686 18.1319 96.8467 18.1275 96.8204C17.7871 95.4588 17.3893 93.8609 16.9826 92.1709C16.9163 91.8513 16.8456 91.5274 16.7793 91.2078C17.0047 92.2848 17.2346 93.3618 17.4644 94.4037C18.123 97.3896 18.901 100.634 19.564 103.309C19.5685 103.296 19.564 103.282 19.5596 103.269Z" fill="#3949AB"/>
</g>
</g>
<g opacity="0.3">
<g opacity="0.3">
<path opacity="0.3" d="M23.6969 108.05C24.4528 108.181 25.2661 108.177 26.0927 107.998C26.7292 107.862 27.3215 107.634 27.8475 107.341C27.3215 107.634 26.7292 107.862 26.0927 107.998C25.2661 108.173 24.4528 108.181 23.6969 108.05Z" fill="#3949AB"/>
</g>
</g>
<g opacity="0.3">
<g opacity="0.3">
<path opacity="0.3" d="M22.7642 107.801C22.5697 107.731 22.3797 107.656 22.1984 107.564C22.3752 107.656 22.5697 107.731 22.7642 107.801Z" fill="#3949AB"/>
</g>
</g>
<g opacity="0.3">
<g opacity="0.3">
<path opacity="0.3" d="M28.2808 107.069C28.1394 107.166 27.9979 107.253 27.8477 107.336C27.9979 107.253 28.1394 107.161 28.2808 107.069Z" fill="#3949AB"/>
</g>
</g>
<g opacity="0.3">
<g opacity="0.3">
<path opacity="0.3" d="M19.7357 103.974C19.7182 103.895 19.6964 103.821 19.6789 103.738C19.6964 103.817 19.7182 103.895 19.7357 103.974Z" fill="#3949AB"/>
</g>
</g>
<g opacity="0.3">
<g opacity="0.3">
<path opacity="0.3" d="M28.683 106.771C28.5548 106.877 28.4222 106.977 28.2807 107.069C28.4222 106.973 28.5548 106.872 28.683 106.771Z" fill="#3949AB"/>
</g>
</g>
<g opacity="0.3">
<g opacity="0.3">
<path opacity="0.3" d="M19.8639 104.491C19.8464 104.416 19.829 104.342 19.8071 104.268C19.829 104.342 19.8464 104.416 19.8639 104.491Z" fill="#3949AB"/>
</g>
</g>
<g opacity="0.3">
<g opacity="0.3">
<path opacity="0.3" d="M21.0891 106.802C21.2438 106.947 21.4117 107.078 21.5885 107.201C21.4117 107.078 21.2393 106.947 21.0891 106.802Z" fill="#3949AB"/>
</g>
</g>
<g opacity="0.25">
<g opacity="0.25">
<path opacity="0.25" d="M25.7304 81.6287C25.7393 81.6637 25.7437 81.6987 25.7525 81.7337C26.1459 83.8045 26.6454 86.3745 27.1847 88.9575C26.9327 87.8849 26.6896 86.8123 26.4598 85.7703C26.0973 84.1241 25.7349 82.3948 25.3989 80.718C25.5448 81.0026 25.6597 81.3091 25.7304 81.6287Z" fill="#3949AB"/>
</g>
</g>
<g opacity="0.25">
<g opacity="0.25">
<path opacity="0.25" d="M28.9173 96.12C29.0057 96.4746 29.0411 96.8336 29.0234 97.1926C28.6256 95.529 28.2277 93.8084 27.8653 92.1623C27.6354 91.1203 27.4056 90.0389 27.1846 88.9619C27.7769 91.5318 28.4045 94.0798 28.9173 96.12Z" fill="#3949AB"/>
</g>
</g>
<path d="M24.7135 108.803C22.1232 108.803 19.8998 107.354 19.3385 105.117C18.6401 102.332 17.6322 98.2388 16.8233 94.5481C16.01 90.853 15.2011 86.7158 14.6707 83.9007C14.1579 81.1994 16.262 78.5463 19.4578 77.8546C21.2127 77.4737 22.9984 77.7714 24.3643 78.6645C25.4561 79.3782 26.181 80.4289 26.4065 81.6197C26.928 84.3691 27.7193 88.4101 28.5149 92.0219C29.3106 95.6338 30.2919 99.631 30.9726 102.35C31.2687 103.523 31.0477 104.775 30.3582 105.878C29.4962 107.253 27.9933 108.26 26.2385 108.641C25.7169 108.746 25.2086 108.803 24.7135 108.803ZM20.9563 79.0017C20.554 79.0017 20.143 79.0454 19.7363 79.133C17.2875 79.6627 15.5989 81.6898 15.9702 83.6511C16.5007 86.4618 17.3052 90.5816 18.1185 94.2635C18.9274 97.9411 19.9308 102.021 20.6292 104.797C21.1154 106.737 23.5023 107.884 25.9556 107.354C27.3612 107.052 28.5547 106.259 29.231 105.182C29.7393 104.372 29.894 103.506 29.6863 102.665C29.0011 99.9374 28.0198 95.9272 27.2198 92.2978C26.4197 88.6684 25.6285 84.6143 25.1025 81.8561C24.9434 81.0068 24.4306 80.28 23.6305 79.7547C22.8702 79.26 21.9376 79.0017 20.9563 79.0017Z" fill="#3949AB"/>
<path d="M85.9783 38.6581C89.5013 41.2717 92.728 53.7229 91.9103 61.1437C91.0926 68.5644 77.8495 69.1204 70.2732 68.8796C62.6969 68.6389 62.7234 51.674 62.825 47.1339C62.9842 40.0371 80.758 34.7835 85.9783 38.6581Z" fill="white"/>
<g opacity="0.25">
<g opacity="0.25">
<path opacity="0.25" d="M70.2774 68.8798C77.8538 69.1206 91.0968 68.5646 91.9146 61.1438C92.0207 60.1719 92.0605 59.1124 92.0339 58.0048C89.9432 59.6334 87.0258 58.1843 86.6766 56.1923C84.5062 43.8987 79.8827 39.1792 77.646 37.5637C70.83 38.5094 62.931 42.4146 62.8293 47.1341C62.7277 51.6785 62.7011 68.639 70.2774 68.8798Z" fill="#3949AB"/>
</g>
</g>
<path d="M72.9209 69.6807C72.0192 69.6807 71.1307 69.6632 70.2555 69.637C62.7057 69.3962 61.8835 55.4215 62.0648 47.1163C62.1266 44.2574 64.6064 41.5037 69.0443 39.3672C74.6315 36.6747 82.8709 35.4051 86.4424 38.0538C90.4693 41.044 93.4662 54.0555 92.6794 61.2267C91.9191 68.0652 82.0531 69.6807 72.9209 69.6807ZM80.6033 38.0932C77.3456 38.0932 73.2701 39.0126 69.7118 40.7287C65.8706 42.5807 63.6428 44.9185 63.5942 47.147C63.4881 52.0153 63.656 67.9076 70.3041 68.1222C77.7743 68.3586 90.4162 67.7588 91.1544 61.0604C91.9412 53.9067 88.7808 41.6832 85.523 39.2621C84.4533 38.4741 82.6941 38.0932 80.6033 38.0932Z" fill="#3949AB"/>
<path d="M85.2357 51.1093L88.5995 49.7828C89.3598 49.4807 90.2129 49.9097 90.4206 50.6934C91.1279 53.3903 92.2153 58.9854 89.4747 60.1281C86.1507 61.5159 84.9749 57.7202 84.3914 52.5059C84.3163 51.9061 84.6655 51.3326 85.2357 51.1093Z" fill="white"/>
<g opacity="0.25">
<g opacity="0.25">
<path opacity="0.25" d="M84.3912 52.4969C84.9614 57.7111 86.1328 61.5113 89.4568 60.1322C90.8227 59.5674 91.2426 57.895 91.2293 56.0256C90.9508 56.5597 90.553 56.9756 90.0005 57.2033C87.0257 58.4379 85.7747 55.5221 85.1382 51.1528C84.6299 51.398 84.3293 51.9365 84.3912 52.4969Z" fill="#3949AB"/>
</g>
</g>
<path d="M88.1751 61.1788C87.6447 61.1788 87.1452 61.0475 86.6943 60.7804C85.0721 59.8348 84.1571 57.3831 83.6311 52.5804C83.5294 51.6435 84.0775 50.746 84.9616 50.4001L88.3254 49.0823C88.8912 48.859 89.5321 48.8897 90.0758 49.1655C90.6195 49.4413 91.0173 49.9317 91.1676 50.5139C92.2064 54.5242 92.8075 59.5677 89.7531 60.8373C89.1962 61.0606 88.6702 61.1788 88.1751 61.1788ZM89.1078 50.4483C89.0415 50.4483 88.9663 50.4614 88.8868 50.4921L85.523 51.8098C85.2754 51.9062 85.1207 52.1557 85.1517 52.4184C85.3152 53.9244 85.8191 58.5082 87.4723 59.4758C87.9187 59.7341 88.4713 59.7253 89.1608 59.4364C90.9864 58.679 90.6284 54.5242 89.6824 50.8905C89.625 50.6672 89.4658 50.5621 89.3774 50.5139C89.3244 50.4833 89.2271 50.4483 89.1078 50.4483Z" fill="#3949AB"/>
<path d="M87.0437 40.1247C86.2215 40.3699 85.3949 40.6282 84.5772 40.8953C83.755 41.1623 82.9417 41.4381 82.1328 41.7358C81.9339 41.8103 81.7128 41.7096 81.6377 41.5126C81.5714 41.3331 81.6465 41.136 81.8145 41.0485C82.5836 40.6326 83.3572 40.2342 84.1396 39.8445C84.922 39.4593 85.7043 39.0784 86.5 38.7106C86.8845 38.5311 87.3398 38.6931 87.5211 39.074C87.7023 39.4549 87.5387 39.9058 87.1542 40.0853C87.1188 40.1028 87.0879 40.1116 87.0525 40.1247H87.0437Z" fill="#3949AB"/>
<path d="M46.6071 45.6237L45.5462 39.6301C46.059 41.6703 46.3993 43.6798 46.6071 45.6237Z" fill="white"/>
<path d="M53.3215 55.785C49.9135 54.7606 61.6537 66.4762 58.4225 67.9385C57.3042 68.4463 56.2212 69.1118 55.3283 69.9918C52.0573 73.2052 51.9645 79.6541 54.1879 82.2678C55.0631 83.2966 56.0046 84.4437 56.0046 84.4437C55.3814 85.328 51.0981 92.4861 54.5459 95.3362C57.565 97.8273 63.1389 97.4202 66.074 93.4974C68.0144 90.9056 68.4078 87.9154 68.2973 85.6301C68.1691 82.9595 67.6873 80.4115 69.0311 78.4107C70.5605 76.1341 76.5323 75.2804 79.5071 71.9093C84.0511 66.752 83.1229 50.654 71.7098 37.8701" fill="white"/>
<path d="M68.7569 67.3299C65.3489 66.3055 61.6492 66.4762 58.418 67.9385C57.2996 68.4463 56.2167 69.1118 55.3238 69.9918C52.0528 73.2052 51.96 79.6541 54.1834 82.2678C55.0586 83.2966 56.0001 84.4437 56.0001 84.4437C55.3768 85.328 51.0936 92.4861 54.5414 95.3362C57.5604 97.8273 63.1344 97.4202 66.0694 93.4974C68.0099 90.9056 68.4033 87.9154 68.2928 85.6301C68.1646 82.9595 67.6828 80.4115 69.0266 78.4107C70.556 76.1341 76.5277 75.2804 79.5026 71.9093C84.0466 66.752 83.1183 50.654 71.7052 37.8701L68.7569 67.3299Z" fill="white"/>
<g opacity="0.25">
<g opacity="0.25">
<path opacity="0.25" d="M79.5026 71.9094C76.5322 75.2804 70.5604 76.1342 69.0266 78.4107C67.6828 80.4115 68.1646 82.9595 68.2928 85.6301C68.4033 87.9155 68.0099 90.9057 66.0694 93.4975C63.1344 97.4158 57.5605 97.8273 54.5414 95.3318C53.9933 94.8809 53.6441 94.3249 53.4408 93.6988C56.8179 95.4895 62.3653 95.7959 64.929 92.3723C66.8695 89.7805 65.9766 86.4269 65.8661 84.1416C65.7379 81.471 64.7522 77.6402 66.6352 75.4643C69.6498 71.9838 74.101 73.7919 77.0759 70.4208C81.2928 65.6356 80.7977 51.4245 71.5771 39.1835L71.7053 37.8701C83.1139 50.654 84.0422 66.752 79.5026 71.9094Z" fill="#3949AB"/>
</g>
</g>
<path d="M68.6819 67.5708C68.0498 67.5007 67.4309 67.4263 66.8121 67.3825C66.1933 67.3519 65.5833 67.3212 64.9689 67.3431C64.3589 67.3606 63.7533 67.3957 63.1521 67.4745C62.551 67.5489 61.9542 67.6408 61.3752 67.7897C61.0835 67.8554 60.7961 67.9473 60.5044 68.0217C60.2215 68.118 59.9342 68.2012 59.6557 68.315C59.0943 68.5208 58.5462 68.766 58.0202 69.0418C57.4942 69.3176 56.9991 69.6328 56.5394 69.9875C56.3096 70.1626 56.0886 70.3508 55.8852 70.5522C55.788 70.6529 55.6863 70.7536 55.5891 70.8543C55.4963 70.9638 55.399 71.0645 55.315 71.1783C54.6078 72.067 54.1083 73.1484 53.7989 74.2823C53.4939 75.4206 53.379 76.6202 53.4497 77.7935C53.5204 78.9668 53.7768 80.1401 54.3072 81.1077C54.4398 81.3485 54.5901 81.5674 54.7581 81.7688L55.3681 82.4999L56.5925 83.9622L56.9549 84.3956L56.6278 84.8728C56.5173 85.0304 56.398 85.2274 56.2831 85.42C56.1681 85.6127 56.0576 85.8097 55.9471 86.0067C55.7305 86.4051 55.5228 86.8079 55.3327 87.2194C54.9481 88.0381 54.6166 88.8831 54.3691 89.7324C54.126 90.5818 53.9624 91.4486 53.9845 92.2761C53.9978 93.1035 54.2232 93.8653 54.7006 94.4125L54.789 94.5176C54.82 94.5526 54.8553 94.5789 54.8907 94.6139C54.9614 94.6752 55.0144 94.7409 55.1073 94.8022C55.2752 94.9204 55.4344 95.0517 55.6112 95.1612C55.7924 95.2619 55.9736 95.367 56.1593 95.4633L56.7383 95.7084C57.534 95.9974 58.3915 96.1287 59.2535 96.1244C60.1154 96.12 60.9729 95.9711 61.7907 95.6997C62.6129 95.4326 63.3687 94.9992 64.0406 94.4782C65.402 93.445 66.3524 91.8908 66.927 90.2446C67.2011 89.4128 67.3956 88.5503 67.4796 87.666C67.5282 87.2282 67.5459 86.7816 67.5459 86.3394C67.5503 86.1162 67.537 85.8973 67.5326 85.674L67.4928 84.9866C67.4354 84.0629 67.3469 83.1172 67.3425 82.1321C67.3381 81.6418 67.3691 81.1339 67.4354 80.6261C67.5017 80.1182 67.6254 79.5973 67.8199 79.0982C67.8641 78.9712 67.9172 78.8486 67.979 78.726C68.0409 78.6034 68.094 78.4809 68.1647 78.3626L68.3769 78.0124C68.4609 77.8942 68.5493 77.7672 68.6465 77.6578C69.0311 77.2156 69.4643 76.8916 69.8974 76.6114C70.7682 76.0598 71.6523 75.6658 72.5186 75.2761C74.2514 74.5012 75.9576 73.7745 77.4074 72.7456C78.1235 72.2334 78.7821 71.6467 79.2684 70.9769C79.7634 70.2983 80.1392 69.5015 80.4265 68.6697C80.7138 67.8335 80.9127 66.9622 81.0541 66.0735C81.1823 65.1804 81.2575 64.2785 81.2796 63.3722C81.3149 61.5554 81.147 59.7253 80.842 57.9216C80.2099 54.3097 78.9987 50.7941 77.3456 47.5019C76.519 45.8513 75.5067 44.3059 74.5033 42.7604C73.4955 41.215 72.4391 39.7089 71.5152 38.0365C71.4445 37.9096 71.4931 37.752 71.6169 37.6863C71.7097 37.6381 71.8158 37.6469 71.8954 37.7038C73.469 38.8465 74.7376 40.3044 75.8471 41.8629C76.961 43.4215 77.8583 45.1202 78.7203 46.8276C80.4309 50.2469 81.6907 53.8938 82.3537 57.6677C82.672 59.5546 82.8488 61.4766 82.809 63.4073C82.7869 64.3704 82.7073 65.338 82.5703 66.3055C82.4156 67.2687 82.199 68.2275 81.8763 69.1688C81.5536 70.1057 81.1249 71.0294 80.5105 71.8744C79.8872 72.7281 79.1137 73.4067 78.3003 73.989C76.6604 75.1448 74.8614 75.8978 73.1507 76.664C72.2976 77.0492 71.4534 77.4345 70.7284 77.8942C70.3704 78.1262 70.0477 78.3802 69.8134 78.6472C69.7516 78.7173 69.7118 78.7786 69.6543 78.853L69.4996 79.1069C69.4466 79.1901 69.4112 79.282 69.367 79.3696C69.3184 79.4572 69.283 79.5491 69.2477 79.6454C68.9515 80.3897 68.8719 81.2478 68.8719 82.1321C68.8719 83.0209 68.9559 83.9446 69.0178 84.8903L69.0576 85.6039C69.0664 85.8491 69.0753 86.0943 69.0753 86.3438C69.0753 86.8385 69.0532 87.3289 69.0001 87.8236C68.9073 88.8086 68.6907 89.785 68.3769 90.735C68.0498 91.6806 67.6077 92.5913 67.0552 93.4319C66.9049 93.6376 66.7723 93.8478 66.6132 94.0448L66.1181 94.6358C65.9502 94.8285 65.7557 94.9992 65.5744 95.1787C65.3976 95.3626 65.1899 95.5202 64.9865 95.6778C64.1776 96.3082 63.2671 96.8205 62.2858 97.1444C61.3133 97.4728 60.2878 97.6479 59.2535 97.6567C58.2236 97.661 57.1848 97.5034 56.2035 97.1488L55.4786 96.8424C55.2443 96.7198 55.0189 96.5884 54.789 96.4571C54.5636 96.317 54.3558 96.1506 54.1437 95.9974C54.0376 95.9273 53.9315 95.8135 53.8254 95.7216C53.7724 95.6734 53.7193 95.6253 53.6707 95.5727L53.5292 95.4107C53.1535 94.9729 52.8795 94.4563 52.7071 93.9266C52.5303 93.3968 52.4684 92.854 52.4551 92.333C52.4286 91.2822 52.6275 90.284 52.8971 89.334C53.1756 88.384 53.5337 87.4777 53.9447 86.5977C54.1525 86.1599 54.3691 85.7265 54.6034 85.3018C54.7183 85.0873 54.8421 84.8772 54.9658 84.667C55.094 84.4525 55.2178 84.2511 55.3725 84.0234L55.4079 84.9385L54.1967 83.485L53.5911 82.7582C53.3524 82.4692 53.1491 82.1672 52.9723 81.8519C52.2916 80.5911 52.0131 79.2383 51.9291 77.8986C51.8496 76.5589 51.9822 75.2148 52.3269 73.9102C52.6673 72.6099 53.2287 71.3403 54.0774 70.2326C54.9393 69.1075 56.0576 68.2669 57.2467 67.6189C57.8434 67.2993 58.4622 67.0279 59.0943 66.8002C59.7309 66.5726 60.3762 66.3887 61.0393 66.2617C63.6693 65.7232 66.4673 65.9772 68.8366 67.1023C68.9648 67.1636 69.0178 67.3169 68.9559 67.4438C68.9073 67.5445 68.8012 67.5971 68.6951 67.5883L68.6819 67.5708Z" fill="#3949AB"/>
<path d="M68.2223 81.0724C68.1957 81.0724 68.1692 81.0724 68.1427 81.0681C67.8289 81.0243 67.6079 80.7397 67.6521 80.4289C68.4786 74.374 64.9027 71.5371 63.3246 70.5958C60.8095 69.0985 57.7242 68.9102 55.987 70.1448C55.7306 70.3287 55.3682 70.2718 55.187 70.0135C55.0013 69.7596 55.0588 69.4049 55.3196 69.2211C57.4457 67.7063 60.9863 67.8726 63.9214 69.6195C65.6939 70.6746 69.7119 73.853 68.7969 80.5777C68.7527 80.8667 68.5052 81.0724 68.2223 81.0724Z" fill="#3949AB"/>
<path d="M55.9295 83.1828L56.2478 83.3973L56.597 83.6206C56.8357 83.7607 57.07 83.9052 57.3175 84.0321C57.8037 84.2904 58.3121 84.5093 58.8336 84.6582C59.0944 84.737 59.3597 84.7939 59.6293 84.8289C59.8989 84.8683 60.173 84.8946 60.4559 84.8946C61.0217 84.9209 61.6007 84.8289 62.2417 84.7107C61.835 85.2098 61.2559 85.5863 60.6106 85.8009C59.9652 86.0154 59.258 86.0504 58.5817 85.9716C57.901 85.8928 57.2424 85.7002 56.6324 85.4243C56.3274 85.2842 56.0312 85.131 55.7483 84.9515C55.6069 84.8596 55.4698 84.7676 55.3328 84.6669C55.1914 84.5619 55.0764 84.4699 54.9261 84.3298C54.6167 84.0453 54.6035 83.5637 54.8908 83.2572C55.1516 82.9814 55.5715 82.942 55.8765 83.1478L55.9295 83.1828Z" fill="#3949AB"/>
<path d="M70.8301 40.4005C86.7695 33.6978 88.5421 26.8286 93.3911 26.7236C98.2401 26.6229 100.53 31.1629 97.6964 37.3447C93.033 47.5105 75.3785 48.6137 75.3785 48.6137" fill="white"/>
<g opacity="0.25">
<g opacity="0.25">
<path opacity="0.25" d="M97.6918 37.3447C93.0285 47.5061 75.3739 48.6138 75.3739 48.6138C74.9496 47.8476 75.3916 46.8932 76.258 46.7137C81.5402 45.6323 90.867 42.8216 94.7568 36.0576C96.3481 33.2906 96.9625 30.2085 96.7459 27.6211C99.1063 29.2322 99.7517 32.8572 97.6918 37.3447Z" fill="#3949AB"/>
</g>
</g>
<path d="M70.7285 40.1687C71.8512 39.2624 73.0668 38.6145 74.2824 37.9621C75.4935 37.3054 76.7224 36.6925 77.9291 36.027C79.1358 35.366 80.2939 34.6261 81.4255 33.8512C82.5571 33.0719 83.6533 32.2488 84.7186 31.3819C85.7883 30.5151 86.8226 29.6045 87.8923 28.6938C88.4316 28.2385 88.9841 27.7876 89.5897 27.3629C90.1909 26.9382 90.8628 26.5486 91.6186 26.2859C91.9943 26.1458 92.3922 26.067 92.7944 26.0101C92.9933 25.9838 93.1966 25.9794 93.3956 25.9663C93.59 25.9707 93.7801 25.9619 93.9746 25.9794C94.7482 26.0276 95.5394 26.1765 96.2731 26.5048C97.0113 26.82 97.6832 27.3191 98.2181 27.9277C98.7441 28.545 99.1286 29.263 99.3541 30.0072C99.5928 30.7515 99.69 31.522 99.69 32.2751C99.6944 33.0281 99.606 33.7723 99.4557 34.4947C99.3054 35.2171 99.0888 35.9176 98.8325 36.5962L98.6336 37.104L98.417 37.6031C98.2578 37.9315 98.0854 38.2598 97.9175 38.5882C97.197 39.8753 96.2643 41.0268 95.2034 42.0293C94.1426 43.0319 92.9624 43.8856 91.7247 44.6211C89.2449 46.0921 86.553 47.1122 83.8169 47.8696C83.1317 48.0579 82.4422 48.233 81.7526 48.3906C81.0631 48.5482 80.3735 48.719 79.6751 48.8678C78.9811 49.0079 78.2739 49.0955 77.5578 49.1305C76.8417 49.1524 76.1256 49.1086 75.3919 48.8766C75.246 48.8328 75.1664 48.6796 75.2151 48.5351C75.2372 48.465 75.2902 48.4081 75.3521 48.3775L75.3609 48.3731C76.0195 48.0404 76.6914 47.8346 77.3589 47.6726C78.0308 47.515 78.7026 47.3837 79.3834 47.2786C80.0597 47.1691 80.7404 47.0728 81.4123 46.9152C82.0841 46.7664 82.7472 46.5956 83.4102 46.4161C86.0491 45.685 88.6217 44.7043 90.9423 43.3252C92.1004 42.6379 93.1878 41.8454 94.1514 40.9392C95.115 40.0286 95.946 38.9997 96.5826 37.8614C96.7284 37.5725 96.8831 37.2835 97.0246 36.9902L97.2235 36.5349L97.4047 36.0752C97.639 35.4579 97.8291 34.8318 97.9617 34.197C98.0943 33.5622 98.1694 32.923 98.165 32.2969C98.165 31.6665 98.081 31.0492 97.8998 30.4713C97.723 29.8934 97.4357 29.368 97.06 28.9259C96.6754 28.4881 96.2024 28.1378 95.6587 27.9058C95.1195 27.6606 94.5139 27.5468 93.895 27.5074C93.7403 27.4942 93.5812 27.503 93.4265 27.4986C93.2762 27.5074 93.1304 27.5118 92.9845 27.5293C92.6927 27.573 92.4054 27.6256 92.1269 27.7307C90.9954 28.1203 89.9389 28.9872 88.8913 29.8628C87.8437 30.7515 86.7873 31.684 85.6955 32.5684C84.6037 33.4571 83.4721 34.3065 82.3051 35.1076C81.1426 35.9088 79.9403 36.6575 78.7336 37.393C77.5268 38.1285 76.2848 38.8071 74.994 39.385C74.6714 39.5251 74.3487 39.6696 74.0216 39.8053C73.6945 39.9322 73.3586 40.0548 73.0226 40.1643C72.6867 40.2781 72.3463 40.3744 71.9971 40.4532C71.6479 40.5364 71.2987 40.6065 70.9363 40.6459C70.7904 40.6634 70.6578 40.5583 70.6401 40.4138C70.6224 40.3131 70.6622 40.2256 70.7285 40.1687Z" fill="#3949AB"/>
<path d="M34.6017 36.6573C52.4286 62.8161 89.983 39.6038 75.6526 12.727C58.0511 -14.4825 19.2546 9.5529 34.6017 36.6573Z" fill="white"/>
<path d="M34.6017 36.6573C52.4286 62.8161 89.983 39.6038 75.6526 12.727C58.0511 -14.4825 19.2546 9.5529 34.6017 36.6573Z" fill="white"/>
<g opacity="0.25">
<g opacity="0.25">
<path opacity="0.25" d="M76.2759 37.8133C75.6659 38.9122 74.9719 39.9498 74.194 40.9305C73.6061 41.6791 72.974 42.3927 72.3021 43.0669C66.4983 48.881 57.786 51.8099 49.4892 49.7391C48.5698 49.5114 47.6548 49.2181 46.753 48.8635C42.3947 47.156 38.2573 43.9557 34.8449 38.9472C33.121 35.9001 32.0778 32.8924 31.6137 29.9897C34.646 32.1306 38.4253 36.3904 45.732 40.5802C45.6701 40.265 45.6082 39.9498 45.5463 39.6346L71.7054 37.8702C72.1651 38.3868 72.6071 38.9078 73.0314 39.4288C74.1807 38.8947 75.2593 38.3562 76.2759 37.8133Z" fill="#3949AB"/>
</g>
</g>
<path d="M34.6017 36.6573C52.4286 62.8161 89.983 39.6038 75.6526 12.727C58.0511 -14.4825 19.2546 9.5529 34.6017 36.6573Z" fill="white"/>
<path d="M54.6872 48.6575C53.2462 48.6575 51.8096 48.5261 50.3907 48.2547C43.9725 47.0376 38.3588 43.1324 34.1507 36.9593L34.1286 36.9199C30.4731 30.4667 29.589 23.7289 31.5649 17.4377C33.3285 11.8207 37.2449 6.97854 42.5934 3.80009C47.9331 0.626012 54.0507 -0.490388 59.8236 0.656658C66.3346 1.94818 71.966 6.01975 76.1166 12.4336L76.1387 12.473C79.5556 18.878 80.2982 25.5283 78.2958 31.7057C76.5012 37.2308 72.6202 41.9897 67.3645 45.1069C63.4261 47.4447 59.0412 48.6575 54.6872 48.6575ZM35.0701 36.3727C44.0079 49.4674 57.4455 49.7301 66.8031 44.1787C75.9486 38.7543 82.4685 26.6841 75.1839 12.9983C66.4053 -0.547303 52.4285 -0.788094 43.1548 4.72823C33.7883 10.2971 27.264 22.5731 35.0701 36.3727Z" fill="#3949AB"/>
<g opacity="0.25">
<g opacity="0.25">
<path opacity="0.25" d="M34.6016 36.6572C49.5995 59.5193 83.4321 45.0324 78.2339 19.342C77.1377 27.8179 74.2336 28.317 70.0078 32.8395C57.1007 47.6242 34.995 38.531 31.3041 21.7325C30.6897 27.008 31.9141 32.2529 34.6016 36.6572Z" fill="#3949AB"/>
</g>
</g>
<path d="M54.6873 48.872C53.233 48.872 51.7788 48.7363 50.3466 48.4649C43.871 47.239 38.2086 43.3032 33.9696 37.0776L33.9386 37.0251C30.2521 30.5237 29.3593 23.729 31.3528 17.3764C33.1297 11.7069 37.0814 6.82097 42.4786 3.61187C47.8624 0.41152 54.0375 -0.713636 59.8634 0.442166C66.4319 1.74682 72.1164 5.85342 76.2979 12.3154L76.3289 12.3723C79.7723 18.8299 80.5237 25.5415 78.4992 31.7758C76.6913 37.349 72.775 42.1517 67.4751 45.2952C63.5057 47.6505 59.081 48.872 54.6873 48.872ZM35.2559 36.2589C44.1096 49.231 57.4234 49.4893 66.6883 43.9905C75.7454 38.6187 82.2034 26.6622 74.9895 13.1078C66.2949 -0.306478 52.4507 -0.547271 43.2654 4.91214C33.9873 10.4285 27.5293 22.5863 35.2559 36.2589Z" fill="#293856"/>
<path d="M54.6873 48.872C53.233 48.872 51.7788 48.7363 50.3466 48.4649C43.871 47.239 38.2086 43.3032 33.9696 37.0776L33.9386 37.0251C30.2521 30.5237 29.3593 23.729 31.3528 17.3764C33.1297 11.7069 37.0814 6.82097 42.4786 3.61187C47.8624 0.41152 54.0375 -0.713636 59.8634 0.442166C66.4319 1.74682 72.1164 5.85342 76.2979 12.3154L76.3289 12.3723C79.7723 18.8299 80.5237 25.5415 78.4992 31.7758C76.6913 37.349 72.775 42.1517 67.4751 45.2952C63.5057 47.6505 59.081 48.872 54.6873 48.872ZM35.2559 36.2589C44.1096 49.231 57.4234 49.4893 66.6883 43.9905C75.7454 38.6187 82.2034 26.6622 74.9895 13.1078C66.2949 -0.306478 52.4507 -0.547271 43.2654 4.91214C33.9873 10.4285 27.5293 22.5863 35.2559 36.2589Z" fill="#3949AB"/>
<path d="M38.403 41.39C62.4978 55.4698 82.9548 27.6211 64.677 11.4705C43.0974 -5.39367 18.8744 20.8877 38.403 41.39Z" fill="#3949AB"/>
<path d="M31.9629 24.9768C31.8568 50.0192 68.0189 52.1075 71.9087 29.2279C60.3232 42.7079 38.7391 37.0952 31.9629 24.9768Z" fill="#00227B"/>
<path d="M52.685 48.1628C50.9877 48.1628 49.2991 47.9527 47.6592 47.528C42.2842 46.1314 37.5766 42.4977 34.0404 37.0163L34.036 37.012C28.2631 27.8881 29.2577 13.0203 39.9503 5.42443L40.0475 5.36751C45.8469 2.57433 52.8795 2.38607 59.3419 4.84653C65.7822 7.29823 70.8479 12.0747 73.2481 17.9456C75.4228 23.6896 75.3344 29.508 72.9961 34.7836C70.8788 39.5644 67.073 43.5046 62.277 45.8775C59.2226 47.3923 55.9339 48.1628 52.685 48.1628ZM35.1632 36.3071C42.9251 48.3511 54.2984 48.3555 61.6803 44.7042C70.1671 40.5056 76.4395 30.1297 72.0104 18.4228C69.7561 12.9021 64.9645 8.39712 58.8646 6.07238C52.7646 3.74764 46.1386 3.91401 40.6796 6.52332C30.6368 13.6989 29.713 27.7043 35.1632 36.3071Z" fill="#3949AB"/>
<path d="M51.5932 46.0001C47.1199 46.0001 42.4963 44.6604 38.0141 42.0423L37.9213 41.9898L37.8462 41.911C33.1298 36.9594 30.5793 31.3118 30.4643 25.5678C30.3627 20.4236 32.2369 15.5027 35.7377 11.7113C39.1634 8.00308 43.8047 5.75714 48.804 5.38063C54.3647 4.96472 60.0182 6.86479 65.1501 10.8751L65.1854 10.9057C69.4775 14.6971 71.9705 19.3728 72.3993 24.4295C72.7883 29.0089 71.4357 33.654 68.589 37.5111C65.5081 41.6877 60.9906 44.5553 55.872 45.5798C54.4707 45.86 53.0386 46.0001 51.5932 46.0001ZM38.8849 40.7902C51.1688 47.9176 62.0294 43.8373 67.3514 36.6179C72.1827 30.064 73.0756 19.9289 64.182 12.0528C53.4718 3.69509 42.7438 6.37007 36.8649 12.7357C30.8268 19.2678 29.1206 30.4712 38.8849 40.7902Z" fill="#3949AB"/>
<path d="M81.9825 29.2803C80.4619 40.3042 69.177 39.7219 69.5571 29.0527C70.7241 17.4377 82.787 18.0594 81.9825 29.2803Z" fill="white"/>
<g opacity="0.35">
<g opacity="0.35">
<path opacity="0.35" d="M74.9365 37.3358C71.5506 37.187 69.0531 33.1198 69.6056 28.4966C71.7804 33.3168 76.8372 25.2787 77.1776 22.9846C85.8855 25.0686 81.147 37.743 74.9365 37.3358Z" fill="#3949AB"/>
</g>
</g>
<path d="M75.2149 38.0627C75.0602 38.0627 74.9011 38.0539 74.7464 38.0452C71.6301 37.7825 68.5846 34.8886 68.7923 29.0264L68.7967 28.9783C69.4377 22.6038 73.3186 19.5655 76.8195 19.8632C79.9844 20.1302 83.1891 23.208 82.747 29.3329L82.7426 29.381C81.9072 35.4227 78.3445 38.0627 75.2149 38.0627ZM70.3217 29.1052C70.1582 33.9561 72.4876 36.329 74.879 36.5347C77.4118 36.7536 80.475 34.5471 81.2221 29.2059C81.5801 24.1186 79.1224 21.5838 76.6869 21.378C73.9419 21.1416 70.8698 23.7202 70.3217 29.1052Z" fill="#3949AB"/>
<path d="M82.4243 29.8889C81.1822 38.8245 72.7218 38.5268 73.0268 29.8977C73.9418 20.3754 83.136 20.7082 82.4243 29.8889Z" fill="white"/>
<path d="M77.1952 37.1389C77.0802 37.1389 76.9697 37.1345 76.8592 37.1257C74.5032 36.9243 72.2003 34.604 72.3682 29.8757L72.3727 29.8363C72.881 24.5432 75.9 22.004 78.6273 22.236C81.0496 22.4418 83.4764 24.9416 83.0918 29.937L83.0874 29.9764C82.389 34.9586 79.6131 37.1389 77.1952 37.1389ZM73.6899 29.9414C73.5573 33.794 75.2414 35.6678 76.9697 35.8167C78.8528 35.983 81.1557 34.1705 81.7657 29.8232C82.0751 25.7297 80.2982 23.7027 78.508 23.5494C76.4481 23.3655 74.1231 25.5108 73.6899 29.9414Z" fill="#3949AB"/>
<g opacity="0.7">
<g opacity="0.7">
<path opacity="0.7" d="M67.3381 24.2762C66.1048 28.7987 60.8933 27.4941 61.2956 23.405C62.0912 18.2783 68.2575 19.7231 67.3381 24.2762Z" fill="white"/>
</g>
</g>
<g opacity="0.7">
<g opacity="0.7">
<path opacity="0.7" d="M64.655 31.3905C64.0848 33.0936 61.7907 32.5638 62.2416 30.6594C62.8162 28.9519 65.1059 29.4817 64.655 31.3905Z" fill="white"/>
</g>
</g>
<g opacity="0.7">
<g opacity="0.7">
<path opacity="0.7" d="M34.4648 26.7279C31.1099 9.13692 49.5379 6.49696 55.2091 10.1351C43.3849 11.1639 38.2839 18.5059 34.4648 26.7279Z" fill="white"/>
</g>
</g>
<g opacity="0.25">
<g opacity="0.25">
<path opacity="0.25" d="M72.6115 31.9244C72.4259 30.6679 72.585 29.3589 73.0094 28.1549C74.7288 34.1529 80.7979 31.3816 82.1372 27.0298C83.6578 35.9216 74.5874 40.2558 72.6115 31.9244Z" fill="#3949AB"/>
</g>
</g>
<path d="M70.0522 22.5249C69.8267 22.5249 69.6322 22.4679 69.482 22.3979C68.4697 21.9294 68.3592 20.3796 68.3504 19.9199C68.3415 19.4996 68.6775 19.1538 69.1018 19.145C69.1062 19.145 69.1107 19.145 69.1195 19.145C69.535 19.145 69.8754 19.4734 69.8842 19.8849C69.893 20.2964 70.0035 20.7868 70.114 20.9794C70.1627 20.9575 70.2422 20.9094 70.3527 20.8218C70.6843 20.5591 71.1661 20.6117 71.4269 20.94C71.6921 21.2684 71.639 21.7456 71.3075 22.0039C70.8169 22.3979 70.3925 22.5249 70.0522 22.5249Z" fill="#3949AB"/>
<path d="M49.2164 60.107C50.2297 59.1034 50.2297 57.4762 49.2164 56.4726C48.2031 55.469 46.5603 55.469 45.547 56.4726C44.5337 57.4762 44.5337 59.1034 45.547 60.107C46.5603 61.1106 48.2031 61.1106 49.2164 60.107Z" fill="white"/>
<g opacity="0.35">
<g opacity="0.35">
<path opacity="0.35" d="M44.7948 58.482C44.9009 59.8962 46.1474 60.96 47.5752 60.8506C49.0029 60.7455 50.077 59.5109 49.9665 58.0968C49.9356 57.7071 49.8206 57.3394 49.635 57.0198C49.2858 57.9173 48.4415 58.5827 47.4072 58.6615C46.3773 58.7404 45.4402 58.2062 44.9584 57.37C44.8258 57.7115 44.7683 58.088 44.7948 58.482Z" fill="#3949AB"/>
</g>
</g>
<path d="M47.3806 61.5116C45.6965 61.5116 44.2643 60.2201 44.1361 58.5302C44.0698 57.6721 44.3483 56.8403 44.9141 56.1836C45.4799 55.5312 46.2711 55.1328 47.1375 55.0715C48.0039 55.0059 48.8437 55.2817 49.5067 55.8421C50.1654 56.4025 50.5676 57.1861 50.6295 58.0442C50.7665 59.8173 49.4183 61.3672 47.6281 61.5029C47.5441 61.5116 47.4602 61.5116 47.3806 61.5116ZM47.385 56.3762C47.3364 56.3762 47.2878 56.3762 47.2391 56.3806C46.7264 56.42 46.2579 56.652 45.9219 57.0417C45.586 57.4269 45.4224 57.9216 45.4622 58.4295C45.5418 59.4802 46.47 60.2726 47.5309 60.1938C48.5917 60.115 49.3918 59.1956 49.3122 58.1449C49.2327 57.1423 48.384 56.3762 47.385 56.3762Z" fill="#3949AB"/>
<path d="M50.5588 64.4409L64.266 64.2263C65.8882 64.2001 67.1966 62.8648 67.1701 61.258L67.0551 54.0343C67.033 52.6245 65.9943 51.46 64.6461 51.206C64.456 51.171 64.2571 51.1535 64.0538 51.1579L50.351 51.3724C48.7288 51.3987 47.4204 52.734 47.4469 54.3407L47.5353 60.0628L47.5574 61.5645C47.5883 63.1712 48.9365 64.4627 50.5588 64.4409Z" fill="white"/>
<g opacity="0.25">
<g opacity="0.25">
<path opacity="0.25" d="M50.5587 64.4406L64.2659 64.2261C65.8882 64.1998 67.1966 62.8645 67.17 61.2578L67.0551 54.034C67.033 52.6243 65.9942 51.4597 64.6461 51.2058C63.8769 51.7312 63.3863 52.0639 63.3863 52.0639C62.8117 57.8736 63.1388 62.1684 54.0419 61.7131C50.9079 61.5555 48.795 60.6755 47.5352 60.0582L47.5573 61.5599C47.5883 63.171 48.9365 64.4625 50.5587 64.4406Z" fill="#3949AB"/>
</g>
</g>
<path d="M50.5146 65.0973C48.5475 65.0973 46.9297 63.5299 46.8988 61.573L46.7839 54.3492C46.7529 52.3747 48.3486 50.7461 50.3422 50.7111L64.0494 50.4965C66.0297 50.4659 67.6873 52.0464 67.7226 54.0208L67.8375 61.2446C67.8508 62.199 67.4883 63.1009 66.8165 63.7882C66.1446 64.4756 65.2428 64.8652 64.2792 64.8784L50.572 65.0929C50.5543 65.0973 50.5322 65.0973 50.5146 65.0973ZM64.1068 51.8099C64.0936 51.8099 64.0847 51.8099 64.0715 51.8099L50.3643 52.0245C49.7543 52.0332 49.1841 52.2784 48.7597 52.7162C48.3309 53.154 48.1011 53.7231 48.1144 54.3273L48.2293 61.5511C48.2381 62.1552 48.4857 62.7156 48.9277 63.1403C49.3697 63.565 49.9443 63.7882 50.5543 63.7795L64.2616 63.565C64.8715 63.5562 65.4418 63.311 65.8661 62.8732C66.2949 62.4354 66.5247 61.8663 66.5115 61.2621L66.3965 54.0384C66.3744 52.8038 65.3534 51.8099 64.1068 51.8099Z" fill="#3949AB"/>
<path d="M50.0106 64.3968C50.1874 64.4318 50.3731 64.445 50.5632 64.4406L64.2704 64.2261C65.4594 64.2085 66.4805 63.4862 66.927 62.4661C67.0905 62.094 67.1789 61.6868 67.1701 61.2577L67.1214 58.0486L67.1038 56.9892L67.0551 54.034C67.0286 52.4272 65.6804 51.1314 64.0582 51.1576L61.0966 51.2058C62.4669 51.4378 63.5234 52.6155 63.5499 54.0384L63.6118 57.9392L63.6648 61.2621C63.6913 62.8689 62.3829 64.2085 60.7607 64.2304L50.0106 64.3968Z" fill="white"/>
<g opacity="0.25">
<g opacity="0.25">
<path opacity="0.25" d="M50.0106 64.3967C50.1874 64.4317 50.3731 64.4448 50.5632 64.4404L64.2703 64.2259C65.8926 64.1996 67.201 62.8643 67.1744 61.2576L67.1081 56.989C66.7766 57.7464 66.171 58.6833 65.1809 58.7971C64.6372 58.8584 64.0979 58.4819 63.6161 57.9391L63.6692 61.262C63.6957 62.8687 62.3873 64.2084 60.7651 64.2303L50.0106 64.3967Z" fill="#3949AB"/>
</g>
</g>
<path d="M50.5013 65.0972C50.2979 65.0972 50.0902 65.0797 49.8913 65.0403L50.0018 63.7357L60.7518 63.5693C61.3574 63.5606 61.9276 63.3154 62.3564 62.8776C62.7851 62.4398 63.015 61.8706 63.0017 61.2665L62.8868 54.0427C62.8691 52.9569 62.0691 52.0332 60.9861 51.8449L61.0878 50.5403L64.0493 50.4921C65.0129 50.4833 65.9235 50.838 66.6219 51.5034C67.3159 52.1689 67.7093 53.062 67.7226 54.0164L67.8375 61.2402C67.8552 62.1946 67.4927 63.0965 66.8164 63.7882C66.1445 64.4756 65.2428 64.8652 64.2792 64.8783L50.572 65.0929C50.5499 65.0972 50.5234 65.0972 50.5013 65.0972ZM63.3996 51.823C63.899 52.4316 64.1996 53.1977 64.2129 54.0252L64.3278 61.2489C64.3411 62.107 64.0493 62.9257 63.5012 63.5824L64.2615 63.5693C64.8671 63.5606 65.4373 63.3154 65.8661 62.8776C66.2948 62.4398 66.5247 61.8706 66.5114 61.2665L66.3965 54.0427C66.3876 53.4385 66.1401 52.8738 65.6981 52.4535C65.2649 52.0375 64.7035 51.8099 64.1068 51.8099C64.0935 51.8099 64.0847 51.8099 64.0714 51.8099L63.3996 51.823Z" fill="#3949AB"/>
<path d="M58.2011 57.7901C58.2055 58.0572 58.6343 60.2068 58.6343 60.2068C58.6343 60.2068 59.3239 60.1937 60.1726 60.1762C61.229 60.1543 62.0644 59.051 62.0379 57.7113C62.007 56.3716 61.1273 55.3078 60.0709 55.3297C59.3548 55.3428 58.5326 55.3603 58.5326 55.3603C58.5326 55.3603 58.1923 57.3523 58.2011 57.7901Z" fill="#22A7F0"/>
<g opacity="0.35">
<g opacity="0.35">
<path opacity="0.35" d="M58.2011 57.7901C58.2055 58.0572 58.6343 60.2068 58.6343 60.2068C58.6343 60.2068 59.3239 60.1937 60.1726 60.1762C61.229 60.1543 62.0644 59.051 62.0379 57.7113C62.007 56.3716 61.1273 55.3078 60.0709 55.3297C59.3548 55.3428 58.5326 55.3603 58.5326 55.3603C58.5326 55.3603 58.1923 57.3523 58.2011 57.7901Z" fill="#3949AB"/>
</g>
</g>
<path d="M58.2721 60.649L58.2014 60.29C58.0997 59.7777 57.7682 58.0834 57.7594 57.7989C57.7505 57.3435 58.0334 55.6273 58.0909 55.2859L58.1528 54.9269L60.0535 54.8875C60.0667 54.8875 60.08 54.8875 60.0933 54.8875C61.3751 54.8875 62.436 56.1396 62.4714 57.6982C62.5067 59.2743 61.4768 60.5833 60.1773 60.6096L58.2721 60.649ZM58.6434 57.777C58.6523 57.9302 58.8202 58.8452 58.997 59.7559L60.1596 59.7296C60.9729 59.7121 61.6138 58.8058 61.5917 57.7113C61.5696 56.6168 60.8889 55.7368 60.0756 55.7587L58.9086 55.785C58.7849 56.5424 58.639 57.5318 58.6434 57.777Z" fill="#3949AB"/>
<path d="M58.6346 60.2078C59.6938 60.1849 60.5293 59.0807 60.5006 57.7415C60.4719 56.4022 59.5899 55.335 58.5306 55.3578C57.4713 55.3807 56.6359 56.4849 56.6646 57.8241C56.6933 59.1634 57.5753 60.2306 58.6346 60.2078Z" fill="#22A7F0"/>
<g opacity="0.35">
<g opacity="0.35">
<path opacity="0.35" d="M60.4953 57.7422C60.5262 59.0818 59.6908 60.1851 58.6344 60.207C57.5735 60.2289 56.6939 59.1606 56.6674 57.821C56.6629 57.6415 56.6762 57.462 56.7027 57.2912C56.9945 58.2062 57.7105 58.8454 58.5327 58.8279C59.4477 58.8104 60.1947 57.983 60.3583 56.8928C60.4423 57.1555 60.4909 57.4445 60.4953 57.7422Z" fill="#3949AB"/>
</g>
</g>
<path d="M60.4953 57.7422C60.4997 57.8342 60.4953 57.9217 60.4864 58.0137C60.2522 56.9673 59.483 56.2099 58.5902 56.2274C57.6044 56.2493 56.8132 57.2081 56.7336 58.4252C56.6894 58.2326 56.6673 58.0312 56.6585 57.8254C56.6276 56.4857 57.463 55.3825 58.5194 55.3606C59.5847 55.3343 60.4688 56.4026 60.4953 57.7422Z" fill="white"/>
<path d="M58.5991 60.6446C57.967 60.6446 57.3703 60.3469 56.9194 59.804C56.4863 59.2787 56.2387 58.5782 56.2211 57.8339C56.1857 56.2578 57.2156 54.9488 58.5152 54.9225C59.1649 54.9094 59.7749 55.2071 60.2391 55.7631C60.6722 56.2885 60.9198 56.989 60.9375 57.7332C60.9551 58.4775 60.7341 59.1867 60.3275 59.7296C59.8943 60.3031 59.2931 60.6315 58.6433 60.6446C58.6301 60.6446 58.6168 60.6446 58.5991 60.6446ZM58.5594 55.7938C58.5505 55.7938 58.5461 55.7938 58.5373 55.7938C57.7239 55.8113 57.083 56.7175 57.1051 57.812C57.1184 58.3637 57.2952 58.8715 57.6046 59.248C57.8875 59.5895 58.2499 59.7822 58.6212 59.769C58.9925 59.7603 59.3462 59.5633 59.6158 59.2043C59.9075 58.819 60.0622 58.3024 60.0534 57.7507C60.0401 57.1991 59.8633 56.6913 59.5539 56.3148C59.2799 55.9776 58.9262 55.7938 58.5594 55.7938Z" fill="#3949AB"/>
<path d="M54.8197 64.76C54.5855 64.76 54.3866 64.5762 54.3777 64.3398L54.1876 59.5677L52.0217 58.2631C51.8935 58.1842 51.814 58.0485 51.8095 57.8953L51.6813 51.3545C51.6769 51.1137 51.8714 50.9123 52.1145 50.908C52.119 50.908 52.119 50.908 52.1234 50.908C52.3621 50.908 52.561 51.1006 52.5654 51.337L52.6892 57.637L54.8507 58.9373C54.9789 59.0117 55.0584 59.1474 55.0629 59.2963L55.2618 64.3047C55.2706 64.5455 55.0805 64.7513 54.8374 64.76C54.833 64.76 54.8286 64.76 54.8197 64.76Z" fill="#3949AB"/>
<path d="M80.9875 52.2695C80.9875 52.2695 82.4374 53.1451 82.4639 54.7563C82.4992 56.6169 81.1732 57.5232 81.1732 57.5232C81.1732 57.5232 76.6822 60.7629 66.2637 60.1281C66.2637 60.1281 63.6292 57.3875 66.6748 55.3167C66.6748 55.3123 76.196 56.8621 80.9875 52.2695Z" fill="white"/>
<g opacity="0.25">
<g opacity="0.25">
<path opacity="0.25" d="M82.4641 54.7168C82.5172 56.5993 81.1734 57.5231 81.1734 57.5231C81.1734 57.5231 76.6824 60.7585 66.2639 60.128C66.2639 60.128 64.2527 58.0353 65.7776 56.1221C65.7776 56.1353 65.7821 56.144 65.7821 56.1572C65.9766 57.3173 66.9976 58.1711 68.1867 58.2061C77.6195 58.4906 81.7171 55.5399 81.7171 55.5399C81.7171 55.5399 82.1105 55.2684 82.4641 54.7168Z" fill="#3949AB"/>
</g>
</g>
<path d="M68.9293 60.8637C68.0718 60.8637 67.17 60.8374 66.2197 60.7805L65.9589 60.763L65.7777 60.5747C65.7202 60.5134 64.372 59.0906 64.5532 57.3612C64.6593 56.3543 65.2428 55.4787 66.2948 54.7694L66.5158 54.6206L66.7766 54.6644C66.8695 54.6775 76.0282 56.1004 80.5192 51.7968L80.886 51.4421L81.3237 51.7092C81.3944 51.753 83.0829 52.795 83.1183 54.7432C83.1581 56.9278 81.611 58.0179 81.5447 58.0617C81.39 58.1799 77.5576 60.8637 68.9293 60.8637ZM66.5866 59.4846C76.3907 60.0187 80.7402 57.0197 80.7844 56.9891C80.833 56.9541 81.8276 56.2273 81.7966 54.7651C81.7834 54.012 81.3413 53.4517 81.0098 53.1321C76.373 57.0591 68.4563 56.2229 66.8429 56.004C66.2595 56.4506 65.9368 56.9541 65.8749 57.497C65.7865 58.3375 66.3125 59.1343 66.5866 59.4846Z" fill="#3949AB"/>
<path d="M91.4063 44.4897C91.3842 44.4897 91.3621 44.4897 91.34 44.4854C87.5783 44.0607 84.6256 40.405 82.8 33.908C82.7691 33.7898 82.7426 33.7066 82.7293 33.6541C82.6365 33.4614 82.663 33.225 82.8089 33.0499C83.0122 32.8091 83.3747 32.7785 83.6178 32.9799C83.7681 33.1024 83.7946 33.1988 83.9051 33.6015C85.5715 39.5294 88.2546 42.9924 91.4682 43.3514C91.782 43.3865 92.0119 43.671 91.9721 43.9819C91.9411 44.2752 91.6936 44.4897 91.4063 44.4897ZM82.8752 33.8511C82.8796 33.8511 82.8796 33.8511 82.8752 33.8511C82.8796 33.8511 82.8796 33.8511 82.8752 33.8511Z" fill="#3949AB"/>
<path d="M36.109 71.4977C36.3035 71.6947 36.4538 71.8698 36.613 72.0581C36.7677 72.2463 36.918 72.4346 37.0638 72.6272C37.3556 73.0125 37.6208 73.4153 37.8727 73.8268C38.1247 74.2383 38.3457 74.663 38.5446 75.1008C38.7479 75.5342 38.9071 75.9896 39.0485 76.4449C39.1104 76.6463 38.9999 76.8564 38.7966 76.9221C38.6109 76.979 38.4164 76.8914 38.3369 76.7251L38.328 76.7076C38.1379 76.3092 37.939 75.9151 37.6959 75.5474C37.4616 75.1752 37.2053 74.8162 36.9224 74.4748C36.6439 74.1333 36.3522 73.8049 36.0427 73.4941C35.888 73.3408 35.7289 73.1876 35.5698 73.0388C35.4106 72.8943 35.2338 72.7454 35.088 72.6316C34.752 72.3777 34.6901 71.9005 34.9465 71.5633C35.2029 71.2306 35.6847 71.1693 36.0251 71.4232C36.056 71.4495 36.0825 71.4758 36.109 71.4977Z" fill="#3949AB"/>
</g>
<defs>
<clipPath id="clip0">
<rect width="121" height="109" fill="white"/>
</clipPath>
</defs>
</svg>
