<svg width="85" height="5" viewBox="0 0 85 5" fill="none" xmlns="http://www.w3.org/2000/svg">
  <path d="M84.0116 0C82.2326 0 81.2442 0.813951 80.4535 1.6279C79.7616 2.2093 79.2674 2.67442 78.0814 2.67442C76.8953 2.67442 76.4012 2.2093 75.7093 1.6279C74.9186 0.93023 73.9302 0 72.1512 0C70.3721 0 69.3837 0.813951 68.593 1.6279C67.9012 2.2093 67.407 2.67442 66.2209 2.67442C65.1337 2.67442 64.5407 2.2093 63.8488 1.6279C63.0581 0.93023 62.0698 0 60.2907 0C58.5116 0 57.5233 0.813951 56.7326 1.6279C56.0407 2.2093 55.5465 2.67442 54.3605 2.67442C53.1744 2.67442 52.6802 2.2093 51.9884 1.6279C51.1977 0.93023 50.2093 0 48.4302 0C46.6512 0 45.6628 0.813951 44.8721 1.6279C44.1802 2.2093 43.686 2.67442 42.5 2.67442C41.4128 2.67442 40.8198 2.2093 40.1279 1.6279C39.3372 0.93023 38.3488 0 36.5698 0C34.7907 0 33.8023 0.813951 33.0116 1.6279C32.3198 2.2093 31.8256 2.67442 30.6395 2.67442C29.5523 2.67442 28.9593 2.2093 28.2674 1.6279C27.4767 0.93023 26.4884 0 24.7093 0C22.9302 0 21.9419 0.813951 21.1512 1.6279C20.4593 2.2093 19.9651 2.67442 18.7791 2.67442C17.593 2.67442 17.0988 2.2093 16.407 1.6279C15.6163 0.93023 14.6279 0 12.8488 0C11.0698 0 10.0814 0.813951 9.2907 1.6279C8.59884 2.2093 8.10465 2.67442 6.9186 2.67442C5.8314 2.67442 5.23837 2.2093 4.54651 1.6279C3.75581 0.93023 2.76744 0 0.988372 0C0.395349 0 0 0.465116 0 1.16279C0 1.86047 0.395349 2.32558 0.988372 2.32558C2.07558 2.32558 2.6686 2.7907 3.36046 3.37209C4.15116 4.06977 5.13953 5 6.9186 5C8.69767 5 9.68605 4.18604 10.4767 3.37209C11.1686 2.7907 11.6628 2.32558 12.8488 2.32558C14.0349 2.32558 14.5291 2.7907 15.2209 3.37209C16.0116 4.06977 17 5 18.7791 5C20.5581 5 21.5465 4.18604 22.3372 3.37209C23.0291 2.7907 23.5233 2.32558 24.7093 2.32558C25.7965 2.32558 26.3895 2.7907 27.0814 3.37209C27.8721 4.06977 28.8605 5 30.6395 5C32.4186 5 33.407 4.18604 34.1977 3.37209C34.8895 2.7907 35.3837 2.32558 36.5698 2.32558C37.657 2.32558 38.25 2.7907 38.9419 3.37209C39.7326 4.06977 40.7209 5 42.5 5C44.2791 5 45.2674 4.18604 46.0581 3.37209C46.75 2.7907 47.2442 2.32558 48.4302 2.32558C49.6163 2.32558 50.1105 2.7907 50.8023 3.37209C51.593 4.06977 52.5814 5 54.3605 5C56.1395 5 57.1279 4.18604 57.9186 3.37209C58.6105 2.7907 59.1047 2.32558 60.2907 2.32558C61.3779 2.32558 61.9709 2.7907 62.6628 3.37209C63.4535 4.06977 64.4419 5 66.2209 5C68 5 68.9884 4.18604 69.7791 3.37209C70.4709 2.7907 70.9651 2.32558 72.1512 2.32558C73.3372 2.32558 73.8314 2.7907 74.5232 3.37209C75.3139 4.06977 76.3023 5 78.0814 5C79.8605 5 80.8488 4.18604 81.6395 3.37209C82.3314 2.7907 82.8256 2.32558 84.0116 2.32558C84.6047 2.32558 85 1.86047 85 1.16279C85 0.465116 84.5058 0 84.0116 0Z" fill="gray"/>
</svg>
