<svg width="30" height="30" viewBox="0 0 30 30" fill="none" xmlns="http://www.w3.org/2000/svg">
<path d="M19.5 10.5C19.086 10.5 18.75 10.164 18.75 9.75C18.75 9.336 19.086 9 19.5 9C19.914 9 20.25 8.664 20.25 8.25C20.25 7.836 20.586 7.5 21 7.5C21.414 7.5 21.75 7.836 21.75 8.25C21.75 9.4905 20.7405 10.5 19.5 10.5Z" fill="#343434"/>
<path d="M19.6275 22.5C19.3185 22.5 19.029 22.308 18.921 22.0005C18.807 21.6795 18.75 21.3435 18.75 21C18.75 19.3455 20.0955 18 21.75 18C22.092 18 22.4295 18.057 22.7505 18.171C23.1405 18.309 23.346 18.738 23.208 19.128C23.07 19.518 22.641 19.7235 22.251 19.5855C22.0905 19.5285 21.9225 19.5 21.7515 19.5C20.925 19.5 20.2515 20.1735 20.2515 21C20.2515 21.1725 20.28 21.3405 20.337 21.4995C20.475 21.8895 20.271 22.3185 19.8795 22.4565C19.797 22.485 19.713 22.5 19.629 22.5H19.6275Z" fill="#343434"/>
<path d="M29.25 15.7505C29.25 12.062 28.104 8.54899 25.935 5.58199C25.3755 3.92299 24.108 2.56099 22.4265 1.90699C21.6105 0.753493 20.2665 -0.00100708 18.75 -0.00100708C17.187 -0.00100708 15.807 0.799993 15 2.01499C14.193 0.801493 12.813 -0.00100708 11.25 -0.00100708C9.7335 -0.00100708 8.3895 0.753493 7.5735 1.90699C5.8905 2.56099 4.623 3.92299 4.065 5.58199C1.896 8.54899 0.75 12.062 0.75 15.7505C0.75 16.733 0.834 17.7185 0.999 18.68C0.834 19.427 0.75 20.2055 0.75 21.0005C0.75 23.3765 1.512 25.6175 2.8965 27.3095C4.317 29.045 6.2175 30.0005 8.25 30.0005C8.6445 30.0005 9.0405 29.963 9.4275 29.891C9.774 29.963 10.1325 30.0005 10.5 30.0005C12.408 30.0005 14.0805 28.9775 15 27.452C15.9195 28.9775 17.592 30.0005 19.5 30.0005C19.8675 30.0005 20.226 29.963 20.5725 29.891C20.961 29.9645 21.3555 30.0005 21.75 30.0005C23.7825 30.0005 25.683 29.045 27.1035 27.3095C28.488 25.6175 29.25 23.3765 29.25 21.0005C29.25 20.204 29.166 19.427 29.001 18.68C29.166 17.7185 29.25 16.7345 29.25 15.7505ZM10.5 28.5005C8.433 28.5005 6.75 26.8175 6.75 24.7505C6.75 24.3365 6.414 24.0005 6 24.0005C5.586 24.0005 5.25 24.3365 5.25 24.7505C5.25 26.0645 5.7345 27.266 6.5355 28.1885C4.0605 27.2645 2.25 24.392 2.25 21.0005C2.25 19.2635 2.739 17.5685 3.6255 16.229C3.8535 15.884 3.759 15.4175 3.414 15.1895C3.069 14.9615 2.604 15.056 2.3745 15.401C2.3325 15.464 2.292 15.5285 2.2515 15.5915C2.2755 13.187 2.832 10.868 3.882 8.75599C4.116 9.85849 4.6575 10.8755 5.4645 11.699C5.6115 11.849 5.8065 11.924 6 11.924C6.189 11.924 6.3795 11.852 6.525 11.7095C6.8205 11.42 6.8265 10.9445 6.5355 10.649C5.706 9.80299 5.25 8.68399 5.25 7.50049C5.25 6.18349 5.8215 4.96699 6.765 4.13149C6.7545 4.25299 6.75 4.37599 6.75 4.50049C6.75 4.80349 6.78 5.10499 6.84 5.40049C6.912 5.75599 7.2255 6.00199 7.5735 6.00199C7.623 6.00199 7.6725 5.99749 7.7235 5.98699C8.13 5.90449 8.391 5.50849 8.31 5.10349C8.2695 4.90699 8.25 4.70449 8.25 4.50199C8.25 2.84749 9.5955 1.50199 11.25 1.50199C12.9045 1.50199 14.25 2.84749 14.25 4.50199V14.651C13.4535 13.937 12.402 13.502 11.25 13.502C10.9455 13.502 10.641 13.5335 10.344 13.5935C9.9375 13.676 9.6765 14.0735 9.759 14.4785C9.8415 14.8835 10.2375 15.146 10.644 15.0635C10.842 15.023 11.046 15.002 11.25 15.002C12.9045 15.002 14.25 16.3475 14.25 18.002V24.752C14.25 26.819 12.567 28.502 10.5 28.502V28.5005ZM23.4645 28.187C24.264 27.266 24.75 26.063 24.75 24.7505C24.75 24.3365 24.414 24.0005 24 24.0005C23.586 24.0005 23.25 24.3365 23.25 24.7505C23.25 26.8175 21.567 28.5005 19.5 28.5005C17.433 28.5005 15.75 26.8175 15.75 24.7505V18.0005C15.75 16.346 17.0955 15.0005 18.75 15.0005C18.954 15.0005 19.158 15.0215 19.356 15.062C19.761 15.1445 20.1585 14.8835 20.241 14.477C20.3235 14.0705 20.0625 13.6745 19.656 13.592C19.359 13.532 19.0545 13.5005 18.75 13.5005C17.598 13.5005 16.5465 13.9355 15.75 14.6495V4.50049C15.75 2.84599 17.0955 1.50049 18.75 1.50049C20.4045 1.50049 21.75 2.84599 21.75 4.50049C21.75 4.70299 21.7305 4.90549 21.69 5.10199C21.6075 5.50849 21.87 5.90449 22.2765 5.98549C22.3275 5.99599 22.377 6.00049 22.4265 6.00049C22.776 6.00049 23.088 5.75449 23.16 5.39899C23.22 5.10499 23.25 4.80199 23.25 4.50049C23.25 4.37599 23.244 4.25299 23.235 4.13149C24.1785 4.96849 24.75 6.18349 24.75 7.50049C24.75 8.68549 24.294 9.80299 23.4645 10.649C23.175 10.9445 23.1795 11.42 23.475 11.7095C23.6205 11.852 23.811 11.924 24 11.924C24.195 11.924 24.3885 11.849 24.5355 11.699C25.3425 10.8755 25.884 9.85999 26.118 8.75599C27.168 10.8665 27.7245 13.187 27.7485 15.5915C27.708 15.527 27.6675 15.464 27.6255 15.401C27.3975 15.056 26.931 14.9615 26.586 15.1895C26.241 15.4175 26.1465 15.884 26.3745 16.229C27.261 17.5685 27.75 19.2635 27.75 21.0005C27.75 24.3905 25.941 27.263 23.4645 28.187Z" fill="#343434"/>
<path d="M10.5 10.5C9.2595 10.5 8.25 9.4905 8.25 8.25C8.25 7.836 8.586 7.5 9 7.5C9.414 7.5 9.75 7.836 9.75 8.25C9.75 8.664 10.086 9 10.5 9C10.914 9 11.25 9.336 11.25 9.75C11.25 10.164 10.914 10.5 10.5 10.5Z" fill="#343434"/>
<path d="M10.3725 22.5C10.29 22.5 10.2045 22.4865 10.122 22.4565C9.73199 22.3185 9.52649 21.8895 9.66449 21.4995C9.72149 21.339 9.74999 21.171 9.74999 21C9.74999 20.1735 9.07649 19.5 8.24999 19.5C8.07749 19.5 7.90949 19.5285 7.75049 19.5855C7.36049 19.7235 6.93149 19.5195 6.79349 19.128C6.65549 18.7365 6.85949 18.309 7.25099 18.171C7.57199 18.057 7.90799 18 8.25149 18C9.90599 18 11.2515 19.3455 11.2515 21C11.2515 21.342 11.1945 21.6795 11.0805 22.0005C10.971 22.308 10.6815 22.5 10.374 22.5H10.3725Z" fill="#343434"/>
</svg>
