<svg width="30" height="30" viewBox="0 0 30 30" fill="none" xmlns="http://www.w3.org/2000/svg">
<path d="M13.5 6.75C13.5 7.164 13.164 7.5 12.75 7.5C12.336 7.5 12 7.164 12 6.75C12 6.336 12.336 6 12.75 6C13.164 6 13.5 6.336 13.5 6.75Z" fill="#343434"/>
<path d="M16.5 9.75C16.5 10.164 16.164 10.5 15.75 10.5C15.336 10.5 15 10.164 15 9.75C15 9.336 15.336 9 15.75 9C16.164 9 16.5 9.336 16.5 9.75Z" fill="#343434"/>
<path d="M16.5 5.25C16.5 5.664 16.164 6 15.75 6C15.336 6 15 5.664 15 5.25C15 4.836 15.336 4.5 15.75 4.5C16.164 4.5 16.5 4.836 16.5 5.25Z" fill="#343434"/>
<path d="M13.5 11.25C13.5 11.664 13.164 12 12.75 12C12.336 12 12 11.664 12 11.25C12 10.836 12.336 10.5 12.75 10.5C13.164 10.5 13.5 10.836 13.5 11.25Z" fill="#343434"/>
<path d="M27 9.75C27 10.164 26.664 10.5 26.25 10.5C25.836 10.5 25.5 10.164 25.5 9.75C25.5 9.336 25.836 9 26.25 9C26.664 9 27 9.336 27 9.75Z" fill="#343434"/>
<path d="M6 11.25C6 11.664 5.664 12 5.25 12C4.836 12 4.5 11.664 4.5 11.25C4.5 10.836 4.836 10.5 5.25 10.5C5.664 10.5 6 10.836 6 11.25Z" fill="#343434"/>
<path d="M16.5 15.75C16.5 16.164 16.164 16.5 15.75 16.5C15.336 16.5 15 16.164 15 15.75C15 15.336 15.336 15 15.75 15C16.164 15 16.5 15.336 16.5 15.75Z" fill="#343434"/>
<path d="M26.25 4.5C24.183 4.5 22.5 6.183 22.5 8.25V9H21.75C21.336 9 21 9.336 21 9.75C21 10.164 21.336 10.5 21.75 10.5H22.5V11.25C22.5 11.664 22.164 12 21.75 12H19.5V6H20.25C20.664 6 21 5.664 21 5.25C21 4.836 20.664 4.5 20.25 4.5H19.446C19.0815 1.959 16.89 0 14.25 0C11.355 0 9 2.355 9 5.25V9H8.25C7.836 9 7.5 8.664 7.5 8.25V6C7.5 4.3455 6.1545 3 4.5 3C2.8455 3 1.5 4.3455 1.5 6V7.5H0.75C0.336 7.5 0 7.836 0 8.25C0 8.664 0.336 9 0.75 9H1.5V12C1.5 13.6545 2.8455 15 4.5 15H9V16.5H8.25C7.836 16.5 7.5 16.836 7.5 17.25C7.5 17.664 7.836 18 8.25 18H9V19.9155C8.3115 20.043 7.7385 20.196 7.293 20.37C6.465 20.694 6.0315 21.138 6.003 21.69C6.0015 21.7035 6.0015 21.7185 6.0015 21.732C6.0015 21.738 6 21.744 6 21.75C6 21.756 6 21.759 6 21.765C6 21.7755 6 21.7875 6.0015 21.7995C6.0075 21.93 6.033 22.0515 6.0795 22.164L7.5045 27.8655C7.6095 28.986 9.2685 29.4015 9.825 29.541C11.016 29.838 12.588 30.003 14.25 30.003C15.912 30.003 17.484 29.8395 18.675 29.541C19.2315 29.4015 20.889 28.9875 20.9955 27.8655L22.4205 22.164C22.4655 22.0515 22.4925 21.93 22.4985 21.7995C22.5 21.789 22.5 21.777 22.5 21.7665C22.5 21.762 22.5 21.7575 22.5 21.7515C22.5 21.7455 22.4985 21.7395 22.4985 21.7335C22.4985 21.7275 22.497 21.705 22.497 21.6915C22.4685 21.1395 22.035 20.6955 21.207 20.3715C20.7615 20.1975 20.1885 20.0445 19.5 19.917V18.0015H26.25C28.317 18.0015 30 16.3185 30 14.2515V8.2515C30 6.1845 28.317 4.5015 26.25 4.5015V4.5ZM9 21.444V22.0575C8.4795 21.9495 8.1225 21.8415 7.884 21.7515C8.124 21.66 8.4795 21.552 9 21.4455V21.444ZM17.919 28.173C16.896 28.3845 15.594 28.5 14.25 28.5C12.906 28.5 11.604 28.383 10.581 28.173C9.5745 27.9645 9.1245 27.7245 8.988 27.6135L7.92 23.3415C8.2095 23.4225 8.5095 23.4885 8.799 23.547C10.263 23.8395 12.198 24.0015 14.25 24.0015C16.302 24.0015 18.237 23.841 19.701 23.547C19.9905 23.4885 20.2905 23.4225 20.58 23.3415L19.512 27.6135C19.3755 27.7245 18.9255 27.966 17.919 28.173ZM20.616 21.75C20.376 21.84 20.0205 21.948 19.5 22.056V21.4425C20.0205 21.5505 20.3775 21.6585 20.616 21.7485V21.75ZM28.5 14.25C28.5 15.4905 27.4905 16.5 26.25 16.5H18.75C18.336 16.5 18 16.836 18 17.25V22.293C16.8765 22.4265 15.579 22.5 14.25 22.5C12.921 22.5 11.6235 22.428 10.5 22.293V14.25C10.5 13.836 10.164 13.5 9.75 13.5H4.5C3.6735 13.5 3 12.8265 3 12V6C3 5.1735 3.6735 4.5 4.5 4.5C5.3265 4.5 6 5.1735 6 6V8.25C6 9.4905 7.0095 10.5 8.25 10.5H9.75C10.164 10.5 10.5 10.164 10.5 9.75V5.25C10.5 3.183 12.183 1.5 14.25 1.5C16.317 1.5 18 3.183 18 5.25V12.75C18 13.164 18.336 13.5 18.75 13.5H21.75C22.9905 13.5 24 12.4905 24 11.25V8.25C24 7.0095 25.0095 6 26.25 6C27.4905 6 28.5 7.0095 28.5 8.25V14.25Z" fill="#343434"/>
</svg>
