<svg width="66" height="102" viewBox="0 0 66 102" fill="none" xmlns="http://www.w3.org/2000/svg">
<path d="M45.3929 83.7178C45.3479 83.1797 44.7971 82.72 43.8641 82.3389C44.8758 81.7783 45.4379 81.1841 45.3929 80.6012C45.2468 78.8298 39.615 77.8321 32.8142 78.3814C26.0133 78.9307 20.6176 80.8142 20.7525 82.5855C20.7975 83.1236 21.3483 83.5833 22.2813 83.9644C21.2696 84.525 20.7075 85.1192 20.7525 85.7021C20.7975 86.2403 21.3483 86.6999 22.2813 87.0811C21.2696 87.6416 20.7075 88.2358 20.7525 88.8188C20.7975 89.3569 21.3483 89.8165 22.2813 90.1977C21.2696 90.7583 20.7075 91.3524 20.7525 91.9354C20.82 92.7202 21.9553 93.348 23.7876 93.7628C23.7651 94.3458 23.7764 94.9736 23.8326 95.6799C24.1024 98.9422 27.7782 101.51 32.6568 101.51C37.5354 101.51 41.7508 98.0117 41.7958 94.7381C41.807 93.931 41.7733 93.2247 41.7059 92.5969C44.0328 91.8233 45.4604 90.8704 45.3817 89.9511C45.3367 89.413 44.7859 88.9533 43.8529 88.5721C44.8646 88.0116 45.4266 87.4174 45.3817 86.8344C45.3367 86.2963 44.7859 85.8367 43.8529 85.4555C44.8758 84.895 45.4379 84.3008 45.3929 83.7178Z" fill="#00227B"/>
<path d="M29.6668 94.4699C27.6434 94.4699 25.7999 94.3242 24.2711 94.0327C24.1811 94.0103 24.1249 93.9318 24.1362 93.8421C24.1587 93.7524 24.2374 93.6964 24.3273 93.7076C26.7216 94.1672 29.9141 94.2681 33.3201 93.9878C36.1079 93.7636 38.7158 93.3152 40.8629 92.6874C40.9528 92.6649 41.0427 92.7098 41.0652 92.7995C41.0877 92.8892 41.0427 92.9788 40.9528 93.0013C38.7833 93.6291 36.1641 94.0887 33.3539 94.313C32.0836 94.4139 30.8471 94.4699 29.6668 94.4699Z" fill="#3949AB"/>
<path d="M29.702 91.342C27.0829 91.342 24.7335 91.0953 23.081 90.6245C22.9911 90.602 22.9461 90.5124 22.9686 90.4227C22.9911 90.333 23.081 90.2881 23.171 90.3106C25.5316 90.9832 29.3198 91.185 33.3217 90.8711C37.2785 90.5572 40.9656 89.75 43.1913 88.7298C43.27 88.6962 43.3712 88.7298 43.4049 88.8083C43.4386 88.8867 43.4049 88.9876 43.3262 89.0213C41.0668 90.0639 37.3347 90.8711 33.3441 91.1962C32.1076 91.2971 30.8823 91.342 29.702 91.342Z" fill="#3949AB"/>
<path d="M29.6673 88.2365C26.8345 88.2365 24.3503 87.945 22.6866 87.3957C22.5966 87.362 22.5517 87.2723 22.5854 87.1939C22.6191 87.1042 22.7091 87.0593 22.7878 87.093C25.1147 87.8553 29.049 88.1132 33.3207 87.7656C37.2775 87.4517 40.9646 86.6445 43.1903 85.6243C43.269 85.5907 43.3702 85.6243 43.4039 85.7028C43.4376 85.7813 43.4039 85.8822 43.3252 85.9158C41.0658 86.9584 37.3337 87.7656 33.3431 88.0907C32.0841 88.1804 30.8476 88.2365 29.6673 88.2365Z" fill="#3949AB"/>
<path d="M29.6893 85.1086C27.4411 85.1086 25.3952 84.9292 23.8102 84.5704C23.7203 84.548 23.6641 84.4583 23.6866 84.3798C23.7091 84.2902 23.799 84.2341 23.8777 84.2565C26.272 84.7834 29.7118 84.918 33.3202 84.6377C37.2433 84.3238 40.9192 83.5278 43.1449 82.5188C43.2236 82.4852 43.3248 82.5188 43.3585 82.5973C43.3922 82.6758 43.3585 82.7767 43.2798 82.8103C41.0204 83.8417 37.3108 84.6377 33.3427 84.9628C32.0949 85.0637 30.8696 85.1086 29.6893 85.1086Z" fill="#3949AB"/>
<path d="M16.1999 67.9769C15.3793 65.0621 13.9742 62.3266 12.0857 59.9611C8.03891 54.8713 1.42915 44.5236 0.619797 30.3979C-0.571757 9.83702 17.695 -0.443402 34.3767 0.946753C51.0473 2.34812 67.5042 14.725 65.7056 33.8396C64.5928 45.5999 57.9943 54.5238 53.0819 59.6472C49.9569 62.8983 47.7311 66.8894 46.5284 71.2281C45.0558 76.542 41.5485 83.1565 33.1964 83.5601C22.3938 84.087 17.9198 74.0532 16.1999 67.9769Z" fill="#FFC85D"/>
<path d="M35.9495 79.4681L41.7836 41.62C41.9073 40.8352 42.2895 40.3083 42.6492 40.4428C43.0089 40.5774 43.2 41.3173 43.0764 42.1021C43.0764 42.1245 43.0651 42.1469 43.0651 42.1693L36.4217 79.6587C36.3767 79.9389 36.2306 80.1183 36.0957 80.0511C35.972 80.0062 35.9046 79.7371 35.9495 79.4681Z" fill="white"/>
<path d="M29.891 79.7708L24.0569 41.9227C23.9333 41.138 23.551 40.611 23.1913 40.7456C22.8316 40.8801 22.6405 41.62 22.7642 42.4048C22.7642 42.4272 22.7754 42.4496 22.7754 42.4721L29.4189 79.9614C29.4639 80.2417 29.61 80.4211 29.7449 80.3538C29.8798 80.309 29.936 80.0399 29.891 79.7708Z" fill="white"/>
<path opacity="0.79" d="M41.7518 38.3694C41.6057 38.134 41.2572 38.0443 40.9874 38.1676L37.7387 39.6811L36.6146 36.4747C36.5584 36.3066 36.4123 36.1608 36.2212 36.0824C35.8502 35.9254 35.4006 36.0712 35.2207 36.3851L35.2095 36.3963L32.5341 41.2506L30.0498 34.3335V34.3222C29.9936 34.1541 29.8587 33.9971 29.6789 33.8962C29.263 33.672 28.7121 33.7729 28.4536 34.1317L24.7215 39.2551C24.5642 39.4681 24.6204 39.7483 24.8564 39.9053C25.1037 40.0735 25.4635 40.0286 25.6546 39.8156L28.9482 36.1608L31.9046 42.7417C31.9496 42.8426 32.0395 42.9435 32.1631 42.9995C32.4442 43.134 32.7927 43.0444 32.9388 42.7977L35.794 38.2237L36.8732 40.5331L36.8844 40.5555C36.8956 40.5667 36.8956 40.5892 36.9069 40.6004C37.053 40.8358 37.4015 40.9255 37.6713 40.8022L41.527 39.0084C41.7968 38.9075 41.8979 38.6048 41.7518 38.3694Z" fill="white"/>
<path opacity="0.79" d="M53.2065 54.6018C53.094 54.6018 52.9704 54.5682 52.8692 54.4897C52.6219 54.2991 52.5657 53.9516 52.7568 53.6937C53.7573 52.3484 54.6678 50.9695 55.4772 49.5793C55.6346 49.3102 55.983 49.2206 56.2528 49.3663C56.5226 49.5233 56.6125 49.8708 56.4664 50.1399C55.6345 51.5636 54.7015 52.9874 53.6786 54.3664C53.5549 54.5233 53.3751 54.6018 53.2065 54.6018Z" fill="white"/>
<path opacity="0.79" d="M58.0062 46.3847C57.9275 46.3847 57.8488 46.3735 57.7814 46.3399C57.4891 46.2166 57.3654 45.8802 57.4891 45.5887C63.6717 31.3845 58.3322 19.4 58.276 19.2879C58.1411 19.0076 58.276 18.6713 58.557 18.5368C58.838 18.4022 59.1753 18.5256 59.3101 18.817C59.3664 18.9404 64.9195 31.3621 58.5233 46.0484C58.4333 46.2614 58.2198 46.3847 58.0062 46.3847Z" fill="white"/>
</svg>
