<svg width="295" height="219" viewBox="0 0 295 219" fill="none" xmlns="http://www.w3.org/2000/svg">
<g clip-path="url(#clip0)">
<path d="M273.951 367.911C249.839 341.555 190.475 284.155 125.277 260.331C119.847 258.347 115.441 254.3 112.934 249.109L103.177 228.829C103.177 228.829 55.638 217.719 26.3438 248.302C26.3438 248.302 28.1311 277.394 64.9231 288.034C99.2646 297.966 201.03 338.281 261.058 383.45C262.429 384.481 264.34 384.537 265.711 383.483C270.489 379.795 273.468 375.187 274.749 371.936C275.289 370.557 274.952 368.999 273.951 367.911Z" fill="url(#paint0_linear)"/>
<path d="M21.1842 247.911C21.1842 247.911 30.8853 252.149 47.5108 244.48C64.1364 236.812 109.348 236.05 109.348 236.05C109.348 236.05 94.7009 181.385 127.244 142.27C127.244 142.27 153.458 191.206 171.882 198.504L180.133 198.886V163.975C180.133 163.975 173.13 120.88 128.874 88.6934L115.092 76.3053C115.092 76.3053 66.6319 66.563 33.6731 124.21C0.725454 181.879 21.1842 247.911 21.1842 247.911Z" fill="#3949AB"/>
<path d="M182.92 97.1688C183.381 94.7472 183.55 89.0745 177.693 82.1686C169.847 72.9308 159.797 77.6393 159.797 77.6393C150.883 82.617 147.117 98.8728 147.117 98.8728L156.537 93.8615C157.965 97.9984 171.881 102.449 171.881 102.449L171.96 102.415C172.095 111.407 171.881 137.629 165.485 155.858C162.978 162.999 157.886 176.273 174.703 199.02L183.965 198.639C183.977 198.65 204.739 163.493 182.92 97.1688Z" fill="url(#paint1_linear)"/>
<path d="M135.808 43.8711L110.01 80.217C108.335 82.5825 108.56 85.7776 110.55 87.8965C114.023 91.5961 119.891 96.8091 126.208 98.0087C128.176 98.3787 130.165 97.5603 131.256 95.8899L144.981 74.8806C144.981 74.8694 147.6 41.8644 135.808 43.8711Z" fill="url(#paint2_linear)"/>
<path d="M152.952 20.2505C153.379 20.8222 167.341 65.9687 167.341 65.9687L141.329 73.3679L121.725 32.5376C121.713 32.5489 145.747 10.6875 152.952 20.2505Z" fill="url(#paint3_linear)"/>
<path d="M132.043 39.2421L140.328 60.6325C140.508 61.1034 140.755 61.5294 141.07 61.9218C142.464 63.6595 146.499 67.7627 150.984 63.3792C154.379 60.0608 157.572 57.0002 160.618 55.4755C163.305 54.1302 166.553 55.5988 167.408 58.4688C168.689 62.7738 170.713 70.1618 171.769 77.2023C172.151 79.7472 170.477 82.1575 167.947 82.6844C162.653 83.7943 153.413 85.3975 145.308 85.2181C143.509 85.1733 141.902 84.1194 141.104 82.5163C138.102 76.4736 130.582 61.4846 127.749 57.4823C125.141 53.8051 119.262 53.8275 116.272 54.1078C114.878 54.2423 113.507 53.7715 112.484 52.8185C110.089 50.5763 106.886 46.0695 111.45 40.4641C113.035 38.5134 112.9 35.7443 111.157 33.9393C108.628 31.3272 106.537 27.1567 110.528 21.91C114.754 16.3606 120.465 16.6633 124.309 17.762C126.187 18.3001 128.098 17.4817 129.334 15.9682C129.694 15.531 130.2 15.1947 130.919 15.0713C133.269 14.6902 135.078 12.8852 135.146 10.5197C135.247 7.01067 136.764 2.9299 142.565 0.945564C153.907 -2.94463 161.371 7.88513 162.327 16.0915C163.271 24.2979 150.737 27.8182 143.284 27.4818C138.125 27.2464 134.314 31.9662 132.47 34.881C131.65 36.1927 131.481 37.8071 132.043 39.2421Z" fill="url(#paint4_linear)"/>
<path d="M130.964 65.5661C130.964 65.5661 128.693 51.3282 122.713 50.8013C116.733 50.2744 111.067 55.3305 117.227 63.1781C124.905 72.9429 130.964 65.5661 130.964 65.5661Z" fill="url(#paint5_linear)"/>
<path d="M66.2264 81.5867C66.2264 81.5867 14.2027 114.67 2.81553 153.09C-8.57168 191.51 16.9118 199.066 41.1813 202.463L43.0024 173.124C43.0024 173.124 26.0059 173.124 36.8423 157.092C47.6899 141.061 76.8268 130.365 76.8268 130.365C76.8268 130.365 150.681 60.8913 66.2264 81.5867Z" fill="#3949AB"/>
<path d="M43.013 173.807C42.7208 173.807 35.6839 173.751 33.3232 169.312C31.7045 166.285 32.705 162.047 36.3021 156.733C47.1385 140.702 75.4098 130.197 76.6126 129.76C76.9611 129.636 77.3433 129.816 77.4669 130.152C77.5906 130.5 77.422 130.881 77.0735 131.004C76.7812 131.105 48.0041 141.8 37.415 157.473C34.1214 162.35 33.1434 166.117 34.5035 168.673C36.4932 172.406 42.9456 172.462 43.013 172.462C43.384 172.462 43.6875 172.765 43.6875 173.135C43.6763 173.505 43.3728 173.807 43.013 173.807Z" fill="url(#paint6_linear)"/>
<path d="M41.1813 202.474C41.1813 202.474 33.5824 189.951 43.5869 174.984L110.764 186.072C110.764 186.072 142.924 180.646 144.464 180.758C146.004 180.87 166.992 193.763 166.992 193.763C166.992 193.763 166.283 195.254 161.292 194.985C156.301 194.704 159.572 195.59 159.572 195.59L159.393 198.101C159.393 198.101 155.919 198.897 153.131 195.938C150.343 192.978 142.587 191.543 142.587 191.543C142.587 191.543 126.108 203.684 109.921 197.81L41.1813 202.474Z" fill="url(#paint7_linear)"/>
<path d="M138.923 413.821C138.395 413.821 137.867 413.709 137.349 413.485C135.326 412.599 134.393 410.2 135.259 408.126L218.937 209.39C219.803 207.327 222.152 206.363 224.176 207.26C226.199 208.145 227.132 210.544 226.266 212.618L142.588 411.355C141.947 412.891 140.474 413.821 138.923 413.821Z" fill="url(#paint8_linear)"/>
<path d="M233.203 413.82C231.652 413.82 230.19 412.901 229.538 411.354L145.848 212.618C144.983 210.555 145.916 208.156 147.939 207.259C149.963 206.373 152.312 207.326 153.178 209.389L236.856 408.125C237.722 410.188 236.789 412.587 234.765 413.484C234.26 413.708 233.731 413.82 233.203 413.82Z" fill="url(#paint9_linear)"/>
<path d="M295.096 203.459C295.219 202.226 295.051 200.948 294.646 199.984C294.241 199.02 293.634 198.459 292.994 198.459H76.1532C75.3101 198.459 74.5232 199.3 74.0736 200.69C73.6239 202.08 73.5565 203.829 73.9162 205.331L76.2656 215.298C76.8052 217.585 77.9742 219.042 79.2557 219.042H291.51C292.701 219.042 293.724 217.383 293.96 215.085L295.096 203.459Z" fill="#00227B"/>
<path d="M273.951 367.911C249.839 341.555 190.475 284.155 125.277 260.331C119.847 258.347 115.441 254.3 112.934 249.109L103.177 228.829C103.177 228.829 55.638 217.719 26.3438 248.302C26.3438 248.302 28.1311 277.394 64.9231 288.034C99.2646 297.966 201.03 338.281 261.058 383.45C262.429 384.481 264.34 384.537 265.711 383.483C270.489 379.795 273.468 375.187 274.749 371.936C275.289 370.557 274.952 368.999 273.951 367.911Z" fill="url(#paint10_linear)"/>
<path d="M21.1842 247.911C21.1842 247.911 30.8853 252.149 47.5108 244.48C64.1364 236.812 109.348 236.05 109.348 236.05C109.348 236.05 94.7009 181.385 127.244 142.27C127.244 142.27 153.458 191.206 171.882 198.504L180.133 198.886V163.975C180.133 163.975 173.13 120.88 128.874 88.6934L115.092 76.3053C115.092 76.3053 66.6319 66.563 33.6731 124.21C0.725454 181.879 21.1842 247.911 21.1842 247.911Z" fill="#3949AB"/>
<path d="M182.92 97.1688C183.381 94.7472 183.55 89.0745 177.693 82.1686C169.847 72.9308 159.797 77.6393 159.797 77.6393C150.883 82.617 147.117 98.8728 147.117 98.8728L156.537 93.8615C157.965 97.9984 171.881 102.449 171.881 102.449L171.96 102.415C172.095 111.407 171.881 137.629 165.485 155.858C162.978 162.999 157.886 176.273 174.703 199.02L183.965 198.639C183.977 198.65 204.739 163.493 182.92 97.1688Z" fill="url(#paint11_linear)"/>
<path d="M135.808 43.8711L110.01 80.217C108.335 82.5825 108.56 85.7776 110.55 87.8965C114.023 91.5961 119.891 96.8091 126.208 98.0087C128.176 98.3787 130.165 97.5603 131.256 95.8899L144.981 74.8806C144.981 74.8694 147.6 41.8644 135.808 43.8711Z" fill="url(#paint12_linear)"/>
<path d="M152.952 20.2505C153.379 20.8222 167.341 65.9687 167.341 65.9687L141.329 73.3679L121.725 32.5376C121.713 32.5489 145.747 10.6875 152.952 20.2505Z" fill="url(#paint13_linear)"/>
<path d="M132.043 39.2421L140.328 60.6325C140.508 61.1034 140.755 61.5294 141.07 61.9218C142.464 63.6595 146.499 67.7627 150.984 63.3792C154.379 60.0608 157.572 57.0002 160.618 55.4755C163.305 54.1302 166.553 55.5988 167.408 58.4688C168.689 62.7738 170.713 70.1618 171.769 77.2023C172.151 79.7472 170.477 82.1575 167.947 82.6844C162.653 83.7943 153.413 85.3975 145.308 85.2181C143.509 85.1733 141.902 84.1194 141.104 82.5163C138.102 76.4736 130.582 61.4846 127.749 57.4823C125.141 53.8051 119.262 53.8275 116.272 54.1078C114.878 54.2423 113.507 53.7715 112.484 52.8185C110.089 50.5763 106.886 46.0695 111.45 40.4641C113.035 38.5134 112.9 35.7443 111.157 33.9393C108.628 31.3272 106.537 27.1567 110.528 21.91C114.754 16.3606 120.465 16.6633 124.309 17.762C126.187 18.3001 128.098 17.4817 129.334 15.9682C129.694 15.531 130.2 15.1947 130.919 15.0713C133.269 14.6902 135.078 12.8852 135.146 10.5197C135.247 7.01067 136.764 2.9299 142.565 0.945564C153.907 -2.94463 161.371 7.88513 162.327 16.0915C163.271 24.2979 150.737 27.8182 143.284 27.4818C138.125 27.2464 134.314 31.9662 132.47 34.881C131.65 36.1927 131.481 37.8071 132.043 39.2421Z" fill="url(#paint14_linear)"/>
<path d="M130.964 65.5661C130.964 65.5661 128.693 51.3282 122.713 50.8013C116.733 50.2744 111.067 55.3305 117.227 63.1781C124.905 72.9429 130.964 65.5661 130.964 65.5661Z" fill="url(#paint15_linear)"/>
<path d="M66.2264 81.5867C66.2264 81.5867 14.2027 114.67 2.81553 153.09C-8.57168 191.51 16.9118 199.066 41.1813 202.463L43.0024 173.124C43.0024 173.124 26.0059 173.124 36.8423 157.092C47.6899 141.061 76.8268 130.365 76.8268 130.365C76.8268 130.365 150.681 60.8913 66.2264 81.5867Z" fill="#3949AB"/>
<path d="M43.013 173.807C42.7208 173.807 35.6839 173.751 33.3232 169.312C31.7045 166.285 32.705 162.047 36.3021 156.733C47.1385 140.702 75.4098 130.197 76.6126 129.76C76.9611 129.636 77.3433 129.816 77.4669 130.152C77.5906 130.5 77.422 130.881 77.0735 131.004C76.7812 131.105 48.0041 141.8 37.415 157.473C34.1214 162.35 33.1434 166.117 34.5035 168.673C36.4932 172.406 42.9456 172.462 43.013 172.462C43.384 172.462 43.6875 172.765 43.6875 173.135C43.6763 173.505 43.3728 173.807 43.013 173.807Z" fill="url(#paint16_linear)"/>
<path d="M41.1813 202.474C41.1813 202.474 33.5824 189.951 43.5869 174.984L110.764 186.072C110.764 186.072 142.924 180.646 144.464 180.758C146.004 180.87 166.992 193.763 166.992 193.763C166.992 193.763 166.283 195.254 161.292 194.985C156.301 194.704 159.572 195.59 159.572 195.59L159.393 198.101C159.393 198.101 155.919 198.897 153.131 195.938C150.343 192.978 142.587 191.543 142.587 191.543C142.587 191.543 126.108 203.684 109.921 197.81L41.1813 202.474Z" fill="url(#paint17_linear)"/>
<path d="M138.923 413.821C138.395 413.821 137.867 413.709 137.349 413.485C135.326 412.599 134.393 410.2 135.259 408.126L218.937 209.39C219.803 207.327 222.152 206.363 224.176 207.26C226.199 208.145 227.132 210.544 226.266 212.618L142.588 411.355C141.947 412.891 140.474 413.821 138.923 413.821Z" fill="url(#paint18_linear)"/>
<path d="M233.203 413.82C231.652 413.82 230.19 412.901 229.538 411.354L145.848 212.618C144.983 210.555 145.916 208.156 147.939 207.259C149.963 206.373 152.312 207.326 153.178 209.389L236.856 408.125C237.722 410.188 236.789 412.587 234.765 413.484C234.26 413.708 233.731 413.82 233.203 413.82Z" fill="url(#paint19_linear)"/>
<path d="M295.096 203.459C295.219 202.226 295.051 200.948 294.646 199.984C294.241 199.02 293.634 198.459 292.994 198.459H76.1532C75.3101 198.459 74.5232 199.3 74.0736 200.69C73.6239 202.08 73.5565 203.829 73.9162 205.331L76.2656 215.298C76.8052 217.585 77.9742 219.042 79.2557 219.042H291.51C292.701 219.042 293.724 217.383 293.96 215.085L295.096 203.459Z" fill="#00227B"/>
</g>
<defs>
<linearGradient id="paint0_linear" x1="259.199" y1="279.594" x2="90.945" y2="327.004" gradientUnits="userSpaceOnUse">
<stop stop-color="#CB236D"/>
<stop offset="1" stop-color="#4C246D"/>
</linearGradient>
<linearGradient id="paint1_linear" x1="147.116" y1="137.736" x2="192.899" y2="137.736" gradientUnits="userSpaceOnUse">
<stop stop-color="#FEBBBA"/>
<stop offset="1" stop-color="#FF928E"/>
</linearGradient>
<linearGradient id="paint2_linear" x1="97.7943" y1="90.8297" x2="150.933" y2="59.9569" gradientUnits="userSpaceOnUse">
<stop stop-color="#FEBBBA"/>
<stop offset="1" stop-color="#FF928E"/>
</linearGradient>
<linearGradient id="paint3_linear" x1="144.609" y1="26.8873" x2="144.291" y2="116.772" gradientUnits="userSpaceOnUse">
<stop stop-color="#FEBBBA"/>
<stop offset="1" stop-color="#FF928E"/>
</linearGradient>
<linearGradient id="paint4_linear" x1="121.682" y1="65.3862" x2="173.507" y2="26.3947" gradientUnits="userSpaceOnUse">
<stop stop-color="#09005D"/>
<stop offset="1" stop-color="#1A0F91"/>
</linearGradient>
<linearGradient id="paint5_linear" x1="115.113" y1="119.952" x2="123.096" y2="58.1788" gradientUnits="userSpaceOnUse">
<stop stop-color="#FEBBBA"/>
<stop offset="1" stop-color="#FF928E"/>
</linearGradient>
<linearGradient id="paint6_linear" x1="67.2478" y1="-148.114" x2="58.2012" y2="72.6122" gradientUnits="userSpaceOnUse">
<stop stop-color="#09005D"/>
<stop offset="1" stop-color="#1A0F91"/>
</linearGradient>
<linearGradient id="paint7_linear" x1="101.635" y1="206.796" x2="103.709" y2="177.833" gradientUnits="userSpaceOnUse">
<stop stop-color="#FEBBBA"/>
<stop offset="1" stop-color="#FF928E"/>
</linearGradient>
<linearGradient id="paint8_linear" x1="134.939" y1="310.374" x2="226.605" y2="310.374" gradientUnits="userSpaceOnUse">
<stop stop-color="#9CFFFB"/>
<stop offset="1" stop-color="#9BFFFA"/>
</linearGradient>
<linearGradient id="paint9_linear" x1="145.525" y1="310.372" x2="237.191" y2="310.372" gradientUnits="userSpaceOnUse">
<stop stop-color="#9CFFFB"/>
<stop offset="1" stop-color="#9BFFFA"/>
</linearGradient>
<linearGradient id="paint10_linear" x1="259.199" y1="279.594" x2="90.945" y2="327.004" gradientUnits="userSpaceOnUse">
<stop stop-color="#CB236D"/>
<stop offset="1" stop-color="#4C246D"/>
</linearGradient>
<linearGradient id="paint11_linear" x1="147.116" y1="137.736" x2="192.899" y2="137.736" gradientUnits="userSpaceOnUse">
<stop stop-color="#FEBBBA"/>
<stop offset="1" stop-color="#FF928E"/>
</linearGradient>
<linearGradient id="paint12_linear" x1="97.7943" y1="90.8297" x2="150.933" y2="59.9569" gradientUnits="userSpaceOnUse">
<stop stop-color="#FEBBBA"/>
<stop offset="1" stop-color="#FF928E"/>
</linearGradient>
<linearGradient id="paint13_linear" x1="144.609" y1="26.8873" x2="144.291" y2="116.772" gradientUnits="userSpaceOnUse">
<stop stop-color="#FEBBBA"/>
<stop offset="1" stop-color="#FF928E"/>
</linearGradient>
<linearGradient id="paint14_linear" x1="121.682" y1="65.3862" x2="173.507" y2="26.3947" gradientUnits="userSpaceOnUse">
<stop stop-color="#09005D"/>
<stop offset="1" stop-color="#1A0F91"/>
</linearGradient>
<linearGradient id="paint15_linear" x1="115.113" y1="119.952" x2="123.096" y2="58.1788" gradientUnits="userSpaceOnUse">
<stop stop-color="#FEBBBA"/>
<stop offset="1" stop-color="#FF928E"/>
</linearGradient>
<linearGradient id="paint16_linear" x1="67.2478" y1="-148.114" x2="58.2012" y2="72.6122" gradientUnits="userSpaceOnUse">
<stop stop-color="#09005D"/>
<stop offset="1" stop-color="#1A0F91"/>
</linearGradient>
<linearGradient id="paint17_linear" x1="101.635" y1="206.796" x2="103.709" y2="177.833" gradientUnits="userSpaceOnUse">
<stop stop-color="#FEBBBA"/>
<stop offset="1" stop-color="#FF928E"/>
</linearGradient>
<linearGradient id="paint18_linear" x1="134.939" y1="310.374" x2="226.605" y2="310.374" gradientUnits="userSpaceOnUse">
<stop stop-color="#9CFFFB"/>
<stop offset="1" stop-color="#9BFFFA"/>
</linearGradient>
<linearGradient id="paint19_linear" x1="145.525" y1="310.372" x2="237.191" y2="310.372" gradientUnits="userSpaceOnUse">
<stop stop-color="#9CFFFB"/>
<stop offset="1" stop-color="#9BFFFA"/>
</linearGradient>
<clipPath id="clip0">
<rect width="295" height="219" fill="white"/>
</clipPath>
</defs>
</svg>
