<svg width="96" height="116" viewBox="0 0 96 116" fill="none" xmlns="http://www.w3.org/2000/svg">
<path d="M54.3201 7.20703H42.6035V22.6179H54.3201V7.20703Z" fill="#3949AB"/>
<path d="M57.4905 11.25H38.8389C36.8733 11.25 35.2941 9.65917 35.2941 7.7038C34.3334 3.0308 37.4917 -0.504325 42.9359 0.0590867H57.1261C59.2242 0.0590867 60.9359 1.76037 60.9359 3.8704V7.81427C60.9138 9.71441 59.3788 11.25 57.4905 11.25Z" fill="#00227B"/>
<path d="M82.3466 36.1058L77.8301 31.3555L84.0694 25.4121L88.5859 30.1624L82.3466 36.1058Z" fill="#3949AB"/>
<path d="M89.261 34.1516L79.7641 24.1649C79.6758 24.0765 79.6868 23.9329 79.7752 23.8445L83.6071 20.1989C83.9052 19.9117 84.3801 19.9227 84.6561 20.221L93.7445 29.7769C93.8991 29.9426 93.888 30.1967 93.7334 30.3403L89.7359 34.1516C89.6034 34.2842 89.3936 34.2842 89.261 34.1516Z" fill="#00227B"/>
<path d="M15.139 35.9066L19.6556 31.1563L13.4052 25.2129L8.88867 29.9632L15.139 35.9066Z" fill="#3949AB"/>
<path d="M8.21526 33.9524L17.7122 23.9657C17.8006 23.8773 17.7895 23.7337 17.7012 23.6453L13.8693 19.9997C13.5711 19.7125 13.0963 19.7235 12.8202 20.0218L3.70973 29.5998C3.56617 29.7434 3.57721 29.9864 3.72077 30.1301L7.74042 33.9524C7.87294 34.096 8.09379 34.085 8.21526 33.9524Z" fill="#00227B"/>
<path d="M47.8382 116C74.2584 116 95.6763 94.5742 95.6763 68.1438C95.6763 41.7133 74.2584 20.2871 47.8382 20.2871C21.4179 20.2871 0 41.7133 0 68.1438C0 94.5742 21.4179 116 47.8382 116Z" fill="#3949AB"/>
<path d="M48.335 109.25C70.7117 109.25 88.8517 91.1033 88.8517 68.7179C88.8517 46.3325 70.7117 28.1855 48.335 28.1855C25.9583 28.1855 7.81836 46.3325 7.81836 68.7179C7.81836 91.1033 25.9583 109.25 48.335 109.25Z" fill="white"/>
<path d="M48.832 29.0352H47.3633V40.6568H48.832V29.0352Z" fill="url(#paint0_linear)"/>
<path d="M48.832 96.9883H47.3633V108.61H48.832V96.9883Z" fill="url(#paint1_linear)"/>
<path d="M76.3736 69.1045L76.3516 67.6352L87.9798 67.5137L87.9908 68.9829L76.3736 69.1045Z" fill="url(#paint2_linear)"/>
<path d="M8.73566 69.7673L8.72461 68.309L20.3418 68.1875L20.3639 69.6568L8.73566 69.7673Z" fill="url(#paint3_linear)"/>
<path d="M48.025 69.3477C47.9145 69.3477 47.8041 69.3035 47.7378 69.2041L30.0029 46.5573C29.8814 46.4026 29.9035 46.1706 30.0691 46.0381C30.2237 45.9165 30.4556 45.9386 30.5881 46.1043L48.3231 68.7512C48.4446 68.9058 48.4225 69.1378 48.2569 69.2704C48.1796 69.3146 48.1023 69.3477 48.025 69.3477Z" fill="url(#paint4_linear)"/>
<path d="M43.3323 76.4835C43.0121 76.4835 42.6918 76.384 42.4268 76.1631C41.7863 75.666 41.6869 74.738 42.1838 74.1083L60.0624 51.4504C60.5593 50.8097 61.4869 50.7103 62.1164 51.2074C62.7568 51.7045 62.8562 52.6325 62.3593 53.2622L44.4808 75.92C44.1937 76.2957 43.763 76.4835 43.3323 76.4835Z" fill="url(#paint5_linear)"/>
<path d="M70.442 93.982C70.1438 93.982 69.8567 93.8604 69.6358 93.6285L42.3818 64.1876C41.9732 63.7457 41.9953 63.0497 42.437 62.6299C42.8787 62.2212 43.5744 62.2433 43.994 62.6852L71.2371 92.1371C71.6457 92.579 71.6236 93.275 71.1819 93.6947C70.972 93.8825 70.707 93.982 70.442 93.982Z" fill="url(#paint6_linear)"/>
<path d="M48.0257 72.9372C50.2091 72.9372 51.979 71.1665 51.979 68.9822C51.979 66.798 50.2091 65.0273 48.0257 65.0273C45.8423 65.0273 44.0723 66.798 44.0723 68.9822C44.0723 71.1665 45.8423 72.9372 48.0257 72.9372Z" fill="#3949AB"/>
<path d="M49.8917 70.8494C50.9223 69.8183 50.9223 68.1465 49.8916 67.1155C48.8609 66.0844 47.1899 66.0844 46.1592 67.1155C45.1285 68.1465 45.1285 69.8183 46.1592 70.8494C47.1899 71.8805 48.861 71.8805 49.8917 70.8494Z" fill="white"/>
<path d="M48.832 30.0742H47.3633V36.338H48.832V30.0742Z" fill="url(#paint7_linear)"/>
<path d="M64.1045 40.5575L62.8125 39.8615L65.7499 34.3379L67.053 35.0339L64.1045 40.5575Z" fill="url(#paint8_linear)"/>
<path d="M76.6266 53.2294L75.8867 51.959L81.2867 48.8105L82.0266 50.0699L76.6266 53.2294Z" fill="url(#paint9_linear)"/>
<path d="M76.373 85.1773L77.0688 83.8848L82.5792 86.8565L81.8835 88.149L76.373 85.1773Z" fill="url(#paint10_linear)"/>
<path d="M63.6074 97.6725L64.8774 96.9434L68.0025 102.368L66.7326 103.097L63.6074 97.6725Z" fill="url(#paint11_linear)"/>
<path d="M31.6834 97.2422L32.9643 97.9492L29.9607 103.44L28.6797 102.744L31.6834 97.2422Z" fill="url(#paint12_linear)"/>
<path d="M18.6301 83.1895L19.3037 84.493L13.7381 87.3543L13.0645 86.0507L18.6301 83.1895Z" fill="url(#paint13_linear)"/>
<path d="M18.3862 55.306L17.8009 56.6537L12.0586 54.1681L12.6328 52.8203L18.3862 55.306Z" fill="url(#paint14_linear)"/>
<path d="M28.5467 42.778L27.3982 43.6728L23.5332 38.7457L24.6927 37.8398L28.5467 42.778Z" fill="url(#paint15_linear)"/>
<path d="M48.2576 113.337C40.3177 113.337 32.5213 111.227 25.7189 107.228C25.6526 107.184 25.6305 107.096 25.6637 107.029C25.7078 106.963 25.7962 106.941 25.8624 106.974C32.6207 110.951 40.3729 113.05 48.2576 113.05C52.5533 113.05 56.8048 112.432 60.8797 111.227C60.957 111.205 61.0343 111.249 61.0564 111.327C61.0785 111.404 61.0343 111.481 60.957 111.504C56.849 112.719 52.5754 113.337 48.2576 113.337Z" fill="#BDD0FB"/>
<path d="M90.2542 83.4335C90.2432 83.4335 90.2211 83.4335 90.2101 83.4225C90.1328 83.4004 90.0886 83.312 90.1217 83.2347C91.734 78.5838 92.5512 73.7009 92.5512 68.7297C92.5512 58.9418 89.426 49.6511 83.507 41.8849C83.4628 41.8186 83.4738 41.7302 83.5401 41.6749C83.6064 41.6308 83.6947 41.6418 83.7499 41.7081C86.6432 45.5083 88.8959 49.7174 90.442 54.2246C92.0432 58.8755 92.8493 63.7584 92.8493 68.7297C92.8493 73.7341 92.0321 78.6501 90.4088 83.3341C90.3757 83.4004 90.3205 83.4335 90.2542 83.4335Z" fill="#BDD0FB"/>
<path d="M5.49914 81.0577C5.43288 81.0577 5.37766 81.0135 5.35558 80.9472C4.2292 76.9923 3.66602 72.8827 3.66602 68.729C3.66602 63.7356 4.48319 58.8306 6.09546 54.1576C7.65252 49.6393 9.92736 45.4193 12.8537 41.608C15.747 37.8408 19.1924 34.5708 23.1126 31.8864C27.0881 29.1687 31.4501 27.125 36.066 25.8104C36.1433 25.7883 36.2206 25.8325 36.2427 25.9098C36.2648 25.9871 36.2206 26.0645 36.1433 26.0866C17.1936 31.4666 3.96417 48.9875 3.96417 68.7179C3.96417 72.8385 4.52737 76.926 5.64271 80.8588C5.66479 80.9362 5.62062 81.0135 5.54332 81.0356C5.53227 81.0577 5.52123 81.0577 5.49914 81.0577Z" fill="#BDD0FB"/>
<path d="M36.7506 9.18309C36.6843 9.18309 36.618 9.12786 36.607 9.06157C36.0217 5.75844 36.2315 3.8362 37.3027 2.60996C39.18 0.466782 43.6635 0.665633 51.8021 1.0081L52.2659 1.0302C52.3432 1.0302 52.4095 1.09647 52.4095 1.18485C52.4095 1.26218 52.3322 1.32847 52.2549 1.32847L51.7911 1.30638C43.7408 0.963918 39.3015 0.776111 37.5236 2.80881C36.5297 3.94668 36.3309 5.85786 36.8941 9.01738C36.9052 9.09471 36.8499 9.17205 36.7726 9.18309C36.7616 9.18309 36.7506 9.18309 36.7506 9.18309Z" fill="#BDD0FB"/>
<defs>
<linearGradient id="paint0_linear" x1="51.201" y1="32.6634" x2="8.85641" y2="62.3952" gradientUnits="userSpaceOnUse">
<stop stop-color="#FF928E"/>
<stop offset="1" stop-color="#FE7062"/>
</linearGradient>
<linearGradient id="paint1_linear" x1="51.201" y1="100.62" x2="8.85634" y2="130.352" gradientUnits="userSpaceOnUse">
<stop stop-color="#FF928E"/>
<stop offset="1" stop-color="#FE7062"/>
</linearGradient>
<linearGradient id="paint2_linear" x1="84.3831" y1="71.3867" x2="54.1981" y2="29.3578" gradientUnits="userSpaceOnUse">
<stop stop-color="#FF928E"/>
<stop offset="1" stop-color="#FE7062"/>
</linearGradient>
<linearGradient id="paint3_linear" x1="16.751" y1="72.0581" x2="-13.4346" y2="30.0288" gradientUnits="userSpaceOnUse">
<stop stop-color="#FF928E"/>
<stop offset="1" stop-color="#FE7062"/>
</linearGradient>
<linearGradient id="paint4_linear" x1="26.4413" y1="51.1012" x2="49.4984" y2="67.5459" gradientUnits="userSpaceOnUse">
<stop stop-color="#FF928E"/>
<stop offset="1" stop-color="#FE7062"/>
</linearGradient>
<linearGradient id="paint5_linear" x1="53.4138" y1="64.5952" x2="51.1131" y2="62.7806" gradientUnits="userSpaceOnUse">
<stop stop-color="#FF928E"/>
<stop offset="1" stop-color="#FE7062"/>
</linearGradient>
<linearGradient id="paint6_linear" x1="41.6151" y1="63.4769" x2="71.8066" y2="93.0608" gradientUnits="userSpaceOnUse">
<stop stop-color="#FF928E"/>
<stop offset="1" stop-color="#FE7062"/>
</linearGradient>
<linearGradient id="paint7_linear" x1="49.9882" y1="31.8748" x2="24.2069" y2="49.977" gradientUnits="userSpaceOnUse">
<stop stop-color="#FF928E"/>
<stop offset="1" stop-color="#FE7062"/>
</linearGradient>
<linearGradient id="paint8_linear" x1="67.2179" y1="37.1666" x2="35.9544" y2="41.004" gradientUnits="userSpaceOnUse">
<stop stop-color="#FF928E"/>
<stop offset="1" stop-color="#FE7062"/>
</linearGradient>
<linearGradient id="paint9_linear" x1="81.0535" y1="51.9812" x2="52.4239" y2="38.8407" gradientUnits="userSpaceOnUse">
<stop stop-color="#FF928E"/>
<stop offset="1" stop-color="#FE7062"/>
</linearGradient>
<linearGradient id="paint10_linear" x1="79.7461" y1="88.3081" x2="76.0331" y2="57.0167" gradientUnits="userSpaceOnUse">
<stop stop-color="#FF928E"/>
<stop offset="1" stop-color="#FE7062"/>
</linearGradient>
<linearGradient id="paint11_linear" x1="64.832" y1="102.113" x2="78.1452" y2="73.5556" gradientUnits="userSpaceOnUse">
<stop stop-color="#FF928E"/>
<stop offset="1" stop-color="#FE7062"/>
</linearGradient>
<linearGradient id="paint12_linear" x1="28.5306" y1="100.603" x2="59.8299" y2="97.0681" gradientUnits="userSpaceOnUse">
<stop stop-color="#FF928E"/>
<stop offset="1" stop-color="#FE7062"/>
</linearGradient>
<linearGradient id="paint13_linear" x1="14.1444" y1="84.1954" x2="42.0327" y2="98.8403" gradientUnits="userSpaceOnUse">
<stop stop-color="#FF928E"/>
<stop offset="1" stop-color="#FE7062"/>
</linearGradient>
<linearGradient id="paint14_linear" x1="14.7497" y1="52.4763" x2="21.1663" y2="83.3266" gradientUnits="userSpaceOnUse">
<stop stop-color="#FF928E"/>
<stop offset="1" stop-color="#FE7062"/>
</linearGradient>
<linearGradient id="paint15_linear" x1="26.7105" y1="38.5515" x2="17.5681" y2="68.7065" gradientUnits="userSpaceOnUse">
<stop stop-color="#FF928E"/>
<stop offset="1" stop-color="#FE7062"/>
</linearGradient>
</defs>
</svg>
