<svg width="255" height="325" viewBox="0 0 255 325" fill="none" xmlns="http://www.w3.org/2000/svg">
<path d="M178.22 61.1233L237.261 14.9186C237.473 14.7533 237.626 14.5289 237.709 14.2691L241.368 2.29585C241.463 1.97703 241.687 1.70545 241.982 1.52833L244.366 0.170407C244.602 0.0405195 244.874 -0.0185204 245.145 0.00509553L252.546 0.725383C253.148 0.784423 253.632 1.23313 253.726 1.83533L254.281 5.29507C254.34 5.63751 254.257 5.97994 254.069 6.26333L253.077 7.70391C252.794 8.11718 252.758 8.64854 253.006 9.09725C253.278 9.58138 253.207 10.1954 252.841 10.6087C251.613 11.9784 248.533 14.9894 243.599 17.1149C243.434 17.1857 243.28 17.292 243.15 17.4337L186.553 76.9696C186.045 77.5127 177.582 61.6074 178.22 61.1233Z" fill="url(#paint0_linear)"/>
<path d="M245.937 10.4556C245.889 10.4556 245.842 10.4438 245.795 10.4201C245.642 10.3375 245.594 10.1486 245.677 10.0069C245.748 9.87698 247.495 6.74786 249.702 7.42091C251.425 7.95227 251.909 7.75154 251.909 7.75154C252.051 7.65707 252.228 7.70431 252.322 7.846C252.417 7.9877 252.369 8.18843 252.228 8.27109C252.098 8.36555 251.496 8.61352 249.525 7.99951C247.802 7.46815 246.232 10.2666 246.22 10.3021C246.149 10.3965 246.043 10.4556 245.937 10.4556Z" fill="url(#paint1_linear)"/>
<path d="M178.385 60.9824L151.709 83.3467L159.971 102.44L189.952 74.6915C184.157 70.724 180.132 66.2016 178.385 60.9824Z" fill="#6F74DD"/>
<path d="M3.83606 291.439C4.08393 288.062 5.19345 285.676 6.37379 284.059C3.85966 284.885 2.90359 286.751 2.32522 291.757C1.62882 297.709 0.377655 313.838 0.0471591 317.404C-0.283337 320.97 1.19209 322.718 2.32522 323.887C2.70293 324.265 3.2813 324.088 3.9777 323.545C2.56129 321.738 1.99472 319.896 1.71144 318.373C1.26291 315.964 3.25769 299.315 3.83606 291.439Z" fill="#6F74DD"/>
<path d="M20.3024 286.762L15.9233 281.094C15.9233 281.094 11.7213 283.089 7.96782 283.692C7.36585 283.786 6.8465 283.904 6.36256 284.069C5.18221 285.687 4.0845 288.072 3.82482 291.449C3.23465 299.325 1.25167 315.986 1.7002 318.383C1.98349 319.907 2.55005 321.749 3.96646 323.555C5.38287 322.445 7.23601 319.8 8.64062 317.084C10.7298 313.046 17.8355 300.955 19.488 296.432C21.164 291.91 20.3024 286.762 20.3024 286.762Z" fill="#00227B"/>
<path d="M79.8374 235.208C80.64 231.914 82.1272 229.753 83.5555 228.348C80.9351 228.737 79.6957 230.426 78.2911 235.267C76.615 241.029 72.7199 256.722 71.7993 260.182C70.8904 263.642 72.0471 265.614 72.9678 266.948C73.2747 267.385 73.8767 267.314 74.6557 266.889C73.558 264.87 73.3101 262.957 73.2747 261.41C73.2393 258.978 77.9488 242.883 79.8374 235.208Z" fill="#6F74DD"/>
<path d="M96.8451 233.331L93.4694 227.014C93.4694 227.014 88.9959 228.289 85.1952 228.254C84.5932 228.242 84.0502 228.277 83.5545 228.36C82.1263 229.765 80.639 231.926 79.8364 235.22C77.9597 242.895 73.2383 258.99 73.2855 261.422C73.3091 262.969 73.5688 264.882 74.6665 266.901C76.2364 266.039 78.5026 263.737 80.344 261.292C83.0823 257.655 92.0766 246.898 94.4609 242.73C96.8333 238.55 96.8451 233.331 96.8451 233.331Z" fill="#00227B"/>
<path d="M20.3019 272.959C19.5347 273.963 13.9517 284.141 12.7359 286.337C12.5353 286.704 12.3936 287.105 12.3464 287.53C12.2048 288.675 12.3228 290.86 14.7307 292.466C16.2061 293.446 18.1891 293.103 19.2514 291.698L29.4142 278.32L20.3019 272.959Z" fill="url(#paint2_linear)"/>
<path d="M99.1266 219.717C98.2059 220.579 91.0058 229.683 89.4478 231.666C89.1881 231.997 88.9874 232.375 88.8694 232.776C88.5389 233.886 88.291 236.059 90.4039 238.031C91.6904 239.235 93.7088 239.235 94.9954 238.019L105.925 225.408L99.1266 219.717Z" fill="url(#paint3_linear)"/>
<path d="M112.818 171.752C112.818 168.93 129.012 169.934 143.212 168.292C150.671 167.43 155.086 176.404 149.869 181.789L106.881 226.175C105.984 227.108 104.626 227.45 103.399 227.049C101.711 226.494 99.2674 225.49 97.0956 223.778C95.8208 222.774 95.5965 220.932 96.529 219.61L116.288 191.459L98.2641 196.667L29.8515 281.33C28.7184 282.723 26.7236 283.066 25.2009 282.109C23.1825 280.846 20.5032 278.945 18.7327 276.831C17.8002 275.721 17.7412 274.115 18.532 272.899C26.0744 261.363 67.0913 198.509 69.0388 191.979C71.1871 184.788 79.0481 171.622 86.4135 171.15C93.7552 170.666 112.818 171.752 112.818 171.752Z" fill="#3949AB"/>
<path d="M117.36 191.082C117.16 191.082 116.971 190.952 116.923 190.739C116.864 190.491 117.006 190.244 117.254 190.184L133.472 185.886C133.72 185.827 133.968 185.969 134.027 186.217C134.086 186.465 133.944 186.713 133.696 186.772L117.478 191.07C117.431 191.07 117.396 191.082 117.36 191.082Z" fill="#00227B"/>
<path d="M99.8566 195.474C99.7504 195.474 99.6324 195.438 99.5497 195.355C99.3609 195.178 99.3491 194.895 99.5261 194.706L103.575 190.313C103.752 190.125 104.035 190.113 104.224 190.29C104.413 190.467 104.425 190.75 104.247 190.939L100.199 195.332C100.104 195.426 99.9865 195.474 99.8566 195.474Z" fill="#00227B"/>
<path d="M159.958 82.5313C159.958 82.5313 168.527 91.281 167.052 106.383C166.615 110.823 164.88 115.05 162.142 118.581L118.882 174.421C117.879 175.708 116.415 176.547 114.798 176.747C108.436 177.527 91.5101 179.05 79.5414 175.082C78.5853 174.763 78.1722 173.642 78.6679 172.768L117.997 103.538L141.816 75.8125C141.828 75.8243 153.183 71.9159 159.958 82.5313Z" fill="#6F74DD"/>
<path d="M35.624 144.831C35.4823 144.831 35.3525 144.76 35.2699 144.618C35.1636 144.429 35.2345 144.181 35.4351 144.075C35.6004 143.98 52.2196 134.935 55.7606 132.007C55.9259 131.865 56.1737 131.889 56.3154 132.054C56.457 132.22 56.4334 132.479 56.2682 132.609C52.6681 135.585 36.5092 144.394 35.8246 144.772C35.7538 144.819 35.683 144.831 35.624 144.831Z" fill="url(#paint4_linear)"/>
<path d="M162.038 56.493L149.113 74.76C148.275 75.9526 148.381 77.5585 149.384 78.6212C151.131 80.4868 154.058 83.0964 157.234 83.6986C158.213 83.8875 159.216 83.4743 159.759 82.6359L166.629 72.0796C166.629 72.0677 167.951 55.4893 162.038 56.493Z" fill="url(#paint5_linear)"/>
<path d="M165.685 41.239C165.945 41.4869 176.721 62.6468 176.721 62.6468L164.516 68.539L151.332 50.0005C151.332 50.0005 161.318 37.118 165.685 41.239Z" fill="url(#paint6_linear)"/>
<path d="M156.879 52.2195L162.969 62.3744C163.064 62.5279 163.17 62.6696 163.3 62.7877C164.02 63.4607 166.499 65.4209 168.423 62.7523C170.051 60.4733 171.586 58.4069 173.227 57.5449C174.183 57.049 175.363 57.4505 175.859 58.4069C176.862 60.3907 178.81 64.4526 180.025 68.2902C180.332 69.2585 179.836 70.2858 178.892 70.6636C176.425 71.6673 171.539 73.4739 167.207 74.0761C166.499 74.1706 165.79 73.8754 165.365 73.2968C163.501 70.7463 158.248 63.6024 156.454 61.8076C154.79 60.1427 151.709 60.7685 150.328 61.17C149.797 61.3235 149.242 61.2526 148.77 60.9693C147.365 60.1191 144.91 58.0173 147.153 54.4394C147.708 53.5538 147.424 52.373 146.551 51.7945C144.981 50.7672 143.281 48.8188 144.898 45.6779C146.539 42.5016 149.478 42.2182 151.473 42.4543C152.358 42.5606 153.255 42.1001 153.597 41.2735C153.94 40.4352 154.86 40.7658 155.309 40.1872C155.698 39.6913 155.592 39.337 155.84 38.9001C156.643 37.4714 156.584 36.326 158.437 35.523C159.865 34.8972 161.494 34.8736 163.04 35.1216C163.89 35.2633 164.764 35.4876 165.46 36.0072C166.074 36.4677 166.522 37.1289 166.947 37.7784C167.832 39.1245 168.765 40.7422 168.175 42.2536C167.301 44.5207 163.536 44.934 161.541 45.6307C159.062 46.5045 157.693 48.0277 156.737 50.4956C156.513 51.0742 156.56 51.7 156.879 52.2195Z" fill="#00227B"/>
<path d="M158.732 65.5512C158.732 65.5512 156.395 58.6908 153.397 58.9506C150.399 59.1985 148.038 62.1859 151.756 65.5512C156.371 69.7194 158.732 65.5512 158.732 65.5512Z" fill="url(#paint7_linear)"/>
<path d="M205.321 163.12V117.589C205.321 111.602 200.517 106.737 194.533 106.678C176.58 106.477 139.564 106.477 109.276 109.028C105.145 109.382 101.923 112.771 101.781 116.915L98.9485 160.936C98.736 166.757 103.339 171.622 109.158 171.74L194.887 173.369C200.623 173.464 205.321 168.847 205.321 163.12Z" fill="#FFC85D"/>
<path d="M194.933 122.514C195.004 126.387 194.898 132.539 194.803 136.507C194.756 138.573 192.938 140.144 190.884 139.907L176.118 138.172C174.147 137.935 172.766 136.129 173.061 134.169L174.879 122.066C175.139 120.353 176.614 119.078 178.349 119.078H191.439C193.328 119.09 194.886 120.613 194.933 122.514Z" fill="white"/>
<path opacity="0.37" d="M156.323 145.445L144.001 146.779C142.277 146.968 140.802 145.539 140.932 143.815L143.623 107.151C148.793 106.986 153.88 106.868 158.802 106.785V142.693C158.802 144.098 157.74 145.291 156.323 145.445Z" fill="white"/>
<path d="M151.271 139.093C151.236 139.754 150.693 140.262 150.032 140.262C150.008 140.262 149.985 140.262 149.961 140.262C149.277 140.227 148.757 139.636 148.793 138.951L150.646 106.952C151.484 106.928 152.31 106.916 153.136 106.893L151.271 139.093Z" fill="white"/>
<path d="M188.097 134.059C188.31 134.059 188.499 133.894 188.51 133.67L189.148 123.586C189.16 123.361 188.994 123.16 188.758 123.149C188.522 123.125 188.333 123.302 188.322 123.538L187.684 133.622C187.672 133.847 187.838 134.047 188.074 134.059C188.074 134.059 188.086 134.059 188.097 134.059Z" fill="#00227B"/>
<path d="M186.775 134.061C186.999 134.061 187.176 133.884 187.188 133.66L187.519 123.387C187.53 123.162 187.342 122.961 187.117 122.961C186.858 122.95 186.704 123.139 186.692 123.363L186.362 133.636C186.35 133.86 186.539 134.061 186.763 134.061H186.775Z" fill="#00227B"/>
<path d="M184.994 134.059C184.769 134.047 184.592 133.858 184.604 133.622C184.769 130.174 185.076 123.585 185.088 123.361C185.088 123.136 185.277 122.947 185.501 122.947C185.725 122.947 185.914 123.136 185.914 123.361C185.914 123.526 185.513 131.969 185.43 133.657C185.419 133.881 185.241 134.047 185.017 134.047C185.005 134.059 185.005 134.059 184.994 134.059Z" fill="#00227B"/>
<path d="M182.266 134.472C182.715 134.472 183.08 134.118 183.092 133.669C183.446 123.715 183.376 123.491 183.34 123.349C183.222 122.912 182.762 122.653 182.325 122.771C181.924 122.877 181.664 123.278 181.723 123.68C181.747 124.282 181.57 130.068 181.44 133.622C181.428 134.083 181.782 134.461 182.231 134.472C182.242 134.472 182.254 134.472 182.266 134.472Z" fill="#00227B"/>
<path d="M180.472 134.059C180.696 134.059 180.885 133.87 180.885 133.646V123.562C180.885 123.337 180.696 123.148 180.472 123.148C180.247 123.148 180.059 123.337 180.059 123.562V133.646C180.059 133.882 180.247 134.059 180.472 134.059Z" fill="#00227B"/>
<path d="M179.021 134.06C179.245 134.06 179.434 133.883 179.434 133.658C179.516 130.151 179.693 124.436 179.859 123.751C179.929 123.622 179.929 123.456 179.847 123.326C179.717 123.137 179.469 123.078 179.28 123.208C179.056 123.35 178.843 123.492 178.607 133.647C178.607 133.871 178.784 134.06 179.021 134.06Z" fill="#00227B"/>
<path d="M190.318 134.982C190.754 134.982 191.12 134.639 191.144 134.202L191.699 123.622C191.722 123.162 191.368 122.772 190.92 122.748C190.483 122.713 190.07 123.079 190.046 123.528L189.491 134.108C189.468 134.568 189.822 134.946 190.27 134.982C190.294 134.982 190.306 134.982 190.318 134.982Z" fill="#00227B"/>
<path d="M170.524 41.9474C160.161 22.3697 133.308 40.1526 145.808 56.6483C155.097 50.461 165.602 41.2743 170.524 41.9474Z" fill="url(#paint8_linear)"/>
<path d="M149.844 105.45L126.568 93.5117C126.568 93.5117 109.948 109.901 105.699 132.183C110.586 132.537 119.474 133.812 128.173 138.205C130.085 127.696 149.844 105.45 149.844 105.45Z" fill="#6F74DD"/>
<path d="M169.014 144.381C169.014 144.381 139.989 160.794 130.192 146.778C128.162 143.873 127.678 140.98 128.174 138.217C119.475 133.825 110.587 132.55 105.7 132.195C104.414 138.914 105.098 146.058 109.041 153.273C126.203 184.67 172.862 151.537 172.862 151.537L169.014 144.381Z" fill="url(#paint9_linear)"/>
<path d="M170.394 152.729C168.541 153.225 166.664 152.009 166.298 150.12C165.72 147.179 165 142.657 165.578 140.591C166.464 137.367 168.199 133.234 173.947 134.143C179.695 135.064 186.482 137.485 186.482 137.485C186.482 137.485 186.14 141.677 181.773 140.331L184.487 142.433C184.487 142.433 184.098 145.786 180.415 143.991L182.929 146.778C182.929 146.778 181.348 149.541 178.633 147.77C176.367 146.317 175.092 151.489 170.394 152.729Z" fill="url(#paint10_linear)"/>
<path d="M23.9603 148.634C22.9452 148.823 22.4141 149.933 22.8626 150.854C24.9636 155.081 31.1368 164.421 43.8727 161.469C60.1732 157.703 109.913 120.094 121.173 109.821C132.434 99.5483 147.341 86.7485 154.636 88.5315C161.931 90.3145 157.528 86.0872 152.476 82.6983C147.424 79.3095 145.547 74.3265 149.313 75.2593C149.313 75.2593 140.236 72.3191 126.379 79.9589C112.84 87.4215 46.7055 112.95 24.5741 105.559C23.7597 105.287 22.8862 105.818 22.7446 106.669C21.8593 111.711 20.5255 127.51 33.4739 145.281C33.4621 145.257 28.4102 147.784 23.9603 148.634Z" fill="url(#paint11_linear)"/>
<path d="M154.341 50.2361L172.943 49.6575C173.415 49.6457 173.852 49.386 174.076 48.9727C175.74 45.9616 178.183 44.0487 181.229 42.986C181.618 42.8561 181.536 42.2894 181.123 42.2539L169.72 41.4746C169.709 41.4746 169.697 41.4746 169.685 41.4746C163.996 41.9115 158.967 45.3358 154.163 49.8111C154.01 49.9764 154.128 50.2479 154.341 50.2361Z" fill="url(#paint12_linear)"/>
<defs>
<linearGradient id="paint0_linear" x1="178.183" y1="38.4893" x2="254.293" y2="38.4893" gradientUnits="userSpaceOnUse">
<stop stop-color="#FEBBBA"/>
<stop offset="1" stop-color="#FF928E"/>
</linearGradient>
<linearGradient id="paint1_linear" x1="245.633" y1="8.88353" x2="252.357" y2="8.88353" gradientUnits="userSpaceOnUse">
<stop stop-color="#FEBBBA"/>
<stop offset="1" stop-color="#FF928E"/>
</linearGradient>
<linearGradient id="paint2_linear" x1="12.3134" y1="282.986" x2="29.4175" y2="282.986" gradientUnits="userSpaceOnUse">
<stop stop-color="#FEBBBA"/>
<stop offset="1" stop-color="#FF928E"/>
</linearGradient>
<linearGradient id="paint3_linear" x1="88.6589" y1="229.322" x2="105.924" y2="229.322" gradientUnits="userSpaceOnUse">
<stop stop-color="#FEBBBA"/>
<stop offset="1" stop-color="#FF928E"/>
</linearGradient>
<linearGradient id="paint4_linear" x1="53.0405" y1="129.413" x2="38.5845" y2="147.332" gradientUnits="userSpaceOnUse">
<stop stop-color="#F9C200"/>
<stop offset="0.9964" stop-color="#9B1E5F"/>
</linearGradient>
<linearGradient id="paint5_linear" x1="142.995" y1="80.0909" x2="169.657" y2="64.6484" gradientUnits="userSpaceOnUse">
<stop stop-color="#FEBBBA"/>
<stop offset="1" stop-color="#FF928E"/>
</linearGradient>
<linearGradient id="paint6_linear" x1="162.143" y1="45.2347" x2="169.713" y2="89.7626" gradientUnits="userSpaceOnUse">
<stop stop-color="#FEBBBA"/>
<stop offset="1" stop-color="#FF928E"/>
</linearGradient>
<linearGradient id="paint7_linear" x1="155.579" y1="93.8382" x2="154.233" y2="62.5689" gradientUnits="userSpaceOnUse">
<stop stop-color="#FEBBBA"/>
<stop offset="1" stop-color="#FF928E"/>
</linearGradient>
<linearGradient id="paint8_linear" x1="452.174" y1="-35.6566" x2="379.473" y2="-16.2142" gradientUnits="userSpaceOnUse">
<stop stop-color="#E1473D"/>
<stop offset="1" stop-color="#E9605A"/>
</linearGradient>
<linearGradient id="paint9_linear" x1="105.572" y1="133.998" x2="162.782" y2="163.783" gradientUnits="userSpaceOnUse">
<stop stop-color="#FEBBBA"/>
<stop offset="1" stop-color="#FF928E"/>
</linearGradient>
<linearGradient id="paint10_linear" x1="226.94" y1="137.666" x2="290.696" y2="131.114" gradientUnits="userSpaceOnUse">
<stop stop-color="#FEBBBA"/>
<stop offset="1" stop-color="#FF928E"/>
</linearGradient>
<linearGradient id="paint11_linear" x1="20.3476" y1="141.502" x2="147.285" y2="72.3982" gradientUnits="userSpaceOnUse">
<stop stop-color="#E1473D"/>
<stop offset="1" stop-color="#E9605A"/>
</linearGradient>
<linearGradient id="paint12_linear" x1="-106.448" y1="-27.1344" x2="-39.4992" y2="-9.23039" gradientUnits="userSpaceOnUse">
<stop stop-color="#E1473D"/>
<stop offset="1" stop-color="#E9605A"/>
</linearGradient>
</defs>
</svg>
