<svg width="245" height="242" viewBox="0 0 245 242" fill="none" xmlns="http://www.w3.org/2000/svg">
<path d="M119.316 91.5386C82.3949 90.5778 41.5481 100.491 41.5481 100.491C31.8227 154.147 36.0995 214.845 37.7634 233.231C38.0681 236.676 40.6459 239.465 44.0439 240.097C63.1198 243.601 83.2503 241.48 93.3624 239.933C97.2995 239.336 100.451 236.359 101.283 232.469C107.974 201.335 127.085 132.645 127.085 132.645C145.153 130.582 160.058 125.509 172.373 118.747C163.139 107.838 158.874 94.0228 157.035 85.8672C143.935 89.8044 130.706 91.8433 119.316 91.5386Z" fill="#6F74DD"/>
<path d="M228.91 38.1883C225.324 33.7707 221.961 33.9582 221.961 33.9582C216.313 56.8665 186.387 77.0446 157.035 85.8564C158.875 94.012 163.14 107.827 172.373 118.737C221.211 91.9028 228.91 38.1883 228.91 38.1883Z" fill="url(#paint0_linear)"/>
<path d="M228.018 39.3016C228.381 40.5085 223.976 42.3131 221.433 37.3447C221.363 34.9777 220.027 24.8301 221.456 22.9201C229.084 12.7256 243.802 0 243.802 0C246.25 2.46074 244.188 4.82774 244.188 4.82774L237.041 12.1397C238.494 14.8348 240.286 17.108 241.095 20.3539C241.716 22.8146 241.294 25.4277 240.04 27.6424C238.775 29.8687 237.052 32.763 235.424 35.0246C232.342 39.3016 228.018 39.3016 228.018 39.3016Z" fill="url(#paint1_linear)"/>
<path d="M233.901 16.8984L227.398 22.3121L225.324 27.7374L231.019 34.1705C231.019 34.1705 233.058 23.3784 234.511 21.0583C235.964 18.7264 235.225 17.5898 233.901 16.8984Z" fill="url(#paint2_linear)"/>
<path d="M55.3745 136.396L41.548 100.504C41.548 100.504 6.82939 123.611 0.876953 153.269C7.39182 153.808 19.2381 155.625 30.7914 161.589C33.4747 147.586 55.3745 136.396 55.3745 136.396Z" fill="#6F74DD"/>
<path d="M85.1947 170.329C85.1947 170.329 46.2578 191.843 33.3687 173.036C30.6971 169.134 30.0761 165.267 30.7791 161.599C19.2258 155.623 7.37951 153.818 0.864638 153.279C-0.928123 162.22 -0.119623 171.758 5.05946 181.437C27.5451 223.528 90.2215 179.937 90.2215 179.937L85.1947 170.329Z" fill="url(#paint3_linear)"/>
<path d="M82.194 61.2012L70.1251 95.0657C69.9259 95.6282 70.1485 96.2492 70.6641 96.5422C73.8512 98.3467 85.346 103.573 99.3365 94.8899C100.789 93.9877 101.797 92.4995 102.032 90.8004L106.121 61.4238L82.194 61.2012Z" fill="url(#paint4_linear)"/>
<path d="M108.057 29.9863C108.057 29.9863 120.724 54.3946 118.978 64.1907C117.232 73.9868 101.249 73.1314 87.3641 65.0227L77.8613 38.7044L108.057 29.9863Z" fill="url(#paint5_linear)"/>
<path d="M88.1008 52.155C88.675 51.9089 88.8859 51.2176 88.5461 50.6903C87.5267 49.0966 85.6168 45.8625 85.0309 43.0385C85.0309 43.0385 82.7226 41.5269 90.9716 39.6403C99.2089 37.7538 111.5 34.8126 114.149 27.8405C116.726 21.0441 110.282 3.81892 99.619 17.3882C99.2089 17.9038 98.4239 17.9038 98.0372 17.3882C96.3264 15.1266 91.8387 10.4161 85.5113 13.1815C79.5823 15.7711 78.8793 20.0833 78.9378 22.2628C78.9613 22.9073 78.3754 23.3994 77.7544 23.2705C74.7782 22.6729 67.6306 22.1222 64.2091 29.4224C61.3969 35.4454 63.1545 38.8787 64.7715 40.5778C65.2988 41.1285 65.0527 42.0191 64.3263 42.23C62.3577 42.8159 59.8151 44.4447 60.026 49.0498C60.3189 55.4008 67.4196 54.9087 69.4468 54.6392C69.7748 54.5923 70.1147 54.7095 70.3373 54.9673C72.048 56.9007 79.7815 65.1149 88.218 66.1812C88.9445 66.275 89.5186 65.5602 89.2843 64.8571L85.7339 54.1939C85.5699 53.7017 85.816 53.1627 86.2846 52.9518L88.1008 52.155Z" fill="#3949AB"/>
<path d="M89.566 53.6773C89.566 53.6773 80.4382 47.2911 79.7117 52.5876C78.9852 57.884 87.9139 60.3565 92.3548 58.4231L89.566 53.6773Z" fill="url(#paint6_linear)"/>
<path d="M77.2386 204.336L98.4471 130.268C98.6932 129.424 99.4079 128.815 100.275 128.709C104.118 128.264 115.25 126.999 128.104 125.909C143.594 124.597 161.569 123.542 172.325 124.444C173.849 124.573 174.774 126.19 174.095 127.561C167.978 139.923 142.844 190.216 130.26 206.692C129.838 207.242 129.194 207.559 128.514 207.547L79.3009 207.09C77.8714 207.09 76.8402 205.719 77.2386 204.336Z" fill="#3949AB"/>
<path d="M82.3588 186.444C82.3588 186.444 79.4061 174.292 80.6012 169.98C81.7964 165.668 84.1047 160.125 91.8031 161.356C99.5014 162.586 108.582 165.832 108.582 165.832C108.582 165.832 108.125 171.445 102.278 169.64L105.911 172.453C105.911 172.453 105.395 176.952 100.45 174.55L103.825 178.276C103.825 178.276 101.704 181.967 98.0718 179.6C94.416 177.222 92.6701 187.908 82.3588 186.444Z" fill="url(#paint7_linear)"/>
<path d="M126.699 148.031C126.699 151.464 129.488 154.253 132.921 154.253C136.354 154.253 139.143 151.464 139.143 148.031C139.143 144.597 136.354 141.809 132.921 141.809C129.476 141.797 126.699 144.586 126.699 148.031Z" fill="#C4C9E7"/>
<path d="M100.849 152.133L105.173 137.486C105.7 135.681 107.153 134.334 108.946 133.959C122.48 131.135 159.53 130.537 159.905 130.525L159.882 128.873C158.358 128.896 122.304 129.482 108.618 132.342C106.228 132.845 104.294 134.638 103.591 137.017L99.2676 151.664L100.849 152.133Z" fill="#C4C9E7"/>
<defs>
<linearGradient id="paint0_linear" x1="157.125" y1="75.9778" x2="228.547" y2="76.6563" gradientUnits="userSpaceOnUse">
<stop stop-color="#FEBBBA"/>
<stop offset="1" stop-color="#FF928E"/>
</linearGradient>
<linearGradient id="paint1_linear" x1="212.744" y1="65.215" x2="163.78" y2="173.803" gradientUnits="userSpaceOnUse">
<stop stop-color="#FEBBBA"/>
<stop offset="1" stop-color="#FF928E"/>
</linearGradient>
<linearGradient id="paint2_linear" x1="228.657" y1="29.0484" x2="248.948" y2="-1.50828" gradientUnits="userSpaceOnUse">
<stop stop-color="#FEBBBA"/>
<stop offset="1" stop-color="#FF928E"/>
</linearGradient>
<linearGradient id="paint3_linear" x1="-0.130802" y1="176.334" x2="90.2523" y2="177.193" gradientUnits="userSpaceOnUse">
<stop stop-color="#FEBBBA"/>
<stop offset="1" stop-color="#FF928E"/>
</linearGradient>
<linearGradient id="paint4_linear" x1="70.1909" y1="80.3675" x2="105.927" y2="80.7069" gradientUnits="userSpaceOnUse">
<stop stop-color="#FEBBBA"/>
<stop offset="1" stop-color="#FF928E"/>
</linearGradient>
<linearGradient id="paint5_linear" x1="114.645" y1="58.0549" x2="75.5816" y2="33.7182" gradientUnits="userSpaceOnUse">
<stop stop-color="#FEBBBA"/>
<stop offset="1" stop-color="#FF928E"/>
</linearGradient>
<linearGradient id="paint6_linear" x1="104.239" y1="66.8913" x2="69.0931" y2="44.9951" gradientUnits="userSpaceOnUse">
<stop stop-color="#FEBBBA"/>
<stop offset="1" stop-color="#FF928E"/>
</linearGradient>
<linearGradient id="paint7_linear" x1="80.3132" y1="173.883" x2="108.57" y2="173.883" gradientUnits="userSpaceOnUse">
<stop stop-color="#FEBBBA"/>
<stop offset="1" stop-color="#FF928E"/>
</linearGradient>
</defs>
</svg>
