<svg width="80" height="121" viewBox="0 0 80 121" fill="none" xmlns="http://www.w3.org/2000/svg">
<path d="M40.991 36.9917C37.431 28.5397 24.5452 2.90664 1.75196 10.8217C1.41332 10.9343 1.45674 11.4279 1.80406 11.4885C6.8316 12.4151 25.4569 17.1088 40.3919 37.3295C40.635 37.6586 41.1473 37.3728 40.991 36.9917Z" fill="#6F74DD"/>
<path d="M40.7905 37.5201C35.6674 32.7052 20.4025 14.0692 0.144762 22.5818C-0.0809993 22.6771 -0.0289047 23.0062 0.20554 23.0322C5.2157 23.5604 30.0842 26.7039 40.695 37.9271C40.9728 38.2302 41.0857 37.8059 40.7905 37.5201Z" fill="#6F74DD"/>
<path d="M40.3131 35.4072C39.8268 29.0335 36.9701 4.97648 21.4359 0.00572737C21.323 -0.028912 21.2275 0.100981 21.297 0.19624C23.1726 2.82883 36.7877 22.2875 40.0786 35.4418C40.1047 35.589 40.3218 35.5544 40.3131 35.4072Z" fill="#6F74DD"/>
<path d="M41.8596 42.7056C41.9986 42.7835 42.1288 42.6016 42.0159 42.4977C39.2721 39.7699 27.9058 29.7504 13.4831 34.6866C-2.8672 40.2722 25.7524 33.9938 41.8596 42.7056Z" fill="#6F74DD"/>
<path d="M41.4765 37.7192C41.4418 38.1955 40.7645 38.2561 40.6603 37.7884C38.9411 30.2284 35.2855 9.38418 45.9136 4.08436C58.4955 -2.19402 43.1871 13.004 41.4765 37.7192Z" fill="#6F74DD"/>
<path d="M40.7478 37.6585C42.5365 33.0168 49.4222 18.6068 63.7494 26.392C63.9925 26.5219 63.9143 26.8943 63.6365 26.9116C60.415 27.1108 49.6914 28.505 41.208 37.9356C40.9996 38.1608 40.6349 37.9443 40.7478 37.6585Z" fill="#6F74DD"/>
<path d="M41.128 38.8281C41.788 35.9616 45.2178 30.2115 62.6535 35.4767C62.7577 35.5113 62.7317 35.6672 62.6188 35.6499C59.189 35.2948 47.6143 34.5068 41.9356 39.313C41.5796 39.6334 41.0238 39.2957 41.128 38.8281Z" fill="#6F74DD"/>
<path d="M46.1478 117.268L46.1565 116.679V116.047L46.1478 114.783L46.1304 112.254L46.061 107.197C46.0176 103.828 45.9481 100.459 45.8786 97.0908C45.7223 90.3534 45.5313 83.6247 45.2274 76.9047C44.9235 70.1847 44.5067 63.4646 43.8555 56.7706C43.5255 53.4279 43.1261 50.0852 42.579 46.7771C42.0494 43.4604 41.3634 40.1696 40.252 37.0001L40.5559 36.8789C41.2158 38.4377 41.7976 40.0397 42.2317 41.6851L42.5704 42.9148C42.6746 43.3218 42.7701 43.7375 42.8656 44.1532L43.1608 45.3915L43.4213 46.6299C44.0986 49.9466 44.6196 53.298 45.0277 56.6493C45.4445 60.0007 45.7571 63.3694 46.0349 66.738C46.2954 70.1067 46.4865 73.4754 46.6514 76.8527C46.799 80.2214 46.9032 83.5988 46.9901 86.9761C47.0422 90.3534 47.0943 93.7221 47.0769 97.0994C47.0769 100.477 47.0248 103.845 46.938 107.223L46.7556 112.28L46.6427 114.809L46.5646 116.073L46.5212 116.705C46.5038 116.922 46.4951 117.112 46.4517 117.381L46.1478 117.268Z" fill="#6F74DD"/>
<path d="M52.0446 57.6986C54.4237 52.0351 63.0634 34.8626 78.3284 40.1624C78.5541 40.2404 78.5281 40.5695 78.2936 40.6128C74.9246 41.2363 62.447 44.3798 52.444 57.9238C52.2877 58.1489 51.9404 57.9497 52.0446 57.6986Z" fill="#6F74DD"/>
<path d="M52.1844 58.0533C55.6142 54.8232 65.8429 42.3444 79.4146 48.0425C79.5623 48.1031 79.5362 48.3283 79.3712 48.3456C76.0195 48.7007 59.3566 50.805 52.2451 58.3304C52.0541 58.5296 51.976 58.2438 52.1844 58.0533Z" fill="#6F74DD"/>
<path d="M52.5043 56.6411C52.8342 52.3718 54.7445 36.2559 65.1556 32.9305C65.2338 32.9045 65.2945 32.9911 65.2511 33.0604C64.0008 34.827 54.8748 47.8601 52.6692 56.6758C52.6432 56.7624 52.4956 56.7364 52.5043 56.6411Z" fill="#6F74DD"/>
<path d="M51.4626 61.5239C51.3671 61.5759 51.2803 61.4547 51.3584 61.3854C53.1992 59.5581 60.8057 52.8468 70.4787 56.1548C81.4281 59.8959 62.2557 55.6872 51.4626 61.5239Z" fill="#6F74DD"/>
<path d="M51.7144 58.183C51.7404 58.5034 52.1919 58.538 52.2614 58.2263C53.4163 53.1603 55.8649 39.2006 48.7447 35.65C40.3134 31.45 50.5769 41.6253 51.7144 58.183Z" fill="#6F74DD"/>
<path d="M52.2097 58.1491C51.0115 55.0402 46.4007 45.3844 36.8059 50.6063C36.6409 50.6929 36.693 50.9441 36.884 50.9527C39.0461 51.0913 46.2271 52.0179 51.9058 58.3396C52.0361 58.4868 52.2879 58.3396 52.2097 58.1491Z" fill="#6F74DD"/>
<path d="M51.9493 58.9287C51.5065 57.0062 49.2142 53.1612 37.5266 56.6858C37.4572 56.7031 37.4745 56.8157 37.544 56.807C39.8364 56.5732 47.5991 56.0449 51.4023 59.2664C51.6541 59.4656 52.0188 59.2404 51.9493 58.9287Z" fill="#6F74DD"/>
<path d="M49.7004 117.373C49.6657 117.156 49.6657 117.018 49.6483 116.853L49.6223 116.377L49.5702 115.433C49.5354 114.801 49.5094 114.169 49.492 113.545L49.3704 109.761C49.2836 107.241 49.2836 104.712 49.2663 102.192C49.2576 99.6722 49.2576 97.1435 49.301 94.6235C49.3531 92.1035 49.4139 89.5748 49.5267 87.0548C49.6396 84.5348 49.7699 82.0061 49.9522 79.4861C50.1433 76.9661 50.369 74.446 50.6816 71.9347L50.9247 70.0555L51.2113 68.1763C51.411 66.9293 51.6281 65.6736 51.8973 64.4353C52.0188 63.8118 52.1664 63.1969 52.3227 62.5821C52.4009 62.2703 52.4704 61.9672 52.5572 61.6555L52.8263 60.7375C53.1737 59.5165 53.6078 58.3128 54.1288 57.1523L54.4327 57.2736C54.0507 58.4686 53.7033 59.6637 53.4515 60.8934L53.2518 61.8113C53.1911 62.1144 53.1389 62.4262 53.0868 62.7379L52.9219 63.6645L52.7743 64.5911C52.6787 65.206 52.5832 65.8295 52.5051 66.453C52.4269 67.0765 52.3227 67.6914 52.2619 68.3149C52.1143 69.5619 51.9754 70.8089 51.8451 72.0559C51.3589 77.0527 51.0116 82.0754 50.7684 87.0981C50.5253 92.1208 50.3516 97.1522 50.2214 102.192C50.1519 104.712 50.1346 107.232 50.0825 109.744L50.0391 113.519L50.0304 115.407V116.351L50.0391 117.252L49.7004 117.373Z" fill="#6F74DD"/>
<path d="M35.1038 68.1759C32.056 63.2225 21.6449 48.4228 9.75767 55.9136C9.58401 56.0261 9.66216 56.3292 9.87055 56.3292C12.8228 56.3725 23.9025 57.3078 34.8086 68.453C34.9822 68.6349 35.2427 68.4011 35.1038 68.1759Z" fill="#6F74DD"/>
<path d="M35.0595 68.5294C31.5775 66.0441 20.6802 55.9294 10.2952 63.5154C10.1823 63.602 10.2431 63.8012 10.382 63.7925C13.2735 63.576 27.6875 62.8572 35.0508 68.7979C35.2505 68.9538 35.2592 68.6767 35.0595 68.5294Z" fill="#6F74DD"/>
<path d="M34.521 67.2482C33.4616 63.2734 28.8943 48.3784 19.5252 46.9322C19.4558 46.9236 19.421 47.0102 19.4645 47.0708C20.8451 48.5343 30.9175 59.3418 34.3821 67.3002C34.4342 67.3868 34.547 67.3435 34.521 67.2482Z" fill="#6F74DD"/>
<path d="M36.2935 71.6916C36.3803 71.7263 36.4324 71.5964 36.3543 71.5444C34.47 70.1242 26.8289 65.0235 19.3006 69.7172C10.7738 75.0257 26.1429 67.9419 36.2935 71.6916Z" fill="#6F74DD"/>
<path d="M35.469 68.5826C35.5124 68.8857 35.1304 68.9983 35.0175 68.7125C33.1159 64.1228 28.4964 51.3496 33.8453 46.8378C40.1666 41.4947 33.4024 52.7698 35.469 68.5826Z" fill="#6F74DD"/>
<path d="M35.0528 68.625C35.4869 65.4988 37.6056 55.6352 46.6448 58.9952C46.8011 59.0559 46.8011 59.2897 46.6448 59.333C44.8474 59.8093 38.9776 61.8617 35.348 68.7462C35.2612 68.9108 35.0267 68.8155 35.0528 68.625Z" fill="#6F74DD"/>
<path d="M35.4082 69.32C35.4256 67.4408 36.6586 63.4314 47.1391 64.8602C47.1999 64.8689 47.2086 64.9728 47.1391 64.9728C45.1593 65.12 38.5341 65.8907 35.9205 69.5452C35.7642 69.779 35.4082 69.6231 35.4082 69.32Z" fill="#6F74DD"/>
<path d="M47.806 118.351L47.5108 116.792L47.1982 115.199L46.5469 112.012L45.2097 105.656C44.7582 103.534 44.2806 101.421 43.8031 99.3167C43.3342 97.2037 42.8479 95.0906 42.3443 92.9863C41.3284 88.7776 40.2256 84.5949 39.0273 80.4382L38.5671 78.8794L38.0896 77.3293C37.7683 76.2988 37.447 75.2683 37.091 74.2464C36.3703 72.2113 35.6322 70.1849 34.625 68.2798L34.9029 68.1152C35.4933 69.0332 36.0317 69.9944 36.4919 70.9816C36.735 71.4753 36.9694 71.9689 37.1691 72.4711C37.3862 72.9734 37.5946 73.4757 37.7857 73.9866C38.5845 76.013 39.2965 78.0741 39.9391 80.1524C41.2155 84.3091 42.2661 88.5265 43.256 92.7525C43.7423 94.8655 44.2198 96.9871 44.6801 99.1088C45.1142 101.23 45.5397 103.361 45.9478 105.491C46.3559 107.621 46.7553 109.752 47.1113 111.891L47.641 115.104L47.8928 116.714L48.0057 117.52L48.0578 117.927C48.0752 118.065 48.1012 118.186 48.1099 118.368L47.806 118.351Z" fill="#6F74DD"/>
<path d="M40.2527 97.2812H54.137C55.0488 97.2812 55.7174 98.6495 55.5176 100.078C54.632 106.296 53.5639 112.601 51.3845 119.009C50.9851 120.195 50.2122 120.931 49.3787 120.931H44.8461C44.0212 120.931 43.2657 120.204 42.875 119.035C41.1297 113.796 39.4538 107.552 38.6203 100.459C38.4379 98.8054 39.2194 97.2812 40.2527 97.2812Z" fill="#3949AB"/>
</svg>
