<svg width="108" height="49" viewBox="0 0 108 49" fill="none" xmlns="http://www.w3.org/2000/svg">
<path d="M45.6449 10.8415C45.6298 10.0271 45.344 8.29873 45.0271 7.56726C44.7102 6.83579 44.2801 6.20614 43.7369 5.67827C43.1785 5.15041 42.541 4.73944 41.8242 4.44534C41.1074 4.15125 40.3491 4.0042 39.5494 4.0042C34.5047 4.0042 30.7213 4.0042 28.199 4.0042C25.6755 4.0042 21.8902 4.0042 16.8433 4.0042V0H39.6625C41.0056 0 42.2769 0.248846 43.4766 0.746546C44.6762 1.24425 45.7288 1.94554 46.6342 2.85045C47.5396 3.74027 48.2451 4.78467 48.7506 5.98368C49.2561 7.18268 49.68 9.66137 49.68 11.0037V12.9787H45.6449C45.6449 12.5342 45.6487 10.9224 45.6449 10.8415Z" fill="#933183"/>
<path d="M4.03508 38.1313C4.05017 38.9457 4.33604 40.6741 4.65294 41.4056C4.96983 42.137 5.3999 42.7667 5.94315 43.2945C6.50148 43.8224 7.13904 44.2334 7.85582 44.5275C8.57261 44.8216 9.33088 44.9686 10.1307 44.9686H32.8368V48.9728H10.0175C8.67446 48.9728 7.40312 48.724 6.20345 48.2263C5.00378 47.7286 3.95125 47.0273 3.04584 46.1224C2.14043 45.2325 1.43497 44.1881 0.929447 42.9891C0.423925 41.7901 0 39.3114 0 37.9692V35.9941H4.03508C4.03508 36.4386 4.03132 38.0504 4.03508 38.1313Z" fill="#76B515"/>
<path d="M13.1588 4.01989H10.992C10.1662 4.03477 8.41389 4.31673 7.67228 4.62929C6.93066 4.94185 6.29226 5.36603 5.75707 5.90184C5.22188 6.45253 4.80521 7.08136 4.50703 7.78833C4.20886 8.49531 4.05977 9.2432 4.05977 10.032C4.05977 13.0172 4.05977 15.2561 4.05977 16.7487C4.05977 20.2328 4.05977 25.459 4.05977 32.4273C3.63077 32.4273 0.151211 32.4273 0 32.4273L0 9.92041C0 8.59576 0.252299 7.34183 0.756906 6.15858C1.26151 4.97533 1.97254 3.93721 2.89 3.04419C3.79218 2.15117 4.85107 1.45537 6.06672 0.956764C7.28236 0.458161 9.79545 0.0400391 11.1564 0.0400391C11.2995 0.0400391 13.1588 0.0400391 13.1588 0.0400391C13.1588 1.13933 13.1588 3.17318 13.1588 4.01989Z" fill="#FD5C02"/>
<path d="M22.529 24.1079C22.529 25.371 22.097 26.4236 21.233 27.2657C20.3834 28.0933 19.0802 28.507 17.3234 28.507H14.429V34.8444H12.4634V19.6653H17.3234C19.0226 19.6653 20.3114 20.079 21.1898 20.9066C22.0826 21.7342 22.529 22.8013 22.529 24.1079ZM17.3234 26.8737C18.4178 26.8737 19.2242 26.6342 19.7426 26.155C20.261 25.6759 20.5202 24.9936 20.5202 24.1079C20.5202 22.235 19.4546 21.2986 17.3234 21.2986H14.429V26.8737H17.3234Z" fill="#3949AB"/>
<path d="M26.9376 24.8484C27.2832 24.166 27.7728 23.6361 28.4064 23.2586C29.0544 22.8811 29.8392 22.6924 30.7608 22.6924V24.7395H30.2424C28.0392 24.7395 26.9376 25.9445 26.9376 28.3546V34.8444H24.972V22.9102H26.9376V24.8484Z" fill="#3949AB"/>
<path d="M38.1922 35.0404C37.0834 35.0404 36.0754 34.7863 35.1682 34.2782C34.2754 33.77 33.5698 33.0513 33.0514 32.1222C32.5474 31.1784 32.2954 30.0896 32.2954 28.8555C32.2954 27.6359 32.5546 26.5616 33.073 25.6324C33.6058 24.6887 34.3258 23.97 35.233 23.4764C36.1402 22.9682 37.1554 22.7142 38.2786 22.7142C39.4018 22.7142 40.417 22.9682 41.3242 23.4764C42.2314 23.97 42.9442 24.6814 43.4626 25.6106C43.9954 26.5398 44.2618 27.6214 44.2618 28.8555C44.2618 30.0896 43.9882 31.1784 43.441 32.1222C42.9082 33.0513 42.181 33.77 41.2594 34.2782C40.3378 34.7863 39.3154 35.0404 38.1922 35.0404ZM38.1922 33.2982C38.8978 33.2982 39.5602 33.1312 40.1794 32.7973C40.7986 32.4633 41.2954 31.9624 41.6698 31.2946C42.0586 30.6267 42.253 29.8137 42.253 28.8555C42.253 27.8973 42.0658 27.0842 41.6914 26.4164C41.317 25.7485 40.8274 25.2549 40.2226 24.9355C39.6178 24.6016 38.9626 24.4346 38.257 24.4346C37.537 24.4346 36.8746 24.6016 36.2698 24.9355C35.6794 25.2549 35.2042 25.7485 34.8442 26.4164C34.4842 27.0842 34.3042 27.8973 34.3042 28.8555C34.3042 29.8282 34.477 30.6485 34.8226 31.3164C35.1826 31.9842 35.6578 32.4851 36.2482 32.819C36.8386 33.1384 37.4866 33.2982 38.1922 33.2982Z" fill="#3949AB"/>
<path d="M47.9046 20.9719C47.5302 20.9719 47.2134 20.8413 46.9542 20.5799C46.7094 20.3186 46.587 19.9992 46.587 19.6217C46.587 19.2442 46.7094 18.9248 46.9542 18.6635C47.2134 18.4022 47.5302 18.2715 47.9046 18.2715C48.279 18.2715 48.5886 18.4022 48.8334 18.6635C49.0926 18.9248 49.2222 19.2442 49.2222 19.6217C49.2222 19.9992 49.0926 20.3186 48.8334 20.5799C48.5886 20.8413 48.279 20.9719 47.9046 20.9719ZM48.8766 37.4359C48.8766 38.4958 48.6102 39.2725 48.0774 39.7662C47.5446 40.2598 46.767 40.5066 45.7446 40.5066H44.5998V38.8297H45.4206C45.9678 38.8297 46.3494 38.7208 46.5654 38.503C46.7958 38.2853 46.911 37.915 46.911 37.3924V22.9102H48.8766V37.4359Z" fill="#3949AB"/>
<path d="M63.004 28.4199C63.004 28.7974 62.9824 29.1967 62.9392 29.6177H53.4784C53.5504 30.7937 53.9464 31.7156 54.6664 32.3835C55.4008 33.0368 56.2864 33.3635 57.3232 33.3635C58.1728 33.3635 58.8784 33.1675 59.44 32.7755C60.016 32.369 60.4192 31.8318 60.6496 31.1639H62.7664C62.4496 32.3109 61.816 33.2473 60.8656 33.9733C59.9152 34.6847 58.7344 35.0404 57.3232 35.0404C56.2 35.0404 55.192 34.7863 54.2992 34.2782C53.4208 33.77 52.7296 33.0513 52.2256 32.1222C51.7216 31.1784 51.4696 30.0896 51.4696 28.8555C51.4696 27.6214 51.7144 26.5398 52.204 25.6106C52.6936 24.6814 53.3776 23.97 54.256 23.4764C55.1488 22.9682 56.1712 22.7142 57.3232 22.7142C58.4464 22.7142 59.44 22.961 60.304 23.4546C61.168 23.9482 61.8304 24.6306 62.2912 25.5017C62.7664 26.3583 63.004 27.331 63.004 28.4199ZM60.9736 28.0062C60.9736 27.2512 60.808 26.6051 60.4768 26.0679C60.1456 25.5162 59.692 25.1024 59.116 24.8266C58.5544 24.5362 57.928 24.391 57.2368 24.391C56.2432 24.391 55.3936 24.7104 54.688 25.3493C53.9968 25.9881 53.6008 26.8737 53.5 28.0062H60.9736Z" fill="#3949AB"/>
<path d="M64.8641 28.8555C64.8641 27.6214 65.1089 26.547 65.5985 25.6324C66.0881 24.7032 66.7649 23.9845 67.6289 23.4764C68.5073 22.9682 69.5081 22.7142 70.6313 22.7142C72.0857 22.7142 73.2809 23.0699 74.2169 23.7813C75.1673 24.4927 75.7937 25.4799 76.0961 26.743H73.9793C73.7777 26.0171 73.3817 25.4436 72.7913 25.0226C72.2153 24.6016 71.4953 24.391 70.6313 24.391C69.5081 24.391 68.6009 24.783 67.9097 25.567C67.2185 26.3365 66.8729 27.4327 66.8729 28.8555C66.8729 30.2928 67.2185 31.4035 67.9097 32.1875C68.6009 32.9715 69.5081 33.3635 70.6313 33.3635C71.4953 33.3635 72.2153 33.1602 72.7913 32.7537C73.3673 32.3472 73.7633 31.7664 73.9793 31.0115H76.0961C75.7793 32.231 75.1457 33.211 74.1953 33.9515C73.2449 34.6774 72.0569 35.0404 70.6313 35.0404C69.5081 35.0404 68.5073 34.7863 67.6289 34.2782C66.7649 33.77 66.0881 33.0513 65.5985 32.1222C65.1089 31.193 64.8641 30.1041 64.8641 28.8555Z" fill="#3949AB"/>
<path d="M81.1165 24.5435V31.5777C81.1165 32.1584 81.2388 32.5722 81.4837 32.819C81.7284 33.0513 82.1533 33.1675 82.758 33.1675H84.2053V34.8444H82.4341C81.3397 34.8444 80.5188 34.5903 79.9716 34.0822C79.4244 33.574 79.1508 32.7392 79.1508 31.5777V24.5435H77.6172V22.9102H79.1508V19.9048H81.1165V22.9102H84.2053V24.5435H81.1165Z" fill="#3949AB"/>
<path d="M91.7492 35.0404C90.6404 35.0404 89.6324 34.7863 88.7252 34.2782C87.8324 33.77 87.1268 33.0513 86.6084 32.1222C86.1044 31.1784 85.8524 30.0896 85.8524 28.8555C85.8524 27.6359 86.1116 26.5616 86.63 25.6324C87.1628 24.6887 87.8828 23.97 88.79 23.4764C89.6972 22.9682 90.7124 22.7142 91.8356 22.7142C92.9588 22.7142 93.974 22.9682 94.8812 23.4764C95.7884 23.97 96.5012 24.6814 97.0196 25.6106C97.5524 26.5398 97.8188 27.6214 97.8188 28.8555C97.8188 30.0896 97.5452 31.1784 96.998 32.1222C96.4652 33.0513 95.738 33.77 94.8164 34.2782C93.8948 34.7863 92.8724 35.0404 91.7492 35.0404ZM91.7492 33.2982C92.4548 33.2982 93.1172 33.1312 93.7364 32.7973C94.3556 32.4633 94.8524 31.9624 95.2268 31.2946C95.6156 30.6267 95.81 29.8137 95.81 28.8555C95.81 27.8973 95.6228 27.0842 95.2484 26.4164C94.874 25.7485 94.3844 25.2549 93.7796 24.9355C93.1748 24.6016 92.5196 24.4346 91.814 24.4346C91.094 24.4346 90.4316 24.6016 89.8268 24.9355C89.2364 25.2549 88.7612 25.7485 88.4012 26.4164C88.0412 27.0842 87.8612 27.8973 87.8612 28.8555C87.8612 29.8282 88.034 30.6485 88.3796 31.3164C88.7396 31.9842 89.2148 32.4851 89.8052 32.819C90.3956 33.1384 91.0436 33.2982 91.7492 33.2982Z" fill="#3949AB"/>
<path d="M102.369 24.8484C102.714 24.166 103.204 23.6361 103.838 23.2586C104.486 22.8811 105.27 22.6924 106.192 22.6924V24.7395H105.674C103.47 24.7395 102.369 25.9445 102.369 28.3546V34.8444H100.403V22.9102H102.369V24.8484Z" fill="#3949AB"/>
<path d="M74.8545 8.71007C74.8545 5.70319 77.2722 3.26562 80.2545 3.26562H102.6C105.582 3.26562 108 5.70319 108 8.71007V10.8878C108 13.8947 105.582 16.3323 102.6 16.3323H80.2545C77.2722 16.3323 74.8545 13.8947 74.8545 10.8878V8.71007Z" fill="#3949AB"/>
<path fill-rule="evenodd" clip-rule="evenodd" d="M102.6 3.81007H80.2545C77.5704 3.81007 75.3945 6.00387 75.3945 8.71007V10.8878C75.3945 13.594 77.5704 15.7878 80.2545 15.7878H102.6C105.284 15.7878 107.46 13.594 107.46 10.8878V8.71007C107.46 6.00387 105.284 3.81007 102.6 3.81007ZM80.2545 3.26562C77.2722 3.26562 74.8545 5.70319 74.8545 8.71007V10.8878C74.8545 13.8947 77.2722 16.3323 80.2545 16.3323H102.6C105.582 16.3323 108 13.8947 108 10.8878V8.71007C108 5.70319 105.582 3.26562 102.6 3.26562H80.2545Z" fill="white"/>
<path d="M84.4581 11.4414C84.4581 11.2004 84.3738 11.016 84.205 10.8884C84.0363 10.758 83.7325 10.6219 83.2938 10.4801C82.855 10.3355 82.5077 10.1937 82.2517 10.0548C81.5542 9.67478 81.2055 9.16294 81.2055 8.51925C81.2055 8.18464 81.2983 7.8869 81.4839 7.62602C81.6723 7.3623 81.9409 7.15672 82.2897 7.00927C82.6413 6.86181 83.035 6.78809 83.4709 6.78809C83.9097 6.78809 84.3006 6.8689 84.6438 7.03053C84.9869 7.18933 85.2527 7.41476 85.4411 7.70684C85.6323 7.99891 85.728 8.33068 85.728 8.70215H84.4623C84.4623 8.41858 84.3738 8.19882 84.1966 8.04286C84.0194 7.88406 83.7705 7.80467 83.4498 7.80467C83.1405 7.80467 82.9 7.8713 82.7284 8.00458C82.5569 8.13502 82.4711 8.30799 82.4711 8.5235C82.4711 8.72483 82.5709 8.89355 82.7706 9.02967C82.9731 9.16578 83.2698 9.29338 83.6608 9.41248C84.3808 9.63082 84.9053 9.90163 85.2344 10.2249C85.5634 10.5482 85.728 10.9508 85.728 11.4329C85.728 11.9688 85.5269 12.3899 85.1247 12.6962C84.7225 12.9996 84.1811 13.1513 83.5005 13.1513C83.028 13.1513 82.5977 13.0648 82.2095 12.8918C81.8214 12.716 81.5247 12.4764 81.3194 12.173C81.1169 11.8696 81.0156 11.5179 81.0156 11.1181H82.2855C82.2855 11.8015 82.6905 12.1432 83.5005 12.1432C83.8014 12.1432 84.0363 12.0822 84.205 11.9603C84.3738 11.8355 84.4581 11.6626 84.4581 11.4414Z" fill="white"/>
<path d="M87.8542 10.8842V13.0662H86.5886V6.87316H88.9848C89.4461 6.87316 89.8511 6.95822 90.1998 7.12836C90.5514 7.2985 90.8214 7.54095 91.0098 7.85571C91.1983 8.16763 91.2925 8.5235 91.2925 8.92333C91.2925 9.53016 91.0858 10.0094 90.6723 10.361C90.2617 10.7098 89.6922 10.8842 88.9638 10.8842H87.8542ZM87.8542 9.85059H88.9848C89.3195 9.85059 89.5741 9.77119 89.7484 9.61239C89.9256 9.4536 90.0142 9.22674 90.0142 8.93184C90.0142 8.62842 89.9256 8.38314 89.7484 8.19599C89.5712 8.00883 89.3266 7.91242 89.0144 7.90675H87.8542V9.85059Z" fill="white"/>
<path d="M95.8614 10.3823H93.4314V12.0411H96.2833V13.0662H92.1658V6.87316H96.2748V7.90675H93.4314V9.3827H95.8614V10.3823Z" fill="white"/>
<path d="M101.848 11.0033C101.8 11.6697 101.555 12.1942 101.114 12.5771C100.675 12.9599 100.096 13.1513 99.3756 13.1513C98.5881 13.1513 97.968 12.8847 97.5152 12.3516C97.0652 11.8157 96.8402 11.0813 96.8402 10.1483V9.76977C96.8402 9.17428 96.9442 8.64969 97.1523 8.19599C97.3605 7.74228 97.6572 7.39491 98.0425 7.15388C98.4306 6.91002 98.8806 6.78809 99.3925 6.78809C100.101 6.78809 100.672 6.97949 101.105 7.3623C101.538 7.74512 101.789 8.28247 101.856 8.97437H100.591C100.56 8.57454 100.449 8.28531 100.257 8.10666C100.069 7.92518 99.7806 7.83444 99.3925 7.83444C98.9706 7.83444 98.6542 7.98757 98.4433 8.29382C98.2352 8.59723 98.1283 9.06936 98.1227 9.71022V10.1781C98.1227 10.8473 98.2225 11.3365 98.4222 11.6456C98.6247 11.9546 98.9425 12.1092 99.3756 12.1092C99.7666 12.1092 100.058 12.0199 100.249 11.8412C100.443 11.6597 100.554 11.3804 100.582 11.0033H101.848Z" fill="white"/>
</svg>
