<svg width="230" height="104" viewBox="0 0 230 104" fill="none" xmlns="http://www.w3.org/2000/svg">
<path d="M97.207 23.0105C97.1749 21.282 96.5661 17.6136 95.8912 16.0611C95.2163 14.5086 94.3005 13.1722 93.1436 12.0518C91.9545 10.9315 90.5967 10.0592 89.0703 9.43501C87.5438 8.81081 85.9289 8.49871 84.2257 8.49871C73.4825 8.49871 65.4251 8.49871 60.0536 8.49871C54.6795 8.49871 46.6183 8.49871 35.8701 8.49871V0H84.4667C87.3269 0 90.0343 0.528163 92.5892 1.58451C95.1441 2.64085 97.3855 4.12931 99.3137 6.04993C101.242 7.93854 102.744 10.1552 103.821 12.7001C104.897 15.2449 105.8 20.5058 105.8 23.3547V27.5466H97.207C97.207 26.6031 97.215 23.1822 97.207 23.0105Z" fill="#933183"/>
<path d="M8.59323 80.9318C8.62537 82.6603 9.23417 86.3287 9.90904 87.8812C10.5839 89.4337 11.4998 90.7701 12.6567 91.8905C13.8458 93.0109 15.2035 93.8831 16.73 94.5073C18.2565 95.1315 19.8713 95.4436 21.5746 95.4436H69.9301V103.942H21.3335C18.4734 103.942 15.7659 103.414 13.2111 102.358C10.6562 101.301 8.4147 99.813 6.48651 97.8924C4.55831 96.0038 3.05595 93.7871 1.97938 91.2423C0.902803 88.6975 0 83.4366 0 80.5876V76.3958H8.59323C8.59323 77.3392 8.58521 80.7601 8.59323 80.9318Z" fill="#76B515"/>
<path d="M28.0233 8.53077H23.4088C21.6503 8.56236 17.9185 9.16081 16.3391 9.82419C14.7597 10.4876 13.4002 11.3879 12.2604 12.5251C11.1207 13.6939 10.2333 15.0286 9.59831 16.5291C8.9633 18.0296 8.6458 19.617 8.6458 21.2912C8.6458 27.6271 8.6458 32.379 8.6458 35.547C8.6458 42.9419 8.6458 54.0343 8.6458 68.8241C7.7322 68.8241 0.322024 68.8241 0 68.8241L0 21.0543C0 18.2428 0.537304 15.5814 1.61193 13.07C2.68655 10.5586 4.20078 8.35528 6.15464 6.45989C8.07594 4.5645 10.331 3.0877 12.9199 2.02944C15.5087 0.971183 20.8607 0.0837402 23.7589 0.0837402C24.0638 0.0837402 28.0233 0.0837402 28.0233 0.0837402C28.0233 2.41694 28.0233 6.73367 28.0233 8.53077Z" fill="#FD5C02"/>
<path d="M47.978 51.1681C47.978 53.849 47.058 56.083 45.218 57.8703C43.4087 59.6267 40.6333 60.505 36.892 60.505H30.728V73.9556H26.542V41.7387H36.892C40.5107 41.7387 43.2553 42.617 45.126 44.3734C47.0273 46.1299 47.978 48.3947 47.978 51.1681ZM36.892 57.0383C39.2227 57.0383 40.94 56.5299 42.044 55.513C43.148 54.4961 43.7 53.0478 43.7 51.1681C43.7 47.193 41.4307 45.2054 36.892 45.2054H30.728V57.0383H36.892Z" fill="#3949AB"/>
<path d="M57.3667 52.7396C58.1027 51.2913 59.1453 50.1666 60.4947 49.3654C61.8747 48.5642 63.546 48.1636 65.5087 48.1636V52.5085H64.4047C59.7127 52.5085 57.3667 55.0661 57.3667 60.1814V73.9556H53.1807V48.6259H57.3667V52.7396Z" fill="#3949AB"/>
<path d="M81.3348 74.3716C78.9735 74.3716 76.8268 73.8324 74.8948 72.7539C72.9935 71.6753 71.4908 70.15 70.3868 68.1779C69.3135 66.1749 68.7768 63.8638 68.7768 61.2445C68.7768 58.6561 69.3288 56.3758 70.4328 54.4036C71.5675 52.4007 73.1008 50.8753 75.0328 49.8276C76.9648 48.7491 79.1268 48.2099 81.5188 48.2099C83.9108 48.2099 86.0728 48.7491 88.0048 49.8276C89.9368 50.8753 91.4548 52.3853 92.5588 54.3574C93.6935 56.3296 94.2608 58.6253 94.2608 61.2445C94.2608 63.8638 93.6782 66.1749 92.5128 68.1779C91.3782 70.15 89.8295 71.6753 87.8668 72.7539C85.9041 73.8324 83.7268 74.3716 81.3348 74.3716ZM81.3348 70.6739C82.8375 70.6739 84.2481 70.3195 85.5668 69.6107C86.8855 68.902 87.9435 67.8389 88.7408 66.4214C89.5688 65.0039 89.9828 63.2783 89.9828 61.2445C89.9828 59.2107 89.5841 57.4851 88.7868 56.0676C87.9895 54.6501 86.9468 53.6024 85.6588 52.9245C84.3708 52.2158 82.9755 51.8614 81.4728 51.8614C79.9395 51.8614 78.5288 52.2158 77.2408 52.9245C75.9835 53.6024 74.9715 54.6501 74.2048 56.0676C73.4382 57.4851 73.0548 59.2107 73.0548 61.2445C73.0548 63.3091 73.4228 65.0502 74.1588 66.4676C74.9255 67.8851 75.9375 68.9482 77.1948 69.657C78.4522 70.3349 79.8321 70.6739 81.3348 70.6739Z" fill="#3949AB"/>
<path d="M102.019 44.5121C101.221 44.5121 100.547 44.2347 99.9946 43.6801C99.4733 43.1254 99.2126 42.4475 99.2126 41.6463C99.2126 40.8451 99.4733 40.1672 99.9946 39.6125C100.547 39.0579 101.221 38.7805 102.019 38.7805C102.816 38.7805 103.475 39.0579 103.997 39.6125C104.549 40.1672 104.825 40.8451 104.825 41.6463C104.825 42.4475 104.549 43.1254 103.997 43.6801C103.475 44.2347 102.816 44.5121 102.019 44.5121ZM104.089 79.4561C104.089 81.7056 103.521 83.3542 102.387 84.4019C101.252 85.4496 99.596 85.9734 97.4186 85.9734H94.9806V82.4143H96.7286C97.894 82.4143 98.7066 82.1832 99.1666 81.721C99.6573 81.2587 99.9026 80.473 99.9026 79.3636V48.6259H104.089V79.4561Z" fill="#3949AB"/>
<path d="M134.175 60.3201C134.175 61.1213 134.129 61.9687 134.037 62.8623H113.889C114.042 65.3583 114.885 67.315 116.419 68.7325C117.983 70.1192 119.869 70.8125 122.077 70.8125C123.886 70.8125 125.389 70.3965 126.585 69.5645C127.811 68.7017 128.67 67.5616 129.161 66.1441H133.669C132.994 68.5784 131.645 70.566 129.621 72.1067C127.597 73.6167 125.082 74.3716 122.077 74.3716C119.685 74.3716 117.538 73.8324 115.637 72.7539C113.766 71.6753 112.294 70.15 111.221 68.1779C110.147 66.1749 109.611 63.8638 109.611 61.2445C109.611 58.6253 110.132 56.3296 111.175 54.3574C112.217 52.3853 113.674 50.8753 115.545 49.8276C117.446 48.7491 119.623 48.2099 122.077 48.2099C124.469 48.2099 126.585 48.7337 128.425 49.7814C130.265 50.8291 131.675 52.2774 132.657 54.1263C133.669 55.9444 134.175 58.009 134.175 60.3201ZM129.851 59.4419C129.851 57.8395 129.498 56.4682 128.793 55.3281C128.087 54.1571 127.121 53.2789 125.895 52.6934C124.699 52.0771 123.365 51.769 121.893 51.769C119.777 51.769 117.967 52.4469 116.465 53.8027C114.993 55.1586 114.149 57.0383 113.935 59.4419H129.851Z" fill="#3949AB"/>
<path d="M138.136 61.2445C138.136 58.6253 138.658 56.345 139.7 54.4036C140.743 52.4315 142.184 50.9061 144.024 49.8276C145.895 48.7491 148.026 48.2099 150.418 48.2099C153.516 48.2099 156.061 48.9648 158.054 50.4747C160.078 51.9847 161.412 54.0801 162.056 56.761H157.548C157.119 55.2202 156.276 54.003 155.018 53.1094C153.792 52.2158 152.258 51.769 150.418 51.769C148.026 51.769 146.094 52.601 144.622 54.265C143.15 55.8981 142.414 58.2247 142.414 61.2445C142.414 64.2952 143.15 66.6525 144.622 68.3165C146.094 69.9805 148.026 70.8125 150.418 70.8125C152.258 70.8125 153.792 70.3811 155.018 69.5183C156.245 68.6555 157.088 67.4229 157.548 65.8205H162.056C161.382 68.409 160.032 70.489 158.008 72.0605C155.984 73.6013 153.454 74.3716 150.418 74.3716C148.026 74.3716 145.895 73.8324 144.024 72.7539C142.184 71.6753 140.743 70.15 139.7 68.1779C138.658 66.2057 138.136 63.8946 138.136 61.2445Z" fill="#3949AB"/>
<path d="M172.748 52.0925V67.0223C172.748 68.2549 173.008 69.1331 173.53 69.657C174.051 70.15 174.956 70.3965 176.244 70.3965H179.326V73.9556H175.554C173.223 73.9556 171.475 73.4164 170.31 72.3379C169.144 71.2593 168.562 69.4875 168.562 67.0223V52.0925H165.296V48.6259H168.562V42.2472H172.748V48.6259H179.326V52.0925H172.748Z" fill="#3949AB"/>
<path d="M195.391 74.3716C193.03 74.3716 190.883 73.8324 188.951 72.7539C187.05 71.6753 185.547 70.15 184.443 68.1779C183.37 66.1749 182.833 63.8638 182.833 61.2445C182.833 58.6561 183.385 56.3758 184.489 54.4036C185.624 52.4007 187.157 50.8753 189.089 49.8276C191.021 48.7491 193.183 48.2099 195.575 48.2099C197.967 48.2099 200.129 48.7491 202.061 49.8276C203.993 50.8753 205.511 52.3853 206.615 54.3574C207.75 56.3296 208.317 58.6253 208.317 61.2445C208.317 63.8638 207.735 66.1749 206.569 68.1779C205.435 70.15 203.886 71.6753 201.923 72.7539C199.961 73.8324 197.783 74.3716 195.391 74.3716ZM195.391 70.6739C196.894 70.6739 198.305 70.3195 199.623 69.6107C200.942 68.902 202 67.8389 202.797 66.4214C203.625 65.0039 204.039 63.2783 204.039 61.2445C204.039 59.2107 203.641 57.4851 202.843 56.0676C202.046 54.6501 201.003 53.6024 199.715 52.9245C198.427 52.2158 197.032 51.8614 195.529 51.8614C193.996 51.8614 192.585 52.2158 191.297 52.9245C190.04 53.6024 189.028 54.6501 188.261 56.0676C187.495 57.4851 187.111 59.2107 187.111 61.2445C187.111 63.3091 187.479 65.0502 188.215 66.4676C188.982 67.8851 189.994 68.9482 191.251 69.657C192.509 70.3349 193.889 70.6739 195.391 70.6739Z" fill="#3949AB"/>
<path d="M218.007 52.7396C218.743 51.2913 219.786 50.1666 221.135 49.3654C222.515 48.5642 224.187 48.1636 226.149 48.1636V52.5085H225.045C220.353 52.5085 218.007 55.0661 218.007 60.1814V73.9556H213.821V48.6259H218.007V52.7396Z" fill="#3949AB"/>
<rect x="159.988" y="7.50835" width="69.437" height="26.5833" rx="10.925" fill="#6F74DD" fill-opacity="0.33" stroke="white" stroke-width="1.15"/>
<path d="M179.864 23.5013C179.864 22.9922 179.685 22.6029 179.325 22.3333C178.966 22.0578 178.319 21.7703 177.385 21.4708C176.45 21.1654 175.711 20.8659 175.166 20.5724C173.68 19.7698 172.937 18.6887 172.937 17.3291C172.937 16.6223 173.135 15.9934 173.53 15.4423C173.932 14.8853 174.504 14.4511 175.246 14.1396C175.995 13.8281 176.834 13.6724 177.762 13.6724C178.696 13.6724 179.529 13.8431 180.26 14.1845C180.99 14.5199 181.556 14.9961 181.958 15.613C182.365 16.23 182.569 16.9307 182.569 17.7154H179.873C179.873 17.1164 179.685 16.6522 179.307 16.3228C178.93 15.9874 178.4 15.8197 177.717 15.8197C177.058 15.8197 176.546 15.9604 176.181 16.2419C175.815 16.5175 175.633 16.8828 175.633 17.338C175.633 17.7633 175.845 18.1197 176.271 18.4072C176.702 18.6947 177.334 18.9642 178.166 19.2158C179.7 19.677 180.817 20.249 181.518 20.9318C182.218 21.6146 182.569 22.4651 182.569 23.4833C182.569 24.6154 182.14 25.5048 181.284 26.1517C180.427 26.7926 179.274 27.113 177.825 27.113C176.819 27.113 175.902 26.9304 175.076 26.565C174.249 26.1936 173.617 25.6875 173.18 25.0466C172.749 24.4057 172.533 23.663 172.533 22.8185H175.237C175.237 24.262 176.1 24.9837 177.825 24.9837C178.466 24.9837 178.966 24.855 179.325 24.5974C179.685 24.3339 179.864 23.9685 179.864 23.5013ZM187.097 22.3244V26.9333H184.402V13.8521H189.505C190.487 13.8521 191.349 14.0318 192.092 14.3912C192.841 14.7505 193.416 15.2626 193.817 15.9275C194.218 16.5863 194.419 17.338 194.419 18.1826C194.419 19.4643 193.979 20.4766 193.098 21.2193C192.224 21.956 191.011 22.3244 189.46 22.3244H187.097ZM187.097 20.1412H189.505C190.217 20.1412 190.759 19.9735 191.131 19.638C191.508 19.3026 191.697 18.8235 191.697 18.2005C191.697 17.5597 191.508 17.0416 191.131 16.6462C190.753 16.2509 190.232 16.0473 189.568 16.0353H187.097V20.1412ZM204.149 21.2642H198.974V24.7681H205.048V26.9333H196.279V13.8521H205.03V16.0353H198.974V19.1529H204.149V21.2642ZM216.898 22.5759C216.796 23.9835 216.275 25.0916 215.335 25.9001C214.4 26.7087 213.166 27.113 211.633 27.113C209.956 27.113 208.635 26.55 207.671 25.424C206.713 24.2919 206.234 22.7406 206.234 20.7701V19.9705C206.234 18.7126 206.455 17.6046 206.898 16.6462C207.342 15.6879 207.974 14.9542 208.794 14.4451C209.621 13.93 210.579 13.6724 211.669 13.6724C213.178 13.6724 214.394 14.0767 215.317 14.8853C216.239 15.6939 216.772 16.8289 216.916 18.2904H214.221C214.155 17.4458 213.918 16.8349 213.511 16.4576C213.11 16.0742 212.496 15.8826 211.669 15.8826C210.771 15.8826 210.097 16.206 209.648 16.8529C209.204 17.4938 208.977 18.491 208.965 19.8447V20.833C208.965 22.2465 209.177 23.2797 209.603 23.9326C210.034 24.5854 210.711 24.9119 211.633 24.9119C212.466 24.9119 213.086 24.7232 213.493 24.3458C213.906 23.9625 214.143 23.3725 214.203 22.5759H216.898Z" fill="white"/>
</svg>
