<svg width="191" height="56" viewBox="0 0 191 56" fill="none" xmlns="http://www.w3.org/2000/svg">
<path d="M51.0152 5.39433C55.2122 5.87083 58.4146 7.54409 60.6223 10.4141C62.8723 13.289 63.7014 17.3336 63.1093 22.5481L60.8568 42.3887L46.4851 40.757L48.4561 23.3966C48.9085 19.4115 47.8417 17.2722 45.2557 16.9786C43.899 16.8245 42.739 17.2081 41.7756 18.1293C40.8546 19.0554 40.269 20.6206 40.0187 22.8251L38.0911 39.804L23.7194 38.1724L25.6903 20.8119C26.1428 16.8269 25.076 14.6875 22.4899 14.3939C21.1333 14.2399 19.9733 14.6235 19.0099 15.5447C18.0889 16.4707 17.5032 18.036 17.253 20.2405L15.3253 37.2194L0.953641 35.5878L4.90277 0.803246L18.5749 2.35546L18.2067 5.59863C21.0864 3.30617 24.5188 2.38616 28.5038 2.83859C30.8355 3.10331 32.8835 3.7867 34.6478 4.88875C36.4169 5.94841 37.7938 7.43591 38.7787 9.35124C40.3703 7.8143 42.2128 6.71379 44.3064 6.04972C46.4049 5.34326 48.6411 5.1248 51.0152 5.39433ZM86.6925 9.44482C92.7973 10.1379 97.3042 12.0452 100.213 15.1666C103.127 18.2456 104.262 22.6255 103.617 28.3064L101.494 47.0023L88.1401 45.4862L88.6599 40.9076C86.6118 44.1962 83.1289 45.5614 78.2112 45.003C75.4555 44.6902 73.1556 43.9567 71.3114 42.8026C69.5143 41.611 68.1985 40.1519 67.3639 38.4254C66.5766 36.6613 66.2984 34.7618 66.5294 32.7269C66.9193 29.293 68.5295 26.8349 71.3601 25.3528C74.1907 23.8706 78.2769 23.4328 83.6185 24.0392L89.4054 24.6962C89.2471 21.93 87.2178 20.3255 83.3175 19.8827C81.7489 19.7046 80.1303 19.7785 78.4615 20.1043C76.7976 20.3878 75.3452 20.8885 74.1043 21.6064L70.6014 11.6115C72.7335 10.6082 75.2371 9.92631 78.1121 9.56566C81.0344 9.16744 83.8945 9.12715 86.6925 9.44482ZM83.5173 36.8455C84.5347 36.961 85.4775 36.789 86.3456 36.3293C87.2136 35.8696 87.901 35.1103 88.4077 34.0514L88.682 31.6349L85.1209 31.2306C82.1957 30.8985 80.6224 31.7075 80.401 33.6576C80.3095 34.4631 80.5293 35.1751 81.0602 35.7936C81.6384 36.3746 82.4574 36.7252 83.5173 36.8455ZM125.579 38.9156L123.008 41.1358L122.077 49.3391L107.705 47.7074L113.062 0.522549L127.434 2.15418L124.878 24.6656L136.01 15.688L152.989 17.6156L136.906 31.0552L150.184 52.5301L132.824 50.5592L125.579 38.9156ZM190.413 39.4487C190.389 39.6606 190.198 40.7769 189.84 42.7974L165.675 40.0539C166.034 41.4259 166.767 42.5396 167.872 43.3951C168.982 44.2082 170.427 44.7158 172.208 44.9179C173.734 45.0912 175.027 45.0448 176.088 44.7788C177.191 44.5175 178.411 43.9904 179.746 43.1973L186.391 51.6166C182.576 54.9622 177.298 56.2524 170.557 55.4872C166.36 55.0107 162.758 53.8288 159.752 51.9417C156.75 50.0121 154.537 47.5708 153.112 44.6178C151.686 41.6649 151.169 38.4714 151.559 35.0375C151.953 31.5611 153.152 28.5626 155.156 26.0419C157.207 23.4836 159.803 21.6098 162.944 20.4205C166.127 19.2361 169.584 18.8556 173.315 19.2792C176.834 19.6787 179.955 20.7415 182.679 22.4678C185.445 24.199 187.523 26.5174 188.91 29.4232C190.34 32.3337 190.841 35.6756 190.413 39.4487ZM172.33 29.0867C170.847 28.9182 169.571 29.1814 168.505 29.8762C167.438 30.571 166.673 31.6434 166.207 33.0936L177.399 34.3642C177.266 32.8891 176.758 31.6935 175.874 30.7773C174.996 29.8187 173.814 29.2552 172.33 29.0867Z" fill="#FD5C02"/>
</svg>
