<svg width="280" height="253" viewBox="0 0 280 253" fill="none" xmlns="http://www.w3.org/2000/svg">
<path d="M235.991 110.497C224.332 107.99 184.569 100.636 142.943 106.603C129.003 108.606 116.658 116.702 109.128 128.623C95.5654 150.097 76.3903 188.366 80.4493 228.287L101.738 233.554C101.738 233.554 116.448 186.194 133.006 166.906C133.006 166.906 152.615 211.632 151.621 236.188C151.593 236.888 151.551 237.561 151.481 238.219C149.228 262.242 245.593 242.701 245.593 242.701L239.589 114.713C239.477 112.668 238.007 110.931 235.991 110.497Z" fill="#EE8030"/>
<path d="M202.835 65.5471L205.634 98.8014C205.9 101.897 204.305 104.783 201.645 106.029C195.529 108.887 183.786 112.977 171.231 109.965C168.936 109.419 167.438 107.01 167.816 104.559L175.962 51.8477L202.835 65.5471Z" fill="url(#paint0_linear)"/>
<path d="M165.449 25.2461C165.449 25.2461 159.123 49.8156 160.383 61.9742C161.642 74.1329 160.285 82.3834 174.603 82.5795C188.921 82.7756 199.545 73.9648 203.982 60.9376C203.982 60.9376 210.994 40.8366 207.551 33.6227C204.108 26.3947 165.449 25.2461 165.449 25.2461Z" fill="url(#paint1_linear)"/>
<path d="M197.851 53.0668L196.088 53.3469C196.088 53.3469 200.973 37.2941 194.17 35.6973C187.382 34.1004 161.307 32.9798 154.42 24.8833C147.786 17.0811 150.683 5.16054 157.206 0.916217C157.612 0.650072 158.172 0.776139 158.465 1.16835L159.221 2.17691C159.739 2.86328 160.831 2.56912 160.943 1.71466C161.041 0.902211 162.063 0.56602 162.594 1.18236C164.694 3.59168 169.901 7.23368 182.371 7.54184C200.063 7.96208 212.534 13.1169 214.717 24.9534C214.857 25.7098 215.725 25.99 216.313 25.4997C217.46 24.5191 219.434 23.8328 222.513 25.6818C227.86 28.9035 227.58 39.5074 218.58 49.6349C218.146 50.1112 218.286 50.8816 218.874 51.1477C220.945 52.0722 224.207 54.5236 217.572 59.5663C210.798 64.7212 206.333 64.9873 204.612 64.8192C204.15 64.7772 203.786 64.413 203.744 63.9507L202.708 53.3049C202.652 52.7586 202.148 52.3664 201.602 52.4504L197.851 53.0668Z" fill="url(#paint2_linear)"/>
<path d="M197.768 55.3365C197.768 55.3365 199.237 40.0541 206.473 43.1218C213.709 46.1895 205.69 60.1131 200.483 61.4998L197.768 55.3365Z" fill="url(#paint3_linear)"/>
<path d="M239.128 204.531C241.2 189.851 226.014 168.265 219.729 160.07C217.938 157.731 216.93 154.859 216.902 151.904C216.72 131.102 223.76 120.246 237.729 111.268C237.729 111.268 290.159 167.943 277.24 213.439C275.841 218.356 273.685 222.572 270.942 226.2C268.912 209.055 249.108 205.315 239.128 204.531Z" fill="#EE8030"/>
<path d="M238.176 198.844L240.108 198.62C238.47 184.22 225.846 166.445 220.485 159.469L218.945 160.659C224.208 167.509 236.595 184.935 238.176 198.844Z" fill="url(#paint4_linear)"/>
<path d="M238.722 206.56C238.904 205.902 239.015 205.216 239.113 204.529C249.093 205.314 268.898 209.068 270.927 226.213C248.281 256.19 185.871 245.376 185.871 245.376V233.707C185.885 233.707 233.823 224.784 238.722 206.56Z" fill="url(#paint5_linear)"/>
<path d="M191.888 242.141C191.888 242.141 182.679 220.373 166.429 228.091C150.193 235.81 151.467 240.866 151.467 240.866L191.888 242.141Z" fill="url(#paint6_linear)"/>
<path d="M209.743 249.706C209.617 251.359 208.217 252.606 206.566 252.55L122.419 249.608C121.118 249.566 119.97 248.698 119.578 247.451L117.143 239.635C116.541 237.716 117.913 235.741 119.928 235.628L150.608 234.004C150.888 233.99 151.168 234.018 151.434 234.074L207.336 246.47C208.847 246.779 209.869 248.165 209.743 249.706Z" fill="#6F74DD"/>
<path d="M153.707 127.112C155.485 141.694 163.519 200.974 165.814 217.909C166.136 220.291 164.246 222.392 161.853 222.322L25.724 218.428C23.9464 218.372 22.4208 217.125 22.0429 215.374L0.852346 119.912C0.29249 117.39 2.29398 115.023 4.88331 115.177L150.082 123.694C151.944 123.806 153.483 125.235 153.707 127.112Z" fill="#6F74DD"/>
<path d="M98.9808 187.217L119.094 244.368L72.3036 245.363L68.4126 187.567C68.2307 184.85 70.4841 182.608 73.1854 182.776L95.0338 184.233C96.8393 184.345 98.393 185.522 98.9808 187.217Z" fill="#3949AB"/>
<path d="M138.073 246.808C138.591 248.377 137.415 250.002 135.763 250.002H62.492C61.1484 250.002 60.0566 248.909 60.0566 247.564V244.426C60.0566 243.04 61.2043 241.933 62.59 242.003L135.861 245.155C136.883 245.183 137.751 245.855 138.073 246.808Z" fill="#00227B"/>
<path d="M174.617 70.5323C191.021 74.8327 203.842 59.3962 203.968 59.2421L202.96 58.4297C202.834 58.5838 190.531 73.3899 174.939 69.2996L174.617 70.5323Z" fill="#3949AB"/>
<path d="M206.514 40.1352C206.514 40.1352 205.367 12.4421 189.299 6.68495C189.299 6.68495 194.324 5.42426 198.802 8.75808C203.267 12.0779 213.401 27.4443 210.517 41.6201C207.004 42.0543 206.514 40.1352 206.514 40.1352Z" fill="#3949AB"/>
<path d="M209.635 39.0446C218.439 42.5745 215.206 53.9487 215.206 53.9487C214.324 62.4654 211.119 66.1774 207.62 67.5922C205.226 68.5587 202.511 68.1805 200.454 66.6257C198.396 65.0708 197.304 62.5495 197.584 59.9861C197.836 57.6748 198.032 55.4616 198.004 54.6631C197.92 52.7021 200.831 35.5146 209.635 39.0446Z" fill="#3949AB"/>
<path d="M208.251 41.8167C210.211 41.8307 211.904 43.1894 212.338 45.0945C215.487 58.766 207.272 65.7838 203.94 65.3496C200.441 64.9013 203.562 48.1902 205.088 44.0439C205.732 42.307 206.992 41.8027 208.251 41.8167Z" fill="#6F74DD"/>
<defs>
<linearGradient id="paint0_linear" x1="201.181" y1="153.12" x2="181.5" y2="69.7268" gradientUnits="userSpaceOnUse">
<stop stop-color="#FEBBBA"/>
<stop offset="1" stop-color="#FF928E"/>
</linearGradient>
<linearGradient id="paint1_linear" x1="198.24" y1="59.2568" x2="162.515" y2="49.9117" gradientUnits="userSpaceOnUse">
<stop stop-color="#FEBBBA"/>
<stop offset="1" stop-color="#FF928E"/>
</linearGradient>
<linearGradient id="paint2_linear" x1="231.822" y1="76.1622" x2="164.455" y2="-3.1594" gradientUnits="userSpaceOnUse">
<stop stop-color="#E1473D"/>
<stop offset="1" stop-color="#E9605A"/>
</linearGradient>
<linearGradient id="paint3_linear" x1="200.285" y1="51.4429" x2="164.559" y2="42.0976" gradientUnits="userSpaceOnUse">
<stop stop-color="#FEBBBA"/>
<stop offset="1" stop-color="#FF928E"/>
</linearGradient>
<linearGradient id="paint4_linear" x1="405.156" y1="-2.5064" x2="65.5107" y2="349.19" gradientUnits="userSpaceOnUse">
<stop stop-color="#E1473D"/>
<stop offset="1" stop-color="#E9605A"/>
</linearGradient>
<linearGradient id="paint5_linear" x1="244.458" y1="187.692" x2="207.419" y2="285.085" gradientUnits="userSpaceOnUse">
<stop stop-color="#FEBBBA"/>
<stop offset="1" stop-color="#FF928E"/>
</linearGradient>
<linearGradient id="paint6_linear" x1="198.566" y1="170.24" x2="161.527" y2="267.633" gradientUnits="userSpaceOnUse">
<stop stop-color="#FEBBBA"/>
<stop offset="1" stop-color="#FF928E"/>
</linearGradient>
</defs>
</svg>
