<svg width="45" height="59" viewBox="0 0 45 59" fill="none" xmlns="http://www.w3.org/2000/svg">
<path opacity="0.5" d="M8.05914 42.4744C8.11535 45.6808 10.4872 50.9387 15.793 50.849C21.11 50.7481 27.3488 45.3332 27.2926 42.1269C27.2364 38.9206 22.8749 36.3981 17.5691 36.499C12.2633 36.5887 8.00294 39.2681 8.05914 42.4744Z" fill="#6F74DD"/>
<path opacity="0.5" d="M24.9277 1.43002C20.5485 4.0601 15.1822 11.5185 19.5299 18.7676C23.902 26.0234 36.3397 30.3205 40.7189 27.6905C45.098 25.0604 45.1061 17.0345 40.743 9.79423C36.3954 2.54505 29.3068 -1.20007 24.9277 1.43002Z" fill="#6F74DD"/>
<path opacity="0.5" d="M0.0880363 55.3869C0.121759 56.934 1.48191 58.1785 3.14558 58.1448C4.80925 58.1112 8.09162 56.4632 8.05789 54.9161C8.02417 53.369 5.96708 51.8107 4.31465 51.8443C2.65098 51.8667 0.0655543 53.8398 0.0880363 55.3869Z" fill="#6F74DD"/>
</svg>
