<svg width="30" height="30" viewBox="0 0 30 30" fill="none" xmlns="http://www.w3.org/2000/svg">
<path d="M21.5 9C22.8782 9 24 7.87816 24 6.5C24 5.12184 22.8782 4 21.5 4C20.1218 4 19 5.12184 19 6.5C19 7.87816 20.1218 9 21.5 9ZM21.5 5.66445C21.9611 5.66445 22.3356 6.03895 22.3356 6.5C22.3356 6.96105 21.9611 7.33555 21.5 7.33555C21.0389 7.33555 20.6644 6.96105 20.6644 6.5C20.6644 6.03895 21.0389 5.66445 21.5 5.66445Z" fill="#343434"/>
<path d="M15.421 21C15.8513 21 16.2006 20.6516 16.2006 20.2223V15.5592C16.2006 14.3584 15.2947 13.1592 14.1361 12.8279L11.7972 12.1606L16.8804 8.78069L19.5468 11.4404C19.6933 11.5867 19.8914 11.6675 20.0987 11.6675H23.2204C23.6507 11.6675 24 11.3191 24 10.8898C24 10.4605 23.6507 10.1121 23.2204 10.1121H20.4215L17.5306 7.22839C17.2671 6.96553 16.8555 6.92509 16.5467 7.1304L10.8274 10.9334C9.9698 11.5042 9.97291 12.173 10.0135 12.4359C10.054 12.6988 10.2567 13.3365 11.2468 13.6196L13.7058 14.3226C14.1938 14.4626 14.6398 15.0506 14.6398 15.5592V20.2223C14.6398 20.6516 14.989 21 15.4194 21H15.421Z" fill="#343434"/>
<path d="M6.5 26C10.0848 26 13 23.0848 13 19.5C13 15.9152 10.0848 13 6.5 13C2.91525 13 0 15.9152 0 19.5C0 23.0848 2.91525 26 6.5 26ZM6.5 14.625C9.18775 14.625 11.375 16.8123 11.375 19.5C11.375 22.1877 9.18775 24.375 6.5 24.375C3.81225 24.375 1.625 22.1877 1.625 19.5C1.625 16.8123 3.81225 14.625 6.5 14.625Z" fill="#343434"/>
<path d="M23.5 26C27.084 26 30 23.084 30 19.5C30 15.916 27.084 13 23.5 13C19.916 13 17 15.916 17 19.5C17 23.084 19.916 26 23.5 26ZM23.5 14.6254C26.1884 14.6254 28.3746 16.8116 28.3746 19.5C28.3746 22.1884 26.1884 24.3746 23.5 24.3746C20.8116 24.3746 18.6254 22.1884 18.6254 19.5C18.6254 16.8116 20.8116 14.6254 23.5 14.6254Z" fill="#343434"/>
</svg>
