<svg width="30" height="30" viewBox="0 0 30 30" fill="none" xmlns="http://www.w3.org/2000/svg">
<path d="M8.25 10.5C8.052 10.5 7.86 10.4205 7.7205 10.2795C7.581 10.1385 7.5 9.9465 7.5 9.75C7.5 9.5535 7.5795 9.3585 7.7205 9.2205C7.86 9.081 8.0535 9 8.25 9C8.4465 9 8.6415 9.0795 8.7795 9.2205C8.919 9.36 9 9.5535 9 9.75C9 9.9465 8.9205 10.1415 8.7795 10.2795C8.64 10.419 8.4465 10.5 8.25 10.5Z" fill="#343434"/>
<path d="M12.75 10.5H11.25C10.836 10.5 10.5 10.164 10.5 9.75C10.5 9.336 10.836 9 11.25 9H12.75C13.164 9 13.5 9.336 13.5 9.75C13.5 10.164 13.164 10.5 12.75 10.5Z" fill="#343434"/>
<path d="M17.25 10.5H15.75C15.336 10.5 15 10.164 15 9.75C15 9.336 15.336 9 15.75 9H17.25C17.664 9 18 9.336 18 9.75C18 10.164 17.664 10.5 17.25 10.5Z" fill="#343434"/>
<path d="M20.25 10.5C20.052 10.5 19.8585 10.4205 19.7205 10.2795C19.5825 10.1385 19.5 9.9465 19.5 9.75C19.5 9.5535 19.5795 9.3585 19.7205 9.2205C19.86 9.081 20.0535 9 20.25 9C20.4465 9 20.64 9.0795 20.7795 9.2205C20.919 9.36 21 9.5535 21 9.75C21 9.9465 20.9205 10.14 20.7795 10.2795C20.64 10.419 20.4465 10.5 20.25 10.5Z" fill="#343434"/>
<path d="M24.258 30.015C23.367 30.015 22.593 29.6805 21.9585 29.019C20.7885 27.7995 20.697 25.809 21.7515 24.4875C22.458 23.601 23.7495 22.992 25.4475 23.553C25.362 22.6995 25.143 21.843 24.6045 21.3915C24.168 21.0255 23.523 20.925 22.6305 21.084C21.2565 21.327 20.193 22.3395 18.96 23.5095C17.238 25.146 15.2865 27.0015 11.9985 27.0015C10.188 27.0015 9.23401 26.0475 8.46751 25.2825C7.75201 24.567 7.18651 24.0015 5.99851 24.0015C4.40701 24.0015 2.05201 26.0085 1.27951 26.7825C0.987009 27.075 0.511509 27.075 0.219009 26.7825C-0.0734912 26.49 -0.0734912 26.0145 0.219009 25.722C0.252009 25.689 1.02301 24.921 2.08951 24.1455C3.58951 23.055 4.90501 22.5015 6.00001 22.5015C7.81051 22.5015 8.76451 23.4555 9.53101 24.2205C10.2465 24.936 10.812 25.5015 12 25.5015C14.688 25.5015 16.335 23.9355 17.928 22.422C19.218 21.1965 20.5515 19.929 22.3695 19.6065C23.7075 19.3695 24.783 19.584 25.569 20.2425C26.838 21.306 27 23.211 27 24.7515C27 25.0215 26.8545 25.2705 26.619 25.404C26.3835 25.5375 26.0955 25.533 25.863 25.395C24.609 24.6435 23.538 24.654 22.923 25.425C22.413 26.0655 22.3125 27.225 23.04 27.9825C23.4 28.3575 23.8005 28.527 24.3015 28.5165C25.9335 28.482 28.02 26.5125 28.686 25.7565C28.959 25.446 29.433 25.416 29.745 25.689C30.057 25.962 30.087 26.436 29.814 26.7465C29.7855 26.7795 29.1075 27.5475 28.125 28.3275C26.745 29.424 25.47 29.991 24.339 30.0165C24.312 30.0165 24.2865 30.018 24.2595 30.018L24.258 30.015Z" fill="#343434"/>
<path d="M11.25 30.015C11.172 30.015 11.094 30.003 11.016 29.9775C10.446 29.79 9.98701 29.5425 9.54301 29.304C8.74201 28.872 8.05051 28.5 6.75001 28.5C5.78251 28.5 4.63801 29.4255 4.27951 29.781C3.98551 30.072 3.51151 30.072 3.21901 29.778C2.92651 29.484 2.92651 29.0115 3.21901 28.719C3.39451 28.5435 4.98901 27 6.75001 27C8.42851 27 9.39901 27.5235 10.2555 27.984C10.659 28.2015 11.04 28.407 11.484 28.5525C11.877 28.6815 12.0915 29.106 11.9625 29.499C11.859 29.8155 11.565 30.015 11.25 30.015Z" fill="#343434"/>
<path d="M26.412 13.518C26.361 13.506 26.1015 13.449 25.6785 13.3635L26.9745 8.442C27.075 8.0595 26.862 7.665 26.487 7.539L21.987 6.039C21.9105 6.0135 21.831 6 21.75 6H20.43C20.028 5.793 18.903 5.2035 17.766 4.5C15.273 2.958 15.021 2.3085 15 2.2335V0.75C15 0.336 14.664 0 14.25 0C13.836 0 13.5 0.336 13.5 0.75V2.2335C13.479 2.3085 13.227 2.958 10.734 4.5C9.5985 5.202 8.4735 5.793 8.07 6H6.75C6.669 6 6.5895 6.0135 6.513 6.039L2.013 7.539C1.638 7.6635 1.4235 8.0595 1.5255 8.442L2.8215 13.3635C2.3985 13.449 2.139 13.5075 2.088 13.518C1.7445 13.5945 1.5 13.899 1.5 14.25C1.5 16.617 1.932 19.2165 2.7855 21.972C2.8845 22.2945 3.1815 22.5 3.5025 22.5C3.576 22.5 3.651 22.4895 3.7245 22.467C4.1205 22.344 4.3425 21.924 4.2195 21.5295C3.4845 19.1535 3.0795 16.9125 3.012 14.8575C4.6635 14.52 9.432 13.6155 13.5015 13.5105V23.25C13.5015 23.664 13.8375 24 14.2515 24C14.6655 24 15.0015 23.664 15.0015 23.25V13.5105C19.0695 13.6155 23.8395 14.52 25.491 14.8575C25.452 16.044 25.299 17.301 25.0365 18.603C24.954 19.0095 25.2165 19.404 25.623 19.4865C26.0295 19.569 26.424 19.3065 26.5065 18.9C26.835 17.2755 27.0015 15.7125 27.0015 14.2515C27.0015 13.9005 26.757 13.596 26.4135 13.5195L26.412 13.518ZM16.8525 5.6985C17.0175 5.802 17.1825 5.9025 17.3445 6H15V4.407C15.4905 4.803 16.1115 5.235 16.8525 5.6985ZM11.6475 5.6985C12.3885 5.235 13.0095 4.803 13.5 4.407V6H11.1555C11.3175 5.9025 11.4825 5.802 11.6475 5.6985ZM3.1545 8.739L6.8715 7.5H21.6285L25.3455 8.739L24.2025 13.077C21.759 12.6285 17.715 12 14.25 12C10.785 12 6.741 12.6285 4.2975 13.077L3.1545 8.739Z" fill="#343434"/>
</svg>
